<svg width="590" height="291" viewBox="0 0 590 291" fill="none" xmlns="http://www.w3.org/2000/svg">
<g clip-path="url(#clip0_31_2)">
<path fill-rule="evenodd" clip-rule="evenodd" d="M3.31883 218.617H16.934C18.7634 218.617 20.2528 220.085 20.2528 221.91V271.947C20.2528 273.762 18.7734 275.24 16.934 275.24H3.31883C1.48947 275.24 0 273.772 0 271.947V221.91C0 220.095 1.47948 218.617 3.31883 218.617ZM34.7877 152.859H45.4439C48.093 152.859 50.2322 154.992 50.2322 157.61V218.617C50.2322 221.245 48.083 223.368 45.4439 223.368H34.7877C32.1386 223.368 29.9994 221.235 29.9994 218.617V157.61C29.9994 154.982 32.1486 152.859 34.7877 152.859ZM33.3082 231.431H46.9234C48.7528 231.431 50.2422 232.899 50.2422 234.724V287.707C50.2422 289.522 48.7628 291 46.9234 291H33.3082C31.4789 291 29.9894 289.532 29.9894 287.707V234.724C29.9894 232.909 31.4689 231.431 33.3082 231.431ZM63.3076 86.4867H76.9228C78.7522 86.4867 80.2416 87.9546 80.2416 89.7795V188.991C80.2416 190.806 78.7621 192.284 76.9228 192.284H63.3076C61.4783 192.284 59.9888 190.816 59.9888 188.991V89.7795C59.9888 87.9645 61.4683 86.4867 63.3076 86.4867ZM63.3076 201.597H76.9228C78.7522 201.597 80.2416 203.065 80.2416 204.89V235.656C80.2416 237.471 78.7621 238.949 76.9228 238.949H63.3076C61.4783 238.949 59.9888 237.481 59.9888 235.656V204.89C59.9888 203.075 61.4683 201.597 63.3076 201.597ZM64.7871 264.022H75.4433C78.0924 264.022 80.2316 266.155 80.2316 268.773V286.229C80.2316 288.858 78.0824 290.98 75.4433 290.98H64.7871C62.138 290.98 59.9988 288.848 59.9988 286.229V268.773C59.9988 266.145 62.148 264.022 64.7871 264.022ZM93.307 39.4348H106.922C108.752 39.4348 110.241 40.9027 110.241 42.7276V112.899C110.241 114.714 108.762 116.192 106.922 116.192H93.307C91.4777 116.192 89.9882 114.724 89.9882 112.899V42.7078C89.9882 40.8927 91.4677 39.4149 93.307 39.4149V39.4348ZM93.307 124.731H106.932C108.762 124.731 110.241 126.199 110.241 128.014V223.13C110.241 224.945 108.762 226.413 106.932 226.413H93.307C91.4777 226.413 89.9982 224.945 89.9982 223.13V128.014C89.9982 126.199 91.4777 124.731 93.307 124.731ZM123.306 24.9542H136.922C138.751 24.9542 140.24 26.4221 140.24 28.247V75.0411C140.24 76.8561 138.761 78.3339 136.922 78.3339H123.306C121.477 78.3339 119.988 76.8661 119.988 75.0411V28.2371C119.988 26.4221 121.467 24.9443 123.306 24.9443V24.9542ZM123.306 86.5561H136.922C138.751 86.5561 140.24 88.024 140.24 89.849V157.174C140.24 158.989 138.761 160.467 136.922 160.467H123.306C121.477 160.467 119.988 158.999 119.988 157.174V89.849C119.988 88.0339 121.467 86.5561 123.306 86.5561ZM123.306 170.157H136.922C138.751 170.157 140.24 171.625 140.24 173.449V233.941C140.24 235.756 138.761 237.233 136.922 237.233H123.306C121.477 237.233 119.988 235.766 119.988 233.941V173.449C119.988 171.634 121.467 170.157 123.306 170.157ZM154.765 13.211H165.422C168.071 13.211 170.21 15.3435 170.21 17.9619V105.817C170.21 108.446 168.061 110.568 165.422 110.568H154.765C152.116 110.568 149.977 108.436 149.977 105.817V17.9619C149.977 15.3335 152.126 13.211 154.765 13.211ZM154.765 120.278H165.422C168.071 120.278 170.21 122.41 170.21 125.029V145.421C170.21 148.049 168.061 150.171 165.422 150.171H154.765C152.116 150.171 149.977 148.039 149.977 145.421V125.029C149.977 122.401 152.126 120.278 154.765 120.278ZM154.765 156.956H165.412C168.061 156.956 170.2 159.088 170.2 161.706V252.498C170.2 255.126 168.051 257.248 165.412 257.248H154.765C152.116 257.248 149.977 255.116 149.977 252.498V161.706C149.977 159.078 152.126 156.956 154.765 156.956ZM184.765 1.47781H195.421C198.07 1.47781 200.209 3.61022 200.209 6.22863V23.6847C200.209 26.313 198.06 28.4355 195.421 28.4355H184.765C182.116 28.4355 179.976 26.3031 179.976 23.6847V6.23855C179.976 3.61022 182.126 1.48773 184.765 1.48773V1.47781ZM184.765 36.6676H195.421C198.07 36.6676 200.209 38.8 200.209 41.4184V176.207C200.209 178.835 198.06 180.958 195.421 180.958H184.765C182.116 180.958 179.976 178.825 179.976 176.207V41.4283C179.976 38.8 182.126 36.6775 184.765 36.6775V36.6676ZM184.765 190.667H195.421C198.07 190.667 200.209 192.8 200.209 195.418V231.937C200.209 234.565 198.06 236.688 195.421 236.688H184.765C182.116 236.688 179.976 234.555 179.976 231.937V195.418C179.976 192.79 182.126 190.667 184.765 190.667ZM184.765 246.408H195.421C198.07 246.408 200.209 248.54 200.209 251.159V274.486C200.209 277.115 198.06 279.237 195.421 279.237H184.765C182.116 279.237 179.976 277.105 179.976 274.486V251.159C179.976 248.53 182.126 246.408 184.765 246.408ZM214.764 239.068H225.42C228.069 239.068 230.209 241.201 230.209 243.819V286.219C230.209 288.848 228.059 290.97 225.42 290.97H214.764C212.115 290.97 209.976 288.838 209.976 286.219V243.819C209.976 241.191 212.125 239.068 214.764 239.068ZM214.764 92.4079H225.42C228.069 92.4079 230.209 94.5403 230.209 97.1587V201.141C230.209 203.769 228.059 205.892 225.42 205.892H214.764C212.115 205.892 209.976 203.759 209.976 201.141V97.1587C209.976 94.5304 212.125 92.4079 214.764 92.4079ZM214.764 0H225.42C228.069 0 230.209 2.13241 230.209 4.75082V77.9372C230.209 80.5655 228.059 82.688 225.42 82.688H214.764C212.115 82.688 209.976 80.5556 209.976 77.9372V4.76074C209.976 2.13241 212.125 0.0099182 214.764 0.0099182V0ZM244.763 261.067H255.42C258.069 261.067 260.208 263.199 260.208 265.818V286.21C260.208 288.838 258.059 290.96 255.42 290.96H244.763C242.114 290.96 239.975 288.828 239.975 286.21V265.818C239.975 263.189 242.124 261.067 244.763 261.067ZM244.763 1.46789H255.42C258.069 1.46789 260.208 3.60031 260.208 6.21871V130.742C260.208 133.37 258.059 135.493 255.42 135.493H244.763C242.114 135.493 239.975 133.36 239.975 130.742V6.22863C239.975 3.60031 242.124 1.47781 244.763 1.47781V1.46789ZM244.763 145.202H255.42C258.069 145.202 260.208 147.335 260.208 149.953V201.141C260.208 203.769 258.059 205.892 255.42 205.892H244.763C242.114 205.892 239.975 203.759 239.975 201.141V149.953C239.975 147.325 242.124 145.202 244.763 145.202ZM274.743 7.33947H285.399C288.048 7.33947 290.187 9.47188 290.187 12.0903V47.1412C290.187 49.7695 288.038 51.892 285.399 51.892H274.743C272.094 51.892 269.955 49.7596 269.955 47.1412V12.1002C269.955 9.47188 272.104 7.34939 274.743 7.34939V7.33947ZM274.743 61.6019H285.399C288.048 61.6019 290.187 63.7344 290.187 66.3528V201.141C290.187 203.769 288.038 205.892 285.399 205.892H274.743C272.094 205.892 269.955 203.759 269.955 201.141V66.3627C269.955 63.7344 272.104 61.6119 274.743 61.6119V61.6019ZM304.732 10.2753H315.388C318.038 10.2753 320.177 12.4077 320.177 15.0261V92.6162C320.177 95.2445 318.028 97.367 315.388 97.367H304.732C302.083 97.367 299.944 95.2346 299.944 92.6162V15.036C299.944 12.4077 302.093 10.2852 304.732 10.2852V10.2753ZM304.732 107.077H315.388C318.038 107.077 320.177 109.209 320.177 111.828V176.227C320.177 178.855 318.028 180.977 315.388 180.977H304.732C302.083 180.977 299.944 178.845 299.944 176.227V111.828C299.944 109.199 302.093 107.077 304.732 107.077ZM304.732 190.667H315.388C318.038 190.667 320.177 192.8 320.177 195.418V224.608C320.177 227.236 318.028 229.358 315.388 229.358H304.732C302.083 229.358 299.944 227.226 299.944 224.608V195.418C299.944 192.79 302.093 190.667 304.732 190.667ZM334.542 14.6789H345.198C347.847 14.6789 349.986 16.8113 349.986 19.4298V139.549C349.986 142.177 347.837 144.3 345.198 144.3H334.542C331.893 144.3 329.753 142.167 329.753 139.549V19.4397C329.753 16.8113 331.903 14.6889 334.542 14.6889V14.6789ZM334.542 154.01H345.198C347.847 154.01 349.986 156.142 349.986 158.761V253.946C349.986 256.574 347.837 258.696 345.198 258.696H334.542C331.893 258.696 329.753 256.564 329.753 253.946V158.761C329.753 156.132 331.903 154.01 334.542 154.01ZM364.331 10.2753H374.987C377.636 10.2753 379.776 12.4077 379.776 15.0261V66.2139C379.776 68.8422 377.626 70.9647 374.987 70.9647H364.331C361.682 70.9647 359.543 68.8323 359.543 66.2139V15.036C359.543 12.4077 361.692 10.2852 364.331 10.2852V10.2753ZM364.331 80.6746H374.987C377.636 80.6746 379.776 82.8071 379.776 85.4255V234.893C379.776 237.521 377.626 239.644 374.987 239.644H364.331C361.682 239.644 359.543 237.511 359.543 234.893V85.4354C359.543 82.8071 361.692 80.6846 364.331 80.6846V80.6746ZM364.331 249.344H374.987C377.636 249.344 379.776 251.476 379.776 254.094V281.816C379.776 284.444 377.626 286.567 374.987 286.567H364.331C361.682 286.567 359.543 284.434 359.543 281.816V254.094C359.543 251.466 361.692 249.344 364.331 249.344ZM394.321 240.546H404.977C407.626 240.546 409.765 242.678 409.765 245.297V286.219C409.765 288.848 407.616 290.97 404.977 290.97H394.321C391.672 290.97 389.532 288.838 389.532 286.219V245.297C389.532 242.669 391.681 240.546 394.321 240.546ZM394.321 115.884H404.977C407.626 115.884 409.765 118.017 409.765 120.635V148.366C409.765 150.995 407.616 153.117 404.977 153.117H394.321C391.672 153.117 389.532 150.985 389.532 148.366V120.635C389.532 118.007 391.681 115.884 394.321 115.884ZM394.321 8.81728H404.977C407.626 8.81728 409.765 10.9497 409.765 13.5681V101.424C409.765 104.052 407.616 106.174 404.977 106.174H394.321C391.672 106.174 389.532 104.042 389.532 101.424V13.5681C389.532 10.9398 391.681 8.81728 394.321 8.81728ZM424.72 16.1567H435.376C438.025 16.1567 440.164 18.2892 440.164 20.9076V132.229C440.164 134.858 438.015 136.98 435.376 136.98H424.72C422.071 136.98 419.932 134.848 419.932 132.229V20.9076C419.932 18.2792 422.081 16.1567 424.72 16.1567ZM424.72 264.022H435.376C438.025 264.022 440.164 266.155 440.164 268.773V286.229C440.164 288.858 438.015 290.98 435.376 290.98H424.72C422.071 290.98 419.932 288.848 419.932 286.229V268.773C419.932 266.145 422.081 264.022 424.72 264.022ZM454.289 24.9641H464.946C467.595 24.9641 469.734 27.0965 469.734 29.7149V57.4462C469.734 60.0745 467.585 62.197 464.946 62.197H454.289C451.64 62.197 449.501 60.0646 449.501 57.4462V29.7149C449.501 27.0866 451.65 24.9641 454.289 24.9641ZM454.289 71.8871H464.946C467.595 71.8871 469.734 74.0195 469.734 76.6379V129.294C469.734 131.922 467.585 134.044 464.946 134.044H454.289C451.64 134.044 449.501 131.912 449.501 129.294V76.6379C449.501 74.0096 451.65 71.8871 454.289 71.8871ZM484.659 32.2837H495.315C497.964 32.2837 500.103 34.4162 500.103 37.0346V54.4906C500.103 57.1189 497.954 59.2414 495.315 59.2414H484.659C482.01 59.2414 479.87 57.109 479.87 54.4906V37.0346C479.87 34.4062 482.02 32.2837 484.659 32.2837ZM484.659 67.4834H495.315C497.964 67.4834 500.103 69.6158 500.103 72.2343V88.2224C500.103 90.8507 497.954 92.9732 495.315 92.9732H484.659C482.01 92.9732 479.87 90.8408 479.87 88.2224V72.2343C479.87 69.6059 482.02 67.4834 484.659 67.4834ZM484.659 101.215H495.315C497.964 101.215 500.103 103.348 500.103 105.966V132.22C500.103 134.848 497.954 136.97 495.315 136.97H484.659C482.01 136.97 479.87 134.838 479.87 132.22V105.966C479.87 103.338 482.02 101.215 484.659 101.215ZM514.648 41.0911H525.304C527.953 41.0911 530.093 43.2235 530.093 45.8419V136.633C530.093 139.261 527.943 141.384 525.304 141.384H514.648C511.999 141.384 509.86 139.252 509.86 136.633V45.832C509.86 43.2037 512.009 41.0812 514.648 41.0812V41.0911ZM544.448 67.4834H555.104C557.753 67.4834 559.892 69.6158 559.892 72.2343V133.687C559.892 136.316 557.743 138.438 555.104 138.438H544.448C541.798 138.438 539.659 136.306 539.659 133.687V72.2343C539.659 69.6059 541.808 67.4834 544.448 67.4834ZM574.017 101.215H584.673C587.322 101.215 589.462 103.348 589.462 105.966V123.422C589.462 126.05 587.312 128.173 584.673 128.173H574.017C571.368 128.173 569.229 126.04 569.229 123.422V105.966C569.229 103.338 571.378 101.215 574.017 101.215Z" fill="url(#paint0_radial_31_2)"/>
<path fill-rule="evenodd" clip-rule="evenodd" d="M3.31883 218.617H16.934C18.7634 218.617 20.2528 220.085 20.2528 221.91V271.947C20.2528 273.762 18.7734 275.24 16.934 275.24H3.31883C1.48947 275.24 0 273.772 0 271.947V221.91C0 220.095 1.47948 218.617 3.31883 218.617ZM34.7877 152.859H45.4439C48.093 152.859 50.2322 154.992 50.2322 157.61V218.617C50.2322 221.245 48.083 223.368 45.4439 223.368H34.7877C32.1386 223.368 29.9994 221.235 29.9994 218.617V157.61C29.9994 154.982 32.1486 152.859 34.7877 152.859ZM33.3082 231.431H46.9234C48.7528 231.431 50.2422 232.899 50.2422 234.724V287.707C50.2422 289.522 48.7628 291 46.9234 291H33.3082C31.4789 291 29.9894 289.532 29.9894 287.707V234.724C29.9894 232.909 31.4689 231.431 33.3082 231.431ZM63.3076 86.4867H76.9228C78.7522 86.4867 80.2416 87.9546 80.2416 89.7795V188.991C80.2416 190.806 78.7621 192.284 76.9228 192.284H63.3076C61.4783 192.284 59.9888 190.816 59.9888 188.991V89.7795C59.9888 87.9645 61.4683 86.4867 63.3076 86.4867ZM63.3076 201.597H76.9228C78.7522 201.597 80.2416 203.065 80.2416 204.89V235.656C80.2416 237.471 78.7621 238.949 76.9228 238.949H63.3076C61.4783 238.949 59.9888 237.481 59.9888 235.656V204.89C59.9888 203.075 61.4683 201.597 63.3076 201.597ZM64.7871 264.022H75.4433C78.0924 264.022 80.2316 266.155 80.2316 268.773V286.229C80.2316 288.858 78.0824 290.98 75.4433 290.98H64.7871C62.138 290.98 59.9988 288.848 59.9988 286.229V268.773C59.9988 266.145 62.148 264.022 64.7871 264.022ZM93.307 39.4348H106.922C108.752 39.4348 110.241 40.9027 110.241 42.7276V112.899C110.241 114.714 108.762 116.192 106.922 116.192H93.307C91.4777 116.192 89.9882 114.724 89.9882 112.899V42.7078C89.9882 40.8927 91.4677 39.4149 93.307 39.4149V39.4348ZM93.307 124.731H106.932C108.762 124.731 110.241 126.199 110.241 128.014V223.13C110.241 224.945 108.762 226.413 106.932 226.413H93.307C91.4777 226.413 89.9982 224.945 89.9982 223.13V128.014C89.9982 126.199 91.4777 124.731 93.307 124.731ZM123.306 24.9542H136.922C138.751 24.9542 140.24 26.4221 140.24 28.247V75.0411C140.24 76.8561 138.761 78.3339 136.922 78.3339H123.306C121.477 78.3339 119.988 76.8661 119.988 75.0411V28.2371C119.988 26.4221 121.467 24.9443 123.306 24.9443V24.9542ZM123.306 86.5561H136.922C138.751 86.5561 140.24 88.024 140.24 89.849V157.174C140.24 158.989 138.761 160.467 136.922 160.467H123.306C121.477 160.467 119.988 158.999 119.988 157.174V89.849C119.988 88.0339 121.467 86.5561 123.306 86.5561ZM123.306 170.157H136.922C138.751 170.157 140.24 171.625 140.24 173.449V233.941C140.24 235.756 138.761 237.233 136.922 237.233H123.306C121.477 237.233 119.988 235.766 119.988 233.941V173.449C119.988 171.634 121.467 170.157 123.306 170.157ZM154.765 13.211H165.422C168.071 13.211 170.21 15.3435 170.21 17.9619V105.817C170.21 108.446 168.061 110.568 165.422 110.568H154.765C152.116 110.568 149.977 108.436 149.977 105.817V17.9619C149.977 15.3335 152.126 13.211 154.765 13.211ZM154.765 120.278H165.422C168.071 120.278 170.21 122.41 170.21 125.029V145.421C170.21 148.049 168.061 150.171 165.422 150.171H154.765C152.116 150.171 149.977 148.039 149.977 145.421V125.029C149.977 122.401 152.126 120.278 154.765 120.278ZM154.765 156.956H165.412C168.061 156.956 170.2 159.088 170.2 161.706V252.498C170.2 255.126 168.051 257.248 165.412 257.248H154.765C152.116 257.248 149.977 255.116 149.977 252.498V161.706C149.977 159.078 152.126 156.956 154.765 156.956ZM184.765 1.47781H195.421C198.07 1.47781 200.209 3.61022 200.209 6.22863V23.6847C200.209 26.313 198.06 28.4355 195.421 28.4355H184.765C182.116 28.4355 179.976 26.3031 179.976 23.6847V6.23855C179.976 3.61022 182.126 1.48773 184.765 1.48773V1.47781ZM184.765 36.6676H195.421C198.07 36.6676 200.209 38.8 200.209 41.4184V176.207C200.209 178.835 198.06 180.958 195.421 180.958H184.765C182.116 180.958 179.976 178.825 179.976 176.207V41.4283C179.976 38.8 182.126 36.6775 184.765 36.6775V36.6676ZM184.765 190.667H195.421C198.07 190.667 200.209 192.8 200.209 195.418V231.937C200.209 234.565 198.06 236.688 195.421 236.688H184.765C182.116 236.688 179.976 234.555 179.976 231.937V195.418C179.976 192.79 182.126 190.667 184.765 190.667ZM184.765 246.408H195.421C198.07 246.408 200.209 248.54 200.209 251.159V274.486C200.209 277.115 198.06 279.237 195.421 279.237H184.765C182.116 279.237 179.976 277.105 179.976 274.486V251.159C179.976 248.53 182.126 246.408 184.765 246.408ZM214.764 239.068H225.42C228.069 239.068 230.209 241.201 230.209 243.819V286.219C230.209 288.848 228.059 290.97 225.42 290.97H214.764C212.115 290.97 209.976 288.838 209.976 286.219V243.819C209.976 241.191 212.125 239.068 214.764 239.068ZM214.764 92.4079H225.42C228.069 92.4079 230.209 94.5403 230.209 97.1587V201.141C230.209 203.769 228.059 205.892 225.42 205.892H214.764C212.115 205.892 209.976 203.759 209.976 201.141V97.1587C209.976 94.5304 212.125 92.4079 214.764 92.4079ZM214.764 0H225.42C228.069 0 230.209 2.13241 230.209 4.75082V77.9372C230.209 80.5655 228.059 82.688 225.42 82.688H214.764C212.115 82.688 209.976 80.5556 209.976 77.9372V4.76074C209.976 2.13241 212.125 0.0099182 214.764 0.0099182V0ZM244.763 261.067H255.42C258.069 261.067 260.208 263.199 260.208 265.818V286.21C260.208 288.838 258.059 290.96 255.42 290.96H244.763C242.114 290.96 239.975 288.828 239.975 286.21V265.818C239.975 263.189 242.124 261.067 244.763 261.067ZM244.763 1.46789H255.42C258.069 1.46789 260.208 3.60031 260.208 6.21871V130.742C260.208 133.37 258.059 135.493 255.42 135.493H244.763C242.114 135.493 239.975 133.36 239.975 130.742V6.22863C239.975 3.60031 242.124 1.47781 244.763 1.47781V1.46789ZM244.763 145.202H255.42C258.069 145.202 260.208 147.335 260.208 149.953V201.141C260.208 203.769 258.059 205.892 255.42 205.892H244.763C242.114 205.892 239.975 203.759 239.975 201.141V149.953C239.975 147.325 242.124 145.202 244.763 145.202ZM274.743 7.33947H285.399C288.048 7.33947 290.187 9.47188 290.187 12.0903V47.1412C290.187 49.7695 288.038 51.892 285.399 51.892H274.743C272.094 51.892 269.955 49.7596 269.955 47.1412V12.1002C269.955 9.47188 272.104 7.34939 274.743 7.34939V7.33947ZM274.743 61.6019H285.399C288.048 61.6019 290.187 63.7344 290.187 66.3528V201.141C290.187 203.769 288.038 205.892 285.399 205.892H274.743C272.094 205.892 269.955 203.759 269.955 201.141V66.3627C269.955 63.7344 272.104 61.6119 274.743 61.6119V61.6019ZM304.732 10.2753H315.388C318.038 10.2753 320.177 12.4077 320.177 15.0261V92.6162C320.177 95.2445 318.028 97.367 315.388 97.367H304.732C302.083 97.367 299.944 95.2346 299.944 92.6162V15.036C299.944 12.4077 302.093 10.2852 304.732 10.2852V10.2753ZM304.732 107.077H315.388C318.038 107.077 320.177 109.209 320.177 111.828V176.227C320.177 178.855 318.028 180.977 315.388 180.977H304.732C302.083 180.977 299.944 178.845 299.944 176.227V111.828C299.944 109.199 302.093 107.077 304.732 107.077ZM304.732 190.667H315.388C318.038 190.667 320.177 192.8 320.177 195.418V224.608C320.177 227.236 318.028 229.358 315.388 229.358H304.732C302.083 229.358 299.944 227.226 299.944 224.608V195.418C299.944 192.79 302.093 190.667 304.732 190.667ZM334.542 14.6789H345.198C347.847 14.6789 349.986 16.8113 349.986 19.4298V139.549C349.986 142.177 347.837 144.3 345.198 144.3H334.542C331.893 144.3 329.753 142.167 329.753 139.549V19.4397C329.753 16.8113 331.903 14.6889 334.542 14.6889V14.6789ZM334.542 154.01H345.198C347.847 154.01 349.986 156.142 349.986 158.761V253.946C349.986 256.574 347.837 258.696 345.198 258.696H334.542C331.893 258.696 329.753 256.564 329.753 253.946V158.761C329.753 156.132 331.903 154.01 334.542 154.01ZM364.331 10.2753H374.987C377.636 10.2753 379.776 12.4077 379.776 15.0261V66.2139C379.776 68.8422 377.626 70.9647 374.987 70.9647H364.331C361.682 70.9647 359.543 68.8323 359.543 66.2139V15.036C359.543 12.4077 361.692 10.2852 364.331 10.2852V10.2753ZM364.331 80.6746H374.987C377.636 80.6746 379.776 82.8071 379.776 85.4255V234.893C379.776 237.521 377.626 239.644 374.987 239.644H364.331C361.682 239.644 359.543 237.511 359.543 234.893V85.4354C359.543 82.8071 361.692 80.6846 364.331 80.6846V80.6746ZM364.331 249.344H374.987C377.636 249.344 379.776 251.476 379.776 254.094V281.816C379.776 284.444 377.626 286.567 374.987 286.567H364.331C361.682 286.567 359.543 284.434 359.543 281.816V254.094C359.543 251.466 361.692 249.344 364.331 249.344ZM394.321 240.546H404.977C407.626 240.546 409.765 242.678 409.765 245.297V286.219C409.765 288.848 407.616 290.97 404.977 290.97H394.321C391.672 290.97 389.532 288.838 389.532 286.219V245.297C389.532 242.669 391.681 240.546 394.321 240.546ZM394.321 115.884H404.977C407.626 115.884 409.765 118.017 409.765 120.635V148.366C409.765 150.995 407.616 153.117 404.977 153.117H394.321C391.672 153.117 389.532 150.985 389.532 148.366V120.635C389.532 118.007 391.681 115.884 394.321 115.884ZM394.321 8.81728H404.977C407.626 8.81728 409.765 10.9497 409.765 13.5681V101.424C409.765 104.052 407.616 106.174 404.977 106.174H394.321C391.672 106.174 389.532 104.042 389.532 101.424V13.5681C389.532 10.9398 391.681 8.81728 394.321 8.81728ZM424.72 16.1567H435.376C438.025 16.1567 440.164 18.2892 440.164 20.9076V132.229C440.164 134.858 438.015 136.98 435.376 136.98H424.72C422.071 136.98 419.932 134.848 419.932 132.229V20.9076C419.932 18.2792 422.081 16.1567 424.72 16.1567ZM424.72 264.022H435.376C438.025 264.022 440.164 266.155 440.164 268.773V286.229C440.164 288.858 438.015 290.98 435.376 290.98H424.72C422.071 290.98 419.932 288.848 419.932 286.229V268.773C419.932 266.145 422.081 264.022 424.72 264.022ZM454.289 24.9641H464.946C467.595 24.9641 469.734 27.0965 469.734 29.7149V57.4462C469.734 60.0745 467.585 62.197 464.946 62.197H454.289C451.64 62.197 449.501 60.0646 449.501 57.4462V29.7149C449.501 27.0866 451.65 24.9641 454.289 24.9641ZM454.289 71.8871H464.946C467.595 71.8871 469.734 74.0195 469.734 76.6379V129.294C469.734 131.922 467.585 134.044 464.946 134.044H454.289C451.64 134.044 449.501 131.912 449.501 129.294V76.6379C449.501 74.0096 451.65 71.8871 454.289 71.8871ZM484.659 32.2837H495.315C497.964 32.2837 500.103 34.4162 500.103 37.0346V54.4906C500.103 57.1189 497.954 59.2414 495.315 59.2414H484.659C482.01 59.2414 479.87 57.109 479.87 54.4906V37.0346C479.87 34.4062 482.02 32.2837 484.659 32.2837ZM484.659 67.4834H495.315C497.964 67.4834 500.103 69.6158 500.103 72.2343V88.2224C500.103 90.8507 497.954 92.9732 495.315 92.9732H484.659C482.01 92.9732 479.87 90.8408 479.87 88.2224V72.2343C479.87 69.6059 482.02 67.4834 484.659 67.4834ZM484.659 101.215H495.315C497.964 101.215 500.103 103.348 500.103 105.966V132.22C500.103 134.848 497.954 136.97 495.315 136.97H484.659C482.01 136.97 479.87 134.838 479.87 132.22V105.966C479.87 103.338 482.02 101.215 484.659 101.215ZM514.648 41.0911H525.304C527.953 41.0911 530.093 43.2235 530.093 45.8419V136.633C530.093 139.261 527.943 141.384 525.304 141.384H514.648C511.999 141.384 509.86 139.252 509.86 136.633V45.832C509.86 43.2037 512.009 41.0812 514.648 41.0812V41.0911ZM544.448 67.4834H555.104C557.753 67.4834 559.892 69.6158 559.892 72.2343V133.687C559.892 136.316 557.743 138.438 555.104 138.438H544.448C541.798 138.438 539.659 136.306 539.659 133.687V72.2343C539.659 69.6059 541.808 67.4834 544.448 67.4834ZM574.017 101.215H584.673C587.322 101.215 589.462 103.348 589.462 105.966V123.422C589.462 126.05 587.312 128.173 584.673 128.173H574.017C571.368 128.173 569.229 126.04 569.229 123.422V105.966C569.229 103.338 571.378 101.215 574.017 101.215Z" fill="url(#paint1_radial_31_2)"/>
<path d="M411.704 213.96C408.397 213.96 405.624 213.16 403.384 211.56C401.144 209.939 399.448 207.752 398.296 205C397.144 202.248 396.568 199.144 396.568 195.688C396.568 192.232 397.133 189.128 398.264 186.376C399.416 183.624 401.101 181.459 403.32 179.88C405.56 178.28 408.312 177.48 411.576 177.48C414.819 177.48 417.613 178.28 419.96 179.88C422.328 181.459 424.152 183.624 425.432 186.376C426.712 189.107 427.352 192.211 427.352 195.688C427.352 199.144 426.712 202.259 425.432 205.032C424.173 207.784 422.371 209.96 420.024 211.56C417.699 213.16 414.925 213.96 411.704 213.96ZM395.448 228.36V178.44H401.4V203.304H402.168V228.36H395.448ZM410.776 207.912C412.909 207.912 414.669 207.368 416.056 206.28C417.464 205.192 418.509 203.731 419.192 201.896C419.896 200.04 420.248 197.971 420.248 195.688C420.248 193.427 419.896 191.379 419.192 189.544C418.509 187.709 417.453 186.248 416.024 185.16C414.595 184.072 412.771 183.528 410.552 183.528C408.461 183.528 406.733 184.04 405.368 185.064C404.024 186.088 403.021 187.517 402.36 189.352C401.72 191.187 401.4 193.299 401.4 195.688C401.4 198.077 401.72 200.189 402.36 202.024C403 203.859 404.013 205.299 405.4 206.344C406.787 207.389 408.579 207.912 410.776 207.912ZM451.345 213.96C447.889 213.96 444.892 213.181 442.353 211.624C439.815 210.067 437.852 207.923 436.465 205.192C435.1 202.44 434.417 199.272 434.417 195.688C434.417 192.083 435.121 188.915 436.529 186.184C437.937 183.432 439.911 181.299 442.449 179.784C444.988 178.248 447.953 177.48 451.345 177.48C454.801 177.48 457.799 178.259 460.337 179.816C462.876 181.373 464.839 183.517 466.225 186.248C467.612 188.979 468.306 192.125 468.306 195.688C468.306 199.293 467.602 202.472 466.194 205.224C464.807 207.955 462.844 210.099 460.306 211.656C457.767 213.192 454.78 213.96 451.345 213.96ZM451.345 207.656C454.652 207.656 457.116 206.547 458.737 204.328C460.38 202.088 461.201 199.208 461.201 195.688C461.201 192.083 460.369 189.203 458.705 187.048C457.063 184.872 454.609 183.784 451.345 183.784C449.105 183.784 447.26 184.296 445.809 185.32C444.359 186.323 443.281 187.72 442.577 189.512C441.873 191.283 441.521 193.341 441.521 195.688C441.521 199.315 442.353 202.216 444.017 204.392C445.681 206.568 448.124 207.656 451.345 207.656ZM477.897 213V165.96H484.585V213H477.897ZM505.875 213.96C503.315 213.96 501.171 213.491 499.443 212.552C497.715 211.592 496.403 210.333 495.507 208.776C494.632 207.197 494.195 205.469 494.195 203.592C494.195 201.843 494.504 200.307 495.123 198.984C495.742 197.661 496.659 196.541 497.875 195.624C499.091 194.685 500.584 193.928 502.355 193.352C503.891 192.904 505.63 192.509 507.571 192.168C509.512 191.827 511.55 191.507 513.683 191.208C515.838 190.909 517.971 190.611 520.083 190.312L517.651 191.656C517.694 188.947 517.118 186.941 515.923 185.64C514.75 184.317 512.723 183.656 509.843 183.656C508.03 183.656 506.366 184.083 504.851 184.936C503.336 185.768 502.28 187.155 501.683 189.096L495.443 187.176C496.296 184.211 497.918 181.853 500.307 180.104C502.718 178.355 505.918 177.48 509.907 177.48C513 177.48 515.688 178.013 517.971 179.08C520.275 180.125 521.96 181.789 523.027 184.072C523.582 185.203 523.923 186.397 524.051 187.656C524.179 188.915 524.243 190.269 524.243 191.72V213H518.323V205.096L519.475 206.12C518.046 208.765 516.222 210.739 514.003 212.04C511.806 213.32 509.096 213.96 505.875 213.96ZM507.059 208.488C508.958 208.488 510.59 208.157 511.955 207.496C513.32 206.813 514.419 205.949 515.251 204.904C516.083 203.859 516.627 202.771 516.883 201.64C517.246 200.616 517.448 199.464 517.491 198.184C517.555 196.904 517.587 195.88 517.587 195.112L519.763 195.912C517.651 196.232 515.731 196.52 514.003 196.776C512.275 197.032 510.707 197.288 509.299 197.544C507.912 197.779 506.675 198.067 505.587 198.408C504.67 198.728 503.848 199.112 503.123 199.56C502.419 200.008 501.854 200.552 501.427 201.192C501.022 201.832 500.819 202.611 500.819 203.528C500.819 204.424 501.043 205.256 501.491 206.024C501.939 206.771 502.622 207.368 503.539 207.816C504.456 208.264 505.63 208.488 507.059 208.488Z" fill="black"/>
<path d="M534.472 213V178.44H540.424V186.824L539.592 185.736C540.019 184.627 540.574 183.613 541.256 182.696C541.939 181.757 542.728 180.989 543.624 180.392C544.499 179.752 545.47 179.261 546.536 178.92C547.624 178.557 548.734 178.344 549.864 178.28C550.995 178.195 552.083 178.248 553.128 178.44V184.712C551.998 184.413 550.739 184.328 549.352 184.456C547.987 184.584 546.728 185.021 545.576 185.768C544.488 186.472 543.624 187.325 542.984 188.328C542.366 189.331 541.918 190.451 541.64 191.688C541.363 192.904 541.224 194.195 541.224 195.56V213H534.472ZM573.109 213.928C568.906 213.928 565.482 213 562.837 211.144C560.191 209.288 558.57 206.675 557.973 203.304L564.821 202.248C565.247 204.04 566.229 205.459 567.765 206.504C569.322 207.528 571.253 208.04 573.557 208.04C575.647 208.04 577.279 207.613 578.453 206.76C579.647 205.907 580.245 204.733 580.245 203.24C580.245 202.365 580.031 201.661 579.605 201.128C579.199 200.573 578.335 200.051 577.013 199.56C575.69 199.069 573.674 198.461 570.965 197.736C567.999 196.968 565.642 196.147 563.893 195.272C562.165 194.376 560.927 193.341 560.181 192.168C559.455 190.973 559.093 189.533 559.093 187.848C559.093 185.757 559.647 183.933 560.757 182.376C561.866 180.819 563.423 179.613 565.429 178.76C567.455 177.907 569.823 177.48 572.533 177.48C575.178 177.48 577.535 177.896 579.605 178.728C581.674 179.56 583.349 180.744 584.629 182.28C585.909 183.795 586.677 185.576 586.933 187.624L580.085 188.872C579.85 187.208 579.071 185.896 577.749 184.936C576.426 183.976 574.709 183.453 572.597 183.368C570.57 183.283 568.927 183.624 567.669 184.392C566.41 185.139 565.781 186.173 565.781 187.496C565.781 188.264 566.015 188.915 566.485 189.448C566.975 189.981 567.914 190.493 569.301 190.984C570.687 191.475 572.735 192.061 575.445 192.744C578.346 193.491 580.65 194.323 582.357 195.24C584.063 196.136 585.279 197.213 586.005 198.472C586.751 199.709 587.125 201.213 587.125 202.984C587.125 206.397 585.877 209.075 583.381 211.016C580.906 212.957 577.482 213.928 573.109 213.928Z" fill="#FF8C00"/>
</g>
<defs>
<radialGradient id="paint0_radial_31_2" cx="0" cy="0" r="1" gradientUnits="userSpaceOnUse" gradientTransform="translate(506 64.0001) rotate(157.262) scale(596.347 1207.99)">
<stop stop-color="#0075FF"/>
<stop offset="1" stop-color="#0075FF" stop-opacity="0"/>
</radialGradient>
<radialGradient id="paint1_radial_31_2" cx="0" cy="0" r="1" gradientUnits="userSpaceOnUse" gradientTransform="translate(506 64.0001) rotate(157.262) scale(596.347 1207.99)">
<stop stop-color="#0075FF"/>
<stop offset="1" stop-color="#0075FF" stop-opacity="0"/>
</radialGradient>
<clipPath id="clip0_31_2">
<rect width="590" height="291" fill="white"/>
</clipPath>
</defs>
</svg>
