<svg width="453" height="453" viewBox="0 0 453 453" fill="none" xmlns="http://www.w3.org/2000/svg">
<path d="M416.41 0H36.2096C16.2116 0 0 16.2116 0 36.2096V416.41C0 436.408 16.2116 452.62 36.2096 452.62H416.41C436.408 452.62 452.62 436.408 452.62 416.41V36.2096C452.62 16.2116 436.408 0 416.41 0Z" fill="#0075FF"/>
<path fill-rule="evenodd" clip-rule="evenodd" d="M19.8348 278.645H29.4773C30.7729 278.645 31.8278 279.696 31.8278 281.002V316.821C31.8278 318.12 30.78 319.178 29.4773 319.178H19.8348C18.5392 319.178 17.4843 318.127 17.4843 316.821V281.002C17.4843 279.703 18.5321 278.645 19.8348 278.645ZM42.1217 231.573H49.6686C51.5447 231.573 53.0598 233.1 53.0598 234.974V278.645C53.0598 280.526 51.5376 282.046 49.6686 282.046H42.1217C40.2455 282.046 38.7305 280.519 38.7305 278.645V234.974C38.7305 233.093 40.2526 231.573 42.1217 231.573ZM41.0738 287.818H50.7164C52.012 287.818 53.0668 288.869 53.0668 290.175V328.102C53.0668 329.402 52.0191 330.46 50.7164 330.46H41.0738C39.7783 330.46 38.7234 329.409 38.7234 328.102V290.175C38.7234 288.876 39.7712 287.818 41.0738 287.818ZM62.32 184.061H71.9625C73.2582 184.061 74.313 185.112 74.313 186.418V257.438C74.313 258.737 73.2652 259.795 71.9625 259.795H62.32C61.0245 259.795 59.9696 258.744 59.9696 257.438V186.418C59.9696 185.119 61.0174 184.061 62.32 184.061ZM62.32 266.462H71.9625C73.2582 266.462 74.313 267.512 74.313 268.819V290.842C74.313 292.142 73.2652 293.2 71.9625 293.2H62.32C61.0245 293.2 59.9696 292.149 59.9696 290.842V268.819C59.9696 267.52 61.0174 266.462 62.32 266.462ZM63.3678 311.148H70.9147C72.7909 311.148 74.3059 312.675 74.3059 314.549V327.044C74.3059 328.926 72.7838 330.445 70.9147 330.445H63.3678C61.4917 330.445 59.9766 328.919 59.9766 327.044V314.549C59.9766 312.668 61.4988 311.148 63.3678 311.148ZM83.5662 150.38H93.2086C94.5046 150.38 95.5591 151.431 95.5591 152.737V202.968C95.5591 204.267 94.5117 205.325 93.2086 205.325H83.5662C82.2706 205.325 81.2157 204.275 81.2157 202.968V152.723C81.2157 151.423 82.2635 150.366 83.5662 150.366V150.38ZM83.5662 211.438H93.2157C94.5117 211.438 95.5591 212.489 95.5591 213.788V281.876C95.5591 283.175 94.5117 284.226 93.2157 284.226H83.5662C82.2706 284.226 81.2228 283.175 81.2228 281.876V213.788C81.2228 212.489 82.2706 211.438 83.5662 211.438ZM104.812 140.014H114.455C115.75 140.014 116.805 141.065 116.805 142.371V175.868C116.805 177.167 115.758 178.225 114.455 178.225H104.812C103.517 178.225 102.462 177.175 102.462 175.868V142.364C102.462 141.065 103.51 140.007 104.812 140.007V140.014ZM104.812 184.111H114.455C115.75 184.111 116.805 185.162 116.805 186.468V234.662C116.805 235.961 115.758 237.019 114.455 237.019H104.812C103.517 237.019 102.462 235.968 102.462 234.662V186.468C102.462 185.169 103.51 184.111 104.812 184.111ZM104.812 243.956H114.455C115.75 243.956 116.805 245.007 116.805 246.312V289.615C116.805 290.914 115.758 291.971 114.455 291.971H104.812C103.517 291.971 102.462 290.921 102.462 289.615V246.312C102.462 245.013 103.51 243.956 104.812 243.956ZM127.092 131.608H134.639C136.515 131.608 138.03 133.134 138.03 135.009V197.899C138.03 199.781 136.508 201.3 134.639 201.3H127.092C125.216 201.3 123.701 199.773 123.701 197.899V135.009C123.701 133.127 125.223 131.608 127.092 131.608ZM127.092 208.25H134.639C136.515 208.25 138.03 209.777 138.03 211.651V226.249C138.03 228.13 136.508 229.649 134.639 229.649H127.092C125.216 229.649 123.701 228.123 123.701 226.249V211.651C123.701 209.77 125.223 208.25 127.092 208.25ZM127.092 234.506H134.632C136.508 234.506 138.023 236.032 138.023 237.906V302.898C138.023 304.78 136.501 306.299 134.632 306.299H127.092C125.216 306.299 123.701 304.773 123.701 302.898V237.906C123.701 236.025 125.223 234.506 127.092 234.506ZM148.338 123.209H155.885C157.761 123.209 159.276 124.735 159.276 126.61V139.105C159.276 140.987 157.754 142.506 155.885 142.506H148.338C146.462 142.506 144.947 140.98 144.947 139.105V126.617C144.947 124.735 146.469 123.216 148.338 123.216V123.209ZM148.338 148.399H155.885C157.761 148.399 159.276 149.925 159.276 151.8V248.286C159.276 250.168 157.754 251.687 155.885 251.687H148.338C146.462 251.687 144.947 250.161 144.947 248.286V151.807C144.947 149.925 146.469 148.406 148.338 148.406V148.399ZM148.338 258.637H155.885C157.761 258.637 159.276 260.164 159.276 262.038V288.18C159.276 290.061 157.754 291.581 155.885 291.581H148.338C146.462 291.581 144.947 290.054 144.947 288.18V262.038C144.947 260.157 146.469 258.637 148.338 258.637ZM148.338 298.539H155.885C157.761 298.539 159.276 300.065 159.276 301.94V318.638C159.276 320.52 157.754 322.039 155.885 322.039H148.338C146.462 322.039 144.947 320.513 144.947 318.638V301.94C144.947 300.058 146.469 298.539 148.338 298.539ZM169.584 293.285H177.131C179.007 293.285 180.523 294.812 180.523 296.686V327.037C180.523 328.919 179 330.438 177.131 330.438H169.584C167.708 330.438 166.193 328.912 166.193 327.037V296.686C166.193 294.804 167.715 293.285 169.584 293.285ZM169.584 188.3H177.131C179.007 188.3 180.523 189.826 180.523 191.701V266.135C180.523 268.016 179 269.536 177.131 269.536H169.584C167.708 269.536 166.193 268.009 166.193 266.135V191.701C166.193 189.819 167.715 188.3 169.584 188.3ZM169.584 122.151H177.131C179.007 122.151 180.523 123.677 180.523 125.552V177.941C180.523 179.823 179 181.342 177.131 181.342H169.584C167.708 181.342 166.193 179.816 166.193 177.941V125.559C166.193 123.677 167.715 122.158 169.584 122.158V122.151ZM190.83 309.032H198.378C200.254 309.032 201.769 310.559 201.769 312.433V327.031C201.769 328.912 200.247 330.431 198.378 330.431H190.83C188.954 330.431 187.439 328.905 187.439 327.031V312.433C187.439 310.551 188.961 309.032 190.83 309.032ZM190.83 123.202H198.378C200.254 123.202 201.769 124.728 201.769 126.602V215.741C201.769 217.622 200.247 219.142 198.378 219.142H190.83C188.954 219.142 187.439 217.615 187.439 215.741V126.61C187.439 124.728 188.961 123.209 190.83 123.209V123.202ZM190.83 226.092H198.378C200.254 226.092 201.769 227.619 201.769 229.493V266.135C201.769 268.016 200.247 269.536 198.378 269.536H190.83C188.954 269.536 187.439 268.009 187.439 266.135V229.493C187.439 227.612 188.961 226.092 190.83 226.092ZM212.063 127.405H219.609C221.486 127.405 223 128.931 223 130.806V155.896C223 157.778 221.478 159.297 219.609 159.297H212.063C210.187 159.297 208.672 157.771 208.672 155.896V130.813C208.672 128.931 210.194 127.412 212.063 127.412V127.405ZM212.063 166.248H219.609C221.486 166.248 223 167.774 223 169.649V266.135C223 268.016 221.478 269.536 219.609 269.536H212.063C210.187 269.536 208.672 268.009 208.672 266.135V169.656C208.672 167.774 210.194 166.255 212.063 166.255V166.248ZM233.301 129.506H240.848C242.725 129.506 244.24 131.033 244.24 132.907V188.449C244.24 190.33 242.718 191.85 240.848 191.85H233.301C231.425 191.85 229.91 190.323 229.91 188.449V132.914C229.91 131.033 231.432 129.513 233.301 129.513V129.506ZM233.301 198.801H240.848C242.725 198.801 244.24 200.327 244.24 202.202V248.301C244.24 250.182 242.718 251.701 240.848 251.701H233.301C231.425 251.701 229.91 250.175 229.91 248.301V202.202C229.91 200.32 231.432 198.801 233.301 198.801ZM233.301 258.637H240.848C242.725 258.637 244.24 260.164 244.24 262.038V282.934C244.24 284.815 242.718 286.334 240.848 286.334H233.301C231.425 286.334 229.91 284.808 229.91 282.934V262.038C229.91 260.157 231.432 258.637 233.301 258.637ZM254.413 132.659H261.96C263.836 132.659 265.351 134.185 265.351 136.059V222.045C265.351 223.927 263.829 225.446 261.96 225.446H254.413C252.537 225.446 251.022 223.919 251.022 222.045V136.067C251.022 134.185 252.544 132.666 254.413 132.666V132.659ZM254.413 232.397H261.96C263.836 232.397 265.351 233.923 265.351 235.798V303.935C265.351 305.816 263.829 307.335 261.96 307.335H254.413C252.537 307.335 251.022 305.809 251.022 303.935V235.798C251.022 233.916 252.544 232.397 254.413 232.397ZM275.511 129.506H283.057C284.933 129.506 286.449 131.033 286.449 132.907V169.549C286.449 171.431 284.926 172.95 283.057 172.95H275.511C273.635 172.95 272.12 171.424 272.12 169.549V132.914C272.12 131.033 273.642 129.513 275.511 129.513V129.506ZM275.511 179.901H283.057C284.933 179.901 286.449 181.427 286.449 183.302V290.296C286.449 292.177 284.926 293.697 283.057 293.697H275.511C273.635 293.697 272.12 292.17 272.12 290.296V183.309C272.12 181.427 273.642 179.908 275.511 179.908V179.901ZM275.511 300.641H283.057C284.933 300.641 286.449 302.167 286.449 304.041V323.885C286.449 325.767 284.926 327.286 283.057 327.286H275.511C273.635 327.286 272.12 325.759 272.12 323.885V304.041C272.12 302.16 273.642 300.641 275.511 300.641ZM296.75 294.343H304.297C306.173 294.343 307.688 295.869 307.688 297.744V327.037C307.688 328.919 306.166 330.438 304.297 330.438H296.75C294.874 330.438 293.358 328.912 293.358 327.037V297.744C293.358 295.862 294.88 294.343 296.75 294.343ZM296.75 205.105H304.297C306.173 205.105 307.688 206.632 307.688 208.506V228.357C307.688 230.239 306.166 231.758 304.297 231.758H296.75C294.874 231.758 293.358 230.232 293.358 228.357V208.506C293.358 206.625 294.88 205.105 296.75 205.105ZM296.75 128.463H304.297C306.173 128.463 307.688 129.989 307.688 131.863V194.754C307.688 196.635 306.166 198.154 304.297 198.154H296.75C294.874 198.154 293.358 196.628 293.358 194.754V131.863C293.358 129.982 294.88 128.463 296.75 128.463ZM318.279 133.716H325.826C327.702 133.716 329.217 135.243 329.217 137.117V216.805C329.217 218.687 327.695 220.206 325.826 220.206H318.279C316.403 220.206 314.888 218.68 314.888 216.805V137.117C314.888 135.236 316.41 133.716 318.279 133.716ZM318.279 311.148H325.826C327.702 311.148 329.217 312.675 329.217 314.549V327.044C329.217 328.926 327.695 330.445 325.826 330.445H318.279C316.403 330.445 314.888 328.919 314.888 327.044V314.549C314.888 312.668 316.41 311.148 318.279 311.148ZM339.221 140.021H346.768C348.644 140.021 350.159 141.548 350.159 143.422V163.273C350.159 165.154 348.637 166.674 346.768 166.674H339.221C337.345 166.674 335.83 165.147 335.83 163.273V143.422C335.83 141.54 337.352 140.021 339.221 140.021ZM339.221 173.61H346.768C348.644 173.61 350.159 175.137 350.159 177.011V214.704C350.159 216.586 348.637 218.105 346.768 218.105H339.221C337.345 218.105 335.83 216.578 335.83 214.704V177.011C335.83 175.13 337.352 173.61 339.221 173.61ZM360.729 145.261H368.276C370.152 145.261 371.667 146.787 371.667 148.662V161.157C371.667 163.039 370.145 164.558 368.276 164.558H360.729C358.853 164.558 357.338 163.032 357.338 161.157V148.662C357.338 146.78 358.86 145.261 360.729 145.261ZM360.729 170.458H368.276C370.152 170.458 371.667 171.984 371.667 173.859V185.304C371.667 187.185 370.145 188.705 368.276 188.705H360.729C358.853 188.705 357.338 187.178 357.338 185.304V173.859C357.338 171.977 358.86 170.458 360.729 170.458ZM360.729 194.604H368.276C370.152 194.604 371.667 196.131 371.667 198.005V216.799C371.667 218.68 370.145 220.199 368.276 220.199H360.729C358.853 220.199 357.338 218.673 357.338 216.799V198.005C357.338 196.124 358.86 194.604 360.729 194.604ZM381.968 151.565H389.515C391.391 151.565 392.906 153.092 392.906 154.966V219.958C392.906 221.839 391.384 223.359 389.515 223.359H381.968C380.092 223.359 378.577 221.833 378.577 219.958V154.959C378.577 153.078 380.099 151.558 381.968 151.558V151.565ZM403.073 170.458H410.62C412.496 170.458 414.011 171.984 414.011 173.859V217.849C414.011 219.731 412.489 221.25 410.62 221.25H403.073C401.196 221.25 399.681 219.724 399.681 217.849V173.859C399.681 171.977 401.203 170.458 403.073 170.458ZM424.014 194.604H431.561C433.437 194.604 434.953 196.131 434.953 198.005V210.501C434.953 212.382 433.43 213.902 431.561 213.902H424.014C422.138 213.902 420.623 212.375 420.623 210.501V198.005C420.623 196.124 422.145 194.604 424.014 194.604Z" fill="url(#paint0_radial_137_228)"/>
<path fill-rule="evenodd" clip-rule="evenodd" d="M19.8348 278.645H29.4773C30.7729 278.645 31.8278 279.696 31.8278 281.002V316.821C31.8278 318.12 30.78 319.178 29.4773 319.178H19.8348C18.5392 319.178 17.4843 318.127 17.4843 316.821V281.002C17.4843 279.703 18.5321 278.645 19.8348 278.645ZM42.1217 231.573H49.6686C51.5447 231.573 53.0598 233.1 53.0598 234.974V278.645C53.0598 280.526 51.5376 282.046 49.6686 282.046H42.1217C40.2455 282.046 38.7305 280.519 38.7305 278.645V234.974C38.7305 233.093 40.2526 231.573 42.1217 231.573ZM41.0738 287.818H50.7164C52.012 287.818 53.0668 288.869 53.0668 290.175V328.102C53.0668 329.402 52.0191 330.46 50.7164 330.46H41.0738C39.7783 330.46 38.7234 329.409 38.7234 328.102V290.175C38.7234 288.876 39.7712 287.818 41.0738 287.818ZM62.32 184.061H71.9625C73.2582 184.061 74.313 185.112 74.313 186.418V257.438C74.313 258.737 73.2652 259.795 71.9625 259.795H62.32C61.0245 259.795 59.9696 258.744 59.9696 257.438V186.418C59.9696 185.119 61.0174 184.061 62.32 184.061ZM62.32 266.462H71.9625C73.2582 266.462 74.313 267.512 74.313 268.819V290.842C74.313 292.142 73.2652 293.2 71.9625 293.2H62.32C61.0245 293.2 59.9696 292.149 59.9696 290.842V268.819C59.9696 267.52 61.0174 266.462 62.32 266.462ZM63.3678 311.148H70.9147C72.7909 311.148 74.3059 312.675 74.3059 314.549V327.044C74.3059 328.926 72.7838 330.445 70.9147 330.445H63.3678C61.4917 330.445 59.9766 328.919 59.9766 327.044V314.549C59.9766 312.668 61.4988 311.148 63.3678 311.148ZM83.5662 150.38H93.2086C94.5046 150.38 95.5591 151.431 95.5591 152.737V202.968C95.5591 204.267 94.5117 205.325 93.2086 205.325H83.5662C82.2706 205.325 81.2157 204.275 81.2157 202.968V152.723C81.2157 151.423 82.2635 150.366 83.5662 150.366V150.38ZM83.5662 211.438H93.2157C94.5117 211.438 95.5591 212.489 95.5591 213.788V281.876C95.5591 283.175 94.5117 284.226 93.2157 284.226H83.5662C82.2706 284.226 81.2228 283.175 81.2228 281.876V213.788C81.2228 212.489 82.2706 211.438 83.5662 211.438ZM104.812 140.014H114.455C115.75 140.014 116.805 141.065 116.805 142.371V175.868C116.805 177.167 115.758 178.225 114.455 178.225H104.812C103.517 178.225 102.462 177.175 102.462 175.868V142.364C102.462 141.065 103.51 140.007 104.812 140.007V140.014ZM104.812 184.111H114.455C115.75 184.111 116.805 185.162 116.805 186.468V234.662C116.805 235.961 115.758 237.019 114.455 237.019H104.812C103.517 237.019 102.462 235.968 102.462 234.662V186.468C102.462 185.169 103.51 184.111 104.812 184.111ZM104.812 243.956H114.455C115.75 243.956 116.805 245.007 116.805 246.312V289.615C116.805 290.914 115.758 291.971 114.455 291.971H104.812C103.517 291.971 102.462 290.921 102.462 289.615V246.312C102.462 245.013 103.51 243.956 104.812 243.956ZM127.092 131.608H134.639C136.515 131.608 138.03 133.134 138.03 135.009V197.899C138.03 199.781 136.508 201.3 134.639 201.3H127.092C125.216 201.3 123.701 199.773 123.701 197.899V135.009C123.701 133.127 125.223 131.608 127.092 131.608ZM127.092 208.25H134.639C136.515 208.25 138.03 209.777 138.03 211.651V226.249C138.03 228.13 136.508 229.649 134.639 229.649H127.092C125.216 229.649 123.701 228.123 123.701 226.249V211.651C123.701 209.77 125.223 208.25 127.092 208.25ZM127.092 234.506H134.632C136.508 234.506 138.023 236.032 138.023 237.906V302.898C138.023 304.78 136.501 306.299 134.632 306.299H127.092C125.216 306.299 123.701 304.773 123.701 302.898V237.906C123.701 236.025 125.223 234.506 127.092 234.506ZM148.338 123.209H155.885C157.761 123.209 159.276 124.735 159.276 126.61V139.105C159.276 140.987 157.754 142.506 155.885 142.506H148.338C146.462 142.506 144.947 140.98 144.947 139.105V126.617C144.947 124.735 146.469 123.216 148.338 123.216V123.209ZM148.338 148.399H155.885C157.761 148.399 159.276 149.925 159.276 151.8V248.286C159.276 250.168 157.754 251.687 155.885 251.687H148.338C146.462 251.687 144.947 250.161 144.947 248.286V151.807C144.947 149.925 146.469 148.406 148.338 148.406V148.399ZM148.338 258.637H155.885C157.761 258.637 159.276 260.164 159.276 262.038V288.18C159.276 290.061 157.754 291.581 155.885 291.581H148.338C146.462 291.581 144.947 290.054 144.947 288.18V262.038C144.947 260.157 146.469 258.637 148.338 258.637ZM148.338 298.539H155.885C157.761 298.539 159.276 300.065 159.276 301.94V318.638C159.276 320.52 157.754 322.039 155.885 322.039H148.338C146.462 322.039 144.947 320.513 144.947 318.638V301.94C144.947 300.058 146.469 298.539 148.338 298.539ZM169.584 293.285H177.131C179.007 293.285 180.523 294.812 180.523 296.686V327.037C180.523 328.919 179 330.438 177.131 330.438H169.584C167.708 330.438 166.193 328.912 166.193 327.037V296.686C166.193 294.804 167.715 293.285 169.584 293.285ZM169.584 188.3H177.131C179.007 188.3 180.523 189.826 180.523 191.701V266.135C180.523 268.016 179 269.536 177.131 269.536H169.584C167.708 269.536 166.193 268.009 166.193 266.135V191.701C166.193 189.819 167.715 188.3 169.584 188.3ZM169.584 122.151H177.131C179.007 122.151 180.523 123.677 180.523 125.552V177.941C180.523 179.823 179 181.342 177.131 181.342H169.584C167.708 181.342 166.193 179.816 166.193 177.941V125.559C166.193 123.677 167.715 122.158 169.584 122.158V122.151ZM190.83 309.032H198.378C200.254 309.032 201.769 310.559 201.769 312.433V327.031C201.769 328.912 200.247 330.431 198.378 330.431H190.83C188.954 330.431 187.439 328.905 187.439 327.031V312.433C187.439 310.551 188.961 309.032 190.83 309.032ZM190.83 123.202H198.378C200.254 123.202 201.769 124.728 201.769 126.602V215.741C201.769 217.622 200.247 219.142 198.378 219.142H190.83C188.954 219.142 187.439 217.615 187.439 215.741V126.61C187.439 124.728 188.961 123.209 190.83 123.209V123.202ZM190.83 226.092H198.378C200.254 226.092 201.769 227.619 201.769 229.493V266.135C201.769 268.016 200.247 269.536 198.378 269.536H190.83C188.954 269.536 187.439 268.009 187.439 266.135V229.493C187.439 227.612 188.961 226.092 190.83 226.092ZM212.063 127.405H219.609C221.486 127.405 223 128.931 223 130.806V155.896C223 157.778 221.478 159.297 219.609 159.297H212.063C210.187 159.297 208.672 157.771 208.672 155.896V130.813C208.672 128.931 210.194 127.412 212.063 127.412V127.405ZM212.063 166.248H219.609C221.486 166.248 223 167.774 223 169.649V266.135C223 268.016 221.478 269.536 219.609 269.536H212.063C210.187 269.536 208.672 268.009 208.672 266.135V169.656C208.672 167.774 210.194 166.255 212.063 166.255V166.248ZM233.301 129.506H240.848C242.725 129.506 244.24 131.033 244.24 132.907V188.449C244.24 190.33 242.718 191.85 240.848 191.85H233.301C231.425 191.85 229.91 190.323 229.91 188.449V132.914C229.91 131.033 231.432 129.513 233.301 129.513V129.506ZM233.301 198.801H240.848C242.725 198.801 244.24 200.327 244.24 202.202V248.301C244.24 250.182 242.718 251.701 240.848 251.701H233.301C231.425 251.701 229.91 250.175 229.91 248.301V202.202C229.91 200.32 231.432 198.801 233.301 198.801ZM233.301 258.637H240.848C242.725 258.637 244.24 260.164 244.24 262.038V282.934C244.24 284.815 242.718 286.334 240.848 286.334H233.301C231.425 286.334 229.91 284.808 229.91 282.934V262.038C229.91 260.157 231.432 258.637 233.301 258.637ZM254.413 132.659H261.96C263.836 132.659 265.351 134.185 265.351 136.059V222.045C265.351 223.927 263.829 225.446 261.96 225.446H254.413C252.537 225.446 251.022 223.919 251.022 222.045V136.067C251.022 134.185 252.544 132.666 254.413 132.666V132.659ZM254.413 232.397H261.96C263.836 232.397 265.351 233.923 265.351 235.798V303.935C265.351 305.816 263.829 307.335 261.96 307.335H254.413C252.537 307.335 251.022 305.809 251.022 303.935V235.798C251.022 233.916 252.544 232.397 254.413 232.397ZM275.511 129.506H283.057C284.933 129.506 286.449 131.033 286.449 132.907V169.549C286.449 171.431 284.926 172.95 283.057 172.95H275.511C273.635 172.95 272.12 171.424 272.12 169.549V132.914C272.12 131.033 273.642 129.513 275.511 129.513V129.506ZM275.511 179.901H283.057C284.933 179.901 286.449 181.427 286.449 183.302V290.296C286.449 292.177 284.926 293.697 283.057 293.697H275.511C273.635 293.697 272.12 292.17 272.12 290.296V183.309C272.12 181.427 273.642 179.908 275.511 179.908V179.901ZM275.511 300.641H283.057C284.933 300.641 286.449 302.167 286.449 304.041V323.885C286.449 325.767 284.926 327.286 283.057 327.286H275.511C273.635 327.286 272.12 325.759 272.12 323.885V304.041C272.12 302.16 273.642 300.641 275.511 300.641ZM296.75 294.343H304.297C306.173 294.343 307.688 295.869 307.688 297.744V327.037C307.688 328.919 306.166 330.438 304.297 330.438H296.75C294.874 330.438 293.358 328.912 293.358 327.037V297.744C293.358 295.862 294.88 294.343 296.75 294.343ZM296.75 205.105H304.297C306.173 205.105 307.688 206.632 307.688 208.506V228.357C307.688 230.239 306.166 231.758 304.297 231.758H296.75C294.874 231.758 293.358 230.232 293.358 228.357V208.506C293.358 206.625 294.88 205.105 296.75 205.105ZM296.75 128.463H304.297C306.173 128.463 307.688 129.989 307.688 131.863V194.754C307.688 196.635 306.166 198.154 304.297 198.154H296.75C294.874 198.154 293.358 196.628 293.358 194.754V131.863C293.358 129.982 294.88 128.463 296.75 128.463ZM318.279 133.716H325.826C327.702 133.716 329.217 135.243 329.217 137.117V216.805C329.217 218.687 327.695 220.206 325.826 220.206H318.279C316.403 220.206 314.888 218.68 314.888 216.805V137.117C314.888 135.236 316.41 133.716 318.279 133.716ZM318.279 311.148H325.826C327.702 311.148 329.217 312.675 329.217 314.549V327.044C329.217 328.926 327.695 330.445 325.826 330.445H318.279C316.403 330.445 314.888 328.919 314.888 327.044V314.549C314.888 312.668 316.41 311.148 318.279 311.148ZM339.221 140.021H346.768C348.644 140.021 350.159 141.548 350.159 143.422V163.273C350.159 165.154 348.637 166.674 346.768 166.674H339.221C337.345 166.674 335.83 165.147 335.83 163.273V143.422C335.83 141.54 337.352 140.021 339.221 140.021ZM339.221 173.61H346.768C348.644 173.61 350.159 175.137 350.159 177.011V214.704C350.159 216.586 348.637 218.105 346.768 218.105H339.221C337.345 218.105 335.83 216.578 335.83 214.704V177.011C335.83 175.13 337.352 173.61 339.221 173.61ZM360.729 145.261H368.276C370.152 145.261 371.667 146.787 371.667 148.662V161.157C371.667 163.039 370.145 164.558 368.276 164.558H360.729C358.853 164.558 357.338 163.032 357.338 161.157V148.662C357.338 146.78 358.86 145.261 360.729 145.261ZM360.729 170.458H368.276C370.152 170.458 371.667 171.984 371.667 173.859V185.304C371.667 187.185 370.145 188.705 368.276 188.705H360.729C358.853 188.705 357.338 187.178 357.338 185.304V173.859C357.338 171.977 358.86 170.458 360.729 170.458ZM360.729 194.604H368.276C370.152 194.604 371.667 196.131 371.667 198.005V216.799C371.667 218.68 370.145 220.199 368.276 220.199H360.729C358.853 220.199 357.338 218.673 357.338 216.799V198.005C357.338 196.124 358.86 194.604 360.729 194.604ZM381.968 151.565H389.515C391.391 151.565 392.906 153.092 392.906 154.966V219.958C392.906 221.839 391.384 223.359 389.515 223.359H381.968C380.092 223.359 378.577 221.833 378.577 219.958V154.959C378.577 153.078 380.099 151.558 381.968 151.558V151.565ZM403.073 170.458H410.62C412.496 170.458 414.011 171.984 414.011 173.859V217.849C414.011 219.731 412.489 221.25 410.62 221.25H403.073C401.196 221.25 399.681 219.724 399.681 217.849V173.859C399.681 171.977 401.203 170.458 403.073 170.458ZM424.014 194.604H431.561C433.437 194.604 434.953 196.131 434.953 198.005V210.501C434.953 212.382 433.43 213.902 431.561 213.902H424.014C422.138 213.902 420.623 212.375 420.623 210.501V198.005C420.623 196.124 422.145 194.604 424.014 194.604Z" fill="url(#paint1_radial_137_228)"/>
<defs>
<radialGradient id="paint0_radial_137_228" cx="0" cy="0" r="1" gradientUnits="userSpaceOnUse" gradientTransform="translate(375.843 167.965) rotate(157.043) scale(423.026 863.331)">
<stop stop-color="#FBFDFF"/>
<stop offset="1" stop-color="white" stop-opacity="0"/>
</radialGradient>
<radialGradient id="paint1_radial_137_228" cx="0" cy="0" r="1" gradientUnits="userSpaceOnUse" gradientTransform="translate(375.843 167.965) rotate(157.043) scale(423.026 863.331)">
<stop stop-color="#FBFDFF"/>
<stop offset="1" stop-color="white" stop-opacity="0"/>
</radialGradient>
</defs>
</svg>
