<svg width="1965" height="453" viewBox="0 0 1965 453" fill="none" xmlns="http://www.w3.org/2000/svg">
<path d="M1934.13 0H30.3043C13.5677 0 0 13.5676 0 30.3042V422.317C0 439.053 13.5677 452.621 30.3043 452.621H1934.13C1950.86 452.621 1964.43 439.053 1964.43 422.317V30.3042C1964.43 13.5676 1950.86 0 1934.13 0Z" fill="#0075FF"/>
<path opacity="0.5" d="M1928.95 0H1453.05C1445.29 0 1439 7.61116 1439 17C1439 26.3888 1445.29 34 1453.05 34H1928.95C1936.71 34 1943 26.3888 1943 17C1943 7.61116 1936.71 0 1928.95 0Z" fill="url(#paint0_linear_134_72)" fill-opacity="0.5"/>
<path opacity="0.1" d="M1935.95 33.9087H1300.26C1289.54 33.9087 1280.85 44.3644 1280.85 57.2622C1280.85 70.1599 1289.54 80.6157 1300.26 80.6157H1935.95C1946.67 80.6157 1955.36 70.1599 1955.36 57.2622C1955.36 44.3644 1946.67 33.9087 1935.95 33.9087Z" fill="url(#paint1_linear_134_72)" fill-opacity="0.5"/>
<path opacity="0.5" d="M1720.01 33.9087H1221.41C1210.69 33.9087 1202 44.3644 1202 57.2622C1202 70.1599 1210.69 80.6157 1221.41 80.6157H1720.01C1730.73 80.6157 1739.42 70.1599 1739.42 57.2622C1739.42 44.3644 1730.73 33.9087 1720.01 33.9087Z" fill="url(#paint2_linear_134_72)" fill-opacity="0.5"/>
<path opacity="0.4" d="M1874.68 80.6167H1554.42C1544.03 80.6167 1535.61 90.7457 1535.61 103.24C1535.61 115.735 1544.03 125.864 1554.42 125.864H1874.68C1885.07 125.864 1893.49 115.735 1893.49 103.24C1893.49 90.7457 1885.07 80.6167 1874.68 80.6167Z" fill="url(#paint3_linear_134_72)"/>
<path opacity="0.8" d="M1813.42 125.863H1493.15C1482.43 125.863 1473.74 136.319 1473.74 149.217C1473.74 162.115 1482.43 172.57 1493.15 172.57H1813.42C1824.14 172.57 1832.83 162.115 1832.83 149.217C1832.83 136.319 1824.14 125.863 1813.42 125.863Z" fill="url(#paint4_linear_134_72)" fill-opacity="0.5"/>
<g clip-path="url(#clip0_134_72)">
<path d="M1226.48 383.816C1210.13 383.816 1196.17 380.132 1184.6 372.762C1173.02 365.392 1164.14 355.195 1157.94 342.172C1151.75 329.149 1148.66 314.207 1148.66 297.348C1148.66 280.185 1151.8 265.143 1158.1 252.221C1164.39 239.298 1173.33 229.253 1184.9 222.085C1196.58 214.817 1210.44 211.182 1226.48 211.182C1242.93 211.182 1256.94 214.867 1268.52 222.237C1280.19 229.506 1289.08 239.652 1295.17 252.675C1301.36 265.597 1304.46 280.488 1304.46 297.348C1304.46 314.51 1301.36 329.603 1295.17 342.626C1288.98 355.548 1280.04 365.644 1268.37 372.913C1256.69 380.182 1242.73 383.816 1226.48 383.816ZM1226.48 362.464C1244.76 362.464 1258.36 356.457 1267.3 344.443C1276.24 332.329 1280.7 316.63 1280.7 297.348C1280.7 277.56 1276.19 261.811 1267.15 250.101C1258.21 238.39 1244.66 232.534 1226.48 232.534C1214.19 232.534 1204.04 235.31 1196.02 240.863C1188.1 246.315 1182.16 253.937 1178.2 263.73C1174.34 273.421 1172.41 284.627 1172.41 297.348C1172.41 317.034 1176.98 332.833 1186.12 344.746C1195.26 356.558 1208.71 362.464 1226.48 362.464Z" fill="white"/>
<mask id="mask0_134_72" style="mask-type:luminance" maskUnits="userSpaceOnUse" x="979" y="149" width="813" height="242">
<path d="M1791 149.783H979.925V390.7H1791V149.783Z" fill="white"/>
<path d="M1226.49 383.817C1210.13 383.817 1196.17 380.132 1184.6 372.762C1173.02 365.392 1164.14 355.196 1157.94 342.172C1151.75 329.149 1148.66 314.208 1148.66 297.348C1148.66 280.186 1151.8 265.143 1158.1 252.221C1164.39 239.299 1173.33 229.253 1184.9 222.086C1196.58 214.817 1210.44 211.183 1226.49 211.183C1242.93 211.183 1256.94 214.867 1268.52 222.237C1280.19 229.506 1289.08 239.652 1295.17 252.675C1301.37 265.597 1304.47 280.489 1304.47 297.348C1304.47 314.51 1301.37 329.603 1295.17 342.627C1288.98 355.549 1280.04 365.645 1268.37 372.913C1256.69 380.182 1242.73 383.817 1226.49 383.817ZM1226.49 362.465C1244.76 362.465 1258.36 356.457 1267.3 344.444C1276.24 332.329 1280.7 316.63 1280.7 297.348C1280.7 277.561 1276.19 261.812 1267.15 250.101C1258.21 238.39 1244.66 232.535 1226.49 232.535C1214.2 232.535 1204.04 235.311 1196.02 240.864C1188.1 246.315 1182.16 253.937 1178.2 263.73C1174.34 273.422 1172.41 284.628 1172.41 297.348C1172.41 317.035 1176.98 332.834 1186.12 344.747C1195.26 356.559 1208.71 362.465 1226.49 362.465Z" fill="black"/>
<path d="M1337.76 379.274C1336.25 379.274 1335.01 378.041 1335.01 376.52V159.42C1335.01 157.899 1336.25 156.667 1337.76 156.667H1354.66C1356.17 156.667 1357.4 157.899 1357.4 159.42V376.52C1357.4 378.041 1356.17 379.274 1354.66 379.274H1337.76Z" fill="black"/>
<path d="M1444.03 383.817C1431.65 383.817 1421.24 381.595 1412.81 377.154C1404.49 372.712 1398.24 366.806 1394.08 359.436C1389.92 352.066 1387.83 344.04 1387.83 335.358C1387.83 326.474 1389.61 318.902 1393.16 312.643C1396.82 306.283 1401.75 301.084 1407.94 297.045C1414.24 293.007 1421.49 289.928 1429.71 287.808C1438.04 285.789 1447.23 284.022 1457.28 282.508C1467.44 280.892 1477.34 279.529 1486.98 278.419C1493.89 277.561 1500.17 276.728 1505.86 275.922C1507.34 275.711 1508.05 277.7 1506.78 278.48C1505.86 279.043 1504.68 278.363 1504.67 277.281C1504.62 262.389 1501.46 251.259 1495.21 243.892C1488.61 236.119 1477.13 232.232 1460.79 232.232C1449.52 232.232 1439.97 234.756 1432.15 239.804C1425.07 244.435 1419.91 251.533 1416.68 261.095C1416.19 262.538 1414.68 263.384 1413.21 262.958L1396.63 258.116C1395.21 257.7 1394.36 256.224 1394.78 254.8C1398.74 241.396 1406.08 230.894 1416.77 223.297C1428.14 215.221 1442.92 211.183 1461.09 211.183C1476.12 211.183 1488.86 214.01 1499.32 219.663C1509.88 225.216 1517.34 233.292 1521.71 243.892C1523.74 248.637 1525.06 253.937 1525.67 259.793C1526.28 265.648 1526.58 271.605 1526.58 277.662V376.52C1526.58 378.041 1525.35 379.274 1523.83 379.274H1509.38C1507.86 379.274 1506.63 378.041 1506.63 376.52V342.031C1506.63 340.227 1508.46 339.003 1510.13 339.699C1511.4 340.231 1512.01 341.689 1511.47 342.954C1505.87 355.863 1497.5 365.799 1486.37 372.762C1474.6 380.132 1460.48 383.817 1444.03 383.817ZM1446.62 364.585C1457.08 364.585 1466.22 362.717 1474.03 358.982C1481.86 355.246 1488.15 350.148 1492.92 343.687C1497.69 337.125 1500.79 329.755 1502.22 321.578C1503.43 316.328 1504.09 310.573 1504.2 304.314C1504.26 299.863 1504.31 296.203 1504.33 293.334C1504.35 291.847 1505.91 290.888 1507.24 291.568C1508.97 292.458 1508.52 295.041 1506.59 295.285C1500.76 296.024 1494.58 296.762 1488.05 297.5C1479.22 298.509 1470.48 299.67 1461.85 300.983C1453.32 302.295 1445.61 303.86 1438.7 305.677C1434.03 306.99 1429.51 308.857 1425.15 311.28C1420.78 313.602 1417.18 316.732 1414.33 320.669C1411.6 324.606 1410.22 329.502 1410.22 335.358C1410.22 340.103 1411.39 344.697 1413.73 349.138C1416.16 353.58 1420.02 357.266 1425.3 360.193C1430.68 363.121 1437.79 364.585 1446.62 364.585Z" fill="black"/>
<path d="M1562.89 379.274C1561.37 379.274 1560.14 378.041 1560.14 376.52V218.479C1560.14 216.958 1561.37 215.726 1562.89 215.726H1577.49C1579.01 215.726 1580.24 216.958 1580.24 218.479V249.636C1580.24 251.411 1578 252.178 1576.92 250.771C1576.53 250.261 1576.42 249.581 1576.66 248.982C1578.44 244.511 1580.7 240.391 1583.44 236.623C1586.39 232.484 1589.59 229.102 1593.04 226.477C1597.3 222.742 1602.28 219.915 1607.97 217.997C1613.65 215.978 1619.39 214.817 1625.18 214.514C1630.13 214.169 1634.72 214.415 1638.93 215.254C1640.16 215.5 1641.01 216.608 1641.01 217.868V233.089C1641.01 234.883 1639.33 236.196 1637.56 235.89C1632.53 235.017 1627.14 234.908 1621.37 235.563C1614.26 236.371 1607.71 239.198 1601.72 244.044C1596.24 248.284 1592.12 253.382 1589.39 259.338C1586.64 265.194 1584.82 271.453 1583.9 278.116C1582.99 284.678 1582.53 291.19 1582.53 297.651V376.52C1582.53 378.041 1581.3 379.274 1579.78 379.274H1562.89Z" fill="black"/>
<path d="M1719.25 383.665C1699.95 383.665 1684.06 379.526 1671.57 371.248C1659.97 363.494 1652.55 352.906 1649.32 339.485C1648.97 337.978 1649.99 336.512 1651.52 336.259L1669.1 333.345C1670.5 333.113 1671.84 333.991 1672.29 335.339C1675 343.512 1680.3 350.131 1688.17 355.196C1696.91 360.647 1707.67 363.373 1720.46 363.373C1732.95 363.373 1742.8 360.799 1750.01 355.65C1757.22 350.4 1760.83 343.283 1760.83 334.298C1760.83 329.25 1759.66 325.162 1757.32 322.032C1755.09 318.801 1750.47 315.823 1743.46 313.097C1736.45 310.371 1726 307.141 1712.09 303.406C1697.16 299.367 1685.48 295.329 1677.06 291.291C1668.63 287.252 1662.64 282.609 1659.08 277.359C1655.53 272.009 1653.76 265.497 1653.76 257.824C1653.76 248.536 1656.4 240.409 1661.67 233.443C1666.95 226.376 1674.26 220.925 1683.61 217.089C1692.95 213.151 1703.81 211.183 1716.2 211.183C1728.59 211.183 1739.65 213.201 1749.4 217.24C1759.25 221.177 1767.17 226.73 1773.16 233.898C1778.61 240.411 1782.04 247.885 1783.45 256.316C1783.7 257.753 1782.7 259.084 1781.27 259.34L1763.73 262.479C1762.22 262.75 1760.79 261.719 1760.43 260.219C1758.48 251.922 1753.83 245.268 1746.51 240.258C1738.49 234.605 1728.28 231.676 1715.89 231.475C1704.21 231.172 1694.72 233.393 1687.41 238.138C1680.1 242.782 1676.45 248.991 1676.45 256.764C1676.45 261.105 1677.77 264.84 1680.41 267.97C1683.04 270.999 1687.82 273.876 1694.72 276.602C1701.73 279.328 1711.68 282.306 1724.57 285.536C1739.7 289.372 1751.59 293.411 1760.21 297.651C1768.85 301.891 1774.98 306.888 1778.64 312.643C1782.3 318.397 1784.13 325.515 1784.13 333.995C1784.13 349.441 1778.34 361.606 1766.76 370.49C1755.29 379.274 1739.45 383.665 1719.25 383.665Z" fill="black"/>
<path d="M989.142 379.275C987.85 379.275 986.799 378.232 986.799 376.946V163.541C986.799 162.254 987.85 161.211 989.142 161.211H1071.48C1073.61 161.211 1076 161.312 1078.64 161.514C1081.38 161.615 1084.12 161.918 1086.86 162.422C1098.34 164.139 1108.03 168.127 1115.95 174.386C1123.97 180.544 1130.02 188.318 1134.08 197.706C1138.24 207.095 1140.33 217.494 1140.33 228.902C1140.33 240.209 1138.24 250.557 1134.08 259.945C1129.91 269.334 1123.82 277.159 1115.8 283.418C1107.88 289.576 1098.23 293.513 1086.86 295.229C1084.12 295.633 1081.38 295.936 1078.64 296.138C1076 296.34 1073.61 296.441 1071.48 296.441H1011.53C1010.24 296.441 1009.19 297.484 1009.19 298.771V376.946C1009.19 378.232 1008.14 379.275 1006.84 379.275H989.142ZM1009.19 272.911C1009.19 274.197 1010.24 275.24 1011.53 275.24H1070.87C1072.7 275.24 1074.83 275.14 1077.27 274.937C1079.71 274.736 1082.09 274.383 1084.42 273.877C1091.94 272.262 1098.08 269.183 1102.86 264.64C1107.73 260.097 1111.33 254.696 1113.67 248.437C1116.1 242.178 1117.33 235.666 1117.33 228.902C1117.33 222.138 1116.1 215.626 1113.67 209.367C1111.33 203.007 1107.73 197.555 1102.86 193.012C1098.08 188.469 1091.94 185.39 1084.42 183.775C1082.09 183.27 1079.71 182.967 1077.27 182.866C1074.83 182.664 1072.7 182.563 1070.87 182.563H1011.53C1010.24 182.563 1009.19 183.607 1009.19 184.893V272.911Z" fill="black"/>
</mask>
<g mask="url(#mask0_134_72)">
<path d="M1226.49 383.817C1210.13 383.817 1196.17 380.132 1184.6 372.762C1173.02 365.392 1164.14 355.196 1157.94 342.172C1151.75 329.149 1148.66 314.208 1148.66 297.348C1148.66 280.186 1151.8 265.143 1158.1 252.221C1164.39 239.299 1173.33 229.253 1184.9 222.086C1196.58 214.817 1210.44 211.183 1226.49 211.183C1242.93 211.183 1256.94 214.867 1268.52 222.237C1280.19 229.506 1289.08 239.652 1295.17 252.675C1301.37 265.597 1304.47 280.489 1304.47 297.348C1304.47 314.51 1301.37 329.603 1295.17 342.627C1288.98 355.549 1280.04 365.645 1268.37 372.913C1256.69 380.182 1242.73 383.817 1226.49 383.817ZM1226.49 362.465C1244.76 362.465 1258.36 356.457 1267.3 344.444C1276.24 332.329 1280.7 316.63 1280.7 297.348C1280.7 277.561 1276.19 261.812 1267.15 250.101C1258.21 238.39 1244.66 232.535 1226.49 232.535C1214.2 232.535 1204.04 235.311 1196.02 240.864C1188.1 246.315 1182.16 253.937 1178.2 263.73C1174.34 273.422 1172.41 284.628 1172.41 297.348C1172.41 317.035 1176.98 332.834 1186.12 344.747C1195.26 356.559 1208.71 362.465 1226.49 362.465Z" stroke="white" stroke-width="0.8" stroke-linejoin="round"/>
</g>
<path d="M1337.76 379.274C1336.25 379.274 1335.01 378.041 1335.01 376.52V159.42C1335.01 157.899 1336.25 156.667 1337.76 156.667H1354.66C1356.17 156.667 1357.4 157.899 1357.4 159.42V376.52C1357.4 378.041 1356.17 379.274 1354.66 379.274H1337.76Z" fill="white"/>
<mask id="mask1_134_72" style="mask-type:luminance" maskUnits="userSpaceOnUse" x="979" y="149" width="813" height="242">
<path d="M1791 149.783H979.925V390.7H1791V149.783Z" fill="white"/>
<path d="M1226.49 383.817C1210.13 383.817 1196.17 380.132 1184.6 372.762C1173.02 365.392 1164.14 355.196 1157.94 342.172C1151.75 329.149 1148.66 314.208 1148.66 297.348C1148.66 280.186 1151.8 265.143 1158.1 252.221C1164.39 239.299 1173.33 229.253 1184.9 222.086C1196.58 214.817 1210.44 211.183 1226.49 211.183C1242.93 211.183 1256.94 214.867 1268.52 222.237C1280.19 229.506 1289.08 239.652 1295.17 252.675C1301.37 265.597 1304.47 280.489 1304.47 297.348C1304.47 314.51 1301.37 329.603 1295.17 342.627C1288.98 355.549 1280.04 365.645 1268.37 372.913C1256.69 380.182 1242.73 383.817 1226.49 383.817ZM1226.49 362.465C1244.76 362.465 1258.36 356.457 1267.3 344.444C1276.24 332.329 1280.7 316.63 1280.7 297.348C1280.7 277.561 1276.19 261.812 1267.15 250.101C1258.21 238.39 1244.66 232.535 1226.49 232.535C1214.2 232.535 1204.04 235.311 1196.02 240.864C1188.1 246.315 1182.16 253.937 1178.2 263.73C1174.34 273.422 1172.41 284.628 1172.41 297.348C1172.41 317.035 1176.98 332.834 1186.12 344.747C1195.26 356.559 1208.71 362.465 1226.49 362.465Z" fill="black"/>
<path d="M1337.76 379.274C1336.25 379.274 1335.01 378.041 1335.01 376.52V159.42C1335.01 157.899 1336.25 156.667 1337.76 156.667H1354.66C1356.17 156.667 1357.4 157.899 1357.4 159.42V376.52C1357.4 378.041 1356.17 379.274 1354.66 379.274H1337.76Z" fill="black"/>
<path d="M1444.03 383.817C1431.65 383.817 1421.24 381.595 1412.81 377.154C1404.49 372.712 1398.24 366.806 1394.08 359.436C1389.92 352.066 1387.83 344.04 1387.83 335.358C1387.83 326.474 1389.61 318.902 1393.16 312.643C1396.82 306.283 1401.75 301.084 1407.94 297.045C1414.24 293.007 1421.49 289.928 1429.71 287.808C1438.04 285.789 1447.23 284.022 1457.28 282.508C1467.44 280.892 1477.34 279.529 1486.98 278.419C1493.89 277.561 1500.17 276.728 1505.86 275.922C1507.34 275.711 1508.05 277.7 1506.78 278.48C1505.86 279.043 1504.68 278.363 1504.67 277.281C1504.62 262.389 1501.46 251.259 1495.21 243.892C1488.61 236.119 1477.13 232.232 1460.79 232.232C1449.52 232.232 1439.97 234.756 1432.15 239.804C1425.07 244.435 1419.91 251.533 1416.68 261.095C1416.19 262.538 1414.68 263.384 1413.21 262.958L1396.63 258.116C1395.21 257.7 1394.36 256.224 1394.78 254.8C1398.74 241.396 1406.08 230.894 1416.77 223.297C1428.14 215.221 1442.92 211.183 1461.09 211.183C1476.12 211.183 1488.86 214.01 1499.32 219.663C1509.88 225.216 1517.34 233.292 1521.71 243.892C1523.74 248.637 1525.06 253.937 1525.67 259.793C1526.28 265.648 1526.58 271.605 1526.58 277.662V376.52C1526.58 378.041 1525.35 379.274 1523.83 379.274H1509.38C1507.86 379.274 1506.63 378.041 1506.63 376.52V342.031C1506.63 340.227 1508.46 339.003 1510.13 339.699C1511.4 340.231 1512.01 341.689 1511.47 342.954C1505.87 355.863 1497.5 365.799 1486.37 372.762C1474.6 380.132 1460.48 383.817 1444.03 383.817ZM1446.62 364.585C1457.08 364.585 1466.22 362.717 1474.03 358.982C1481.86 355.246 1488.15 350.148 1492.92 343.687C1497.69 337.125 1500.79 329.755 1502.22 321.578C1503.43 316.328 1504.09 310.573 1504.2 304.314C1504.26 299.863 1504.31 296.203 1504.33 293.334C1504.35 291.847 1505.91 290.888 1507.24 291.568C1508.97 292.458 1508.52 295.041 1506.59 295.285C1500.76 296.024 1494.58 296.762 1488.05 297.5C1479.22 298.509 1470.48 299.67 1461.85 300.983C1453.32 302.295 1445.61 303.86 1438.7 305.677C1434.03 306.99 1429.51 308.857 1425.15 311.28C1420.78 313.602 1417.18 316.732 1414.33 320.669C1411.6 324.606 1410.22 329.502 1410.22 335.358C1410.22 340.103 1411.39 344.697 1413.73 349.138C1416.16 353.58 1420.02 357.266 1425.3 360.193C1430.68 363.121 1437.79 364.585 1446.62 364.585Z" fill="black"/>
<path d="M1562.89 379.274C1561.37 379.274 1560.14 378.041 1560.14 376.52V218.479C1560.14 216.958 1561.37 215.726 1562.89 215.726H1577.49C1579.01 215.726 1580.24 216.958 1580.24 218.479V249.636C1580.24 251.411 1578 252.178 1576.92 250.771C1576.53 250.261 1576.42 249.581 1576.66 248.982C1578.44 244.511 1580.7 240.391 1583.44 236.623C1586.39 232.484 1589.59 229.102 1593.04 226.477C1597.3 222.742 1602.28 219.915 1607.97 217.997C1613.65 215.978 1619.39 214.817 1625.18 214.514C1630.13 214.169 1634.72 214.415 1638.93 215.254C1640.16 215.5 1641.01 216.608 1641.01 217.868V233.089C1641.01 234.883 1639.33 236.196 1637.56 235.89C1632.53 235.017 1627.14 234.908 1621.37 235.563C1614.26 236.371 1607.71 239.198 1601.72 244.044C1596.24 248.284 1592.12 253.382 1589.39 259.338C1586.64 265.194 1584.82 271.453 1583.9 278.116C1582.99 284.678 1582.53 291.19 1582.53 297.651V376.52C1582.53 378.041 1581.3 379.274 1579.78 379.274H1562.89Z" fill="black"/>
<path d="M1719.25 383.665C1699.95 383.665 1684.06 379.526 1671.57 371.248C1659.97 363.494 1652.55 352.906 1649.32 339.485C1648.97 337.978 1649.99 336.512 1651.52 336.259L1669.1 333.345C1670.5 333.113 1671.84 333.991 1672.29 335.339C1675 343.512 1680.3 350.131 1688.17 355.196C1696.91 360.647 1707.67 363.373 1720.46 363.373C1732.95 363.373 1742.8 360.799 1750.01 355.65C1757.22 350.4 1760.83 343.283 1760.83 334.298C1760.83 329.25 1759.66 325.162 1757.32 322.032C1755.09 318.801 1750.47 315.823 1743.46 313.097C1736.45 310.371 1726 307.141 1712.09 303.406C1697.16 299.367 1685.48 295.329 1677.06 291.291C1668.63 287.252 1662.64 282.609 1659.08 277.359C1655.53 272.009 1653.76 265.497 1653.76 257.824C1653.76 248.536 1656.4 240.409 1661.67 233.443C1666.95 226.376 1674.26 220.925 1683.61 217.089C1692.95 213.151 1703.81 211.183 1716.2 211.183C1728.59 211.183 1739.65 213.201 1749.4 217.24C1759.25 221.177 1767.17 226.73 1773.16 233.898C1778.61 240.411 1782.04 247.885 1783.45 256.316C1783.7 257.753 1782.7 259.084 1781.27 259.34L1763.73 262.479C1762.22 262.75 1760.79 261.719 1760.43 260.219C1758.48 251.922 1753.83 245.268 1746.51 240.258C1738.49 234.605 1728.28 231.676 1715.89 231.475C1704.21 231.172 1694.72 233.393 1687.41 238.138C1680.1 242.782 1676.45 248.991 1676.45 256.764C1676.45 261.105 1677.77 264.84 1680.41 267.97C1683.04 270.999 1687.82 273.876 1694.72 276.602C1701.73 279.328 1711.68 282.306 1724.57 285.536C1739.7 289.372 1751.59 293.411 1760.21 297.651C1768.85 301.891 1774.98 306.888 1778.64 312.643C1782.3 318.397 1784.13 325.515 1784.13 333.995C1784.13 349.441 1778.34 361.606 1766.76 370.49C1755.29 379.274 1739.45 383.665 1719.25 383.665Z" fill="black"/>
<path d="M989.142 379.275C987.85 379.275 986.799 378.232 986.799 376.946V163.541C986.799 162.254 987.85 161.211 989.142 161.211H1071.48C1073.61 161.211 1076 161.312 1078.64 161.514C1081.38 161.615 1084.12 161.918 1086.86 162.422C1098.34 164.139 1108.03 168.127 1115.95 174.386C1123.97 180.544 1130.02 188.318 1134.08 197.706C1138.24 207.095 1140.33 217.494 1140.33 228.902C1140.33 240.209 1138.24 250.557 1134.08 259.945C1129.91 269.334 1123.82 277.159 1115.8 283.418C1107.88 289.576 1098.23 293.513 1086.86 295.229C1084.12 295.633 1081.38 295.936 1078.64 296.138C1076 296.34 1073.61 296.441 1071.48 296.441H1011.53C1010.24 296.441 1009.19 297.484 1009.19 298.771V376.946C1009.19 378.232 1008.14 379.275 1006.84 379.275H989.142ZM1009.19 272.911C1009.19 274.197 1010.24 275.24 1011.53 275.24H1070.87C1072.7 275.24 1074.83 275.14 1077.27 274.937C1079.71 274.736 1082.09 274.383 1084.42 273.877C1091.94 272.262 1098.08 269.183 1102.86 264.64C1107.73 260.097 1111.33 254.696 1113.67 248.437C1116.1 242.178 1117.33 235.666 1117.33 228.902C1117.33 222.138 1116.1 215.626 1113.67 209.367C1111.33 203.007 1107.73 197.555 1102.86 193.012C1098.08 188.469 1091.94 185.39 1084.42 183.775C1082.09 183.27 1079.71 182.967 1077.27 182.866C1074.83 182.664 1072.7 182.563 1070.87 182.563H1011.53C1010.24 182.563 1009.19 183.607 1009.19 184.893V272.911Z" fill="black"/>
</mask>
<g mask="url(#mask1_134_72)">
<path d="M1337.76 379.274C1336.25 379.274 1335.01 378.041 1335.01 376.52V159.42C1335.01 157.899 1336.25 156.667 1337.76 156.667H1354.66C1356.17 156.667 1357.4 157.899 1357.4 159.42V376.52C1357.4 378.041 1356.17 379.274 1354.66 379.274H1337.76Z" stroke="white" stroke-width="0.8" stroke-linejoin="round"/>
</g>
<path d="M1444.03 383.816C1431.65 383.816 1421.24 381.595 1412.81 377.153C1404.49 372.711 1398.24 366.805 1394.07 359.435C1389.92 352.065 1387.83 344.039 1387.83 335.357C1387.83 326.473 1389.61 318.901 1393.16 312.642C1396.82 306.282 1401.75 301.083 1407.94 297.045C1414.23 293.006 1421.49 289.927 1429.71 287.807C1438.04 285.789 1447.23 284.022 1457.28 282.507C1467.44 280.892 1477.34 279.529 1486.98 278.419C1493.89 277.561 1500.17 276.728 1505.86 275.921C1507.34 275.711 1508.05 277.699 1506.78 278.479C1505.86 279.043 1504.68 278.362 1504.67 277.281C1504.61 262.389 1501.46 251.259 1495.2 243.892C1488.61 236.118 1477.13 232.231 1460.79 232.231C1449.52 232.231 1439.97 234.755 1432.15 239.803C1425.07 244.435 1419.91 251.532 1416.68 261.095C1416.19 262.537 1414.67 263.383 1413.21 262.957L1396.63 258.115C1395.21 257.7 1394.36 256.224 1394.78 254.799C1398.74 241.395 1406.08 230.894 1416.77 223.297C1428.14 215.221 1442.92 211.182 1461.09 211.182C1476.12 211.182 1488.86 214.009 1499.32 219.662C1509.88 225.215 1517.34 233.291 1521.71 243.892C1523.74 248.636 1525.06 253.937 1525.67 259.792C1526.28 265.648 1526.58 271.604 1526.58 277.661V376.52C1526.58 378.04 1525.35 379.273 1523.83 379.273H1509.38C1507.86 379.273 1506.63 378.04 1506.63 376.52V342.031C1506.63 340.226 1508.46 339.003 1510.13 339.699C1511.4 340.231 1512.01 341.688 1511.47 342.953C1505.87 355.863 1497.5 365.799 1486.37 372.762C1474.6 380.132 1460.48 383.816 1444.03 383.816ZM1446.62 364.584C1457.08 364.584 1466.22 362.717 1474.03 358.981C1481.86 355.245 1488.15 350.148 1492.92 343.686C1497.69 337.124 1500.79 329.754 1502.22 321.577C1503.43 316.327 1504.09 310.573 1504.2 304.314C1504.26 299.862 1504.31 296.202 1504.33 293.333C1504.35 291.847 1505.91 290.888 1507.24 291.567C1508.97 292.458 1508.52 295.04 1506.59 295.285C1500.76 296.023 1494.58 296.761 1488.05 297.499C1479.22 298.509 1470.48 299.669 1461.85 300.982C1453.32 302.295 1445.61 303.859 1438.7 305.677C1434.03 306.989 1429.51 308.857 1425.15 311.28C1420.78 313.601 1417.18 316.731 1414.33 320.668C1411.6 324.606 1410.22 329.502 1410.22 335.357C1410.22 340.102 1411.39 344.696 1413.73 349.138C1416.16 353.58 1420.02 357.265 1425.3 360.193C1430.68 363.12 1437.79 364.584 1446.62 364.584Z" fill="white"/>
<mask id="mask2_134_72" style="mask-type:luminance" maskUnits="userSpaceOnUse" x="979" y="149" width="813" height="242">
<path d="M1791 149.783H979.925V390.7H1791V149.783Z" fill="white"/>
<path d="M1226.49 383.817C1210.13 383.817 1196.17 380.132 1184.6 372.762C1173.02 365.392 1164.14 355.196 1157.94 342.172C1151.75 329.149 1148.66 314.208 1148.66 297.348C1148.66 280.186 1151.8 265.143 1158.1 252.221C1164.39 239.299 1173.33 229.253 1184.9 222.086C1196.58 214.817 1210.44 211.183 1226.49 211.183C1242.93 211.183 1256.94 214.867 1268.52 222.237C1280.19 229.506 1289.08 239.652 1295.17 252.675C1301.37 265.597 1304.47 280.489 1304.47 297.348C1304.47 314.51 1301.37 329.603 1295.17 342.627C1288.98 355.549 1280.04 365.645 1268.37 372.913C1256.69 380.182 1242.73 383.817 1226.49 383.817ZM1226.49 362.465C1244.76 362.465 1258.36 356.457 1267.3 344.444C1276.24 332.329 1280.7 316.63 1280.7 297.348C1280.7 277.561 1276.19 261.812 1267.15 250.101C1258.21 238.39 1244.66 232.535 1226.49 232.535C1214.2 232.535 1204.04 235.311 1196.02 240.864C1188.1 246.315 1182.16 253.937 1178.2 263.73C1174.34 273.422 1172.41 284.628 1172.41 297.348C1172.41 317.035 1176.98 332.834 1186.12 344.747C1195.26 356.559 1208.71 362.465 1226.49 362.465Z" fill="black"/>
<path d="M1337.76 379.274C1336.25 379.274 1335.01 378.041 1335.01 376.52V159.42C1335.01 157.899 1336.25 156.667 1337.76 156.667H1354.66C1356.17 156.667 1357.4 157.899 1357.4 159.42V376.52C1357.4 378.041 1356.17 379.274 1354.66 379.274H1337.76Z" fill="black"/>
<path d="M1444.03 383.817C1431.65 383.817 1421.24 381.595 1412.81 377.154C1404.49 372.712 1398.24 366.806 1394.08 359.436C1389.92 352.066 1387.83 344.04 1387.83 335.358C1387.83 326.474 1389.61 318.902 1393.16 312.643C1396.82 306.283 1401.75 301.084 1407.94 297.045C1414.24 293.007 1421.49 289.928 1429.71 287.808C1438.04 285.789 1447.23 284.022 1457.28 282.508C1467.44 280.892 1477.34 279.529 1486.98 278.419C1493.89 277.561 1500.17 276.728 1505.86 275.922C1507.34 275.711 1508.05 277.7 1506.78 278.48C1505.86 279.043 1504.68 278.363 1504.67 277.281C1504.62 262.389 1501.46 251.259 1495.21 243.892C1488.61 236.119 1477.13 232.232 1460.79 232.232C1449.52 232.232 1439.97 234.756 1432.15 239.804C1425.07 244.435 1419.91 251.533 1416.68 261.095C1416.19 262.538 1414.68 263.384 1413.21 262.958L1396.63 258.116C1395.21 257.7 1394.36 256.224 1394.78 254.8C1398.74 241.396 1406.08 230.894 1416.77 223.297C1428.14 215.221 1442.92 211.183 1461.09 211.183C1476.12 211.183 1488.86 214.01 1499.32 219.663C1509.88 225.216 1517.34 233.292 1521.71 243.892C1523.74 248.637 1525.06 253.937 1525.67 259.793C1526.28 265.648 1526.58 271.605 1526.58 277.662V376.52C1526.58 378.041 1525.35 379.274 1523.83 379.274H1509.38C1507.86 379.274 1506.63 378.041 1506.63 376.52V342.031C1506.63 340.227 1508.46 339.003 1510.13 339.699C1511.4 340.231 1512.01 341.689 1511.47 342.954C1505.87 355.863 1497.5 365.799 1486.37 372.762C1474.6 380.132 1460.48 383.817 1444.03 383.817ZM1446.62 364.585C1457.08 364.585 1466.22 362.717 1474.03 358.982C1481.86 355.246 1488.15 350.148 1492.92 343.687C1497.69 337.125 1500.79 329.755 1502.22 321.578C1503.43 316.328 1504.09 310.573 1504.2 304.314C1504.26 299.863 1504.31 296.203 1504.33 293.334C1504.35 291.847 1505.91 290.888 1507.24 291.568C1508.97 292.458 1508.52 295.041 1506.59 295.285C1500.76 296.024 1494.58 296.762 1488.05 297.5C1479.22 298.509 1470.48 299.67 1461.85 300.983C1453.32 302.295 1445.61 303.86 1438.7 305.677C1434.03 306.99 1429.51 308.857 1425.15 311.28C1420.78 313.602 1417.18 316.732 1414.33 320.669C1411.6 324.606 1410.22 329.502 1410.22 335.358C1410.22 340.103 1411.39 344.697 1413.73 349.138C1416.16 353.58 1420.02 357.266 1425.3 360.193C1430.68 363.121 1437.79 364.585 1446.62 364.585Z" fill="black"/>
<path d="M1562.89 379.274C1561.37 379.274 1560.14 378.041 1560.14 376.52V218.479C1560.14 216.958 1561.37 215.726 1562.89 215.726H1577.49C1579.01 215.726 1580.24 216.958 1580.24 218.479V249.636C1580.24 251.411 1578 252.178 1576.92 250.771C1576.53 250.261 1576.42 249.581 1576.66 248.982C1578.44 244.511 1580.7 240.391 1583.44 236.623C1586.39 232.484 1589.59 229.102 1593.04 226.477C1597.3 222.742 1602.28 219.915 1607.97 217.997C1613.65 215.978 1619.39 214.817 1625.18 214.514C1630.13 214.169 1634.72 214.415 1638.93 215.254C1640.16 215.5 1641.01 216.608 1641.01 217.868V233.089C1641.01 234.883 1639.33 236.196 1637.56 235.89C1632.53 235.017 1627.14 234.908 1621.37 235.563C1614.26 236.371 1607.71 239.198 1601.72 244.044C1596.24 248.284 1592.12 253.382 1589.39 259.338C1586.64 265.194 1584.82 271.453 1583.9 278.116C1582.99 284.678 1582.53 291.19 1582.53 297.651V376.52C1582.53 378.041 1581.3 379.274 1579.78 379.274H1562.89Z" fill="black"/>
<path d="M1719.25 383.665C1699.95 383.665 1684.06 379.526 1671.57 371.248C1659.97 363.494 1652.55 352.906 1649.32 339.485C1648.97 337.978 1649.99 336.512 1651.52 336.259L1669.1 333.345C1670.5 333.113 1671.84 333.991 1672.29 335.339C1675 343.512 1680.3 350.131 1688.17 355.196C1696.91 360.647 1707.67 363.373 1720.46 363.373C1732.95 363.373 1742.8 360.799 1750.01 355.65C1757.22 350.4 1760.83 343.283 1760.83 334.298C1760.83 329.25 1759.66 325.162 1757.32 322.032C1755.09 318.801 1750.47 315.823 1743.46 313.097C1736.45 310.371 1726 307.141 1712.09 303.406C1697.16 299.367 1685.48 295.329 1677.06 291.291C1668.63 287.252 1662.64 282.609 1659.08 277.359C1655.53 272.009 1653.76 265.497 1653.76 257.824C1653.76 248.536 1656.4 240.409 1661.67 233.443C1666.95 226.376 1674.26 220.925 1683.61 217.089C1692.95 213.151 1703.81 211.183 1716.2 211.183C1728.59 211.183 1739.65 213.201 1749.4 217.24C1759.25 221.177 1767.17 226.73 1773.16 233.898C1778.61 240.411 1782.04 247.885 1783.45 256.316C1783.7 257.753 1782.7 259.084 1781.27 259.34L1763.73 262.479C1762.22 262.75 1760.79 261.719 1760.43 260.219C1758.48 251.922 1753.83 245.268 1746.51 240.258C1738.49 234.605 1728.28 231.676 1715.89 231.475C1704.21 231.172 1694.72 233.393 1687.41 238.138C1680.1 242.782 1676.45 248.991 1676.45 256.764C1676.45 261.105 1677.77 264.84 1680.41 267.97C1683.04 270.999 1687.82 273.876 1694.72 276.602C1701.73 279.328 1711.68 282.306 1724.57 285.536C1739.7 289.372 1751.59 293.411 1760.21 297.651C1768.85 301.891 1774.98 306.888 1778.64 312.643C1782.3 318.397 1784.13 325.515 1784.13 333.995C1784.13 349.441 1778.34 361.606 1766.76 370.49C1755.29 379.274 1739.45 383.665 1719.25 383.665Z" fill="black"/>
<path d="M989.142 379.275C987.85 379.275 986.799 378.232 986.799 376.946V163.541C986.799 162.254 987.85 161.211 989.142 161.211H1071.48C1073.61 161.211 1076 161.312 1078.64 161.514C1081.38 161.615 1084.12 161.918 1086.86 162.422C1098.34 164.139 1108.03 168.127 1115.95 174.386C1123.97 180.544 1130.02 188.318 1134.08 197.706C1138.24 207.095 1140.33 217.494 1140.33 228.902C1140.33 240.209 1138.24 250.557 1134.08 259.945C1129.91 269.334 1123.82 277.159 1115.8 283.418C1107.88 289.576 1098.23 293.513 1086.86 295.229C1084.12 295.633 1081.38 295.936 1078.64 296.138C1076 296.34 1073.61 296.441 1071.48 296.441H1011.53C1010.24 296.441 1009.19 297.484 1009.19 298.771V376.946C1009.19 378.232 1008.14 379.275 1006.84 379.275H989.142ZM1009.19 272.911C1009.19 274.197 1010.24 275.24 1011.53 275.24H1070.87C1072.7 275.24 1074.83 275.14 1077.27 274.937C1079.71 274.736 1082.09 274.383 1084.42 273.877C1091.94 272.262 1098.08 269.183 1102.86 264.64C1107.73 260.097 1111.33 254.696 1113.67 248.437C1116.1 242.178 1117.33 235.666 1117.33 228.902C1117.33 222.138 1116.1 215.626 1113.67 209.367C1111.33 203.007 1107.73 197.555 1102.86 193.012C1098.08 188.469 1091.94 185.39 1084.42 183.775C1082.09 183.27 1079.71 182.967 1077.27 182.866C1074.83 182.664 1072.7 182.563 1070.87 182.563H1011.53C1010.24 182.563 1009.19 183.607 1009.19 184.893V272.911Z" fill="black"/>
</mask>
<g mask="url(#mask2_134_72)">
<path d="M1444.03 383.817C1431.65 383.817 1421.24 381.595 1412.81 377.154C1404.49 372.712 1398.24 366.806 1394.08 359.436C1389.92 352.066 1387.83 344.04 1387.83 335.358C1387.83 326.474 1389.61 318.902 1393.16 312.643C1396.82 306.283 1401.75 301.084 1407.94 297.045C1414.24 293.007 1421.49 289.928 1429.71 287.808C1438.04 285.789 1447.23 284.022 1457.28 282.508C1467.44 280.892 1477.34 279.529 1486.98 278.419C1493.89 277.561 1500.17 276.728 1505.86 275.922C1507.34 275.711 1508.05 277.7 1506.78 278.48C1505.86 279.043 1504.68 278.363 1504.67 277.281C1504.62 262.389 1501.46 251.259 1495.21 243.892C1488.61 236.119 1477.13 232.232 1460.79 232.232C1449.52 232.232 1439.97 234.756 1432.15 239.804C1425.07 244.435 1419.91 251.533 1416.68 261.095C1416.19 262.538 1414.68 263.384 1413.21 262.958L1396.63 258.116C1395.21 257.7 1394.36 256.224 1394.78 254.8C1398.74 241.396 1406.08 230.894 1416.77 223.297C1428.14 215.221 1442.92 211.183 1461.09 211.183C1476.12 211.183 1488.86 214.01 1499.32 219.663C1509.88 225.216 1517.34 233.292 1521.71 243.892C1523.74 248.637 1525.06 253.937 1525.67 259.793C1526.28 265.648 1526.58 271.605 1526.58 277.662V376.52C1526.58 378.041 1525.35 379.274 1523.83 379.274H1509.38C1507.86 379.274 1506.63 378.041 1506.63 376.52V342.031C1506.63 340.227 1508.46 339.003 1510.13 339.699C1511.4 340.231 1512.01 341.689 1511.47 342.954C1505.87 355.863 1497.5 365.8 1486.37 372.762C1474.6 380.132 1460.48 383.817 1444.03 383.817ZM1446.62 364.585C1457.08 364.585 1466.22 362.717 1474.03 358.982C1481.86 355.246 1488.15 350.148 1492.92 343.687C1497.69 337.125 1500.79 329.755 1502.22 321.578C1503.43 316.328 1504.09 310.573 1504.2 304.314C1504.26 299.863 1504.31 296.203 1504.33 293.334C1504.35 291.847 1505.91 290.888 1507.24 291.568C1508.97 292.458 1508.52 295.041 1506.59 295.285C1500.76 296.024 1494.58 296.762 1488.05 297.5C1479.22 298.509 1470.48 299.67 1461.85 300.983C1453.32 302.295 1445.61 303.86 1438.7 305.677C1434.03 306.99 1429.51 308.857 1425.15 311.28C1420.78 313.602 1417.18 316.732 1414.33 320.669C1411.6 324.606 1410.22 329.502 1410.22 335.358C1410.22 340.103 1411.39 344.697 1413.73 349.138C1416.16 353.58 1420.02 357.266 1425.3 360.193C1430.68 363.121 1437.79 364.585 1446.62 364.585Z" stroke="white" stroke-width="0.8" stroke-linejoin="round"/>
</g>
<path d="M1562.89 379.272C1561.37 379.272 1560.14 378.039 1560.14 376.519V218.477C1560.14 216.957 1561.37 215.724 1562.89 215.724H1577.49C1579.01 215.724 1580.24 216.957 1580.24 218.477V249.635C1580.24 251.41 1578 252.176 1576.92 250.77C1576.53 250.259 1576.42 249.58 1576.66 248.981C1578.44 244.509 1580.7 240.39 1583.44 236.622C1586.39 232.483 1589.59 229.1 1593.04 226.476C1597.3 222.74 1602.28 219.914 1607.97 217.996C1613.65 215.977 1619.39 214.815 1625.18 214.513C1630.13 214.167 1634.72 214.413 1638.93 215.253C1640.16 215.498 1641.01 216.607 1641.01 217.867V233.087C1641.01 234.881 1639.33 236.194 1637.56 235.889C1632.53 235.015 1627.14 234.907 1621.37 235.562C1614.26 236.369 1607.71 239.196 1601.72 244.042C1596.24 248.282 1592.12 253.381 1589.39 259.337C1586.64 265.193 1584.82 271.452 1583.9 278.115C1582.99 284.676 1582.53 291.188 1582.53 297.649V376.519C1582.53 378.039 1581.3 379.272 1579.78 379.272H1562.89Z" fill="white"/>
<mask id="mask3_134_72" style="mask-type:luminance" maskUnits="userSpaceOnUse" x="979" y="149" width="813" height="242">
<path d="M1791 149.783H979.925V390.7H1791V149.783Z" fill="white"/>
<path d="M1226.49 383.817C1210.13 383.817 1196.17 380.132 1184.6 372.762C1173.02 365.392 1164.14 355.196 1157.94 342.172C1151.75 329.149 1148.66 314.208 1148.66 297.348C1148.66 280.186 1151.8 265.143 1158.1 252.221C1164.39 239.299 1173.33 229.253 1184.9 222.086C1196.58 214.817 1210.44 211.183 1226.49 211.183C1242.93 211.183 1256.94 214.867 1268.52 222.237C1280.19 229.506 1289.08 239.652 1295.17 252.675C1301.37 265.597 1304.47 280.489 1304.47 297.348C1304.47 314.51 1301.37 329.603 1295.17 342.627C1288.98 355.549 1280.04 365.645 1268.37 372.913C1256.69 380.182 1242.73 383.817 1226.49 383.817ZM1226.49 362.465C1244.76 362.465 1258.36 356.457 1267.3 344.444C1276.24 332.329 1280.7 316.63 1280.7 297.348C1280.7 277.561 1276.19 261.812 1267.15 250.101C1258.21 238.39 1244.66 232.535 1226.49 232.535C1214.2 232.535 1204.04 235.311 1196.02 240.864C1188.1 246.315 1182.16 253.937 1178.2 263.73C1174.34 273.422 1172.41 284.628 1172.41 297.348C1172.41 317.035 1176.98 332.834 1186.12 344.747C1195.26 356.559 1208.71 362.465 1226.49 362.465Z" fill="black"/>
<path d="M1337.76 379.274C1336.25 379.274 1335.01 378.041 1335.01 376.52V159.42C1335.01 157.899 1336.25 156.667 1337.76 156.667H1354.66C1356.17 156.667 1357.4 157.899 1357.4 159.42V376.52C1357.4 378.041 1356.17 379.274 1354.66 379.274H1337.76Z" fill="black"/>
<path d="M1444.03 383.817C1431.65 383.817 1421.24 381.595 1412.81 377.154C1404.49 372.712 1398.24 366.806 1394.08 359.436C1389.92 352.066 1387.83 344.04 1387.83 335.358C1387.83 326.474 1389.61 318.902 1393.16 312.643C1396.82 306.283 1401.75 301.084 1407.94 297.045C1414.24 293.007 1421.49 289.928 1429.71 287.808C1438.04 285.789 1447.23 284.022 1457.28 282.508C1467.44 280.892 1477.34 279.529 1486.98 278.419C1493.89 277.561 1500.17 276.728 1505.86 275.922C1507.34 275.711 1508.05 277.7 1506.78 278.48C1505.86 279.043 1504.68 278.363 1504.67 277.281C1504.62 262.389 1501.46 251.259 1495.21 243.892C1488.61 236.119 1477.13 232.232 1460.79 232.232C1449.52 232.232 1439.97 234.756 1432.15 239.804C1425.07 244.435 1419.91 251.533 1416.68 261.095C1416.19 262.538 1414.68 263.384 1413.21 262.958L1396.63 258.116C1395.21 257.7 1394.36 256.224 1394.78 254.8C1398.74 241.396 1406.08 230.894 1416.77 223.297C1428.14 215.221 1442.92 211.183 1461.09 211.183C1476.12 211.183 1488.86 214.01 1499.32 219.663C1509.88 225.216 1517.34 233.292 1521.71 243.892C1523.74 248.637 1525.06 253.937 1525.67 259.793C1526.28 265.648 1526.58 271.605 1526.58 277.662V376.52C1526.58 378.041 1525.35 379.274 1523.83 379.274H1509.38C1507.86 379.274 1506.63 378.041 1506.63 376.52V342.031C1506.63 340.227 1508.46 339.003 1510.13 339.699C1511.4 340.231 1512.01 341.689 1511.47 342.954C1505.87 355.863 1497.5 365.799 1486.37 372.762C1474.6 380.132 1460.48 383.817 1444.03 383.817ZM1446.62 364.585C1457.08 364.585 1466.22 362.717 1474.03 358.982C1481.86 355.246 1488.15 350.148 1492.92 343.687C1497.69 337.125 1500.79 329.755 1502.22 321.578C1503.43 316.328 1504.09 310.573 1504.2 304.314C1504.26 299.863 1504.31 296.203 1504.33 293.334C1504.35 291.847 1505.91 290.888 1507.24 291.568C1508.97 292.458 1508.52 295.041 1506.59 295.285C1500.76 296.024 1494.58 296.762 1488.05 297.5C1479.22 298.509 1470.48 299.67 1461.85 300.983C1453.32 302.295 1445.61 303.86 1438.7 305.677C1434.03 306.99 1429.51 308.857 1425.15 311.28C1420.78 313.602 1417.18 316.732 1414.33 320.669C1411.6 324.606 1410.22 329.502 1410.22 335.358C1410.22 340.103 1411.39 344.697 1413.73 349.138C1416.16 353.58 1420.02 357.266 1425.3 360.193C1430.68 363.121 1437.79 364.585 1446.62 364.585Z" fill="black"/>
<path d="M1562.89 379.274C1561.37 379.274 1560.14 378.041 1560.14 376.52V218.479C1560.14 216.958 1561.37 215.726 1562.89 215.726H1577.49C1579.01 215.726 1580.24 216.958 1580.24 218.479V249.636C1580.24 251.411 1578 252.178 1576.92 250.771C1576.53 250.261 1576.42 249.581 1576.66 248.982C1578.44 244.511 1580.7 240.391 1583.44 236.623C1586.39 232.484 1589.59 229.102 1593.04 226.477C1597.3 222.742 1602.28 219.915 1607.97 217.997C1613.65 215.978 1619.39 214.817 1625.18 214.514C1630.13 214.169 1634.72 214.415 1638.93 215.254C1640.16 215.5 1641.01 216.608 1641.01 217.868V233.089C1641.01 234.883 1639.33 236.196 1637.56 235.89C1632.53 235.017 1627.14 234.908 1621.37 235.563C1614.26 236.371 1607.71 239.198 1601.72 244.044C1596.24 248.284 1592.12 253.382 1589.39 259.338C1586.64 265.194 1584.82 271.453 1583.9 278.116C1582.99 284.678 1582.53 291.19 1582.53 297.651V376.52C1582.53 378.041 1581.3 379.274 1579.78 379.274H1562.89Z" fill="black"/>
<path d="M1719.25 383.665C1699.95 383.665 1684.06 379.526 1671.57 371.248C1659.97 363.494 1652.55 352.906 1649.32 339.485C1648.97 337.978 1649.99 336.512 1651.52 336.259L1669.1 333.345C1670.5 333.113 1671.84 333.991 1672.29 335.339C1675 343.512 1680.3 350.131 1688.17 355.196C1696.91 360.647 1707.67 363.373 1720.46 363.373C1732.95 363.373 1742.8 360.799 1750.01 355.65C1757.22 350.4 1760.83 343.283 1760.83 334.298C1760.83 329.25 1759.66 325.162 1757.32 322.032C1755.09 318.801 1750.47 315.823 1743.46 313.097C1736.45 310.371 1726 307.141 1712.09 303.406C1697.16 299.367 1685.48 295.329 1677.06 291.291C1668.63 287.252 1662.64 282.609 1659.08 277.359C1655.53 272.009 1653.76 265.497 1653.76 257.824C1653.76 248.536 1656.4 240.409 1661.67 233.443C1666.95 226.376 1674.26 220.925 1683.61 217.089C1692.95 213.151 1703.81 211.183 1716.2 211.183C1728.59 211.183 1739.65 213.201 1749.4 217.24C1759.25 221.177 1767.17 226.73 1773.16 233.898C1778.61 240.411 1782.04 247.885 1783.45 256.316C1783.7 257.753 1782.7 259.084 1781.27 259.34L1763.73 262.479C1762.22 262.75 1760.79 261.719 1760.43 260.219C1758.48 251.922 1753.83 245.268 1746.51 240.258C1738.49 234.605 1728.28 231.676 1715.89 231.475C1704.21 231.172 1694.72 233.393 1687.41 238.138C1680.1 242.782 1676.45 248.991 1676.45 256.764C1676.45 261.105 1677.77 264.84 1680.41 267.97C1683.04 270.999 1687.82 273.876 1694.72 276.602C1701.73 279.328 1711.68 282.306 1724.57 285.536C1739.7 289.372 1751.59 293.411 1760.21 297.651C1768.85 301.891 1774.98 306.888 1778.64 312.643C1782.3 318.397 1784.13 325.515 1784.13 333.995C1784.13 349.441 1778.34 361.606 1766.76 370.49C1755.29 379.274 1739.45 383.665 1719.25 383.665Z" fill="black"/>
<path d="M989.142 379.275C987.85 379.275 986.799 378.232 986.799 376.946V163.541C986.799 162.254 987.85 161.211 989.142 161.211H1071.48C1073.61 161.211 1076 161.312 1078.64 161.514C1081.38 161.615 1084.12 161.918 1086.86 162.422C1098.34 164.139 1108.03 168.127 1115.95 174.386C1123.97 180.544 1130.02 188.318 1134.08 197.706C1138.24 207.095 1140.33 217.494 1140.33 228.902C1140.33 240.209 1138.24 250.557 1134.08 259.945C1129.91 269.334 1123.82 277.159 1115.8 283.418C1107.88 289.576 1098.23 293.513 1086.86 295.229C1084.12 295.633 1081.38 295.936 1078.64 296.138C1076 296.34 1073.61 296.441 1071.48 296.441H1011.53C1010.24 296.441 1009.19 297.484 1009.19 298.771V376.946C1009.19 378.232 1008.14 379.275 1006.84 379.275H989.142ZM1009.19 272.911C1009.19 274.197 1010.24 275.24 1011.53 275.24H1070.87C1072.7 275.24 1074.83 275.14 1077.27 274.937C1079.71 274.736 1082.09 274.383 1084.42 273.877C1091.94 272.262 1098.08 269.183 1102.86 264.64C1107.73 260.097 1111.33 254.696 1113.67 248.437C1116.1 242.178 1117.33 235.666 1117.33 228.902C1117.33 222.138 1116.1 215.626 1113.67 209.367C1111.33 203.007 1107.73 197.555 1102.86 193.012C1098.08 188.469 1091.94 185.39 1084.42 183.775C1082.09 183.27 1079.71 182.967 1077.27 182.866C1074.83 182.664 1072.7 182.563 1070.87 182.563H1011.53C1010.24 182.563 1009.19 183.607 1009.19 184.893V272.911Z" fill="black"/>
</mask>
<g mask="url(#mask3_134_72)">
<path d="M1562.89 379.274C1561.37 379.274 1560.14 378.041 1560.14 376.52V218.479C1560.14 216.958 1561.37 215.726 1562.89 215.726H1577.49C1579.01 215.726 1580.24 216.958 1580.24 218.479V249.636C1580.24 251.411 1578 252.178 1576.92 250.771C1576.53 250.261 1576.42 249.581 1576.66 248.982C1578.44 244.511 1580.7 240.391 1583.44 236.623C1586.39 232.484 1589.59 229.102 1593.04 226.477C1597.3 222.742 1602.28 219.915 1607.97 217.997C1613.65 215.978 1619.39 214.817 1625.18 214.514C1630.13 214.169 1634.72 214.415 1638.93 215.254C1640.16 215.5 1641.01 216.608 1641.01 217.868V233.089C1641.01 234.883 1639.33 236.196 1637.56 235.89C1632.53 235.017 1627.14 234.908 1621.37 235.563C1614.26 236.371 1607.71 239.198 1601.72 244.044C1596.24 248.284 1592.12 253.382 1589.39 259.338C1586.64 265.194 1584.82 271.453 1583.9 278.116C1582.99 284.678 1582.53 291.19 1582.53 297.651V376.52C1582.53 378.041 1581.3 379.274 1579.78 379.274H1562.89Z" stroke="white" stroke-width="0.8" stroke-linejoin="round"/>
</g>
<path d="M1719.25 383.665C1699.95 383.665 1684.06 379.526 1671.57 371.247C1659.97 363.494 1652.55 352.906 1649.32 339.485C1648.97 337.978 1649.99 336.512 1651.52 336.258L1669.1 333.344C1670.5 333.112 1671.84 333.99 1672.29 335.339C1675 343.511 1680.3 350.13 1688.17 355.195C1696.91 360.647 1707.67 363.373 1720.46 363.373C1732.95 363.373 1742.8 360.798 1750.01 355.65C1757.22 350.4 1760.83 343.282 1760.83 334.297C1760.83 329.25 1759.66 325.161 1757.32 322.031C1755.09 318.801 1750.47 315.823 1743.46 313.097C1736.45 310.371 1726 307.141 1712.08 303.405C1697.16 299.367 1685.48 295.329 1677.06 291.29C1668.63 287.252 1662.64 282.608 1659.08 277.358C1655.53 272.008 1653.76 265.496 1653.76 257.824C1653.76 248.536 1656.4 240.409 1661.67 233.443C1666.95 226.376 1674.26 220.924 1683.61 217.088C1692.95 213.151 1703.81 211.182 1716.2 211.182C1728.59 211.182 1739.65 213.201 1749.4 217.239C1759.25 221.177 1767.17 226.73 1773.16 233.897C1778.61 240.411 1782.04 247.884 1783.45 256.315C1783.7 257.753 1782.7 259.084 1781.27 259.34L1763.73 262.479C1762.22 262.75 1760.79 261.719 1760.43 260.219C1758.48 251.921 1753.83 245.267 1746.51 240.257C1738.49 234.604 1728.28 231.676 1715.89 231.474C1704.21 231.171 1694.72 233.393 1687.41 238.137C1680.1 242.781 1676.45 248.99 1676.45 256.764C1676.45 261.105 1677.77 264.84 1680.4 267.97C1683.04 270.998 1687.82 273.876 1694.72 276.601C1701.73 279.327 1711.68 282.306 1724.57 285.536C1739.7 289.372 1751.59 293.41 1760.21 297.651C1768.85 301.891 1774.98 306.888 1778.64 312.642C1782.3 318.397 1784.13 325.514 1784.13 333.995C1784.13 349.441 1778.34 361.606 1766.76 370.49C1755.29 379.273 1739.45 383.665 1719.25 383.665Z" fill="white"/>
<mask id="mask4_134_72" style="mask-type:luminance" maskUnits="userSpaceOnUse" x="979" y="149" width="813" height="242">
<path d="M1791 149.783H979.925V390.7H1791V149.783Z" fill="white"/>
<path d="M1226.49 383.817C1210.13 383.817 1196.17 380.132 1184.6 372.762C1173.02 365.392 1164.14 355.196 1157.94 342.172C1151.75 329.149 1148.66 314.208 1148.66 297.348C1148.66 280.186 1151.8 265.143 1158.1 252.221C1164.39 239.299 1173.33 229.253 1184.9 222.086C1196.58 214.817 1210.44 211.183 1226.49 211.183C1242.93 211.183 1256.94 214.867 1268.52 222.237C1280.19 229.506 1289.08 239.652 1295.17 252.675C1301.37 265.597 1304.47 280.489 1304.47 297.348C1304.47 314.51 1301.37 329.603 1295.17 342.627C1288.98 355.549 1280.04 365.645 1268.37 372.913C1256.69 380.182 1242.73 383.817 1226.49 383.817ZM1226.49 362.465C1244.76 362.465 1258.36 356.457 1267.3 344.444C1276.24 332.329 1280.7 316.63 1280.7 297.348C1280.7 277.561 1276.19 261.812 1267.15 250.101C1258.21 238.39 1244.66 232.535 1226.49 232.535C1214.2 232.535 1204.04 235.311 1196.02 240.864C1188.1 246.315 1182.16 253.937 1178.2 263.73C1174.34 273.422 1172.41 284.628 1172.41 297.348C1172.41 317.035 1176.98 332.834 1186.12 344.747C1195.26 356.559 1208.71 362.465 1226.49 362.465Z" fill="black"/>
<path d="M1337.76 379.274C1336.25 379.274 1335.01 378.041 1335.01 376.52V159.42C1335.01 157.899 1336.25 156.667 1337.76 156.667H1354.66C1356.17 156.667 1357.4 157.899 1357.4 159.42V376.52C1357.4 378.041 1356.17 379.274 1354.66 379.274H1337.76Z" fill="black"/>
<path d="M1444.03 383.817C1431.65 383.817 1421.24 381.595 1412.81 377.154C1404.49 372.712 1398.24 366.806 1394.08 359.436C1389.92 352.066 1387.83 344.04 1387.83 335.358C1387.83 326.474 1389.61 318.902 1393.16 312.643C1396.82 306.283 1401.75 301.084 1407.94 297.045C1414.24 293.007 1421.49 289.928 1429.71 287.808C1438.04 285.789 1447.23 284.022 1457.28 282.508C1467.44 280.892 1477.34 279.529 1486.98 278.419C1493.89 277.561 1500.17 276.728 1505.86 275.922C1507.34 275.711 1508.05 277.7 1506.78 278.48C1505.86 279.043 1504.68 278.363 1504.67 277.281C1504.62 262.389 1501.46 251.259 1495.21 243.892C1488.61 236.119 1477.13 232.232 1460.79 232.232C1449.52 232.232 1439.97 234.756 1432.15 239.804C1425.07 244.435 1419.91 251.533 1416.68 261.095C1416.19 262.538 1414.68 263.384 1413.21 262.958L1396.63 258.116C1395.21 257.7 1394.36 256.224 1394.78 254.8C1398.74 241.396 1406.08 230.894 1416.77 223.297C1428.14 215.221 1442.92 211.183 1461.09 211.183C1476.12 211.183 1488.86 214.01 1499.32 219.663C1509.88 225.216 1517.34 233.292 1521.71 243.892C1523.74 248.637 1525.06 253.937 1525.67 259.793C1526.28 265.648 1526.58 271.605 1526.58 277.662V376.52C1526.58 378.041 1525.35 379.274 1523.83 379.274H1509.38C1507.86 379.274 1506.63 378.041 1506.63 376.52V342.031C1506.63 340.227 1508.46 339.003 1510.13 339.699C1511.4 340.231 1512.01 341.689 1511.47 342.954C1505.87 355.863 1497.5 365.799 1486.37 372.762C1474.6 380.132 1460.48 383.817 1444.03 383.817ZM1446.62 364.585C1457.08 364.585 1466.22 362.717 1474.03 358.982C1481.86 355.246 1488.15 350.148 1492.92 343.687C1497.69 337.125 1500.79 329.755 1502.22 321.578C1503.43 316.328 1504.09 310.573 1504.2 304.314C1504.26 299.863 1504.31 296.203 1504.33 293.334C1504.35 291.847 1505.91 290.888 1507.24 291.568C1508.97 292.458 1508.52 295.041 1506.59 295.285C1500.76 296.024 1494.58 296.762 1488.05 297.5C1479.22 298.509 1470.48 299.67 1461.85 300.983C1453.32 302.295 1445.61 303.86 1438.7 305.677C1434.03 306.99 1429.51 308.857 1425.15 311.28C1420.78 313.602 1417.18 316.732 1414.33 320.669C1411.6 324.606 1410.22 329.502 1410.22 335.358C1410.22 340.103 1411.39 344.697 1413.73 349.138C1416.16 353.58 1420.02 357.266 1425.3 360.193C1430.68 363.121 1437.79 364.585 1446.62 364.585Z" fill="black"/>
<path d="M1562.89 379.274C1561.37 379.274 1560.14 378.041 1560.14 376.52V218.479C1560.14 216.958 1561.37 215.726 1562.89 215.726H1577.49C1579.01 215.726 1580.24 216.958 1580.24 218.479V249.636C1580.24 251.411 1578 252.178 1576.92 250.771C1576.53 250.261 1576.42 249.581 1576.66 248.982C1578.44 244.511 1580.7 240.391 1583.44 236.623C1586.39 232.484 1589.59 229.102 1593.04 226.477C1597.3 222.742 1602.28 219.915 1607.97 217.997C1613.65 215.978 1619.39 214.817 1625.18 214.514C1630.13 214.169 1634.72 214.415 1638.93 215.254C1640.16 215.5 1641.01 216.608 1641.01 217.868V233.089C1641.01 234.883 1639.33 236.196 1637.56 235.89C1632.53 235.017 1627.14 234.908 1621.37 235.563C1614.26 236.371 1607.71 239.198 1601.72 244.044C1596.24 248.284 1592.12 253.382 1589.39 259.338C1586.64 265.194 1584.82 271.453 1583.9 278.116C1582.99 284.678 1582.53 291.19 1582.53 297.651V376.52C1582.53 378.041 1581.3 379.274 1579.78 379.274H1562.89Z" fill="black"/>
<path d="M1719.25 383.665C1699.95 383.665 1684.06 379.526 1671.57 371.248C1659.97 363.494 1652.55 352.906 1649.32 339.485C1648.97 337.978 1649.99 336.512 1651.52 336.259L1669.1 333.345C1670.5 333.113 1671.84 333.991 1672.29 335.339C1675 343.512 1680.3 350.131 1688.17 355.196C1696.91 360.647 1707.67 363.373 1720.46 363.373C1732.95 363.373 1742.8 360.799 1750.01 355.65C1757.22 350.4 1760.83 343.283 1760.83 334.298C1760.83 329.25 1759.66 325.162 1757.32 322.032C1755.09 318.801 1750.47 315.823 1743.46 313.097C1736.45 310.371 1726 307.141 1712.09 303.406C1697.16 299.367 1685.48 295.329 1677.06 291.291C1668.63 287.252 1662.64 282.609 1659.08 277.359C1655.53 272.009 1653.76 265.497 1653.76 257.824C1653.76 248.536 1656.4 240.409 1661.67 233.443C1666.95 226.376 1674.26 220.925 1683.61 217.089C1692.95 213.151 1703.81 211.183 1716.2 211.183C1728.59 211.183 1739.65 213.201 1749.4 217.24C1759.25 221.177 1767.17 226.73 1773.16 233.898C1778.61 240.411 1782.04 247.885 1783.45 256.316C1783.7 257.753 1782.7 259.084 1781.27 259.34L1763.73 262.479C1762.22 262.75 1760.79 261.719 1760.43 260.219C1758.48 251.922 1753.83 245.268 1746.51 240.258C1738.49 234.605 1728.28 231.676 1715.89 231.475C1704.21 231.172 1694.72 233.393 1687.41 238.138C1680.1 242.782 1676.45 248.991 1676.45 256.764C1676.45 261.105 1677.77 264.84 1680.41 267.97C1683.04 270.999 1687.82 273.876 1694.72 276.602C1701.73 279.328 1711.68 282.306 1724.57 285.536C1739.7 289.372 1751.59 293.411 1760.21 297.651C1768.85 301.891 1774.98 306.888 1778.64 312.643C1782.3 318.397 1784.13 325.515 1784.13 333.995C1784.13 349.441 1778.34 361.606 1766.76 370.49C1755.29 379.274 1739.45 383.665 1719.25 383.665Z" fill="black"/>
<path d="M989.142 379.275C987.85 379.275 986.799 378.232 986.799 376.946V163.541C986.799 162.254 987.85 161.211 989.142 161.211H1071.48C1073.61 161.211 1076 161.312 1078.64 161.514C1081.38 161.615 1084.12 161.918 1086.86 162.422C1098.34 164.139 1108.03 168.127 1115.95 174.386C1123.97 180.544 1130.02 188.318 1134.08 197.706C1138.24 207.095 1140.33 217.494 1140.33 228.902C1140.33 240.209 1138.24 250.557 1134.08 259.945C1129.91 269.334 1123.82 277.159 1115.8 283.418C1107.88 289.576 1098.23 293.513 1086.86 295.229C1084.12 295.633 1081.38 295.936 1078.64 296.138C1076 296.34 1073.61 296.441 1071.48 296.441H1011.53C1010.24 296.441 1009.19 297.484 1009.19 298.771V376.946C1009.19 378.232 1008.14 379.275 1006.84 379.275H989.142ZM1009.19 272.911C1009.19 274.197 1010.24 275.24 1011.53 275.24H1070.87C1072.7 275.24 1074.83 275.14 1077.27 274.937C1079.71 274.736 1082.09 274.383 1084.42 273.877C1091.94 272.262 1098.08 269.183 1102.86 264.64C1107.73 260.097 1111.33 254.696 1113.67 248.437C1116.1 242.178 1117.33 235.666 1117.33 228.902C1117.33 222.138 1116.1 215.626 1113.67 209.367C1111.33 203.007 1107.73 197.555 1102.86 193.012C1098.08 188.469 1091.94 185.39 1084.42 183.775C1082.09 183.27 1079.71 182.967 1077.27 182.866C1074.83 182.664 1072.7 182.563 1070.87 182.563H1011.53C1010.24 182.563 1009.19 183.607 1009.19 184.893V272.911Z" fill="black"/>
</mask>
<g mask="url(#mask4_134_72)">
<path d="M1719.25 383.665C1699.95 383.665 1684.06 379.526 1671.57 371.248C1659.97 363.494 1652.55 352.906 1649.32 339.485C1648.97 337.978 1649.99 336.512 1651.52 336.259L1669.1 333.345C1670.5 333.113 1671.84 333.991 1672.29 335.339C1675 343.512 1680.3 350.131 1688.17 355.196C1696.91 360.647 1707.67 363.373 1720.46 363.373C1732.95 363.373 1742.8 360.799 1750.01 355.65C1757.22 350.4 1760.83 343.283 1760.83 334.298C1760.83 329.25 1759.66 325.162 1757.32 322.032C1755.09 318.801 1750.47 315.823 1743.46 313.097C1736.45 310.371 1726 307.141 1712.09 303.406C1697.16 299.367 1685.48 295.329 1677.06 291.291C1668.63 287.252 1662.64 282.609 1659.08 277.359C1655.53 272.009 1653.76 265.497 1653.76 257.824C1653.76 248.536 1656.4 240.409 1661.67 233.443C1666.95 226.376 1674.26 220.925 1683.61 217.089C1692.95 213.151 1703.81 211.183 1716.2 211.183C1728.59 211.183 1739.65 213.201 1749.4 217.24C1759.25 221.177 1767.17 226.73 1773.16 233.898C1778.61 240.411 1782.04 247.885 1783.45 256.316C1783.7 257.753 1782.7 259.084 1781.27 259.34L1763.73 262.479C1762.22 262.75 1760.79 261.719 1760.43 260.219C1758.48 251.922 1753.83 245.268 1746.51 240.258C1738.49 234.605 1728.28 231.676 1715.89 231.475C1704.21 231.172 1694.72 233.393 1687.41 238.138C1680.1 242.782 1676.45 248.991 1676.45 256.764C1676.45 261.105 1677.77 264.84 1680.41 267.97C1683.04 270.999 1687.82 273.876 1694.72 276.602C1701.73 279.328 1711.68 282.306 1724.57 285.536C1739.7 289.372 1751.59 293.411 1760.21 297.651C1768.85 301.891 1774.98 306.888 1778.64 312.643C1782.3 318.397 1784.13 325.515 1784.13 333.995C1784.13 349.441 1778.34 361.606 1766.76 370.49C1755.29 379.274 1739.45 383.665 1719.25 383.665Z" stroke="white" stroke-width="0.8" stroke-linejoin="round"/>
</g>
<path d="M1226.49 383.816C1210.13 383.816 1196.17 380.132 1184.6 372.762C1173.02 365.392 1164.14 355.195 1157.94 342.172C1151.75 329.149 1148.66 314.207 1148.66 297.348C1148.66 280.185 1151.8 265.143 1158.1 252.221C1164.39 239.298 1173.33 229.253 1184.9 222.085C1196.58 214.817 1210.44 211.182 1226.49 211.182C1242.93 211.182 1256.94 214.867 1268.52 222.237C1280.19 229.506 1289.08 239.652 1295.17 252.675C1301.37 265.597 1304.47 280.488 1304.47 297.348C1304.47 314.51 1301.37 329.603 1295.17 342.626C1288.98 355.548 1280.04 365.644 1268.37 372.913C1256.69 380.182 1242.73 383.816 1226.49 383.816ZM1226.49 362.464C1244.76 362.464 1258.36 356.457 1267.3 344.443C1276.24 332.329 1280.7 316.63 1280.7 297.348C1280.7 277.56 1276.19 261.811 1267.15 250.101C1258.21 238.39 1244.66 232.534 1226.49 232.534C1214.2 232.534 1204.04 235.31 1196.02 240.863C1188.1 246.315 1182.16 253.937 1178.2 263.73C1174.34 273.421 1172.41 284.627 1172.41 297.348C1172.41 317.034 1176.98 332.833 1186.12 344.746C1195.26 356.558 1208.71 362.464 1226.49 362.464Z" fill="white"/>
<mask id="mask5_134_72" style="mask-type:luminance" maskUnits="userSpaceOnUse" x="979" y="149" width="813" height="242">
<path d="M1791 149.783H979.925V390.7H1791V149.783Z" fill="white"/>
<path d="M1226.49 383.817C1210.13 383.817 1196.17 380.132 1184.6 372.762C1173.02 365.392 1164.14 355.196 1157.94 342.172C1151.75 329.149 1148.66 314.208 1148.66 297.348C1148.66 280.186 1151.8 265.143 1158.1 252.221C1164.39 239.299 1173.33 229.253 1184.9 222.086C1196.58 214.817 1210.44 211.183 1226.49 211.183C1242.93 211.183 1256.94 214.867 1268.52 222.237C1280.19 229.506 1289.08 239.652 1295.17 252.675C1301.37 265.597 1304.47 280.489 1304.47 297.348C1304.47 314.51 1301.37 329.603 1295.17 342.627C1288.98 355.549 1280.04 365.645 1268.37 372.913C1256.69 380.182 1242.73 383.817 1226.49 383.817ZM1226.49 362.465C1244.76 362.465 1258.36 356.457 1267.3 344.444C1276.24 332.329 1280.7 316.63 1280.7 297.348C1280.7 277.561 1276.19 261.812 1267.15 250.101C1258.21 238.39 1244.66 232.535 1226.49 232.535C1214.2 232.535 1204.04 235.311 1196.02 240.864C1188.1 246.315 1182.16 253.937 1178.2 263.73C1174.34 273.422 1172.41 284.628 1172.41 297.348C1172.41 317.035 1176.98 332.834 1186.12 344.747C1195.26 356.559 1208.71 362.465 1226.49 362.465Z" fill="black"/>
<path d="M1337.76 379.274C1336.25 379.274 1335.01 378.041 1335.01 376.52V159.42C1335.01 157.899 1336.25 156.667 1337.76 156.667H1354.66C1356.17 156.667 1357.41 157.899 1357.41 159.42V376.52C1357.41 378.041 1356.17 379.274 1354.66 379.274H1337.76Z" fill="black"/>
<path d="M1444.03 383.817C1431.65 383.817 1421.24 381.595 1412.81 377.154C1404.49 372.712 1398.24 366.806 1394.08 359.436C1389.92 352.066 1387.83 344.04 1387.83 335.358C1387.83 326.474 1389.61 318.902 1393.16 312.643C1396.82 306.283 1401.75 301.084 1407.94 297.045C1414.24 293.007 1421.49 289.928 1429.71 287.808C1438.05 285.789 1447.24 284.022 1457.28 282.508C1467.44 280.892 1477.34 279.529 1486.98 278.419C1493.89 277.561 1500.18 276.728 1505.86 275.922C1507.34 275.711 1508.05 277.7 1506.78 278.48C1505.86 279.043 1504.68 278.363 1504.67 277.281C1504.62 262.389 1501.46 251.259 1495.21 243.892C1488.61 236.119 1477.13 232.232 1460.79 232.232C1449.52 232.232 1439.97 234.756 1432.15 239.804C1425.07 244.435 1419.91 251.533 1416.68 261.095C1416.19 262.538 1414.68 263.384 1413.21 262.958L1396.63 258.116C1395.21 257.7 1394.36 256.224 1394.78 254.8C1398.74 241.396 1406.08 230.894 1416.77 223.297C1428.14 215.221 1442.92 211.183 1461.09 211.183C1476.12 211.183 1488.86 214.01 1499.32 219.663C1509.88 225.216 1517.35 233.292 1521.71 243.892C1523.74 248.637 1525.06 253.937 1525.67 259.793C1526.28 265.648 1526.58 271.605 1526.58 277.662V376.52C1526.58 378.041 1525.35 379.274 1523.83 379.274H1509.38C1507.86 379.274 1506.63 378.041 1506.63 376.52V342.031C1506.63 340.227 1508.46 339.003 1510.13 339.699C1511.4 340.231 1512.01 341.689 1511.47 342.954C1505.87 355.863 1497.5 365.799 1486.37 372.762C1474.6 380.132 1460.48 383.817 1444.03 383.817ZM1446.62 364.585C1457.08 364.585 1466.22 362.717 1474.04 358.982C1481.86 355.246 1488.15 350.148 1492.92 343.687C1497.69 337.125 1500.79 329.755 1502.22 321.578C1503.43 316.328 1504.09 310.573 1504.2 304.314C1504.26 299.863 1504.31 296.203 1504.33 293.334C1504.35 291.847 1505.91 290.888 1507.24 291.568C1508.97 292.458 1508.52 295.041 1506.59 295.285C1500.76 296.024 1494.58 296.762 1488.05 297.5C1479.22 298.509 1470.48 299.67 1461.86 300.983C1453.33 302.295 1445.61 303.86 1438.71 305.677C1434.03 306.99 1429.52 308.857 1425.15 311.28C1420.78 313.602 1417.18 316.732 1414.33 320.669C1411.6 324.606 1410.22 329.502 1410.22 335.358C1410.22 340.103 1411.39 344.697 1413.73 349.138C1416.16 353.58 1420.02 357.266 1425.3 360.193C1430.68 363.121 1437.79 364.585 1446.62 364.585Z" fill="black"/>
<path d="M1562.89 379.274C1561.37 379.274 1560.14 378.041 1560.14 376.52V218.479C1560.14 216.958 1561.37 215.726 1562.89 215.726H1577.5C1579.01 215.726 1580.24 216.958 1580.24 218.479V249.636C1580.24 251.411 1578 252.178 1576.92 250.771C1576.53 250.261 1576.42 249.581 1576.66 248.982C1578.44 244.511 1580.7 240.391 1583.44 236.623C1586.39 232.484 1589.59 229.102 1593.04 226.477C1597.3 222.742 1602.28 219.915 1607.97 217.997C1613.65 215.978 1619.39 214.817 1625.18 214.514C1630.13 214.169 1634.72 214.415 1638.93 215.254C1640.16 215.5 1641.01 216.608 1641.01 217.868V233.089C1641.01 234.883 1639.33 236.196 1637.56 235.89C1632.53 235.017 1627.14 234.908 1621.37 235.563C1614.26 236.371 1607.71 239.198 1601.72 244.044C1596.24 248.284 1592.12 253.382 1589.39 259.338C1586.64 265.194 1584.82 271.453 1583.9 278.116C1582.99 284.678 1582.53 291.19 1582.53 297.651V376.52C1582.53 378.041 1581.3 379.274 1579.78 379.274H1562.89Z" fill="black"/>
<path d="M1719.25 383.665C1699.95 383.665 1684.06 379.526 1671.57 371.248C1659.97 363.494 1652.55 352.906 1649.32 339.485C1648.97 337.978 1649.99 336.512 1651.52 336.259L1669.1 333.345C1670.5 333.113 1671.84 333.991 1672.29 335.339C1675 343.512 1680.3 350.131 1688.17 355.196C1696.91 360.647 1707.67 363.373 1720.46 363.373C1732.95 363.373 1742.8 360.799 1750.01 355.65C1757.22 350.4 1760.83 343.283 1760.83 334.298C1760.83 329.25 1759.66 325.162 1757.32 322.032C1755.09 318.801 1750.47 315.823 1743.46 313.097C1736.45 310.371 1726 307.141 1712.09 303.406C1697.16 299.367 1685.49 295.329 1677.06 291.291C1668.63 287.252 1662.64 282.609 1659.08 277.359C1655.53 272.009 1653.76 265.497 1653.76 257.824C1653.76 248.536 1656.4 240.409 1661.68 233.443C1666.95 226.376 1674.26 220.925 1683.61 217.089C1692.95 213.151 1703.81 211.183 1716.2 211.183C1728.59 211.183 1739.66 213.201 1749.4 217.24C1759.25 221.177 1767.17 226.73 1773.16 233.898C1778.61 240.411 1782.04 247.885 1783.45 256.316C1783.7 257.753 1782.7 259.084 1781.27 259.34L1763.73 262.479C1762.22 262.75 1760.79 261.719 1760.43 260.219C1758.48 251.922 1753.84 245.268 1746.51 240.258C1738.49 234.605 1728.28 231.676 1715.89 231.475C1704.22 231.172 1694.72 233.393 1687.41 238.138C1680.1 242.782 1676.45 248.991 1676.45 256.764C1676.45 261.105 1677.77 264.84 1680.41 267.97C1683.04 270.999 1687.82 273.876 1694.72 276.602C1701.73 279.328 1711.68 282.306 1724.57 285.536C1739.7 289.372 1751.59 293.411 1760.21 297.651C1768.85 301.891 1774.99 306.888 1778.64 312.643C1782.3 318.397 1784.13 325.515 1784.13 333.995C1784.13 349.441 1778.34 361.606 1766.76 370.49C1755.29 379.274 1739.45 383.665 1719.25 383.665Z" fill="black"/>
<path d="M989.143 379.275C987.85 379.275 986.799 378.232 986.799 376.946V163.541C986.799 162.254 987.85 161.211 989.143 161.211H1071.48C1073.61 161.211 1076 161.312 1078.64 161.514C1081.38 161.615 1084.12 161.918 1086.86 162.422C1098.34 164.139 1108.03 168.127 1115.95 174.386C1123.97 180.544 1130.02 188.318 1134.08 197.706C1138.24 207.095 1140.33 217.494 1140.33 228.902C1140.33 240.209 1138.24 250.557 1134.08 259.945C1129.91 269.334 1123.82 277.159 1115.8 283.418C1107.88 289.576 1098.23 293.513 1086.86 295.229C1084.12 295.633 1081.38 295.936 1078.64 296.138C1076 296.34 1073.61 296.441 1071.48 296.441H1011.53C1010.24 296.441 1009.19 297.484 1009.19 298.771V376.946C1009.19 378.232 1008.14 379.275 1006.84 379.275H989.143ZM1009.19 272.911C1009.19 274.197 1010.24 275.24 1011.53 275.24H1070.87C1072.7 275.24 1074.83 275.14 1077.27 274.937C1079.71 274.736 1082.09 274.383 1084.42 273.877C1091.94 272.262 1098.08 269.183 1102.86 264.64C1107.73 260.097 1111.33 254.696 1113.67 248.437C1116.1 242.178 1117.33 235.666 1117.33 228.902C1117.33 222.138 1116.1 215.626 1113.67 209.367C1111.33 203.007 1107.73 197.555 1102.86 193.012C1098.08 188.469 1091.94 185.39 1084.42 183.775C1082.09 183.27 1079.71 182.967 1077.27 182.866C1074.83 182.664 1072.7 182.563 1070.87 182.563H1011.53C1010.24 182.563 1009.19 183.607 1009.19 184.893V272.911Z" fill="black"/>
</mask>
<g mask="url(#mask5_134_72)">
<path d="M1226.49 383.817C1210.13 383.817 1196.17 380.132 1184.6 372.762C1173.02 365.392 1164.14 355.196 1157.94 342.172C1151.75 329.149 1148.66 314.208 1148.66 297.348C1148.66 280.186 1151.8 265.143 1158.1 252.221C1164.39 239.299 1173.33 229.253 1184.9 222.086C1196.58 214.817 1210.44 211.183 1226.49 211.183C1242.93 211.183 1256.94 214.867 1268.52 222.237C1280.19 229.506 1289.08 239.652 1295.17 252.675C1301.37 265.597 1304.47 280.489 1304.47 297.348C1304.47 314.51 1301.37 329.603 1295.17 342.627C1288.98 355.549 1280.04 365.645 1268.37 372.913C1256.69 380.182 1242.73 383.817 1226.49 383.817ZM1226.49 362.465C1244.76 362.465 1258.36 356.457 1267.3 344.444C1276.24 332.329 1280.7 316.63 1280.7 297.348C1280.7 277.561 1276.19 261.812 1267.15 250.101C1258.21 238.39 1244.66 232.535 1226.49 232.535C1214.2 232.535 1204.04 235.311 1196.02 240.864C1188.1 246.315 1182.16 253.937 1178.2 263.73C1174.34 273.422 1172.41 284.628 1172.41 297.348C1172.41 317.035 1176.98 332.834 1186.12 344.747C1195.26 356.559 1208.71 362.465 1226.49 362.465Z" stroke="white" stroke-width="0.8" stroke-linejoin="round"/>
</g>
<path d="M989.142 379.274C987.85 379.274 986.798 378.232 986.798 376.945V163.54C986.798 162.254 987.85 161.21 989.142 161.21H1071.48C1073.61 161.21 1076 161.312 1078.64 161.513C1081.38 161.615 1084.12 161.917 1086.86 162.422C1098.33 164.139 1108.03 168.126 1115.95 174.385C1123.97 180.544 1130.01 188.317 1134.08 197.706C1138.24 207.095 1140.33 217.493 1140.33 228.901C1140.33 240.208 1138.24 250.556 1134.08 259.945C1129.91 269.334 1123.82 277.158 1115.8 283.417C1107.88 289.576 1098.23 293.513 1086.86 295.229C1084.12 295.633 1081.38 295.936 1078.64 296.138C1076 296.34 1073.61 296.44 1071.48 296.44H1011.53C1010.24 296.44 1009.19 297.484 1009.19 298.77V376.945C1009.19 378.232 1008.14 379.274 1006.84 379.274H989.142ZM1009.19 272.91C1009.19 274.197 1010.24 275.24 1011.53 275.24H1070.87C1072.7 275.24 1074.83 275.139 1077.27 274.937C1079.71 274.735 1082.09 274.382 1084.42 273.877C1091.94 272.262 1098.08 269.182 1102.86 264.639C1107.73 260.096 1111.33 254.696 1113.67 248.436C1116.1 242.177 1117.33 235.665 1117.33 228.901C1117.33 222.138 1116.1 215.626 1113.67 209.366C1111.33 203.006 1107.73 197.554 1102.86 193.011C1098.08 188.468 1091.94 185.39 1084.42 183.774C1082.09 183.269 1079.71 182.967 1077.27 182.865C1074.83 182.664 1072.7 182.563 1070.87 182.563H1011.53C1010.24 182.563 1009.19 183.606 1009.19 184.893V272.91Z" fill="white"/>
<mask id="mask6_134_72" style="mask-type:luminance" maskUnits="userSpaceOnUse" x="979" y="149" width="813" height="242">
<path d="M1791 149.783H979.925V390.7H1791V149.783Z" fill="white"/>
<path d="M1226.49 383.817C1210.13 383.817 1196.17 380.132 1184.6 372.762C1173.02 365.392 1164.14 355.196 1157.94 342.172C1151.75 329.149 1148.66 314.208 1148.66 297.348C1148.66 280.186 1151.8 265.143 1158.1 252.221C1164.39 239.299 1173.33 229.253 1184.9 222.086C1196.58 214.817 1210.44 211.183 1226.49 211.183C1242.93 211.183 1256.94 214.867 1268.52 222.237C1280.19 229.506 1289.08 239.652 1295.17 252.675C1301.37 265.597 1304.47 280.489 1304.47 297.348C1304.47 314.51 1301.37 329.603 1295.17 342.627C1288.98 355.549 1280.04 365.645 1268.37 372.913C1256.69 380.182 1242.73 383.817 1226.49 383.817ZM1226.49 362.465C1244.76 362.465 1258.36 356.457 1267.3 344.444C1276.24 332.329 1280.7 316.63 1280.7 297.348C1280.7 277.561 1276.19 261.812 1267.15 250.101C1258.21 238.39 1244.66 232.535 1226.49 232.535C1214.2 232.535 1204.04 235.311 1196.02 240.864C1188.1 246.315 1182.16 253.937 1178.2 263.73C1174.34 273.422 1172.41 284.628 1172.41 297.348C1172.41 317.035 1176.98 332.834 1186.12 344.747C1195.26 356.559 1208.71 362.465 1226.49 362.465Z" fill="black"/>
<path d="M1337.76 379.274C1336.25 379.274 1335.01 378.041 1335.01 376.52V159.42C1335.01 157.899 1336.25 156.667 1337.76 156.667H1354.66C1356.17 156.667 1357.41 157.899 1357.41 159.42V376.52C1357.41 378.041 1356.17 379.274 1354.66 379.274H1337.76Z" fill="black"/>
<path d="M1444.03 383.817C1431.65 383.817 1421.24 381.595 1412.81 377.154C1404.49 372.712 1398.24 366.806 1394.08 359.436C1389.92 352.066 1387.83 344.04 1387.83 335.358C1387.83 326.474 1389.61 318.902 1393.16 312.643C1396.82 306.283 1401.75 301.084 1407.94 297.045C1414.24 293.007 1421.49 289.928 1429.71 287.808C1438.05 285.789 1447.24 284.022 1457.28 282.508C1467.44 280.892 1477.34 279.529 1486.98 278.419C1493.89 277.561 1500.18 276.728 1505.86 275.922C1507.34 275.711 1508.05 277.7 1506.78 278.48C1505.86 279.043 1504.68 278.363 1504.67 277.281C1504.62 262.389 1501.46 251.259 1495.21 243.892C1488.61 236.119 1477.13 232.232 1460.79 232.232C1449.52 232.232 1439.97 234.756 1432.15 239.804C1425.07 244.435 1419.91 251.533 1416.68 261.095C1416.19 262.538 1414.68 263.384 1413.21 262.958L1396.63 258.116C1395.21 257.7 1394.36 256.224 1394.78 254.8C1398.74 241.396 1406.08 230.894 1416.77 223.297C1428.14 215.221 1442.92 211.183 1461.09 211.183C1476.12 211.183 1488.86 214.01 1499.32 219.663C1509.88 225.216 1517.35 233.292 1521.71 243.892C1523.74 248.637 1525.06 253.937 1525.67 259.793C1526.28 265.648 1526.58 271.605 1526.58 277.662V376.52C1526.58 378.041 1525.35 379.274 1523.83 379.274H1509.38C1507.86 379.274 1506.63 378.041 1506.63 376.52V342.031C1506.63 340.227 1508.46 339.003 1510.13 339.699C1511.4 340.231 1512.01 341.689 1511.47 342.954C1505.87 355.863 1497.5 365.799 1486.37 372.762C1474.6 380.132 1460.48 383.817 1444.03 383.817ZM1446.62 364.585C1457.08 364.585 1466.22 362.717 1474.04 358.982C1481.86 355.246 1488.15 350.148 1492.92 343.687C1497.69 337.125 1500.79 329.755 1502.22 321.578C1503.43 316.328 1504.09 310.573 1504.2 304.314C1504.26 299.863 1504.31 296.203 1504.33 293.334C1504.35 291.847 1505.91 290.888 1507.24 291.568C1508.97 292.458 1508.52 295.041 1506.59 295.285C1500.76 296.024 1494.58 296.762 1488.05 297.5C1479.22 298.509 1470.48 299.67 1461.86 300.983C1453.33 302.295 1445.61 303.86 1438.71 305.677C1434.03 306.99 1429.52 308.857 1425.15 311.28C1420.78 313.602 1417.18 316.732 1414.33 320.669C1411.6 324.606 1410.22 329.502 1410.22 335.358C1410.22 340.103 1411.39 344.697 1413.73 349.138C1416.16 353.58 1420.02 357.266 1425.3 360.193C1430.68 363.121 1437.79 364.585 1446.62 364.585Z" fill="black"/>
<path d="M1562.89 379.274C1561.37 379.274 1560.14 378.041 1560.14 376.52V218.479C1560.14 216.958 1561.37 215.726 1562.89 215.726H1577.5C1579.01 215.726 1580.24 216.958 1580.24 218.479V249.636C1580.24 251.411 1578 252.178 1576.92 250.771C1576.53 250.261 1576.42 249.581 1576.66 248.982C1578.44 244.511 1580.7 240.391 1583.44 236.623C1586.39 232.484 1589.59 229.102 1593.04 226.477C1597.3 222.742 1602.28 219.915 1607.97 217.997C1613.65 215.978 1619.39 214.817 1625.18 214.514C1630.13 214.169 1634.72 214.415 1638.93 215.254C1640.16 215.5 1641.01 216.608 1641.01 217.868V233.089C1641.01 234.883 1639.33 236.196 1637.56 235.89C1632.53 235.017 1627.14 234.908 1621.37 235.563C1614.26 236.371 1607.71 239.198 1601.72 244.044C1596.24 248.284 1592.12 253.382 1589.39 259.338C1586.64 265.194 1584.82 271.453 1583.9 278.116C1582.99 284.678 1582.53 291.19 1582.53 297.651V376.52C1582.53 378.041 1581.3 379.274 1579.78 379.274H1562.89Z" fill="black"/>
<path d="M1719.25 383.665C1699.95 383.665 1684.06 379.526 1671.57 371.248C1659.97 363.494 1652.55 352.906 1649.32 339.485C1648.97 337.978 1649.99 336.512 1651.52 336.259L1669.1 333.345C1670.5 333.113 1671.84 333.991 1672.29 335.339C1675 343.512 1680.3 350.131 1688.17 355.196C1696.91 360.647 1707.67 363.373 1720.46 363.373C1732.95 363.373 1742.8 360.799 1750.01 355.65C1757.22 350.4 1760.83 343.283 1760.83 334.298C1760.83 329.25 1759.66 325.162 1757.32 322.032C1755.09 318.801 1750.47 315.823 1743.46 313.097C1736.45 310.371 1726 307.141 1712.09 303.406C1697.16 299.367 1685.49 295.329 1677.06 291.291C1668.63 287.252 1662.64 282.609 1659.08 277.359C1655.53 272.009 1653.76 265.497 1653.76 257.824C1653.76 248.536 1656.4 240.409 1661.68 233.443C1666.95 226.376 1674.26 220.925 1683.61 217.089C1692.95 213.151 1703.81 211.183 1716.2 211.183C1728.59 211.183 1739.66 213.201 1749.4 217.24C1759.25 221.177 1767.17 226.73 1773.16 233.898C1778.61 240.411 1782.04 247.885 1783.45 256.316C1783.7 257.753 1782.7 259.084 1781.27 259.34L1763.73 262.479C1762.22 262.75 1760.79 261.719 1760.43 260.219C1758.48 251.922 1753.84 245.268 1746.51 240.258C1738.49 234.605 1728.28 231.676 1715.89 231.475C1704.22 231.172 1694.72 233.393 1687.41 238.138C1680.1 242.782 1676.45 248.991 1676.45 256.764C1676.45 261.105 1677.77 264.84 1680.41 267.97C1683.04 270.999 1687.82 273.876 1694.72 276.602C1701.73 279.328 1711.68 282.306 1724.57 285.536C1739.7 289.372 1751.59 293.411 1760.21 297.651C1768.85 301.891 1774.99 306.888 1778.64 312.643C1782.3 318.397 1784.13 325.515 1784.13 333.995C1784.13 349.441 1778.34 361.606 1766.76 370.49C1755.29 379.274 1739.45 383.665 1719.25 383.665Z" fill="black"/>
<path d="M989.143 379.275C987.85 379.275 986.799 378.232 986.799 376.946V163.541C986.799 162.254 987.85 161.211 989.143 161.211H1071.48C1073.61 161.211 1076 161.312 1078.64 161.514C1081.38 161.615 1084.12 161.918 1086.86 162.422C1098.34 164.139 1108.03 168.127 1115.95 174.386C1123.97 180.544 1130.02 188.318 1134.08 197.706C1138.24 207.095 1140.33 217.494 1140.33 228.902C1140.33 240.209 1138.24 250.557 1134.08 259.945C1129.91 269.334 1123.82 277.159 1115.8 283.418C1107.88 289.576 1098.23 293.513 1086.86 295.229C1084.12 295.633 1081.38 295.936 1078.64 296.138C1076 296.34 1073.61 296.441 1071.48 296.441H1011.53C1010.24 296.441 1009.19 297.484 1009.19 298.771V376.946C1009.19 378.232 1008.14 379.275 1006.84 379.275H989.143ZM1009.19 272.911C1009.19 274.197 1010.24 275.24 1011.53 275.24H1070.87C1072.7 275.24 1074.83 275.14 1077.27 274.937C1079.71 274.736 1082.09 274.383 1084.42 273.877C1091.94 272.262 1098.08 269.183 1102.86 264.64C1107.73 260.097 1111.33 254.696 1113.67 248.437C1116.1 242.178 1117.33 235.666 1117.33 228.902C1117.33 222.138 1116.1 215.626 1113.67 209.367C1111.33 203.007 1107.73 197.555 1102.86 193.012C1098.08 188.469 1091.94 185.39 1084.42 183.775C1082.09 183.27 1079.71 182.967 1077.27 182.866C1074.83 182.664 1072.7 182.563 1070.87 182.563H1011.53C1010.24 182.563 1009.19 183.607 1009.19 184.893V272.911Z" fill="black"/>
</mask>
<g mask="url(#mask6_134_72)">
<path d="M989.143 379.275C987.85 379.275 986.799 378.232 986.799 376.946V163.541C986.799 162.254 987.85 161.211 989.143 161.211H1071.48C1073.61 161.211 1076 161.312 1078.64 161.514C1081.38 161.615 1084.12 161.918 1086.86 162.422C1098.34 164.139 1108.03 168.127 1115.95 174.386C1123.97 180.544 1130.02 188.318 1134.08 197.706C1138.24 207.095 1140.33 217.494 1140.33 228.902C1140.33 240.209 1138.24 250.557 1134.08 259.945C1129.91 269.334 1123.82 277.159 1115.8 283.418C1107.88 289.576 1098.23 293.513 1086.86 295.229C1084.12 295.633 1081.38 295.936 1078.64 296.138C1076 296.34 1073.61 296.441 1071.48 296.441H1011.53C1010.24 296.441 1009.19 297.484 1009.19 298.771V376.946C1009.19 378.232 1008.14 379.275 1006.84 379.275H989.143ZM1009.19 272.911C1009.19 274.197 1010.24 275.24 1011.53 275.24H1070.87C1072.7 275.24 1074.83 275.14 1077.27 274.937C1079.71 274.736 1082.09 274.383 1084.42 273.877C1091.94 272.262 1098.08 269.183 1102.86 264.64C1107.73 260.097 1111.33 254.696 1113.67 248.437C1116.1 242.178 1117.33 235.666 1117.33 228.902C1117.33 222.138 1116.1 215.626 1113.67 209.367C1111.33 203.007 1107.73 197.555 1102.86 193.012C1098.08 188.469 1091.94 185.39 1084.42 183.775C1082.09 183.27 1079.71 182.967 1077.27 182.866C1074.83 182.664 1072.7 182.563 1070.87 182.563H1011.53C1010.24 182.563 1009.19 183.607 1009.19 184.893V272.911Z" stroke="white" stroke-width="0.8" stroke-linejoin="round"/>
</g>
<path fill-rule="evenodd" clip-rule="evenodd" d="M56.6439 334.438H75.695C78.2548 334.438 80.3388 336.517 80.3388 339.102V409.971C80.3388 412.542 78.2688 414.635 75.695 414.635H56.6439C54.0841 414.635 52 412.556 52 409.971V339.102C52 336.532 54.0702 334.438 56.6439 334.438ZM100.677 241.303H115.588C119.294 241.303 122.288 244.324 122.288 248.032V334.438C122.288 338.16 119.28 341.167 115.588 341.167H100.677C96.9701 341.167 93.9768 338.146 93.9768 334.438V248.032C93.9768 244.31 96.9841 241.303 100.677 241.303ZM98.6067 352.587H117.658C120.218 352.587 122.302 354.666 122.302 357.251V432.292C122.302 434.863 120.232 436.956 117.658 436.956H98.6067C96.047 436.956 93.9628 434.877 93.9628 432.292V357.251C93.9628 354.68 96.033 352.587 98.6067 352.587ZM140.583 147.299H159.635C162.194 147.299 164.278 149.378 164.278 151.962V292.478C164.278 295.049 162.208 297.142 159.635 297.142H140.583C138.024 297.142 135.94 295.063 135.94 292.478V151.962C135.94 149.392 138.01 147.299 140.583 147.299ZM140.583 310.332H159.635C162.194 310.332 164.278 312.411 164.278 314.996V358.571C164.278 361.142 162.208 363.235 159.635 363.235H140.583C138.024 363.235 135.94 361.156 135.94 358.571V314.996C135.94 312.426 138.01 310.332 140.583 310.332ZM142.654 398.747H157.564C161.271 398.747 164.264 401.768 164.264 405.476V430.199C164.264 433.922 161.257 436.928 157.564 436.928H142.654C138.947 436.928 135.954 433.908 135.954 430.199V405.476C135.954 401.753 138.961 398.747 142.654 398.747ZM182.56 80.6577H201.611C204.172 80.6577 206.255 82.7368 206.255 85.3214V184.707C206.255 187.278 204.186 189.371 201.611 189.371H182.56C180.001 189.371 177.916 187.292 177.916 184.707V85.2934C177.916 82.7226 179.987 80.6295 182.56 80.6295V80.6577ZM182.56 201.465H201.625C204.186 201.465 206.255 203.544 206.255 206.115V340.83C206.255 343.401 204.186 345.48 201.625 345.48H182.56C180.001 345.48 177.93 343.401 177.93 340.83V206.115C177.93 203.544 180.001 201.465 182.56 201.465ZM224.537 60.1485H243.589C246.148 60.1485 248.232 62.2275 248.232 64.8121V131.088C248.232 133.659 246.162 135.752 243.589 135.752H224.537C221.977 135.752 219.894 133.673 219.894 131.088V64.7981C219.894 62.2275 221.963 60.1344 224.537 60.1344V60.1485ZM224.537 147.397H243.589C246.148 147.397 248.232 149.476 248.232 152.061V247.415C248.232 249.986 246.162 252.079 243.589 252.079H224.537C221.977 252.079 219.894 250 219.894 247.415V152.061C219.894 149.49 221.963 147.397 224.537 147.397ZM224.537 265.803H243.589C246.148 265.803 248.232 267.882 248.232 270.466V356.142C248.232 358.713 246.162 360.805 243.589 360.805H224.537C221.977 360.805 219.894 358.727 219.894 356.142V270.466C219.894 267.895 221.963 265.803 224.537 265.803ZM268.556 43.5163H283.468C287.174 43.5163 290.167 46.5366 290.167 50.2451V174.677C290.167 178.4 287.16 181.406 283.468 181.406H268.556C264.849 181.406 261.856 178.386 261.856 174.677V50.2451C261.856 46.5224 264.863 43.5163 268.556 43.5163ZM268.556 195.158H283.468C287.174 195.158 290.167 198.178 290.167 201.887V230.769C290.167 234.491 287.16 237.496 283.468 237.496H268.556C264.849 237.496 261.856 234.477 261.856 230.769V201.887C261.856 198.165 264.863 195.158 268.556 195.158ZM268.556 247.106H283.454C287.16 247.106 290.153 250.126 290.153 253.834V382.425C290.153 386.147 287.146 389.152 283.454 389.152H268.556C264.849 389.152 261.856 386.133 261.856 382.425V253.834C261.856 250.112 264.863 247.106 268.556 247.106ZM310.533 26.8982H325.444C329.15 26.8982 332.143 29.9184 332.143 33.6269V58.3504C332.143 62.073 329.136 65.0791 325.444 65.0791H310.533C306.827 65.0791 303.832 62.059 303.832 58.3504V33.641C303.832 29.9184 306.841 26.9123 310.533 26.9123V26.8982ZM310.533 76.7385H325.444C329.15 76.7385 332.143 79.7586 332.143 83.4672V274.372C332.143 278.094 329.136 281.101 325.444 281.101H310.533C306.827 281.101 303.832 278.08 303.832 274.372V83.4812C303.832 79.7586 306.841 76.7525 310.533 76.7525V76.7385ZM310.533 294.852H325.444C329.15 294.852 332.143 297.873 332.143 301.581V353.304C332.143 357.026 329.136 360.033 325.444 360.033H310.533C306.827 360.033 303.832 357.012 303.832 353.304V301.581C303.832 297.859 306.841 294.852 310.533 294.852ZM310.533 373.799H325.444C329.15 373.799 332.143 376.819 332.143 380.528V413.567C332.143 417.29 329.136 420.296 325.444 420.296H310.533C306.827 420.296 303.832 417.276 303.832 413.567V380.528C303.832 376.805 306.841 373.799 310.533 373.799ZM352.51 363.404H367.42C371.127 363.404 374.121 366.425 374.121 370.133V430.185C374.121 433.908 371.113 436.914 367.42 436.914H352.51C348.803 436.914 345.81 433.894 345.81 430.185V370.133C345.81 366.41 348.817 363.404 352.51 363.404ZM352.51 155.685H367.42C371.127 155.685 374.121 158.705 374.121 162.414V309.686C374.121 313.409 371.113 316.415 367.42 316.415H352.51C348.803 316.415 345.81 313.394 345.81 309.686V162.414C345.81 158.691 348.817 155.685 352.51 155.685ZM352.51 24.8052H367.42C371.127 24.8052 374.121 27.8254 374.121 31.5339V135.19C374.121 138.912 371.113 141.918 367.42 141.918H352.51C348.803 141.918 345.81 138.898 345.81 135.19V31.5479C345.81 27.8254 348.817 24.8192 352.51 24.8192V24.8052ZM394.486 394.561H409.398C413.104 394.561 416.097 397.581 416.097 401.29V430.172C416.097 433.894 413.09 436.9 409.398 436.9H394.486C390.779 436.9 387.786 433.88 387.786 430.172V401.29C387.786 397.567 390.793 394.561 394.486 394.561ZM394.486 26.8842H409.398C413.104 26.8842 416.097 29.9044 416.097 33.6129V209.979C416.097 213.701 413.09 216.708 409.398 216.708H394.486C390.779 216.708 387.786 213.686 387.786 209.979V33.6269C387.786 29.9044 390.793 26.8982 394.486 26.8982V26.8842ZM394.486 230.459H409.398C413.104 230.459 416.097 233.48 416.097 237.188V309.686C416.097 313.409 413.09 316.415 409.398 316.415H394.486C390.779 316.415 387.786 313.394 387.786 309.686V237.188C387.786 233.465 390.793 230.459 394.486 230.459ZM436.436 35.2003H451.346C455.053 35.2003 458.046 38.2204 458.046 41.929V91.5725C458.046 95.295 455.039 98.3012 451.346 98.3012H436.436C432.729 98.3012 429.736 95.281 429.736 91.5725V41.943C429.736 38.2205 432.743 35.2143 436.436 35.2143V35.2003ZM436.436 112.054H451.346C455.053 112.054 458.046 115.074 458.046 118.782V309.686C458.046 313.409 455.039 316.415 451.346 316.415H436.436C432.729 316.415 429.736 313.394 429.736 309.686V118.796C429.736 115.074 432.743 112.068 436.436 112.068V112.054ZM478.398 39.3584H493.308C497.016 39.3584 500.009 42.3785 500.009 46.087V155.98C500.009 159.702 497.002 162.709 493.308 162.709H478.398C474.691 162.709 471.698 159.688 471.698 155.98V46.1011C471.698 42.3785 474.705 39.3724 478.398 39.3724V39.3584ZM478.398 176.461H493.308C497.016 176.461 500.009 179.481 500.009 183.19V274.4C500.009 278.122 497.002 281.128 493.308 281.128H478.398C474.691 281.128 471.698 278.108 471.698 274.4V183.19C471.698 179.467 474.705 176.461 478.398 176.461ZM478.398 294.852H493.308C497.016 294.852 500.009 297.873 500.009 301.581V342.923C500.009 346.646 497.002 349.651 493.308 349.651H478.398C474.691 349.651 471.698 346.631 471.698 342.923V301.581C471.698 297.859 474.705 294.852 478.398 294.852ZM520.11 45.5953H535.02C538.727 45.5953 541.72 48.6155 541.72 52.3241V222.452C541.72 226.174 538.713 229.181 535.02 229.181H520.11C516.403 229.181 513.409 226.16 513.409 222.452V52.3381C513.409 48.6155 516.417 45.6095 520.11 45.6095V45.5953ZM520.11 242.934H535.02C538.727 242.934 541.72 245.953 541.72 249.663V384.476C541.72 388.198 538.713 391.203 535.02 391.203H520.11C516.403 391.203 513.409 388.184 513.409 384.476V249.663C513.409 245.939 516.417 242.934 520.11 242.934ZM561.792 39.3584H576.702C580.409 39.3584 583.404 42.3785 583.404 46.087V118.586C583.404 122.308 580.395 125.314 576.702 125.314H561.792C558.085 125.314 555.092 122.294 555.092 118.586V46.1011C555.092 42.3785 558.099 39.3724 561.792 39.3724V39.3584ZM561.792 139.067H576.702C580.409 139.067 583.404 142.087 583.404 145.796V357.49C583.404 361.212 580.395 364.219 576.702 364.219H561.792C558.085 364.219 555.092 361.198 555.092 357.49V145.81C555.092 142.087 558.099 139.081 561.792 139.081V139.067ZM561.792 377.958H576.702C580.409 377.958 583.404 380.977 583.404 384.685V423.949C583.404 427.671 580.395 430.678 576.702 430.678H561.792C558.085 430.678 555.092 427.657 555.092 423.949V384.685C555.092 380.963 558.099 377.958 561.792 377.958ZM603.756 365.497H618.666C622.373 365.497 625.366 368.516 625.366 372.226V430.185C625.366 433.908 622.359 436.914 618.666 436.914H603.756C600.049 436.914 597.055 433.894 597.055 430.185V372.226C597.055 368.504 600.062 365.497 603.756 365.497ZM603.756 188.935H618.666C622.373 188.935 625.366 191.956 625.366 195.664V234.94C625.366 238.663 622.359 241.669 618.666 241.669H603.756C600.049 241.669 597.055 238.649 597.055 234.94V195.664C597.055 191.942 600.062 188.935 603.756 188.935ZM603.756 37.2933H618.666C622.373 37.2933 625.366 40.3135 625.366 44.022V168.455C625.366 172.177 622.359 175.182 618.666 175.182H603.756C600.049 175.182 597.055 172.163 597.055 168.455V44.022C597.055 40.2995 600.062 37.2933 603.756 37.2933ZM646.292 47.6883H661.202C664.909 47.6883 667.902 50.7087 667.902 54.4172V212.085C667.902 215.808 664.895 218.814 661.202 218.814H646.292C642.585 218.814 639.592 215.794 639.592 212.085V54.4172C639.592 50.6945 642.599 47.6883 646.292 47.6883ZM646.292 398.747H661.202C664.909 398.747 667.902 401.768 667.902 405.476V430.199C667.902 433.922 664.895 436.928 661.202 436.928H646.292C642.585 436.928 639.592 433.908 639.592 430.199V405.476C639.592 401.753 642.599 398.747 646.292 398.747ZM687.666 60.1625H702.578C706.285 60.1625 709.278 63.1827 709.278 66.8912V106.168C709.278 109.89 706.271 112.896 702.578 112.896H687.666C683.96 112.896 680.967 109.876 680.967 106.168V66.8912C680.967 63.1686 683.974 60.1625 687.666 60.1625ZM687.666 126.621H702.578C706.285 126.621 709.278 129.641 709.278 133.349V207.928C709.278 211.65 706.271 214.655 702.578 214.655H687.666C683.96 214.655 680.967 211.636 680.967 207.928V133.349C680.967 129.627 683.974 126.621 687.666 126.621ZM730.162 70.5294H745.072C748.779 70.5294 751.772 73.5497 751.772 77.2583V101.982C751.772 105.704 748.765 108.71 745.072 108.71H730.162C726.455 108.71 723.461 105.69 723.461 101.982V77.2583C723.461 73.5356 726.469 70.5294 730.162 70.5294ZM730.162 120.384H745.072C748.779 120.384 751.772 123.404 751.772 127.113V149.757C751.772 153.479 748.765 156.486 745.072 156.486H730.162C726.455 156.486 723.461 153.465 723.461 149.757V127.113C723.461 123.39 726.469 120.384 730.162 120.384ZM730.162 168.159H745.072C748.779 168.159 751.772 171.18 751.772 174.888V212.072C751.772 215.794 748.765 218.799 745.072 218.799H730.162C726.455 218.799 723.461 215.78 723.461 212.072V174.888C723.461 171.166 726.469 168.159 730.162 168.159ZM772.124 83.0036H787.034C790.741 83.0036 793.735 86.0238 793.735 89.7323V218.322C793.735 222.044 790.727 225.051 787.034 225.051H772.124C768.417 225.051 765.424 222.031 765.424 218.322V89.7183C765.424 85.9957 768.431 82.9896 772.124 82.9896V83.0036ZM813.822 120.384H828.732C832.439 120.384 835.432 123.404 835.432 127.113V214.15C835.432 217.873 832.425 220.879 828.732 220.879H813.822C810.114 220.879 807.121 217.859 807.121 214.15V127.113C807.121 123.39 810.128 120.384 813.822 120.384ZM855.196 168.159H870.107C873.813 168.159 876.808 171.18 876.808 174.888V199.611C876.808 203.333 873.799 206.34 870.107 206.34H855.196C851.49 206.34 848.497 203.319 848.497 199.611V174.888C848.497 171.166 851.504 168.159 855.196 168.159Z" fill="url(#paint5_radial_134_72)"/>
<path fill-rule="evenodd" clip-rule="evenodd" d="M56.6439 334.438H75.695C78.2548 334.438 80.3388 336.517 80.3388 339.102V409.971C80.3388 412.542 78.2688 414.635 75.695 414.635H56.6439C54.0841 414.635 52 412.556 52 409.971V339.102C52 336.532 54.0702 334.438 56.6439 334.438ZM100.677 241.303H115.588C119.294 241.303 122.288 244.324 122.288 248.032V334.438C122.288 338.16 119.28 341.167 115.588 341.167H100.677C96.9701 341.167 93.9768 338.146 93.9768 334.438V248.032C93.9768 244.31 96.9841 241.303 100.677 241.303ZM98.6067 352.587H117.658C120.218 352.587 122.302 354.666 122.302 357.251V432.292C122.302 434.863 120.232 436.956 117.658 436.956H98.6067C96.047 436.956 93.9628 434.877 93.9628 432.292V357.251C93.9628 354.68 96.033 352.587 98.6067 352.587ZM140.583 147.299H159.635C162.194 147.299 164.278 149.378 164.278 151.962V292.478C164.278 295.049 162.208 297.142 159.635 297.142H140.583C138.024 297.142 135.94 295.063 135.94 292.478V151.962C135.94 149.392 138.01 147.299 140.583 147.299ZM140.583 310.332H159.635C162.194 310.332 164.278 312.411 164.278 314.996V358.571C164.278 361.142 162.208 363.235 159.635 363.235H140.583C138.024 363.235 135.94 361.156 135.94 358.571V314.996C135.94 312.426 138.01 310.332 140.583 310.332ZM142.654 398.747H157.564C161.271 398.747 164.264 401.768 164.264 405.476V430.199C164.264 433.922 161.257 436.928 157.564 436.928H142.654C138.947 436.928 135.954 433.908 135.954 430.199V405.476C135.954 401.753 138.961 398.747 142.654 398.747ZM182.56 80.6577H201.611C204.172 80.6577 206.255 82.7368 206.255 85.3214V184.707C206.255 187.278 204.186 189.371 201.611 189.371H182.56C180.001 189.371 177.916 187.292 177.916 184.707V85.2934C177.916 82.7226 179.987 80.6295 182.56 80.6295V80.6577ZM182.56 201.465H201.625C204.186 201.465 206.255 203.544 206.255 206.115V340.83C206.255 343.401 204.186 345.48 201.625 345.48H182.56C180.001 345.48 177.93 343.401 177.93 340.83V206.115C177.93 203.544 180.001 201.465 182.56 201.465ZM224.537 60.1485H243.589C246.148 60.1485 248.232 62.2275 248.232 64.8121V131.088C248.232 133.659 246.162 135.752 243.589 135.752H224.537C221.977 135.752 219.894 133.673 219.894 131.088V64.7981C219.894 62.2275 221.963 60.1344 224.537 60.1344V60.1485ZM224.537 147.397H243.589C246.148 147.397 248.232 149.476 248.232 152.061V247.415C248.232 249.986 246.162 252.079 243.589 252.079H224.537C221.977 252.079 219.894 250 219.894 247.415V152.061C219.894 149.49 221.963 147.397 224.537 147.397ZM224.537 265.803H243.589C246.148 265.803 248.232 267.882 248.232 270.466V356.142C248.232 358.713 246.162 360.805 243.589 360.805H224.537C221.977 360.805 219.894 358.727 219.894 356.142V270.466C219.894 267.895 221.963 265.803 224.537 265.803ZM268.556 43.5163H283.468C287.174 43.5163 290.167 46.5366 290.167 50.2451V174.677C290.167 178.4 287.16 181.406 283.468 181.406H268.556C264.849 181.406 261.856 178.386 261.856 174.677V50.2451C261.856 46.5224 264.863 43.5163 268.556 43.5163ZM268.556 195.158H283.468C287.174 195.158 290.167 198.178 290.167 201.887V230.769C290.167 234.491 287.16 237.496 283.468 237.496H268.556C264.849 237.496 261.856 234.477 261.856 230.769V201.887C261.856 198.165 264.863 195.158 268.556 195.158ZM268.556 247.106H283.454C287.16 247.106 290.153 250.126 290.153 253.834V382.425C290.153 386.147 287.146 389.152 283.454 389.152H268.556C264.849 389.152 261.856 386.133 261.856 382.425V253.834C261.856 250.112 264.863 247.106 268.556 247.106ZM310.533 26.8982H325.444C329.15 26.8982 332.143 29.9184 332.143 33.6269V58.3504C332.143 62.073 329.136 65.0791 325.444 65.0791H310.533C306.827 65.0791 303.832 62.059 303.832 58.3504V33.641C303.832 29.9184 306.841 26.9123 310.533 26.9123V26.8982ZM310.533 76.7385H325.444C329.15 76.7385 332.143 79.7586 332.143 83.4672V274.372C332.143 278.094 329.136 281.101 325.444 281.101H310.533C306.827 281.101 303.832 278.08 303.832 274.372V83.4812C303.832 79.7586 306.841 76.7525 310.533 76.7525V76.7385ZM310.533 294.852H325.444C329.15 294.852 332.143 297.873 332.143 301.581V353.304C332.143 357.026 329.136 360.033 325.444 360.033H310.533C306.827 360.033 303.832 357.012 303.832 353.304V301.581C303.832 297.859 306.841 294.852 310.533 294.852ZM310.533 373.799H325.444C329.15 373.799 332.143 376.819 332.143 380.528V413.567C332.143 417.29 329.136 420.296 325.444 420.296H310.533C306.827 420.296 303.832 417.276 303.832 413.567V380.528C303.832 376.805 306.841 373.799 310.533 373.799ZM352.51 363.404H367.42C371.127 363.404 374.121 366.425 374.121 370.133V430.185C374.121 433.908 371.113 436.914 367.42 436.914H352.51C348.803 436.914 345.81 433.894 345.81 430.185V370.133C345.81 366.41 348.817 363.404 352.51 363.404ZM352.51 155.685H367.42C371.127 155.685 374.121 158.705 374.121 162.414V309.686C374.121 313.409 371.113 316.415 367.42 316.415H352.51C348.803 316.415 345.81 313.394 345.81 309.686V162.414C345.81 158.691 348.817 155.685 352.51 155.685ZM352.51 24.8052H367.42C371.127 24.8052 374.121 27.8254 374.121 31.5339V135.19C374.121 138.912 371.113 141.918 367.42 141.918H352.51C348.803 141.918 345.81 138.898 345.81 135.19V31.5479C345.81 27.8254 348.817 24.8192 352.51 24.8192V24.8052ZM394.486 394.561H409.398C413.104 394.561 416.097 397.581 416.097 401.29V430.172C416.097 433.894 413.09 436.9 409.398 436.9H394.486C390.779 436.9 387.786 433.88 387.786 430.172V401.29C387.786 397.567 390.793 394.561 394.486 394.561ZM394.486 26.8842H409.398C413.104 26.8842 416.097 29.9044 416.097 33.6129V209.979C416.097 213.701 413.09 216.708 409.398 216.708H394.486C390.779 216.708 387.786 213.686 387.786 209.979V33.6269C387.786 29.9044 390.793 26.8982 394.486 26.8982V26.8842ZM394.486 230.459H409.398C413.104 230.459 416.097 233.48 416.097 237.188V309.686C416.097 313.409 413.09 316.415 409.398 316.415H394.486C390.779 316.415 387.786 313.394 387.786 309.686V237.188C387.786 233.465 390.793 230.459 394.486 230.459ZM436.436 35.2003H451.346C455.053 35.2003 458.046 38.2204 458.046 41.929V91.5725C458.046 95.295 455.039 98.3012 451.346 98.3012H436.436C432.729 98.3012 429.736 95.281 429.736 91.5725V41.943C429.736 38.2205 432.743 35.2143 436.436 35.2143V35.2003ZM436.436 112.054H451.346C455.053 112.054 458.046 115.074 458.046 118.782V309.686C458.046 313.409 455.039 316.415 451.346 316.415H436.436C432.729 316.415 429.736 313.394 429.736 309.686V118.796C429.736 115.074 432.743 112.068 436.436 112.068V112.054ZM478.398 39.3584H493.308C497.016 39.3584 500.009 42.3785 500.009 46.087V155.98C500.009 159.702 497.002 162.709 493.308 162.709H478.398C474.691 162.709 471.698 159.688 471.698 155.98V46.1011C471.698 42.3785 474.705 39.3724 478.398 39.3724V39.3584ZM478.398 176.461H493.308C497.016 176.461 500.009 179.481 500.009 183.19V274.4C500.009 278.122 497.002 281.128 493.308 281.128H478.398C474.691 281.128 471.698 278.108 471.698 274.4V183.19C471.698 179.467 474.705 176.461 478.398 176.461ZM478.398 294.852H493.308C497.016 294.852 500.009 297.873 500.009 301.581V342.923C500.009 346.646 497.002 349.651 493.308 349.651H478.398C474.691 349.651 471.698 346.631 471.698 342.923V301.581C471.698 297.859 474.705 294.852 478.398 294.852ZM520.11 45.5953H535.02C538.727 45.5953 541.72 48.6155 541.72 52.3241V222.452C541.72 226.174 538.713 229.181 535.02 229.181H520.11C516.403 229.181 513.409 226.16 513.409 222.452V52.3381C513.409 48.6155 516.417 45.6095 520.11 45.6095V45.5953ZM520.11 242.934H535.02C538.727 242.934 541.72 245.953 541.72 249.663V384.476C541.72 388.198 538.713 391.203 535.02 391.203H520.11C516.403 391.203 513.409 388.184 513.409 384.476V249.663C513.409 245.939 516.417 242.934 520.11 242.934ZM561.792 39.3584H576.702C580.409 39.3584 583.404 42.3785 583.404 46.087V118.586C583.404 122.308 580.395 125.314 576.702 125.314H561.792C558.085 125.314 555.092 122.294 555.092 118.586V46.1011C555.092 42.3785 558.099 39.3724 561.792 39.3724V39.3584ZM561.792 139.067H576.702C580.409 139.067 583.404 142.087 583.404 145.796V357.49C583.404 361.212 580.395 364.219 576.702 364.219H561.792C558.085 364.219 555.092 361.198 555.092 357.49V145.81C555.092 142.087 558.099 139.081 561.792 139.081V139.067ZM561.792 377.958H576.702C580.409 377.958 583.404 380.977 583.404 384.685V423.949C583.404 427.671 580.395 430.678 576.702 430.678H561.792C558.085 430.678 555.092 427.657 555.092 423.949V384.685C555.092 380.963 558.099 377.958 561.792 377.958ZM603.756 365.497H618.666C622.373 365.497 625.366 368.516 625.366 372.226V430.185C625.366 433.908 622.359 436.914 618.666 436.914H603.756C600.049 436.914 597.055 433.894 597.055 430.185V372.226C597.055 368.504 600.062 365.497 603.756 365.497ZM603.756 188.935H618.666C622.373 188.935 625.366 191.956 625.366 195.664V234.94C625.366 238.663 622.359 241.669 618.666 241.669H603.756C600.049 241.669 597.055 238.649 597.055 234.94V195.664C597.055 191.942 600.062 188.935 603.756 188.935ZM603.756 37.2933H618.666C622.373 37.2933 625.366 40.3135 625.366 44.022V168.455C625.366 172.177 622.359 175.182 618.666 175.182H603.756C600.049 175.182 597.055 172.163 597.055 168.455V44.022C597.055 40.2995 600.062 37.2933 603.756 37.2933ZM646.292 47.6883H661.202C664.909 47.6883 667.902 50.7087 667.902 54.4172V212.085C667.902 215.808 664.895 218.814 661.202 218.814H646.292C642.585 218.814 639.592 215.794 639.592 212.085V54.4172C639.592 50.6945 642.599 47.6883 646.292 47.6883ZM646.292 398.747H661.202C664.909 398.747 667.902 401.768 667.902 405.476V430.199C667.902 433.922 664.895 436.928 661.202 436.928H646.292C642.585 436.928 639.592 433.908 639.592 430.199V405.476C639.592 401.753 642.599 398.747 646.292 398.747ZM687.666 60.1625H702.578C706.285 60.1625 709.278 63.1827 709.278 66.8912V106.168C709.278 109.89 706.271 112.896 702.578 112.896H687.666C683.96 112.896 680.967 109.876 680.967 106.168V66.8912C680.967 63.1686 683.974 60.1625 687.666 60.1625ZM687.666 126.621H702.578C706.285 126.621 709.278 129.641 709.278 133.349V207.928C709.278 211.65 706.271 214.655 702.578 214.655H687.666C683.96 214.655 680.967 211.636 680.967 207.928V133.349C680.967 129.627 683.974 126.621 687.666 126.621ZM730.162 70.5294H745.072C748.779 70.5294 751.772 73.5497 751.772 77.2583V101.982C751.772 105.704 748.765 108.71 745.072 108.71H730.162C726.455 108.71 723.461 105.69 723.461 101.982V77.2583C723.461 73.5356 726.469 70.5294 730.162 70.5294ZM730.162 120.384H745.072C748.779 120.384 751.772 123.404 751.772 127.113V149.757C751.772 153.479 748.765 156.486 745.072 156.486H730.162C726.455 156.486 723.461 153.465 723.461 149.757V127.113C723.461 123.39 726.469 120.384 730.162 120.384ZM730.162 168.159H745.072C748.779 168.159 751.772 171.18 751.772 174.888V212.072C751.772 215.794 748.765 218.799 745.072 218.799H730.162C726.455 218.799 723.461 215.78 723.461 212.072V174.888C723.461 171.166 726.469 168.159 730.162 168.159ZM772.124 83.0036H787.034C790.741 83.0036 793.735 86.0238 793.735 89.7323V218.322C793.735 222.044 790.727 225.051 787.034 225.051H772.124C768.417 225.051 765.424 222.031 765.424 218.322V89.7183C765.424 85.9957 768.431 82.9896 772.124 82.9896V83.0036ZM813.822 120.384H828.732C832.439 120.384 835.432 123.404 835.432 127.113V214.15C835.432 217.873 832.425 220.879 828.732 220.879H813.822C810.114 220.879 807.121 217.859 807.121 214.15V127.113C807.121 123.39 810.128 120.384 813.822 120.384ZM855.196 168.159H870.107C873.813 168.159 876.808 171.18 876.808 174.888V199.611C876.808 203.333 873.799 206.34 870.107 206.34H855.196C851.49 206.34 848.497 203.319 848.497 199.611V174.888C848.497 171.166 851.504 168.159 855.196 168.159Z" fill="url(#paint6_radial_134_72)"/>
</g>
<defs>
<linearGradient id="paint0_linear_134_72" x1="1439" y1="0" x2="1943" y2="0" gradientUnits="userSpaceOnUse">
<stop stop-color="#0075FF"/>
<stop offset="1" stop-color="white"/>
</linearGradient>
<linearGradient id="paint1_linear_134_72" x1="1280.85" y1="33.9087" x2="1955.36" y2="33.9087" gradientUnits="userSpaceOnUse">
<stop stop-color="#0075FF"/>
<stop offset="1" stop-color="white"/>
</linearGradient>
<linearGradient id="paint2_linear_134_72" x1="1202" y1="33.9087" x2="1739.42" y2="33.9087" gradientUnits="userSpaceOnUse">
<stop stop-color="#0075FF"/>
<stop offset="1" stop-color="white"/>
</linearGradient>
<linearGradient id="paint3_linear_134_72" x1="1535.61" y1="80.6167" x2="1893.49" y2="80.6167" gradientUnits="userSpaceOnUse">
<stop stop-color="#0075FF"/>
<stop offset="1" stop-color="white"/>
</linearGradient>
<linearGradient id="paint4_linear_134_72" x1="1473.74" y1="125.863" x2="1832.83" y2="125.863" gradientUnits="userSpaceOnUse">
<stop stop-color="#0075FF"/>
<stop offset="1" stop-color="white"/>
</linearGradient>
<radialGradient id="paint5_radial_134_72" cx="0" cy="0" r="1" gradientUnits="userSpaceOnUse" gradientTransform="translate(760.023 115.45) rotate(157.013) scale(835.97 1707.78)">
<stop stop-color="#FBFDFF"/>
<stop offset="1" stop-color="white" stop-opacity="0"/>
</radialGradient>
<radialGradient id="paint6_radial_134_72" cx="0" cy="0" r="1" gradientUnits="userSpaceOnUse" gradientTransform="translate(760.023 115.45) rotate(157.013) scale(835.97 1707.78)">
<stop stop-color="#FBFDFF"/>
<stop offset="1" stop-color="white" stop-opacity="0"/>
</radialGradient>
<clipPath id="clip0_134_72">
<rect width="1739" height="413" fill="white" transform="translate(52 19)"/>
</clipPath>
</defs>
</svg>
