<svg width="379" height="90" viewBox="0 0 379 90" fill="none" xmlns="http://www.w3.org/2000/svg">
<g clip-path="url(#clip0_60_235)">
<path d="M255.969 79.4999C252.405 79.4999 249.362 78.6969 246.84 77.0909C244.317 75.4848 242.38 73.2629 241.03 70.4249C239.681 67.5869 239.007 64.3308 239.007 60.6569C239.007 56.9169 239.693 53.6388 241.065 50.8229C242.436 48.0069 244.383 45.8178 246.906 44.2559C249.451 42.6719 252.472 41.8799 255.969 41.8799C259.554 41.8799 262.607 42.6828 265.129 44.2889C267.674 45.8729 269.611 48.0839 270.939 50.9219C272.288 53.7378 272.964 56.9829 272.964 60.6569C272.964 64.3968 272.288 67.6859 270.939 70.5239C269.589 73.3398 267.641 75.5399 265.096 77.1239C262.551 78.7079 259.509 79.4999 255.969 79.4999ZM255.969 74.8469C259.952 74.8469 262.917 73.5378 264.864 70.9199C266.811 68.2799 267.785 64.8588 267.785 60.6569C267.785 56.3448 266.801 52.9128 264.831 50.3609C262.884 47.8089 259.93 46.5329 255.969 46.5329C253.29 46.5329 251.078 47.1378 249.33 48.3479C247.604 49.5359 246.31 51.1968 245.445 53.3309C244.605 55.4429 244.184 57.8849 244.184 60.6569C244.184 64.9469 245.18 68.3898 247.172 70.9859C249.163 73.5599 252.095 74.8469 255.969 74.8469Z" fill="white"/>
<mask id="mask0_60_235" style="mask-type:luminance" maskUnits="userSpaceOnUse" x="202" y="28" width="177" height="53">
<path d="M379 28.5H202.233V81H379V28.5Z" fill="white"/>
<path d="M255.969 79.4999C252.405 79.4999 249.363 78.6969 246.84 77.0909C244.317 75.4848 242.38 73.2629 241.031 70.4249C239.681 67.5869 239.007 64.3308 239.007 60.6569C239.007 56.9169 239.693 53.6388 241.065 50.8229C242.436 48.0069 244.383 45.8178 246.906 44.2559C249.451 42.6719 252.472 41.8799 255.969 41.8799C259.554 41.8799 262.607 42.6828 265.129 44.2889C267.674 45.8729 269.611 48.0839 270.939 50.9219C272.288 53.7378 272.964 56.9829 272.964 60.6569C272.964 64.3968 272.288 67.6859 270.939 70.5239C269.589 73.3398 267.641 75.5399 265.096 77.1239C262.551 78.7079 259.509 79.4999 255.969 79.4999ZM255.969 74.8469C259.952 74.8469 262.917 73.5378 264.864 70.9199C266.812 68.2799 267.785 64.8588 267.785 60.6569C267.785 56.3448 266.801 52.9128 264.831 50.3609C262.884 47.8089 259.93 46.5329 255.969 46.5329C253.29 46.5329 251.078 47.1378 249.33 48.3479C247.604 49.5359 246.31 51.1968 245.445 53.3309C244.605 55.4429 244.184 57.8849 244.184 60.6569C244.184 64.9469 245.18 68.3898 247.172 70.9859C249.163 73.5599 252.095 74.8469 255.969 74.8469Z" fill="black"/>
<path d="M280.22 78.51C279.891 78.51 279.621 78.2413 279.621 77.91V30.6C279.621 30.2686 279.891 30 280.22 30H283.902C284.234 30 284.502 30.2686 284.502 30.6V77.91C284.502 78.2413 284.234 78.51 283.902 78.51H280.22Z" fill="black"/>
<path d="M303.381 79.4999C300.682 79.4999 298.414 79.0158 296.577 78.0479C294.763 77.0799 293.401 75.7929 292.494 74.1869C291.587 72.5808 291.133 70.8318 291.133 68.9399C291.133 67.0038 291.52 65.3538 292.294 63.9899C293.091 62.6039 294.165 61.4709 295.515 60.5909C296.887 59.7108 298.469 59.0399 300.261 58.5779C302.076 58.1379 304.079 57.7529 306.269 57.4229C308.482 57.0708 310.641 56.7738 312.742 56.5319C314.246 56.345 315.617 56.1635 316.856 55.9877C317.178 55.9418 317.334 56.3751 317.057 56.5451C316.856 56.6679 316.598 56.5196 316.597 56.2839C316.585 53.0387 315.897 50.6133 314.534 49.0079C313.096 47.3139 310.596 46.4669 307.033 46.4669C304.577 46.4669 302.496 47.0169 300.793 48.1169C299.25 49.1262 298.125 50.6729 297.421 52.7567C297.314 53.0711 296.983 53.2554 296.664 53.1626L293.051 52.1075C292.741 52.0169 292.557 51.6953 292.648 51.3848C293.511 48.4638 295.109 46.1754 297.44 44.5199C299.918 42.7599 303.139 41.8799 307.099 41.8799C310.374 41.8799 313.151 42.4959 315.431 43.7279C317.732 44.9379 319.359 46.6979 320.31 49.0079C320.752 50.0418 321.04 51.1968 321.173 52.4729C321.307 53.7489 321.373 55.0469 321.373 56.3669V77.9099C321.373 78.2412 321.104 78.5099 320.773 78.5099H317.623C317.292 78.5099 317.024 78.2412 317.024 77.9099V70.3941C317.024 70.0008 317.424 69.7343 317.786 69.8859C318.063 70.0019 318.197 70.3194 318.078 70.5951C316.857 73.4084 315.034 75.5736 312.609 77.0909C310.043 78.6969 306.966 79.4999 303.381 79.4999ZM303.946 75.3089C306.225 75.3089 308.217 74.9019 309.92 74.0879C311.625 73.2738 312.997 72.1629 314.037 70.7549C315.076 69.3249 315.752 67.7189 316.062 65.9369C316.327 64.7928 316.471 63.5388 316.493 62.1749C316.508 61.2048 316.519 60.4073 316.523 59.7821C316.526 59.4581 316.868 59.2491 317.157 59.3972C317.533 59.5913 317.436 60.1541 317.015 60.2073C315.744 60.3683 314.398 60.5291 312.975 60.6899C311.05 60.9099 309.146 61.1628 307.266 61.4489C305.407 61.7349 303.724 62.0759 302.22 62.4719C301.202 62.7579 300.217 63.1649 299.266 63.6929C298.313 64.1988 297.528 64.8809 296.908 65.7389C296.312 66.5969 296.012 67.6638 296.012 68.9399C296.012 69.9738 296.267 70.9749 296.776 71.9429C297.307 72.9108 298.149 73.7139 299.299 74.3519C300.472 74.9898 302.021 75.3089 303.946 75.3089Z" fill="black"/>
<path d="M329.285 78.5102C328.954 78.5102 328.686 78.2416 328.686 77.9102V43.4702C328.686 43.1389 328.954 42.8702 329.285 42.8702H332.468C332.799 42.8702 333.068 43.1389 333.068 43.4702V50.26C333.068 50.6468 332.578 50.8138 332.343 50.5073C332.257 50.396 332.235 50.248 332.286 50.1175C332.674 49.1431 333.167 48.2453 333.764 47.4242C334.407 46.5223 335.103 45.7852 335.855 45.2132C336.786 44.3992 337.87 43.7833 339.109 43.3652C340.348 42.9253 341.599 42.6722 342.86 42.6062C343.94 42.5309 344.939 42.5846 345.858 42.7675C346.126 42.821 346.312 43.0625 346.312 43.3372V46.654C346.312 47.0449 345.945 47.3311 345.56 47.2645C344.463 47.0741 343.287 47.0504 342.03 47.1932C340.481 47.3692 339.054 47.9852 337.747 49.0412C336.554 49.9652 335.656 51.0763 335.06 52.3742C334.462 53.6503 334.064 55.0142 333.865 56.4662C333.665 57.8962 333.565 59.3152 333.565 60.7232V77.9102C333.565 78.2416 333.297 78.5102 332.966 78.5102H329.285Z" fill="black"/>
<path d="M363.362 79.4669C359.157 79.4669 355.694 78.5649 352.972 76.7609C350.443 75.0713 348.827 72.764 348.123 69.8393C348.045 69.5109 348.268 69.1914 348.601 69.1362L352.433 68.5011C352.738 68.4506 353.03 68.642 353.128 68.9358C353.719 70.7168 354.874 72.1592 356.59 73.2629C358.494 74.4509 360.839 75.0449 363.627 75.0449C366.349 75.0449 368.496 74.4839 370.067 73.3619C371.637 72.2178 372.424 70.6668 372.424 68.7089C372.424 67.6089 372.169 66.7179 371.66 66.0359C371.173 65.3319 370.166 64.6829 368.64 64.0889C367.112 63.4949 364.833 62.7909 361.801 61.9769C358.549 61.0968 356.004 60.2169 354.167 59.3369C352.331 58.4568 351.024 57.4449 350.25 56.3009C349.475 55.1349 349.089 53.7159 349.089 52.0439C349.089 50.0199 349.664 48.2489 350.815 46.7309C351.965 45.1908 353.558 44.0028 355.595 43.1669C357.631 42.3089 359.998 41.8799 362.697 41.8799C365.398 41.8799 367.81 42.3198 369.934 43.1999C372.081 44.0579 373.806 45.2679 375.113 46.8299C376.299 48.2493 377.047 49.8779 377.355 51.7152C377.409 52.0284 377.192 52.3185 376.88 52.3743L373.057 53.0583C372.728 53.1174 372.416 52.8927 372.338 52.5659C371.913 50.7576 370.9 49.3076 369.303 48.2159C367.555 46.9839 365.331 46.3458 362.631 46.3019C360.086 46.2359 358.017 46.7199 356.423 47.7539C354.831 48.7659 354.034 50.1189 354.034 51.8129C354.034 52.7589 354.322 53.5728 354.897 54.2549C355.472 54.9149 356.513 55.5419 358.017 56.1359C359.544 56.7299 361.713 57.3789 364.523 58.0829C367.82 58.9188 370.41 59.7989 372.29 60.7229C374.172 61.6469 375.51 62.7359 376.307 63.9899C377.103 65.2439 377.502 66.7949 377.502 68.6429C377.502 72.0089 376.241 74.6598 373.718 76.5959C371.218 78.5099 367.765 79.4669 363.362 79.4669Z" fill="black"/>
<path d="M204.242 78.5102C203.96 78.5102 203.731 78.283 203.731 78.0026V31.498C203.731 31.2176 203.96 30.9902 204.242 30.9902H222.187C222.651 30.9902 223.171 31.0123 223.746 31.0562C224.344 31.0783 224.942 31.1443 225.539 31.2542C228.04 31.6283 230.153 32.4973 231.879 33.8612C233.627 35.2033 234.944 36.8972 235.829 38.9432C236.737 40.9892 237.191 43.2553 237.191 45.7412C237.191 48.2053 236.737 50.4602 235.829 52.5062C234.922 54.5522 233.594 56.2573 231.846 57.6212C230.12 58.9633 228.017 59.8213 225.539 60.1952C224.942 60.2833 224.344 60.3493 223.746 60.3932C223.171 60.4373 222.651 60.4592 222.187 60.4592H209.121C208.84 60.4592 208.61 60.6866 208.61 60.967V78.0026C208.61 78.283 208.383 78.5102 208.1 78.5102H204.242ZM208.61 55.3316C208.61 55.612 208.84 55.8392 209.121 55.8392H222.054C222.452 55.8392 222.916 55.8173 223.448 55.7732C223.98 55.7293 224.5 55.6523 225.008 55.5422C226.647 55.1903 227.984 54.5192 229.025 53.5292C230.087 52.5392 230.872 51.3623 231.382 49.9982C231.912 48.6343 232.179 47.2153 232.179 45.7412C232.179 44.2673 231.912 42.8483 231.382 41.4842C230.872 40.0982 230.087 38.9102 229.025 37.9202C227.984 36.9302 226.647 36.2593 225.008 35.9072C224.5 35.7973 223.98 35.7313 223.448 35.7092C222.916 35.6653 222.452 35.6432 222.054 35.6432H209.121C208.84 35.6432 208.61 35.8706 208.61 36.151V55.3316Z" fill="black"/>
</mask>
<g mask="url(#mask0_60_235)">
<path d="M255.969 79.4999C252.405 79.4999 249.363 78.6969 246.84 77.0909C244.317 75.4848 242.38 73.2629 241.031 70.4249C239.681 67.5869 239.007 64.3308 239.007 60.6569C239.007 56.9169 239.693 53.6388 241.065 50.8229C242.436 48.0069 244.383 45.8178 246.906 44.2559C249.451 42.6719 252.472 41.8799 255.969 41.8799C259.554 41.8799 262.607 42.6828 265.129 44.2889C267.674 45.8729 269.611 48.0839 270.939 50.9219C272.288 53.7378 272.964 56.9829 272.964 60.6569C272.964 64.3968 272.288 67.6859 270.939 70.5239C269.589 73.3398 267.641 75.5399 265.096 77.1239C262.551 78.7079 259.509 79.4999 255.969 79.4999ZM255.969 74.8469C259.952 74.8469 262.917 73.5378 264.864 70.9199C266.812 68.2799 267.785 64.8588 267.785 60.6569C267.785 56.3448 266.801 52.9128 264.831 50.3609C262.884 47.8089 259.93 46.5329 255.969 46.5329C253.29 46.5329 251.078 47.1378 249.33 48.3479C247.604 49.5359 246.31 51.1968 245.445 53.3309C244.605 55.4429 244.184 57.8849 244.184 60.6569C244.184 64.9469 245.18 68.3898 247.172 70.9859C249.163 73.5599 252.095 74.8469 255.969 74.8469Z" stroke="white" stroke-width="0.8" stroke-linejoin="round"/>
</g>
<path d="M280.22 78.51C279.891 78.51 279.621 78.2413 279.621 77.91V30.6C279.621 30.2686 279.891 30 280.22 30H283.903C284.234 30 284.502 30.2686 284.502 30.6V77.91C284.502 78.2413 284.234 78.51 283.903 78.51H280.22Z" fill="white"/>
<mask id="mask1_60_235" style="mask-type:luminance" maskUnits="userSpaceOnUse" x="202" y="28" width="177" height="53">
<path d="M379 28.5H202.233V81H379V28.5Z" fill="white"/>
<path d="M255.969 79.4999C252.405 79.4999 249.363 78.6969 246.84 77.0909C244.317 75.4848 242.38 73.2629 241.031 70.4249C239.681 67.5869 239.007 64.3308 239.007 60.6569C239.007 56.9169 239.693 53.6388 241.065 50.8229C242.436 48.0069 244.383 45.8178 246.906 44.2559C249.451 42.6719 252.472 41.8799 255.969 41.8799C259.554 41.8799 262.607 42.6828 265.129 44.2889C267.674 45.8729 269.611 48.0839 270.939 50.9219C272.288 53.7378 272.964 56.9829 272.964 60.6569C272.964 64.3968 272.288 67.6859 270.939 70.5239C269.589 73.3398 267.641 75.5399 265.096 77.1239C262.551 78.7079 259.509 79.4999 255.969 79.4999ZM255.969 74.8469C259.952 74.8469 262.917 73.5378 264.864 70.9199C266.812 68.2799 267.785 64.8588 267.785 60.6569C267.785 56.3448 266.801 52.9128 264.831 50.3609C262.884 47.8089 259.93 46.5329 255.969 46.5329C253.29 46.5329 251.078 47.1378 249.33 48.3479C247.604 49.5359 246.31 51.1968 245.445 53.3309C244.605 55.4429 244.184 57.8849 244.184 60.6569C244.184 64.9469 245.18 68.3898 247.172 70.9859C249.163 73.5599 252.095 74.8469 255.969 74.8469Z" fill="black"/>
<path d="M280.22 78.51C279.891 78.51 279.621 78.2413 279.621 77.91V30.6C279.621 30.2686 279.891 30 280.22 30H283.902C284.234 30 284.502 30.2686 284.502 30.6V77.91C284.502 78.2413 284.234 78.51 283.902 78.51H280.22Z" fill="black"/>
<path d="M303.381 79.4999C300.682 79.4999 298.414 79.0158 296.577 78.0479C294.763 77.0799 293.401 75.7929 292.494 74.1869C291.587 72.5808 291.133 70.8318 291.133 68.9399C291.133 67.0038 291.52 65.3538 292.294 63.9899C293.091 62.6039 294.165 61.4709 295.515 60.5909C296.887 59.7108 298.469 59.0399 300.261 58.5779C302.076 58.1379 304.079 57.7529 306.269 57.4229C308.482 57.0708 310.641 56.7738 312.742 56.5319C314.246 56.345 315.617 56.1635 316.856 55.9877C317.178 55.9418 317.334 56.3751 317.057 56.5451C316.856 56.6679 316.598 56.5196 316.597 56.2839C316.585 53.0387 315.897 50.6133 314.534 49.0079C313.096 47.3139 310.596 46.4669 307.033 46.4669C304.577 46.4669 302.496 47.0169 300.793 48.1169C299.25 49.1262 298.125 50.6729 297.421 52.7567C297.314 53.0711 296.983 53.2554 296.664 53.1626L293.051 52.1075C292.741 52.0169 292.557 51.6953 292.648 51.3848C293.511 48.4638 295.109 46.1754 297.44 44.5199C299.918 42.7599 303.139 41.8799 307.099 41.8799C310.374 41.8799 313.151 42.4959 315.431 43.7279C317.732 44.9379 319.359 46.6979 320.31 49.0079C320.752 50.0418 321.04 51.1968 321.173 52.4729C321.307 53.7489 321.373 55.0469 321.373 56.3669V77.9099C321.373 78.2412 321.104 78.5099 320.773 78.5099H317.623C317.292 78.5099 317.024 78.2412 317.024 77.9099V70.3941C317.024 70.0008 317.424 69.7343 317.786 69.8859C318.063 70.0019 318.197 70.3194 318.078 70.5951C316.857 73.4084 315.034 75.5736 312.609 77.0909C310.043 78.6969 306.966 79.4999 303.381 79.4999ZM303.946 75.3089C306.225 75.3089 308.217 74.9019 309.92 74.0879C311.625 73.2738 312.997 72.1629 314.037 70.7549C315.076 69.3249 315.752 67.7189 316.062 65.9369C316.327 64.7928 316.471 63.5388 316.493 62.1749C316.508 61.2048 316.519 60.4073 316.523 59.7821C316.526 59.4581 316.868 59.2491 317.157 59.3972C317.533 59.5913 317.436 60.1541 317.015 60.2073C315.744 60.3683 314.398 60.5291 312.975 60.6899C311.05 60.9099 309.146 61.1628 307.266 61.4489C305.407 61.7349 303.724 62.0759 302.22 62.4719C301.202 62.7579 300.217 63.1649 299.266 63.6929C298.313 64.1988 297.528 64.8809 296.908 65.7389C296.312 66.5969 296.012 67.6638 296.012 68.9399C296.012 69.9738 296.267 70.9749 296.776 71.9429C297.307 72.9108 298.149 73.7139 299.299 74.3519C300.472 74.9898 302.021 75.3089 303.946 75.3089Z" fill="black"/>
<path d="M329.285 78.5102C328.954 78.5102 328.686 78.2416 328.686 77.9102V43.4702C328.686 43.1389 328.954 42.8702 329.285 42.8702H332.468C332.799 42.8702 333.068 43.1389 333.068 43.4702V50.26C333.068 50.6468 332.578 50.8138 332.343 50.5073C332.257 50.396 332.235 50.248 332.286 50.1175C332.674 49.1431 333.167 48.2453 333.764 47.4242C334.407 46.5223 335.103 45.7852 335.855 45.2132C336.786 44.3992 337.87 43.7833 339.109 43.3652C340.348 42.9253 341.599 42.6722 342.86 42.6062C343.94 42.5309 344.939 42.5846 345.858 42.7675C346.126 42.821 346.312 43.0625 346.312 43.3372V46.654C346.312 47.0449 345.945 47.3311 345.56 47.2645C344.463 47.0741 343.287 47.0504 342.03 47.1932C340.481 47.3692 339.054 47.9852 337.747 49.0412C336.554 49.9652 335.656 51.0763 335.06 52.3742C334.462 53.6503 334.064 55.0142 333.865 56.4662C333.665 57.8962 333.565 59.3152 333.565 60.7232V77.9102C333.565 78.2416 333.297 78.5102 332.966 78.5102H329.285Z" fill="black"/>
<path d="M363.362 79.4669C359.157 79.4669 355.694 78.5649 352.972 76.7609C350.443 75.0713 348.827 72.764 348.123 69.8393C348.045 69.5109 348.268 69.1914 348.601 69.1362L352.433 68.5011C352.738 68.4506 353.03 68.642 353.128 68.9358C353.719 70.7168 354.874 72.1592 356.59 73.2629C358.494 74.4509 360.839 75.0449 363.627 75.0449C366.349 75.0449 368.496 74.4839 370.067 73.3619C371.637 72.2178 372.424 70.6668 372.424 68.7089C372.424 67.6089 372.169 66.7179 371.66 66.0359C371.173 65.3319 370.166 64.6829 368.64 64.0889C367.112 63.4949 364.833 62.7909 361.801 61.9769C358.549 61.0968 356.004 60.2169 354.167 59.3369C352.331 58.4568 351.024 57.4449 350.25 56.3009C349.475 55.1349 349.089 53.7159 349.089 52.0439C349.089 50.0199 349.664 48.2489 350.815 46.7309C351.965 45.1908 353.558 44.0028 355.595 43.1669C357.631 42.3089 359.998 41.8799 362.697 41.8799C365.398 41.8799 367.81 42.3198 369.934 43.1999C372.081 44.0579 373.806 45.2679 375.113 46.8299C376.299 48.2493 377.047 49.8779 377.355 51.7152C377.409 52.0284 377.192 52.3185 376.88 52.3743L373.057 53.0583C372.728 53.1174 372.416 52.8927 372.338 52.5659C371.913 50.7576 370.9 49.3076 369.303 48.2159C367.555 46.9839 365.331 46.3458 362.631 46.3019C360.086 46.2359 358.017 46.7199 356.423 47.7539C354.831 48.7659 354.034 50.1189 354.034 51.8129C354.034 52.7589 354.322 53.5728 354.897 54.2549C355.472 54.9149 356.513 55.5419 358.017 56.1359C359.544 56.7299 361.713 57.3789 364.523 58.0829C367.82 58.9188 370.41 59.7989 372.29 60.7229C374.172 61.6469 375.51 62.7359 376.307 63.9899C377.103 65.2439 377.502 66.7949 377.502 68.6429C377.502 72.0089 376.241 74.6598 373.718 76.5959C371.218 78.5099 367.765 79.4669 363.362 79.4669Z" fill="black"/>
<path d="M204.242 78.5102C203.96 78.5102 203.731 78.283 203.731 78.0026V31.498C203.731 31.2176 203.96 30.9902 204.242 30.9902H222.187C222.651 30.9902 223.171 31.0123 223.746 31.0562C224.344 31.0783 224.942 31.1443 225.539 31.2542C228.04 31.6283 230.153 32.4973 231.879 33.8612C233.627 35.2033 234.944 36.8972 235.829 38.9432C236.737 40.9892 237.191 43.2553 237.191 45.7412C237.191 48.2053 236.737 50.4602 235.829 52.5062C234.922 54.5522 233.594 56.2573 231.846 57.6212C230.12 58.9633 228.017 59.8213 225.539 60.1952C224.942 60.2833 224.344 60.3493 223.746 60.3932C223.171 60.4373 222.651 60.4592 222.187 60.4592H209.121C208.84 60.4592 208.61 60.6866 208.61 60.967V78.0026C208.61 78.283 208.383 78.5102 208.1 78.5102H204.242ZM208.61 55.3316C208.61 55.612 208.84 55.8392 209.121 55.8392H222.054C222.452 55.8392 222.916 55.8173 223.448 55.7732C223.98 55.7293 224.5 55.6523 225.008 55.5422C226.647 55.1903 227.984 54.5192 229.025 53.5292C230.087 52.5392 230.872 51.3623 231.382 49.9982C231.912 48.6343 232.179 47.2153 232.179 45.7412C232.179 44.2673 231.912 42.8483 231.382 41.4842C230.872 40.0982 230.087 38.9102 229.025 37.9202C227.984 36.9302 226.647 36.2593 225.008 35.9072C224.5 35.7973 223.98 35.7313 223.448 35.7092C222.916 35.6653 222.452 35.6432 222.054 35.6432H209.121C208.84 35.6432 208.61 35.8706 208.61 36.151V55.3316Z" fill="black"/>
</mask>
<g mask="url(#mask1_60_235)">
<path d="M280.22 78.51C279.891 78.51 279.621 78.2413 279.621 77.91V30.6C279.621 30.2686 279.891 30 280.22 30H283.902C284.234 30 284.502 30.2686 284.502 30.6V77.91C284.502 78.2413 284.234 78.51 283.902 78.51H280.22Z" stroke="white" stroke-width="0.8" stroke-linejoin="round"/>
</g>
<path d="M303.381 79.4999C300.682 79.4999 298.414 79.0158 296.577 78.0479C294.763 77.0799 293.401 75.7929 292.494 74.1869C291.587 72.5808 291.133 70.8318 291.133 68.9399C291.133 67.0038 291.52 65.3538 292.294 63.9899C293.091 62.6039 294.165 61.4709 295.515 60.5909C296.887 59.7108 298.469 59.0399 300.261 58.5779C302.076 58.1379 304.079 57.7529 306.269 57.4229C308.482 57.0708 310.641 56.7738 312.742 56.5319C314.246 56.345 315.617 56.1635 316.856 55.9877C317.178 55.9418 317.334 56.3751 317.057 56.5451C316.856 56.6679 316.598 56.5196 316.597 56.2839C316.585 53.0387 315.897 50.6133 314.534 49.0079C313.096 47.3139 310.596 46.4669 307.033 46.4669C304.577 46.4669 302.496 47.0169 300.793 48.1169C299.25 49.1262 298.125 50.6729 297.421 52.7567C297.314 53.0711 296.983 53.2554 296.664 53.1626L293.051 52.1075C292.741 52.0169 292.556 51.6953 292.648 51.3848C293.511 48.4638 295.109 46.1754 297.44 44.5199C299.918 42.7599 303.139 41.8799 307.099 41.8799C310.374 41.8799 313.151 42.4959 315.431 43.7279C317.732 44.9379 319.359 46.6979 320.31 49.0079C320.752 50.0418 321.04 51.1968 321.173 52.4729C321.307 53.7489 321.372 55.0469 321.372 56.3669V77.9099C321.372 78.2412 321.104 78.5099 320.773 78.5099H317.623C317.292 78.5099 317.024 78.2412 317.024 77.9099V70.3941C317.024 70.0008 317.424 69.7343 317.786 69.8859C318.063 70.0019 318.197 70.3194 318.078 70.5951C316.857 73.4084 315.034 75.5736 312.609 77.0909C310.043 78.6969 306.966 79.4999 303.381 79.4999ZM303.946 75.3089C306.224 75.3089 308.217 74.9019 309.92 74.0879C311.625 73.2738 312.997 72.1629 314.037 70.7549C315.076 69.3249 315.752 67.7189 316.062 65.9369C316.327 64.7928 316.471 63.5388 316.493 62.1749C316.508 61.2048 316.519 60.4073 316.523 59.7821C316.526 59.4581 316.868 59.2491 317.157 59.3972C317.533 59.5913 317.436 60.1541 317.015 60.2073C315.744 60.3683 314.398 60.5291 312.975 60.6899C311.05 60.9099 309.146 61.1628 307.266 61.4489C305.407 61.7349 303.724 62.0759 302.22 62.4719C301.202 62.7579 300.217 63.1649 299.266 63.6929C298.313 64.1988 297.528 64.8809 296.908 65.7389C296.312 66.5969 296.012 67.6638 296.012 68.9399C296.012 69.9738 296.267 70.9749 296.776 71.9429C297.307 72.9108 298.149 73.7139 299.299 74.3519C300.472 74.9898 302.021 75.3089 303.946 75.3089Z" fill="white"/>
<mask id="mask2_60_235" style="mask-type:luminance" maskUnits="userSpaceOnUse" x="202" y="28" width="177" height="53">
<path d="M379 28.5H202.233V81H379V28.5Z" fill="white"/>
<path d="M255.969 79.4999C252.405 79.4999 249.363 78.6969 246.84 77.0909C244.317 75.4848 242.38 73.2629 241.031 70.4249C239.681 67.5869 239.007 64.3308 239.007 60.6569C239.007 56.9169 239.693 53.6388 241.065 50.8229C242.436 48.0069 244.383 45.8178 246.906 44.2559C249.451 42.6719 252.472 41.8799 255.969 41.8799C259.554 41.8799 262.607 42.6828 265.129 44.2889C267.674 45.8729 269.611 48.0839 270.939 50.9219C272.288 53.7378 272.964 56.9829 272.964 60.6569C272.964 64.3968 272.288 67.6859 270.939 70.5239C269.589 73.3398 267.641 75.5399 265.096 77.1239C262.551 78.7079 259.509 79.4999 255.969 79.4999ZM255.969 74.8469C259.952 74.8469 262.917 73.5378 264.864 70.9199C266.812 68.2799 267.785 64.8588 267.785 60.6569C267.785 56.3448 266.801 52.9128 264.831 50.3609C262.884 47.8089 259.93 46.5329 255.969 46.5329C253.29 46.5329 251.078 47.1378 249.33 48.3479C247.604 49.5359 246.31 51.1968 245.445 53.3309C244.605 55.4429 244.184 57.8849 244.184 60.6569C244.184 64.9469 245.18 68.3898 247.172 70.9859C249.163 73.5599 252.095 74.8469 255.969 74.8469Z" fill="black"/>
<path d="M280.22 78.51C279.891 78.51 279.621 78.2413 279.621 77.91V30.6C279.621 30.2686 279.891 30 280.22 30H283.902C284.234 30 284.502 30.2686 284.502 30.6V77.91C284.502 78.2413 284.234 78.51 283.902 78.51H280.22Z" fill="black"/>
<path d="M303.381 79.4999C300.682 79.4999 298.414 79.0158 296.577 78.0479C294.763 77.0799 293.401 75.7929 292.494 74.1869C291.587 72.5808 291.133 70.8318 291.133 68.9399C291.133 67.0038 291.52 65.3538 292.294 63.9899C293.091 62.6039 294.165 61.4709 295.515 60.5909C296.887 59.7108 298.469 59.0399 300.261 58.5779C302.076 58.1379 304.079 57.7529 306.269 57.4229C308.482 57.0708 310.641 56.7738 312.742 56.5319C314.246 56.345 315.617 56.1635 316.856 55.9877C317.178 55.9418 317.334 56.3751 317.057 56.5451C316.856 56.6679 316.598 56.5196 316.597 56.2839C316.585 53.0387 315.897 50.6133 314.534 49.0079C313.096 47.3139 310.596 46.4669 307.033 46.4669C304.577 46.4669 302.496 47.0169 300.793 48.1169C299.25 49.1262 298.125 50.6729 297.421 52.7567C297.314 53.0711 296.983 53.2554 296.664 53.1626L293.051 52.1075C292.741 52.0169 292.557 51.6953 292.648 51.3848C293.511 48.4638 295.109 46.1754 297.44 44.5199C299.918 42.7599 303.139 41.8799 307.099 41.8799C310.374 41.8799 313.151 42.4959 315.431 43.7279C317.732 44.9379 319.359 46.6979 320.31 49.0079C320.752 50.0418 321.04 51.1968 321.173 52.4729C321.307 53.7489 321.373 55.0469 321.373 56.3669V77.9099C321.373 78.2412 321.104 78.5099 320.773 78.5099H317.623C317.292 78.5099 317.024 78.2412 317.024 77.9099V70.3941C317.024 70.0008 317.424 69.7343 317.786 69.8859C318.063 70.0019 318.197 70.3194 318.078 70.5951C316.857 73.4084 315.034 75.5736 312.609 77.0909C310.043 78.6969 306.966 79.4999 303.381 79.4999ZM303.946 75.3089C306.225 75.3089 308.217 74.9019 309.92 74.0879C311.625 73.2738 312.997 72.1629 314.037 70.7549C315.076 69.3249 315.752 67.7189 316.062 65.9369C316.327 64.7928 316.471 63.5388 316.493 62.1749C316.508 61.2048 316.519 60.4073 316.523 59.7821C316.526 59.4581 316.868 59.2491 317.157 59.3972C317.533 59.5913 317.436 60.1541 317.015 60.2073C315.744 60.3683 314.398 60.5291 312.975 60.6899C311.05 60.9099 309.146 61.1628 307.266 61.4489C305.407 61.7349 303.724 62.0759 302.22 62.4719C301.202 62.7579 300.217 63.1649 299.266 63.6929C298.313 64.1988 297.528 64.8809 296.908 65.7389C296.312 66.5969 296.012 67.6638 296.012 68.9399C296.012 69.9738 296.267 70.9749 296.776 71.9429C297.307 72.9108 298.149 73.7139 299.299 74.3519C300.472 74.9898 302.021 75.3089 303.946 75.3089Z" fill="black"/>
<path d="M329.285 78.5102C328.954 78.5102 328.686 78.2416 328.686 77.9102V43.4702C328.686 43.1389 328.954 42.8702 329.285 42.8702H332.468C332.799 42.8702 333.068 43.1389 333.068 43.4702V50.26C333.068 50.6468 332.578 50.8138 332.343 50.5073C332.257 50.396 332.235 50.248 332.286 50.1175C332.674 49.1431 333.167 48.2453 333.764 47.4242C334.407 46.5223 335.103 45.7852 335.855 45.2132C336.786 44.3992 337.87 43.7833 339.109 43.3652C340.348 42.9253 341.599 42.6722 342.86 42.6062C343.94 42.5309 344.939 42.5846 345.858 42.7675C346.126 42.821 346.312 43.0625 346.312 43.3372V46.654C346.312 47.0449 345.945 47.3311 345.56 47.2645C344.463 47.0741 343.287 47.0504 342.03 47.1932C340.481 47.3692 339.054 47.9852 337.747 49.0412C336.554 49.9652 335.656 51.0763 335.06 52.3742C334.462 53.6503 334.064 55.0142 333.865 56.4662C333.665 57.8962 333.565 59.3152 333.565 60.7232V77.9102C333.565 78.2416 333.297 78.5102 332.966 78.5102H329.285Z" fill="black"/>
<path d="M363.362 79.4669C359.157 79.4669 355.694 78.5649 352.972 76.7609C350.443 75.0713 348.827 72.764 348.123 69.8393C348.045 69.5109 348.268 69.1914 348.601 69.1362L352.433 68.5011C352.738 68.4506 353.03 68.642 353.128 68.9358C353.719 70.7168 354.874 72.1592 356.59 73.2629C358.494 74.4509 360.839 75.0449 363.627 75.0449C366.349 75.0449 368.496 74.4839 370.067 73.3619C371.637 72.2178 372.424 70.6668 372.424 68.7089C372.424 67.6089 372.169 66.7179 371.66 66.0359C371.173 65.3319 370.166 64.6829 368.64 64.0889C367.112 63.4949 364.833 62.7909 361.801 61.9769C358.549 61.0968 356.004 60.2169 354.167 59.3369C352.331 58.4568 351.024 57.4449 350.25 56.3009C349.475 55.1349 349.089 53.7159 349.089 52.0439C349.089 50.0199 349.664 48.2489 350.815 46.7309C351.965 45.1908 353.558 44.0028 355.595 43.1669C357.631 42.3089 359.998 41.8799 362.697 41.8799C365.398 41.8799 367.81 42.3198 369.934 43.1999C372.081 44.0579 373.806 45.2679 375.113 46.8299C376.299 48.2493 377.047 49.8779 377.355 51.7152C377.409 52.0284 377.192 52.3185 376.88 52.3743L373.057 53.0583C372.728 53.1174 372.416 52.8927 372.338 52.5659C371.913 50.7576 370.9 49.3076 369.303 48.2159C367.555 46.9839 365.331 46.3458 362.631 46.3019C360.086 46.2359 358.017 46.7199 356.423 47.7539C354.831 48.7659 354.034 50.1189 354.034 51.8129C354.034 52.7589 354.322 53.5728 354.897 54.2549C355.472 54.9149 356.513 55.5419 358.017 56.1359C359.544 56.7299 361.713 57.3789 364.523 58.0829C367.82 58.9188 370.41 59.7989 372.29 60.7229C374.172 61.6469 375.51 62.7359 376.307 63.9899C377.103 65.2439 377.502 66.7949 377.502 68.6429C377.502 72.0089 376.241 74.6598 373.718 76.5959C371.218 78.5099 367.765 79.4669 363.362 79.4669Z" fill="black"/>
<path d="M204.242 78.5102C203.96 78.5102 203.731 78.283 203.731 78.0026V31.498C203.731 31.2176 203.96 30.9902 204.242 30.9902H222.187C222.651 30.9902 223.171 31.0123 223.746 31.0562C224.344 31.0783 224.942 31.1443 225.539 31.2542C228.04 31.6283 230.153 32.4973 231.879 33.8612C233.627 35.2033 234.944 36.8972 235.829 38.9432C236.737 40.9892 237.191 43.2553 237.191 45.7412C237.191 48.2053 236.737 50.4602 235.829 52.5062C234.922 54.5522 233.594 56.2573 231.846 57.6212C230.12 58.9633 228.017 59.8213 225.539 60.1952C224.942 60.2833 224.344 60.3493 223.746 60.3932C223.171 60.4373 222.651 60.4592 222.187 60.4592H209.121C208.84 60.4592 208.61 60.6866 208.61 60.967V78.0026C208.61 78.283 208.383 78.5102 208.1 78.5102H204.242ZM208.61 55.3316C208.61 55.612 208.84 55.8392 209.121 55.8392H222.054C222.452 55.8392 222.916 55.8173 223.448 55.7732C223.98 55.7293 224.5 55.6523 225.008 55.5422C226.647 55.1903 227.984 54.5192 229.025 53.5292C230.087 52.5392 230.872 51.3623 231.382 49.9982C231.912 48.6343 232.179 47.2153 232.179 45.7412C232.179 44.2673 231.912 42.8483 231.382 41.4842C230.872 40.0982 230.087 38.9102 229.025 37.9202C227.984 36.9302 226.647 36.2593 225.008 35.9072C224.5 35.7973 223.98 35.7313 223.448 35.7092C222.916 35.6653 222.452 35.6432 222.054 35.6432H209.121C208.84 35.6432 208.61 35.8706 208.61 36.151V55.3316Z" fill="black"/>
</mask>
<g mask="url(#mask2_60_235)">
<path d="M303.381 79.4999C300.682 79.4999 298.414 79.0158 296.577 78.0479C294.763 77.0799 293.401 75.7929 292.494 74.1869C291.587 72.5808 291.133 70.8318 291.133 68.9399C291.133 67.0038 291.52 65.3538 292.294 63.9899C293.091 62.6039 294.165 61.4709 295.515 60.5909C296.887 59.7108 298.469 59.0399 300.261 58.5779C302.076 58.1379 304.079 57.7529 306.269 57.4229C308.482 57.0708 310.641 56.7738 312.742 56.5319C314.246 56.345 315.617 56.1635 316.856 55.9877C317.178 55.9418 317.334 56.3751 317.057 56.5451C316.856 56.6679 316.598 56.5196 316.597 56.2839C316.585 53.0387 315.897 50.6133 314.534 49.0079C313.096 47.3139 310.596 46.4669 307.033 46.4669C304.577 46.4669 302.496 47.0169 300.793 48.1169C299.25 49.1262 298.125 50.6729 297.421 52.7567C297.314 53.0711 296.983 53.2554 296.664 53.1626L293.051 52.1075C292.741 52.0169 292.557 51.6953 292.648 51.3848C293.511 48.4638 295.109 46.1754 297.44 44.5199C299.918 42.7599 303.139 41.8799 307.099 41.8799C310.374 41.8799 313.151 42.4959 315.431 43.7279C317.732 44.9379 319.359 46.6979 320.31 49.0079C320.752 50.0418 321.04 51.1968 321.173 52.4729C321.307 53.7489 321.373 55.0469 321.373 56.3669V77.9099C321.373 78.2412 321.104 78.5099 320.773 78.5099H317.623C317.292 78.5099 317.024 78.2412 317.024 77.9099V70.3941C317.024 70.0008 317.424 69.7343 317.786 69.8859C318.063 70.0019 318.197 70.3194 318.078 70.5951C316.857 73.4084 315.034 75.5736 312.609 77.0909C310.043 78.6969 306.966 79.4999 303.381 79.4999ZM303.946 75.3089C306.225 75.3089 308.217 74.9019 309.92 74.0879C311.625 73.2738 312.997 72.1629 314.037 70.7549C315.076 69.3249 315.752 67.7189 316.062 65.9369C316.327 64.7928 316.471 63.5388 316.493 62.1749C316.508 61.2048 316.519 60.4073 316.523 59.7821C316.526 59.4581 316.868 59.2491 317.157 59.3972C317.533 59.5913 317.436 60.1541 317.015 60.2073C315.744 60.3683 314.398 60.5291 312.975 60.6899C311.05 60.9099 309.146 61.1628 307.266 61.4489C305.407 61.7349 303.724 62.0759 302.22 62.4719C301.202 62.7579 300.217 63.1649 299.266 63.6929C298.313 64.1988 297.528 64.8809 296.908 65.7389C296.312 66.5969 296.012 67.6638 296.012 68.9399C296.012 69.9738 296.267 70.9749 296.776 71.9429C297.307 72.9108 298.149 73.7139 299.299 74.3519C300.472 74.9898 302.021 75.3089 303.946 75.3089Z" stroke="white" stroke-width="0.8" stroke-linejoin="round"/>
</g>
<path d="M329.285 78.5097C328.954 78.5097 328.686 78.2411 328.686 77.9097V43.4697C328.686 43.1384 328.954 42.8697 329.285 42.8697H332.468C332.799 42.8697 333.068 43.1384 333.068 43.4697V50.2595C333.068 50.6463 332.578 50.8133 332.343 50.5068C332.257 50.3955 332.235 50.2475 332.286 50.117C332.674 49.1426 333.166 48.2448 333.764 47.4237C334.407 46.5218 335.103 45.7847 335.855 45.2127C336.786 44.3987 337.87 43.7828 339.109 43.3647C340.348 42.9248 341.599 42.6717 342.86 42.6057C343.94 42.5304 344.939 42.5841 345.858 42.767C346.126 42.8205 346.312 43.062 346.312 43.3367V46.6535C346.312 47.0444 345.945 47.3306 345.56 47.264C344.463 47.0736 343.287 47.0499 342.03 47.1927C340.481 47.3687 339.054 47.9847 337.747 49.0407C336.553 49.9647 335.656 51.0758 335.06 52.3737C334.462 53.6498 334.064 55.0137 333.865 56.4657C333.665 57.8957 333.565 59.3147 333.565 60.7227V77.9097C333.565 78.2411 333.297 78.5097 332.966 78.5097H329.285Z" fill="white"/>
<mask id="mask3_60_235" style="mask-type:luminance" maskUnits="userSpaceOnUse" x="202" y="28" width="177" height="53">
<path d="M379 28.5H202.233V81H379V28.5Z" fill="white"/>
<path d="M255.969 79.4999C252.405 79.4999 249.363 78.6969 246.84 77.0909C244.317 75.4848 242.38 73.2629 241.031 70.4249C239.681 67.5869 239.007 64.3308 239.007 60.6569C239.007 56.9169 239.693 53.6388 241.065 50.8229C242.436 48.0069 244.383 45.8178 246.906 44.2559C249.451 42.6719 252.472 41.8799 255.969 41.8799C259.554 41.8799 262.607 42.6828 265.129 44.2889C267.674 45.8729 269.611 48.0839 270.939 50.9219C272.288 53.7378 272.964 56.9829 272.964 60.6569C272.964 64.3968 272.288 67.6859 270.939 70.5239C269.589 73.3398 267.641 75.5399 265.096 77.1239C262.551 78.7079 259.509 79.4999 255.969 79.4999ZM255.969 74.8469C259.952 74.8469 262.917 73.5378 264.864 70.9199C266.812 68.2799 267.785 64.8588 267.785 60.6569C267.785 56.3448 266.801 52.9128 264.831 50.3609C262.884 47.8089 259.93 46.5329 255.969 46.5329C253.29 46.5329 251.078 47.1378 249.33 48.3479C247.604 49.5359 246.31 51.1968 245.445 53.3309C244.605 55.4429 244.184 57.8849 244.184 60.6569C244.184 64.9469 245.18 68.3898 247.172 70.9859C249.163 73.5599 252.095 74.8469 255.969 74.8469Z" fill="black"/>
<path d="M280.22 78.51C279.891 78.51 279.621 78.2413 279.621 77.91V30.6C279.621 30.2686 279.891 30 280.22 30H283.902C284.234 30 284.502 30.2686 284.502 30.6V77.91C284.502 78.2413 284.234 78.51 283.902 78.51H280.22Z" fill="black"/>
<path d="M303.381 79.4999C300.682 79.4999 298.414 79.0158 296.577 78.0479C294.763 77.0799 293.401 75.7929 292.494 74.1869C291.587 72.5808 291.133 70.8318 291.133 68.9399C291.133 67.0038 291.52 65.3538 292.294 63.9899C293.091 62.6039 294.165 61.4709 295.515 60.5909C296.887 59.7108 298.469 59.0399 300.261 58.5779C302.076 58.1379 304.079 57.7529 306.269 57.4229C308.482 57.0708 310.641 56.7738 312.742 56.5319C314.246 56.345 315.617 56.1635 316.856 55.9877C317.178 55.9418 317.334 56.3751 317.057 56.5451C316.856 56.6679 316.598 56.5196 316.597 56.2839C316.585 53.0387 315.897 50.6133 314.534 49.0079C313.096 47.3139 310.596 46.4669 307.033 46.4669C304.577 46.4669 302.496 47.0169 300.793 48.1169C299.25 49.1262 298.125 50.6729 297.421 52.7567C297.314 53.0711 296.983 53.2554 296.664 53.1626L293.051 52.1075C292.741 52.0169 292.557 51.6953 292.648 51.3848C293.511 48.4638 295.109 46.1754 297.44 44.5199C299.918 42.7599 303.139 41.8799 307.099 41.8799C310.374 41.8799 313.151 42.4959 315.431 43.7279C317.732 44.9379 319.359 46.6979 320.31 49.0079C320.752 50.0418 321.04 51.1968 321.173 52.4729C321.307 53.7489 321.373 55.0469 321.373 56.3669V77.9099C321.373 78.2412 321.104 78.5099 320.773 78.5099H317.623C317.292 78.5099 317.024 78.2412 317.024 77.9099V70.3941C317.024 70.0008 317.424 69.7343 317.786 69.8859C318.063 70.0019 318.197 70.3194 318.078 70.5951C316.857 73.4084 315.034 75.5736 312.609 77.0909C310.043 78.6969 306.966 79.4999 303.381 79.4999ZM303.946 75.3089C306.225 75.3089 308.217 74.9019 309.92 74.0879C311.625 73.2738 312.997 72.1629 314.037 70.7549C315.076 69.3249 315.752 67.7189 316.062 65.9369C316.327 64.7928 316.471 63.5388 316.493 62.1749C316.508 61.2048 316.519 60.4073 316.523 59.7821C316.526 59.4581 316.868 59.2491 317.157 59.3972C317.533 59.5913 317.436 60.1541 317.015 60.2073C315.744 60.3683 314.398 60.5291 312.975 60.6899C311.05 60.9099 309.146 61.1628 307.266 61.4489C305.407 61.7349 303.724 62.0759 302.22 62.4719C301.202 62.7579 300.217 63.1649 299.266 63.6929C298.313 64.1988 297.528 64.8809 296.908 65.7389C296.312 66.5969 296.012 67.6638 296.012 68.9399C296.012 69.9738 296.267 70.9749 296.776 71.9429C297.307 72.9108 298.149 73.7139 299.299 74.3519C300.472 74.9898 302.021 75.3089 303.946 75.3089Z" fill="black"/>
<path d="M329.285 78.5102C328.954 78.5102 328.686 78.2416 328.686 77.9102V43.4702C328.686 43.1389 328.954 42.8702 329.285 42.8702H332.468C332.799 42.8702 333.068 43.1389 333.068 43.4702V50.26C333.068 50.6468 332.578 50.8138 332.343 50.5073C332.257 50.396 332.235 50.248 332.286 50.1175C332.674 49.1431 333.167 48.2453 333.764 47.4242C334.407 46.5223 335.103 45.7852 335.855 45.2132C336.786 44.3992 337.87 43.7833 339.109 43.3652C340.348 42.9253 341.599 42.6722 342.86 42.6062C343.94 42.5309 344.939 42.5846 345.858 42.7675C346.126 42.821 346.312 43.0625 346.312 43.3372V46.654C346.312 47.0449 345.945 47.3311 345.56 47.2645C344.463 47.0741 343.287 47.0504 342.03 47.1932C340.481 47.3692 339.054 47.9852 337.747 49.0412C336.554 49.9652 335.656 51.0763 335.06 52.3742C334.462 53.6503 334.064 55.0142 333.865 56.4662C333.665 57.8962 333.565 59.3152 333.565 60.7232V77.9102C333.565 78.2416 333.297 78.5102 332.966 78.5102H329.285Z" fill="black"/>
<path d="M363.362 79.4669C359.157 79.4669 355.694 78.5649 352.972 76.7609C350.443 75.0713 348.827 72.764 348.123 69.8393C348.045 69.5109 348.268 69.1914 348.601 69.1362L352.433 68.5011C352.738 68.4506 353.03 68.642 353.128 68.9358C353.719 70.7168 354.874 72.1592 356.59 73.2629C358.494 74.4509 360.839 75.0449 363.627 75.0449C366.349 75.0449 368.496 74.4839 370.067 73.3619C371.637 72.2178 372.424 70.6668 372.424 68.7089C372.424 67.6089 372.169 66.7179 371.66 66.0359C371.173 65.3319 370.166 64.6829 368.64 64.0889C367.112 63.4949 364.833 62.7909 361.801 61.9769C358.549 61.0968 356.004 60.2169 354.167 59.3369C352.331 58.4568 351.024 57.4449 350.25 56.3009C349.475 55.1349 349.089 53.7159 349.089 52.0439C349.089 50.0199 349.664 48.2489 350.815 46.7309C351.965 45.1908 353.558 44.0028 355.595 43.1669C357.631 42.3089 359.998 41.8799 362.697 41.8799C365.398 41.8799 367.81 42.3198 369.934 43.1999C372.081 44.0579 373.806 45.2679 375.113 46.8299C376.299 48.2493 377.047 49.8779 377.355 51.7152C377.409 52.0284 377.192 52.3185 376.88 52.3743L373.057 53.0583C372.728 53.1174 372.416 52.8927 372.338 52.5659C371.913 50.7576 370.9 49.3076 369.303 48.2159C367.555 46.9839 365.331 46.3458 362.631 46.3019C360.086 46.2359 358.017 46.7199 356.423 47.7539C354.831 48.7659 354.034 50.1189 354.034 51.8129C354.034 52.7589 354.322 53.5728 354.897 54.2549C355.472 54.9149 356.513 55.5419 358.017 56.1359C359.544 56.7299 361.713 57.3789 364.523 58.0829C367.82 58.9188 370.41 59.7989 372.29 60.7229C374.172 61.6469 375.51 62.7359 376.307 63.9899C377.103 65.2439 377.502 66.7949 377.502 68.6429C377.502 72.0089 376.241 74.6598 373.718 76.5959C371.218 78.5099 367.765 79.4669 363.362 79.4669Z" fill="black"/>
<path d="M204.242 78.5102C203.96 78.5102 203.731 78.283 203.731 78.0026V31.498C203.731 31.2176 203.96 30.9902 204.242 30.9902H222.187C222.651 30.9902 223.171 31.0123 223.746 31.0562C224.344 31.0783 224.942 31.1443 225.539 31.2542C228.04 31.6283 230.153 32.4973 231.879 33.8612C233.627 35.2033 234.944 36.8972 235.829 38.9432C236.737 40.9892 237.191 43.2553 237.191 45.7412C237.191 48.2053 236.737 50.4602 235.829 52.5062C234.922 54.5522 233.594 56.2573 231.846 57.6212C230.12 58.9633 228.017 59.8213 225.539 60.1952C224.942 60.2833 224.344 60.3493 223.746 60.3932C223.171 60.4373 222.651 60.4592 222.187 60.4592H209.121C208.84 60.4592 208.61 60.6866 208.61 60.967V78.0026C208.61 78.283 208.383 78.5102 208.1 78.5102H204.242ZM208.61 55.3316C208.61 55.612 208.84 55.8392 209.121 55.8392H222.054C222.452 55.8392 222.916 55.8173 223.448 55.7732C223.98 55.7293 224.5 55.6523 225.008 55.5422C226.647 55.1903 227.984 54.5192 229.025 53.5292C230.087 52.5392 230.872 51.3623 231.382 49.9982C231.912 48.6343 232.179 47.2153 232.179 45.7412C232.179 44.2673 231.912 42.8483 231.382 41.4842C230.872 40.0982 230.087 38.9102 229.025 37.9202C227.984 36.9302 226.647 36.2593 225.008 35.9072C224.5 35.7973 223.98 35.7313 223.448 35.7092C222.916 35.6653 222.452 35.6432 222.054 35.6432H209.121C208.84 35.6432 208.61 35.8706 208.61 36.151V55.3316Z" fill="black"/>
</mask>
<g mask="url(#mask3_60_235)">
<path d="M329.285 78.5102C328.954 78.5102 328.686 78.2416 328.686 77.9102V43.4702C328.686 43.1389 328.954 42.8702 329.285 42.8702H332.468C332.8 42.8702 333.068 43.1389 333.068 43.4702V50.26C333.068 50.6468 332.578 50.8138 332.343 50.5073C332.257 50.396 332.235 50.248 332.286 50.1175C332.674 49.1431 333.167 48.2453 333.764 47.4242C334.407 46.5223 335.103 45.7852 335.855 45.2132C336.786 44.3992 337.87 43.7833 339.109 43.3652C340.348 42.9253 341.599 42.6722 342.86 42.6062C343.94 42.5309 344.939 42.5846 345.858 42.7675C346.126 42.821 346.312 43.0625 346.312 43.3372V46.654C346.312 47.0449 345.945 47.3311 345.56 47.2645C344.463 47.0741 343.287 47.0504 342.03 47.1932C340.481 47.3692 339.054 47.9852 337.747 49.0412C336.554 49.9652 335.656 51.0763 335.06 52.3742C334.462 53.6503 334.064 55.0142 333.865 56.4662C333.665 57.8962 333.565 59.3152 333.565 60.7232V77.9102C333.565 78.2416 333.297 78.5102 332.966 78.5102H329.285Z" stroke="white" stroke-width="0.8" stroke-linejoin="round"/>
</g>
<path d="M363.362 79.4669C359.157 79.4669 355.694 78.5649 352.972 76.7609C350.443 75.0713 348.827 72.764 348.123 69.8393C348.045 69.5109 348.268 69.1914 348.601 69.1362L352.432 68.5011C352.738 68.4506 353.03 68.642 353.128 68.9358C353.719 70.7168 354.874 72.1592 356.589 73.2629C358.493 74.4509 360.839 75.0449 363.627 75.0449C366.349 75.0449 368.496 74.4839 370.067 73.3619C371.637 72.2178 372.424 70.6668 372.424 68.7089C372.424 67.6089 372.169 66.7179 371.66 66.0359C371.173 65.3319 370.166 64.6829 368.64 64.0889C367.112 63.4949 364.833 62.7909 361.801 61.9769C358.549 61.0968 356.004 60.2169 354.167 59.3369C352.331 58.4568 351.024 57.4449 350.25 56.3009C349.475 55.1349 349.089 53.7159 349.089 52.0439C349.089 50.0199 349.664 48.2489 350.815 46.7309C351.965 45.1908 353.558 44.0028 355.595 43.1669C357.631 42.3089 359.998 41.8799 362.697 41.8799C365.398 41.8799 367.81 42.3198 369.934 43.1999C372.081 44.0579 373.806 45.2679 375.113 46.8299C376.299 48.2493 377.047 49.8779 377.355 51.7152C377.409 52.0284 377.192 52.3185 376.88 52.3743L373.057 53.0583C372.728 53.1174 372.416 52.8927 372.338 52.5659C371.913 50.7576 370.9 49.3076 369.303 48.2159C367.555 46.9839 365.33 46.3458 362.631 46.3019C360.086 46.2359 358.017 46.7199 356.423 47.7539C354.831 48.7659 354.034 50.1189 354.034 51.8129C354.034 52.7589 354.322 53.5728 354.897 54.2549C355.472 54.9149 356.513 55.5419 358.017 56.1359C359.544 56.7299 361.713 57.3789 364.523 58.0829C367.82 58.9188 370.41 59.7989 372.29 60.7229C374.172 61.6469 375.51 62.7359 376.306 63.9899C377.103 65.2439 377.502 66.7949 377.502 68.6429C377.502 72.0089 376.241 74.6598 373.718 76.5959C371.218 78.5099 367.765 79.4669 363.362 79.4669Z" fill="white"/>
<mask id="mask4_60_235" style="mask-type:luminance" maskUnits="userSpaceOnUse" x="202" y="28" width="177" height="53">
<path d="M379 28.5H202.233V81H379V28.5Z" fill="white"/>
<path d="M255.969 79.4999C252.405 79.4999 249.363 78.6969 246.84 77.0909C244.317 75.4848 242.38 73.2629 241.031 70.4249C239.681 67.5869 239.007 64.3308 239.007 60.6569C239.007 56.9169 239.693 53.6388 241.065 50.8229C242.436 48.0069 244.383 45.8178 246.906 44.2559C249.451 42.6719 252.472 41.8799 255.969 41.8799C259.554 41.8799 262.607 42.6828 265.129 44.2889C267.674 45.8729 269.611 48.0839 270.939 50.9219C272.288 53.7378 272.964 56.9829 272.964 60.6569C272.964 64.3968 272.288 67.6859 270.939 70.5239C269.589 73.3398 267.641 75.5399 265.096 77.1239C262.551 78.7079 259.509 79.4999 255.969 79.4999ZM255.969 74.8469C259.952 74.8469 262.917 73.5378 264.864 70.9199C266.812 68.2799 267.785 64.8588 267.785 60.6569C267.785 56.3448 266.801 52.9128 264.831 50.3609C262.884 47.8089 259.93 46.5329 255.969 46.5329C253.29 46.5329 251.078 47.1378 249.33 48.3479C247.604 49.5359 246.31 51.1968 245.445 53.3309C244.605 55.4429 244.184 57.8849 244.184 60.6569C244.184 64.9469 245.18 68.3898 247.172 70.9859C249.163 73.5599 252.095 74.8469 255.969 74.8469Z" fill="black"/>
<path d="M280.22 78.51C279.891 78.51 279.621 78.2413 279.621 77.91V30.6C279.621 30.2686 279.891 30 280.22 30H283.902C284.234 30 284.502 30.2686 284.502 30.6V77.91C284.502 78.2413 284.234 78.51 283.902 78.51H280.22Z" fill="black"/>
<path d="M303.381 79.4999C300.682 79.4999 298.414 79.0158 296.577 78.0479C294.763 77.0799 293.401 75.7929 292.494 74.1869C291.587 72.5808 291.133 70.8318 291.133 68.9399C291.133 67.0038 291.52 65.3538 292.294 63.9899C293.091 62.6039 294.165 61.4709 295.515 60.5909C296.887 59.7108 298.469 59.0399 300.261 58.5779C302.076 58.1379 304.079 57.7529 306.269 57.4229C308.482 57.0708 310.641 56.7738 312.742 56.5319C314.246 56.345 315.617 56.1635 316.856 55.9877C317.178 55.9418 317.334 56.3751 317.057 56.5451C316.856 56.6679 316.598 56.5196 316.597 56.2839C316.585 53.0387 315.897 50.6133 314.534 49.0079C313.096 47.3139 310.596 46.4669 307.033 46.4669C304.577 46.4669 302.496 47.0169 300.793 48.1169C299.25 49.1262 298.125 50.6729 297.421 52.7567C297.314 53.0711 296.983 53.2554 296.664 53.1626L293.051 52.1075C292.741 52.0169 292.557 51.6953 292.648 51.3848C293.511 48.4638 295.109 46.1754 297.44 44.5199C299.918 42.7599 303.139 41.8799 307.099 41.8799C310.374 41.8799 313.151 42.4959 315.431 43.7279C317.732 44.9379 319.359 46.6979 320.31 49.0079C320.752 50.0418 321.04 51.1968 321.173 52.4729C321.307 53.7489 321.373 55.0469 321.373 56.3669V77.9099C321.373 78.2412 321.104 78.5099 320.773 78.5099H317.623C317.292 78.5099 317.024 78.2412 317.024 77.9099V70.3941C317.024 70.0008 317.424 69.7343 317.786 69.8859C318.063 70.0019 318.197 70.3194 318.078 70.5951C316.857 73.4084 315.034 75.5736 312.609 77.0909C310.043 78.6969 306.966 79.4999 303.381 79.4999ZM303.946 75.3089C306.225 75.3089 308.217 74.9019 309.92 74.0879C311.625 73.2738 312.997 72.1629 314.037 70.7549C315.076 69.3249 315.752 67.7189 316.062 65.9369C316.327 64.7928 316.471 63.5388 316.493 62.1749C316.508 61.2048 316.519 60.4073 316.523 59.7821C316.526 59.4581 316.868 59.2491 317.157 59.3972C317.533 59.5913 317.436 60.1541 317.015 60.2073C315.744 60.3683 314.398 60.5291 312.975 60.6899C311.05 60.9099 309.146 61.1628 307.266 61.4489C305.407 61.7349 303.724 62.0759 302.22 62.4719C301.202 62.7579 300.217 63.1649 299.266 63.6929C298.313 64.1988 297.528 64.8809 296.908 65.7389C296.312 66.5969 296.012 67.6638 296.012 68.9399C296.012 69.9738 296.267 70.9749 296.776 71.9429C297.307 72.9108 298.149 73.7139 299.299 74.3519C300.472 74.9898 302.021 75.3089 303.946 75.3089Z" fill="black"/>
<path d="M329.285 78.5102C328.954 78.5102 328.686 78.2416 328.686 77.9102V43.4702C328.686 43.1389 328.954 42.8702 329.285 42.8702H332.468C332.799 42.8702 333.068 43.1389 333.068 43.4702V50.26C333.068 50.6468 332.578 50.8138 332.343 50.5073C332.257 50.396 332.235 50.248 332.286 50.1175C332.674 49.1431 333.167 48.2453 333.764 47.4242C334.407 46.5223 335.103 45.7852 335.855 45.2132C336.786 44.3992 337.87 43.7833 339.109 43.3652C340.348 42.9253 341.599 42.6722 342.86 42.6062C343.94 42.5309 344.939 42.5846 345.858 42.7675C346.126 42.821 346.312 43.0625 346.312 43.3372V46.654C346.312 47.0449 345.945 47.3311 345.56 47.2645C344.463 47.0741 343.287 47.0504 342.03 47.1932C340.481 47.3692 339.054 47.9852 337.747 49.0412C336.554 49.9652 335.656 51.0763 335.06 52.3742C334.462 53.6503 334.064 55.0142 333.865 56.4662C333.665 57.8962 333.565 59.3152 333.565 60.7232V77.9102C333.565 78.2416 333.297 78.5102 332.966 78.5102H329.285Z" fill="black"/>
<path d="M363.362 79.4669C359.157 79.4669 355.694 78.5649 352.972 76.7609C350.443 75.0713 348.827 72.764 348.123 69.8393C348.045 69.5109 348.268 69.1914 348.601 69.1362L352.433 68.5011C352.738 68.4506 353.03 68.642 353.128 68.9358C353.719 70.7168 354.874 72.1592 356.59 73.2629C358.494 74.4509 360.839 75.0449 363.627 75.0449C366.349 75.0449 368.496 74.4839 370.067 73.3619C371.637 72.2178 372.424 70.6668 372.424 68.7089C372.424 67.6089 372.169 66.7179 371.66 66.0359C371.173 65.3319 370.166 64.6829 368.64 64.0889C367.112 63.4949 364.833 62.7909 361.801 61.9769C358.549 61.0968 356.004 60.2169 354.167 59.3369C352.331 58.4568 351.024 57.4449 350.25 56.3009C349.475 55.1349 349.089 53.7159 349.089 52.0439C349.089 50.0199 349.664 48.2489 350.815 46.7309C351.965 45.1908 353.558 44.0028 355.595 43.1669C357.631 42.3089 359.998 41.8799 362.697 41.8799C365.398 41.8799 367.81 42.3198 369.934 43.1999C372.081 44.0579 373.806 45.2679 375.113 46.8299C376.299 48.2493 377.047 49.8779 377.355 51.7152C377.409 52.0284 377.192 52.3185 376.88 52.3743L373.057 53.0583C372.728 53.1174 372.416 52.8927 372.338 52.5659C371.913 50.7576 370.9 49.3076 369.303 48.2159C367.555 46.9839 365.331 46.3458 362.631 46.3019C360.086 46.2359 358.017 46.7199 356.423 47.7539C354.831 48.7659 354.034 50.1189 354.034 51.8129C354.034 52.7589 354.322 53.5728 354.897 54.2549C355.472 54.9149 356.513 55.5419 358.017 56.1359C359.544 56.7299 361.713 57.3789 364.523 58.0829C367.82 58.9188 370.41 59.7989 372.29 60.7229C374.172 61.6469 375.51 62.7359 376.307 63.9899C377.103 65.2439 377.502 66.7949 377.502 68.6429C377.502 72.0089 376.241 74.6598 373.718 76.5959C371.218 78.5099 367.765 79.4669 363.362 79.4669Z" fill="black"/>
<path d="M204.242 78.5102C203.96 78.5102 203.731 78.283 203.731 78.0026V31.498C203.731 31.2176 203.96 30.9902 204.242 30.9902H222.187C222.651 30.9902 223.171 31.0123 223.746 31.0562C224.344 31.0783 224.942 31.1443 225.539 31.2542C228.04 31.6283 230.153 32.4973 231.879 33.8612C233.627 35.2033 234.944 36.8972 235.829 38.9432C236.737 40.9892 237.191 43.2553 237.191 45.7412C237.191 48.2053 236.737 50.4602 235.829 52.5062C234.922 54.5522 233.594 56.2573 231.846 57.6212C230.12 58.9633 228.017 59.8213 225.539 60.1952C224.942 60.2833 224.344 60.3493 223.746 60.3932C223.171 60.4373 222.651 60.4592 222.187 60.4592H209.121C208.84 60.4592 208.61 60.6866 208.61 60.967V78.0026C208.61 78.283 208.383 78.5102 208.1 78.5102H204.242ZM208.61 55.3316C208.61 55.612 208.84 55.8392 209.121 55.8392H222.054C222.452 55.8392 222.916 55.8173 223.448 55.7732C223.98 55.7293 224.5 55.6523 225.008 55.5422C226.647 55.1903 227.984 54.5192 229.025 53.5292C230.087 52.5392 230.872 51.3623 231.382 49.9982C231.912 48.6343 232.179 47.2153 232.179 45.7412C232.179 44.2673 231.912 42.8483 231.382 41.4842C230.872 40.0982 230.087 38.9102 229.025 37.9202C227.984 36.9302 226.647 36.2593 225.008 35.9072C224.5 35.7973 223.98 35.7313 223.448 35.7092C222.916 35.6653 222.452 35.6432 222.054 35.6432H209.121C208.84 35.6432 208.61 35.8706 208.61 36.151V55.3316Z" fill="black"/>
</mask>
<g mask="url(#mask4_60_235)">
<path d="M363.362 79.4669C359.157 79.4669 355.694 78.5649 352.972 76.7609C350.443 75.0713 348.827 72.764 348.123 69.8393C348.045 69.5109 348.268 69.1914 348.601 69.1362L352.433 68.5011C352.738 68.4506 353.03 68.642 353.128 68.9358C353.719 70.7168 354.874 72.1592 356.59 73.2629C358.494 74.4509 360.839 75.0449 363.627 75.0449C366.349 75.0449 368.496 74.4839 370.067 73.3619C371.637 72.2178 372.424 70.6668 372.424 68.7089C372.424 67.6089 372.169 66.7179 371.66 66.0359C371.173 65.3319 370.166 64.6829 368.64 64.0889C367.112 63.4949 364.833 62.7909 361.801 61.9769C358.549 61.0968 356.004 60.2169 354.167 59.3369C352.331 58.4568 351.024 57.4449 350.25 56.3009C349.475 55.1349 349.089 53.7159 349.089 52.0439C349.089 50.0199 349.664 48.2489 350.815 46.7309C351.965 45.1908 353.558 44.0028 355.595 43.1669C357.631 42.3089 359.998 41.8799 362.697 41.8799C365.398 41.8799 367.81 42.3198 369.934 43.1999C372.081 44.0579 373.806 45.2679 375.113 46.8299C376.299 48.2493 377.047 49.8779 377.355 51.7152C377.409 52.0284 377.192 52.3185 376.88 52.3743L373.057 53.0583C372.728 53.1174 372.416 52.8927 372.338 52.5659C371.913 50.7576 370.9 49.3076 369.303 48.2159C367.555 46.9839 365.331 46.3458 362.631 46.3019C360.086 46.2359 358.017 46.7199 356.423 47.7539C354.831 48.7659 354.034 50.1189 354.034 51.8129C354.034 52.7589 354.322 53.5728 354.897 54.2549C355.472 54.9149 356.513 55.5419 358.017 56.1359C359.544 56.7299 361.713 57.3789 364.523 58.0829C367.82 58.9188 370.41 59.7989 372.29 60.7229C374.172 61.6469 375.51 62.7359 376.307 63.9899C377.103 65.2439 377.502 66.7949 377.502 68.6429C377.502 72.0089 376.241 74.6598 373.718 76.5959C371.218 78.5099 367.765 79.4669 363.362 79.4669Z" stroke="white" stroke-width="0.8" stroke-linejoin="round"/>
</g>
<path d="M255.969 79.4999C252.405 79.4999 249.363 78.6969 246.84 77.0909C244.317 75.4848 242.38 73.2629 241.031 70.4249C239.681 67.5869 239.007 64.3308 239.007 60.6569C239.007 56.9169 239.693 53.6388 241.065 50.8229C242.436 48.0069 244.383 45.8178 246.906 44.2559C249.451 42.6719 252.472 41.8799 255.969 41.8799C259.554 41.8799 262.607 42.6828 265.129 44.2889C267.674 45.8729 269.611 48.0839 270.939 50.9219C272.288 53.7378 272.964 56.9829 272.964 60.6569C272.964 64.3968 272.288 67.6859 270.939 70.5239C269.589 73.3398 267.641 75.5399 265.096 77.1239C262.551 78.7079 259.509 79.4999 255.969 79.4999ZM255.969 74.8469C259.952 74.8469 262.917 73.5378 264.864 70.9199C266.812 68.2799 267.785 64.8588 267.785 60.6569C267.785 56.3448 266.801 52.9128 264.831 50.3609C262.884 47.8089 259.93 46.5329 255.969 46.5329C253.29 46.5329 251.078 47.1378 249.33 48.3479C247.604 49.5359 246.31 51.1968 245.445 53.3309C244.605 55.4429 244.184 57.8849 244.184 60.6569C244.184 64.9469 245.18 68.3898 247.172 70.9859C249.163 73.5599 252.095 74.8469 255.969 74.8469Z" fill="white"/>
<mask id="mask5_60_235" style="mask-type:luminance" maskUnits="userSpaceOnUse" x="202" y="28" width="177" height="53">
<path d="M379 28.5H202.233V81H379V28.5Z" fill="white"/>
<path d="M255.969 79.4999C252.405 79.4999 249.363 78.6969 246.84 77.0909C244.317 75.4848 242.38 73.2629 241.031 70.4249C239.681 67.5869 239.007 64.3308 239.007 60.6569C239.007 56.9169 239.693 53.6388 241.065 50.8229C242.436 48.0069 244.383 45.8178 246.906 44.2559C249.451 42.6719 252.473 41.8799 255.969 41.8799C259.554 41.8799 262.607 42.6828 265.129 44.2889C267.674 45.8729 269.611 48.0839 270.939 50.9219C272.288 53.7378 272.964 56.9829 272.964 60.6569C272.964 64.3968 272.288 67.6859 270.939 70.5239C269.589 73.3398 267.642 75.5399 265.096 77.1239C262.551 78.7079 259.509 79.4999 255.969 79.4999ZM255.969 74.8469C259.952 74.8469 262.917 73.5378 264.864 70.9199C266.812 68.2799 267.785 64.8588 267.785 60.6569C267.785 56.3448 266.801 52.9128 264.831 50.3609C262.884 47.8089 259.93 46.5329 255.969 46.5329C253.29 46.5329 251.078 47.1378 249.33 48.3479C247.604 49.5359 246.31 51.1968 245.445 53.3309C244.605 55.4429 244.184 57.8849 244.184 60.6569C244.184 64.9469 245.18 68.3898 247.172 70.9859C249.163 73.5599 252.095 74.8469 255.969 74.8469Z" fill="black"/>
<path d="M280.22 78.51C279.891 78.51 279.621 78.2413 279.621 77.91V30.6C279.621 30.2686 279.891 30 280.22 30H283.903C284.234 30 284.502 30.2686 284.502 30.6V77.91C284.502 78.2413 284.234 78.51 283.903 78.51H280.22Z" fill="black"/>
<path d="M303.381 79.4999C300.682 79.4999 298.414 79.0158 296.577 78.0479C294.763 77.0799 293.401 75.7929 292.494 74.1869C291.587 72.5808 291.133 70.8318 291.133 68.9399C291.133 67.0038 291.52 65.3538 292.294 63.9899C293.091 62.6039 294.165 61.4709 295.515 60.5909C296.887 59.7108 298.469 59.0399 300.261 58.5779C302.077 58.1379 304.079 57.7529 306.27 57.4229C308.482 57.0708 310.641 56.7738 312.742 56.5319C314.246 56.345 315.617 56.1635 316.856 55.9877C317.178 55.9418 317.334 56.3751 317.057 56.5451C316.856 56.6679 316.598 56.5196 316.597 56.2839C316.585 53.0387 315.897 50.6133 314.534 49.0079C313.096 47.3139 310.596 46.4669 307.034 46.4669C304.577 46.4669 302.496 47.0169 300.793 48.1169C299.25 49.1262 298.125 50.6729 297.421 52.7567C297.314 53.0711 296.983 53.2554 296.664 53.1626L293.051 52.1075C292.741 52.0169 292.557 51.6953 292.648 51.3848C293.511 48.4638 295.109 46.1754 297.44 44.5199C299.918 42.7599 303.139 41.8799 307.099 41.8799C310.374 41.8799 313.151 42.4959 315.431 43.7279C317.732 44.9379 319.359 46.6979 320.31 49.0079C320.752 50.0418 321.04 51.1968 321.173 52.4729C321.307 53.7489 321.373 55.0469 321.373 56.3669V77.9099C321.373 78.2412 321.104 78.5099 320.773 78.5099H317.623C317.292 78.5099 317.024 78.2412 317.024 77.9099V70.3941C317.024 70.0008 317.424 69.7343 317.786 69.8859C318.063 70.0019 318.197 70.3194 318.078 70.5951C316.858 73.4084 315.034 75.5736 312.609 77.0909C310.043 78.6969 306.966 79.4999 303.381 79.4999ZM303.946 75.3089C306.225 75.3089 308.217 74.9019 309.92 74.0879C311.625 73.2738 312.997 72.1629 314.037 70.7549C315.076 69.3249 315.752 67.7189 316.062 65.9369C316.327 64.7928 316.471 63.5388 316.494 62.1749C316.509 61.2048 316.519 60.4073 316.523 59.7821C316.526 59.4581 316.868 59.2491 317.157 59.3972C317.533 59.5913 317.436 60.1541 317.015 60.2073C315.745 60.3683 314.398 60.5291 312.975 60.6899C311.05 60.9099 309.146 61.1628 307.266 61.4489C305.407 61.7349 303.724 62.0759 302.22 62.4719C301.202 62.7579 300.218 63.1649 299.266 63.6929C298.314 64.1988 297.529 64.8809 296.908 65.7389C296.312 66.5969 296.013 67.6638 296.013 68.9399C296.013 69.9738 296.267 70.9749 296.777 71.9429C297.307 72.9108 298.149 73.7139 299.299 74.3519C300.472 74.9898 302.021 75.3089 303.946 75.3089Z" fill="black"/>
<path d="M329.285 78.5102C328.954 78.5102 328.686 78.2416 328.686 77.9102V43.4702C328.686 43.1389 328.954 42.8702 329.285 42.8702H332.468C332.799 42.8702 333.068 43.1389 333.068 43.4702V50.26C333.068 50.6468 332.578 50.8138 332.343 50.5073C332.257 50.396 332.235 50.248 332.286 50.1175C332.674 49.1431 333.167 48.2453 333.764 47.4242C334.407 46.5223 335.103 45.7852 335.855 45.2132C336.786 44.3992 337.87 43.7833 339.109 43.3652C340.348 42.9253 341.599 42.6722 342.86 42.6062C343.94 42.5309 344.939 42.5846 345.858 42.7675C346.126 42.821 346.312 43.0625 346.312 43.3372V46.654C346.312 47.0449 345.945 47.3311 345.56 47.2645C344.463 47.0741 343.287 47.0504 342.03 47.1932C340.481 47.3692 339.054 47.9852 337.747 49.0412C336.554 49.9652 335.656 51.0763 335.06 52.3742C334.462 53.6503 334.064 55.0142 333.865 56.4662C333.665 57.8962 333.565 59.3152 333.565 60.7232V77.9102C333.565 78.2416 333.297 78.5102 332.966 78.5102H329.285Z" fill="black"/>
<path d="M363.362 79.4669C359.157 79.4669 355.694 78.5649 352.972 76.7609C350.443 75.0713 348.827 72.764 348.123 69.8393C348.045 69.5109 348.268 69.1914 348.601 69.1362L352.433 68.5011C352.738 68.4506 353.03 68.642 353.128 68.9358C353.719 70.7168 354.874 72.1592 356.59 73.2629C358.494 74.4509 360.84 75.0449 363.627 75.0449C366.349 75.0449 368.496 74.4839 370.067 73.3619C371.637 72.2178 372.424 70.6668 372.424 68.7089C372.424 67.6089 372.169 66.7179 371.66 66.0359C371.173 65.3319 370.166 64.6829 368.64 64.0889C367.112 63.4949 364.833 62.7909 361.801 61.9769C358.549 61.0968 356.004 60.2169 354.167 59.3369C352.331 58.4568 351.024 57.4449 350.25 56.3009C349.476 55.1349 349.089 53.7159 349.089 52.0439C349.089 50.0199 349.664 48.2489 350.815 46.7309C351.965 45.1908 353.558 44.0028 355.595 43.1669C357.631 42.3089 359.998 41.8799 362.697 41.8799C365.398 41.8799 367.81 42.3198 369.934 43.1999C372.081 44.0579 373.806 45.2679 375.113 46.8299C376.299 48.2493 377.047 49.8779 377.355 51.7152C377.409 52.0284 377.192 52.3185 376.88 52.3743L373.057 53.0583C372.728 53.1174 372.416 52.8927 372.338 52.5659C371.913 50.7576 370.9 49.3076 369.303 48.2159C367.555 46.9839 365.331 46.3458 362.631 46.3019C360.086 46.2359 358.017 46.7199 356.423 47.7539C354.831 48.7659 354.034 50.1189 354.034 51.8129C354.034 52.7589 354.322 53.5728 354.897 54.2549C355.472 54.9149 356.513 55.5419 358.017 56.1359C359.544 56.7299 361.713 57.3789 364.523 58.0829C367.82 58.9188 370.41 59.7989 372.29 60.7229C374.172 61.6469 375.51 62.7359 376.307 63.9899C377.104 65.2439 377.502 66.7949 377.502 68.6429C377.502 72.0089 376.241 74.6598 373.718 76.5959C371.218 78.5099 367.765 79.4669 363.362 79.4669Z" fill="black"/>
<path d="M204.242 78.5102C203.961 78.5102 203.731 78.283 203.731 78.0026V31.498C203.731 31.2176 203.961 30.9902 204.242 30.9902H222.187C222.651 30.9902 223.171 31.0123 223.746 31.0562C224.344 31.0783 224.942 31.1443 225.54 31.2542C228.04 31.6283 230.153 32.4973 231.879 33.8612C233.627 35.2033 234.944 36.8972 235.829 38.9432C236.737 40.9892 237.191 43.2553 237.191 45.7412C237.191 48.2053 236.737 50.4602 235.829 52.5062C234.922 54.5522 233.594 56.2573 231.846 57.6212C230.121 58.9633 228.017 59.8213 225.54 60.1952C224.942 60.2833 224.344 60.3493 223.746 60.3932C223.171 60.4373 222.651 60.4592 222.187 60.4592H209.121C208.84 60.4592 208.61 60.6866 208.61 60.967V78.0026C208.61 78.283 208.383 78.5102 208.1 78.5102H204.242ZM208.61 55.3316C208.61 55.612 208.84 55.8392 209.121 55.8392H222.054C222.452 55.8392 222.917 55.8173 223.448 55.7732C223.98 55.7293 224.5 55.6523 225.008 55.5422C226.647 55.1903 227.984 54.5192 229.025 53.5292C230.088 52.5392 230.873 51.3623 231.382 49.9982C231.912 48.6343 232.179 47.2153 232.179 45.7412C232.179 44.2673 231.912 42.8483 231.382 41.4842C230.873 40.0982 230.088 38.9102 229.025 37.9202C227.984 36.9302 226.647 36.2593 225.008 35.9072C224.5 35.7973 223.98 35.7313 223.448 35.7092C222.917 35.6653 222.452 35.6432 222.054 35.6432H209.121C208.84 35.6432 208.61 35.8706 208.61 36.151V55.3316Z" fill="black"/>
</mask>
<g mask="url(#mask5_60_235)">
<path d="M255.969 79.4999C252.405 79.4999 249.363 78.6969 246.84 77.0909C244.317 75.4848 242.38 73.2629 241.031 70.4249C239.681 67.5869 239.007 64.3308 239.007 60.6569C239.007 56.9169 239.693 53.6388 241.065 50.8229C242.436 48.0069 244.383 45.8178 246.906 44.2559C249.451 42.6719 252.473 41.8799 255.969 41.8799C259.554 41.8799 262.607 42.6828 265.129 44.2889C267.674 45.8729 269.611 48.0839 270.939 50.9219C272.288 53.7378 272.964 56.9829 272.964 60.6569C272.964 64.3968 272.288 67.6859 270.939 70.5239C269.589 73.3398 267.642 75.5399 265.096 77.1239C262.551 78.7079 259.509 79.4999 255.969 79.4999ZM255.969 74.8469C259.952 74.8469 262.917 73.5378 264.864 70.9199C266.812 68.2799 267.785 64.8588 267.785 60.6569C267.785 56.3448 266.801 52.9128 264.831 50.3609C262.884 47.8089 259.93 46.5329 255.969 46.5329C253.29 46.5329 251.078 47.1378 249.33 48.3479C247.604 49.5359 246.31 51.1968 245.445 53.3309C244.605 55.4429 244.184 57.8849 244.184 60.6569C244.184 64.9469 245.18 68.3898 247.172 70.9859C249.163 73.5599 252.095 74.8469 255.969 74.8469Z" stroke="white" stroke-width="0.8" stroke-linejoin="round"/>
</g>
<path d="M204.242 78.5102C203.96 78.5102 203.731 78.283 203.731 78.0026V31.498C203.731 31.2176 203.96 30.9902 204.242 30.9902H222.187C222.651 30.9902 223.171 31.0123 223.746 31.0562C224.344 31.0783 224.942 31.1443 225.539 31.2542C228.04 31.6283 230.153 32.4973 231.879 33.8612C233.627 35.2033 234.944 36.8972 235.829 38.9432C236.737 40.9892 237.191 43.2553 237.191 45.7412C237.191 48.2053 236.737 50.4602 235.829 52.5062C234.922 54.5522 233.594 56.2573 231.846 57.6212C230.12 58.9633 228.017 59.8213 225.539 60.1952C224.942 60.2833 224.344 60.3493 223.746 60.3932C223.171 60.4373 222.651 60.4592 222.187 60.4592H209.121C208.839 60.4592 208.61 60.6866 208.61 60.967V78.0026C208.61 78.283 208.383 78.5102 208.099 78.5102H204.242ZM208.61 55.3316C208.61 55.612 208.839 55.8392 209.121 55.8392H222.054C222.452 55.8392 222.916 55.8173 223.448 55.7732C223.98 55.7293 224.5 55.6523 225.008 55.5422C226.646 55.1903 227.984 54.5192 229.025 53.5292C230.087 52.5392 230.872 51.3623 231.382 49.9982C231.912 48.6343 232.179 47.2153 232.179 45.7412C232.179 44.2673 231.912 42.8483 231.382 41.4842C230.872 40.0982 230.087 38.9102 229.025 37.9202C227.984 36.9302 226.646 36.2593 225.008 35.9072C224.5 35.7973 223.98 35.7313 223.448 35.7092C222.916 35.6653 222.452 35.6432 222.054 35.6432H209.121C208.839 35.6432 208.61 35.8706 208.61 36.151V55.3316Z" fill="white"/>
<mask id="mask6_60_235" style="mask-type:luminance" maskUnits="userSpaceOnUse" x="202" y="28" width="177" height="53">
<path d="M379 28.5H202.233V81H379V28.5Z" fill="white"/>
<path d="M255.969 79.4999C252.405 79.4999 249.363 78.6969 246.84 77.0909C244.317 75.4848 242.38 73.2629 241.031 70.4249C239.681 67.5869 239.007 64.3308 239.007 60.6569C239.007 56.9169 239.693 53.6388 241.065 50.8229C242.436 48.0069 244.383 45.8178 246.906 44.2559C249.451 42.6719 252.473 41.8799 255.969 41.8799C259.554 41.8799 262.607 42.6828 265.129 44.2889C267.674 45.8729 269.611 48.0839 270.939 50.9219C272.288 53.7378 272.964 56.9829 272.964 60.6569C272.964 64.3968 272.288 67.6859 270.939 70.5239C269.589 73.3398 267.642 75.5399 265.096 77.1239C262.551 78.7079 259.509 79.4999 255.969 79.4999ZM255.969 74.8469C259.952 74.8469 262.917 73.5378 264.864 70.9199C266.812 68.2799 267.785 64.8588 267.785 60.6569C267.785 56.3448 266.801 52.9128 264.831 50.3609C262.884 47.8089 259.93 46.5329 255.969 46.5329C253.29 46.5329 251.078 47.1378 249.33 48.3479C247.604 49.5359 246.31 51.1968 245.445 53.3309C244.605 55.4429 244.184 57.8849 244.184 60.6569C244.184 64.9469 245.18 68.3898 247.172 70.9859C249.163 73.5599 252.095 74.8469 255.969 74.8469Z" fill="black"/>
<path d="M280.22 78.51C279.891 78.51 279.621 78.2413 279.621 77.91V30.6C279.621 30.2686 279.891 30 280.22 30H283.903C284.234 30 284.502 30.2686 284.502 30.6V77.91C284.502 78.2413 284.234 78.51 283.903 78.51H280.22Z" fill="black"/>
<path d="M303.381 79.4999C300.682 79.4999 298.414 79.0158 296.577 78.0479C294.763 77.0799 293.401 75.7929 292.494 74.1869C291.587 72.5808 291.133 70.8318 291.133 68.9399C291.133 67.0038 291.52 65.3538 292.294 63.9899C293.091 62.6039 294.165 61.4709 295.515 60.5909C296.887 59.7108 298.469 59.0399 300.261 58.5779C302.077 58.1379 304.079 57.7529 306.27 57.4229C308.482 57.0708 310.641 56.7738 312.742 56.5319C314.246 56.345 315.617 56.1635 316.856 55.9877C317.178 55.9418 317.334 56.3751 317.057 56.5451C316.856 56.6679 316.598 56.5196 316.597 56.2839C316.585 53.0387 315.897 50.6133 314.534 49.0079C313.096 47.3139 310.596 46.4669 307.034 46.4669C304.577 46.4669 302.496 47.0169 300.793 48.1169C299.25 49.1262 298.125 50.6729 297.421 52.7567C297.314 53.0711 296.983 53.2554 296.664 53.1626L293.051 52.1075C292.741 52.0169 292.557 51.6953 292.648 51.3848C293.511 48.4638 295.109 46.1754 297.44 44.5199C299.918 42.7599 303.139 41.8799 307.099 41.8799C310.374 41.8799 313.151 42.4959 315.431 43.7279C317.732 44.9379 319.359 46.6979 320.31 49.0079C320.752 50.0418 321.04 51.1968 321.173 52.4729C321.307 53.7489 321.373 55.0469 321.373 56.3669V77.9099C321.373 78.2412 321.104 78.5099 320.773 78.5099H317.623C317.292 78.5099 317.024 78.2412 317.024 77.9099V70.3941C317.024 70.0008 317.424 69.7343 317.786 69.8859C318.063 70.0019 318.197 70.3194 318.078 70.5951C316.858 73.4084 315.034 75.5736 312.609 77.0909C310.043 78.6969 306.966 79.4999 303.381 79.4999ZM303.946 75.3089C306.225 75.3089 308.217 74.9019 309.92 74.0879C311.625 73.2738 312.997 72.1629 314.037 70.7549C315.076 69.3249 315.752 67.7189 316.062 65.9369C316.327 64.7928 316.471 63.5388 316.494 62.1749C316.509 61.2048 316.519 60.4073 316.523 59.7821C316.526 59.4581 316.868 59.2491 317.157 59.3972C317.533 59.5913 317.436 60.1541 317.015 60.2073C315.745 60.3683 314.398 60.5291 312.975 60.6899C311.05 60.9099 309.146 61.1628 307.266 61.4489C305.407 61.7349 303.724 62.0759 302.22 62.4719C301.202 62.7579 300.218 63.1649 299.266 63.6929C298.314 64.1988 297.529 64.8809 296.908 65.7389C296.312 66.5969 296.013 67.6638 296.013 68.9399C296.013 69.9738 296.267 70.9749 296.777 71.9429C297.307 72.9108 298.149 73.7139 299.299 74.3519C300.472 74.9898 302.021 75.3089 303.946 75.3089Z" fill="black"/>
<path d="M329.285 78.5102C328.954 78.5102 328.686 78.2416 328.686 77.9102V43.4702C328.686 43.1389 328.954 42.8702 329.285 42.8702H332.468C332.799 42.8702 333.068 43.1389 333.068 43.4702V50.26C333.068 50.6468 332.578 50.8138 332.343 50.5073C332.257 50.396 332.235 50.248 332.286 50.1175C332.674 49.1431 333.167 48.2453 333.764 47.4242C334.407 46.5223 335.103 45.7852 335.855 45.2132C336.786 44.3992 337.87 43.7833 339.109 43.3652C340.348 42.9253 341.599 42.6722 342.86 42.6062C343.94 42.5309 344.939 42.5846 345.858 42.7675C346.126 42.821 346.312 43.0625 346.312 43.3372V46.654C346.312 47.0449 345.945 47.3311 345.56 47.2645C344.463 47.0741 343.287 47.0504 342.03 47.1932C340.481 47.3692 339.054 47.9852 337.747 49.0412C336.554 49.9652 335.656 51.0763 335.06 52.3742C334.462 53.6503 334.064 55.0142 333.865 56.4662C333.665 57.8962 333.565 59.3152 333.565 60.7232V77.9102C333.565 78.2416 333.297 78.5102 332.966 78.5102H329.285Z" fill="black"/>
<path d="M363.362 79.4669C359.157 79.4669 355.694 78.5649 352.972 76.7609C350.443 75.0713 348.827 72.764 348.123 69.8393C348.045 69.5109 348.268 69.1914 348.601 69.1362L352.433 68.5011C352.738 68.4506 353.03 68.642 353.128 68.9358C353.719 70.7168 354.874 72.1592 356.59 73.2629C358.494 74.4509 360.84 75.0449 363.627 75.0449C366.349 75.0449 368.496 74.4839 370.067 73.3619C371.637 72.2178 372.424 70.6668 372.424 68.7089C372.424 67.6089 372.169 66.7179 371.66 66.0359C371.173 65.3319 370.166 64.6829 368.64 64.0889C367.112 63.4949 364.833 62.7909 361.801 61.9769C358.549 61.0968 356.004 60.2169 354.167 59.3369C352.331 58.4568 351.024 57.4449 350.25 56.3009C349.476 55.1349 349.089 53.7159 349.089 52.0439C349.089 50.0199 349.664 48.2489 350.815 46.7309C351.965 45.1908 353.558 44.0028 355.595 43.1669C357.631 42.3089 359.998 41.8799 362.697 41.8799C365.398 41.8799 367.81 42.3198 369.934 43.1999C372.081 44.0579 373.806 45.2679 375.113 46.8299C376.299 48.2493 377.047 49.8779 377.355 51.7152C377.409 52.0284 377.192 52.3185 376.88 52.3743L373.057 53.0583C372.728 53.1174 372.416 52.8927 372.338 52.5659C371.913 50.7576 370.9 49.3076 369.303 48.2159C367.555 46.9839 365.331 46.3458 362.631 46.3019C360.086 46.2359 358.017 46.7199 356.423 47.7539C354.831 48.7659 354.034 50.1189 354.034 51.8129C354.034 52.7589 354.322 53.5728 354.897 54.2549C355.472 54.9149 356.513 55.5419 358.017 56.1359C359.544 56.7299 361.713 57.3789 364.523 58.0829C367.82 58.9188 370.41 59.7989 372.29 60.7229C374.172 61.6469 375.51 62.7359 376.307 63.9899C377.104 65.2439 377.502 66.7949 377.502 68.6429C377.502 72.0089 376.241 74.6598 373.718 76.5959C371.218 78.5099 367.765 79.4669 363.362 79.4669Z" fill="black"/>
<path d="M204.242 78.5102C203.961 78.5102 203.731 78.283 203.731 78.0026V31.498C203.731 31.2176 203.961 30.9902 204.242 30.9902H222.187C222.651 30.9902 223.171 31.0123 223.746 31.0562C224.344 31.0783 224.942 31.1443 225.54 31.2542C228.04 31.6283 230.153 32.4973 231.879 33.8612C233.627 35.2033 234.944 36.8972 235.829 38.9432C236.737 40.9892 237.191 43.2553 237.191 45.7412C237.191 48.2053 236.737 50.4602 235.829 52.5062C234.922 54.5522 233.594 56.2573 231.846 57.6212C230.121 58.9633 228.017 59.8213 225.54 60.1952C224.942 60.2833 224.344 60.3493 223.746 60.3932C223.171 60.4373 222.651 60.4592 222.187 60.4592H209.121C208.84 60.4592 208.61 60.6866 208.61 60.967V78.0026C208.61 78.283 208.383 78.5102 208.1 78.5102H204.242ZM208.61 55.3316C208.61 55.612 208.84 55.8392 209.121 55.8392H222.054C222.452 55.8392 222.917 55.8173 223.448 55.7732C223.98 55.7293 224.5 55.6523 225.008 55.5422C226.647 55.1903 227.984 54.5192 229.025 53.5292C230.088 52.5392 230.873 51.3623 231.382 49.9982C231.912 48.6343 232.179 47.2153 232.179 45.7412C232.179 44.2673 231.912 42.8483 231.382 41.4842C230.873 40.0982 230.088 38.9102 229.025 37.9202C227.984 36.9302 226.647 36.2593 225.008 35.9072C224.5 35.7973 223.98 35.7313 223.448 35.7092C222.917 35.6653 222.452 35.6432 222.054 35.6432H209.121C208.84 35.6432 208.61 35.8706 208.61 36.151V55.3316Z" fill="black"/>
</mask>
<g mask="url(#mask6_60_235)">
<path d="M204.242 78.5102C203.961 78.5102 203.731 78.283 203.731 78.0026V31.498C203.731 31.2176 203.961 30.9902 204.242 30.9902H222.187C222.651 30.9902 223.171 31.0123 223.746 31.0562C224.344 31.0783 224.942 31.1443 225.54 31.2542C228.04 31.6283 230.153 32.4973 231.879 33.8612C233.627 35.2033 234.944 36.8972 235.829 38.9432C236.737 40.9892 237.191 43.2553 237.191 45.7412C237.191 48.2053 236.737 50.4602 235.829 52.5062C234.922 54.5522 233.594 56.2573 231.846 57.6212C230.121 58.9633 228.017 59.8213 225.54 60.1952C224.942 60.2833 224.344 60.3493 223.746 60.3932C223.171 60.4373 222.651 60.4592 222.187 60.4592H209.121C208.84 60.4592 208.61 60.6866 208.61 60.967V78.0026C208.61 78.283 208.383 78.5102 208.1 78.5102H204.242ZM208.61 55.3316C208.61 55.612 208.84 55.8392 209.121 55.8392H222.054C222.452 55.8392 222.917 55.8173 223.448 55.7732C223.98 55.7293 224.5 55.6523 225.008 55.5422C226.647 55.1903 227.984 54.5192 229.025 53.5292C230.088 52.5392 230.873 51.3623 231.382 49.9982C231.912 48.6343 232.179 47.2153 232.179 45.7412C232.179 44.2673 231.912 42.8483 231.382 41.4842C230.873 40.0982 230.088 38.9102 229.025 37.9202C227.984 36.9302 226.647 36.2593 225.008 35.9072C224.5 35.7973 223.98 35.7313 223.448 35.7092C222.917 35.6653 222.452 35.6432 222.054 35.6432H209.121C208.84 35.6432 208.61 35.8706 208.61 36.151V55.3316Z" stroke="white" stroke-width="0.8" stroke-linejoin="round"/>
</g>
<path fill-rule="evenodd" clip-rule="evenodd" d="M1.0121 68.7397H5.16412C5.722 68.7397 6.1762 69.1927 6.1762 69.756V85.1996C6.1762 85.7598 5.72505 86.2159 5.16412 86.2159H1.0121C0.454222 86.2159 0 85.7628 0 85.1996V69.756C0 69.1958 0.451176 68.7397 1.0121 68.7397ZM10.6087 48.4439H13.8584C14.6662 48.4439 15.3186 49.1023 15.3186 49.9103V68.7397C15.3186 69.5508 14.6632 70.206 13.8584 70.206H10.6087C9.80084 70.206 9.14848 69.5477 9.14848 68.7397V49.9103C9.14848 49.0992 9.80389 48.4439 10.6087 48.4439ZM10.1575 72.6946H14.3096C14.8674 72.6946 15.3216 73.1477 15.3216 73.711V90.0638C15.3216 90.624 14.8705 91.0801 14.3096 91.0801H10.1575C9.59967 91.0801 9.14543 90.627 9.14543 90.0638V73.711C9.14543 73.1508 9.59662 72.6946 10.1575 72.6946ZM19.306 27.9586H23.458C24.0159 27.9586 24.4701 28.4117 24.4701 28.9749V59.5958C24.4701 60.156 24.0189 60.6122 23.458 60.6122H19.306C18.7481 60.6122 18.2939 60.1591 18.2939 59.5958V28.9749C18.2939 28.4147 18.7451 27.9586 19.306 27.9586ZM19.306 63.4866H23.458C24.0159 63.4866 24.4701 63.9396 24.4701 64.5029V73.9986C24.4701 74.5588 24.0189 75.015 23.458 75.015H19.306C18.7481 75.015 18.2939 74.5619 18.2939 73.9986V64.5029C18.2939 63.9427 18.7451 63.4866 19.306 63.4866ZM19.7572 82.7536H23.0069C23.8147 82.7536 24.4671 83.4119 24.4671 84.2199V89.6076C24.4671 90.419 23.8117 91.074 23.0069 91.074H19.7572C18.9493 91.074 18.297 90.4159 18.297 89.6076V84.2199C18.297 83.4088 18.9524 82.7536 19.7572 82.7536ZM28.4545 13.4364H32.6065C33.1645 13.4364 33.6186 13.8895 33.6186 14.4527V36.1106C33.6186 36.6708 33.1676 37.1269 32.6065 37.1269H28.4545C27.8966 37.1269 27.4424 36.6739 27.4424 36.1106V14.4466C27.4424 13.8864 27.8936 13.4303 28.4545 13.4303V13.4364ZM28.4545 39.7624H32.6095C33.1676 39.7624 33.6186 40.2155 33.6186 40.7757V70.1326C33.6186 70.6927 33.1676 71.1458 32.6095 71.1458H28.4545C27.8966 71.1458 27.4454 70.6927 27.4454 70.1326V40.7757C27.4454 40.2155 27.8966 39.7624 28.4545 39.7624ZM37.6028 8.96707H41.7551C42.3129 8.96707 42.767 9.42012 42.767 9.98336V24.426C42.767 24.9862 42.3159 25.4423 41.7551 25.4423H37.6028C37.0451 25.4423 36.591 24.9893 36.591 24.426V9.98031C36.591 9.42012 37.042 8.96401 37.6028 8.96401V8.96707ZM37.6028 27.98H41.7551C42.3129 27.98 42.767 28.4331 42.767 28.9964V49.7757C42.767 50.3359 42.3159 50.7921 41.7551 50.7921H37.6028C37.0451 50.7921 36.591 50.339 36.591 49.7757V28.9964C36.591 28.4361 37.042 27.98 37.6028 27.98ZM37.6028 53.7828H41.7551C42.3129 53.7828 42.767 54.2359 42.767 54.7989V73.4693C42.767 74.0295 42.3159 74.4854 41.7551 74.4854H37.6028C37.0451 74.4854 36.591 74.0326 36.591 73.4693V54.7989C36.591 54.2387 37.042 53.7828 37.6028 53.7828ZM47.1964 5.34261H50.4464C51.2542 5.34261 51.9065 6.00079 51.9065 6.80894V33.9248C51.9065 34.7362 51.2511 35.3911 50.4464 35.3911H47.1964C46.3886 35.3911 45.7363 34.7331 45.7363 33.9248V6.80894C45.7363 5.99771 46.3917 5.34261 47.1964 5.34261ZM47.1964 38.3881H50.4464C51.2542 38.3881 51.9065 39.0461 51.9065 39.8544V46.1483C51.9065 46.9594 51.2511 47.6143 50.4464 47.6143H47.1964C46.3886 47.6143 45.7363 46.9563 45.7363 46.1483V39.8544C45.7363 39.0433 46.3917 38.3881 47.1964 38.3881ZM47.1964 49.7084H50.4433C51.2511 49.7084 51.9034 50.3665 51.9034 51.1745V79.1968C51.9034 80.0079 51.2481 80.6628 50.4433 80.6628H47.1964C46.3886 80.6628 45.7363 80.0048 45.7363 79.1968V51.1745C45.7363 50.3634 46.3917 49.7084 47.1964 49.7084ZM56.3451 1.72125H59.5947C60.4025 1.72125 61.0548 2.3794 61.0548 3.18756V8.57524C61.0548 9.38645 60.3995 10.0415 59.5947 10.0415H56.3451C55.5373 10.0415 54.8847 9.38339 54.8847 8.57524V3.19062C54.8847 2.3794 55.5403 1.72431 56.3451 1.72431V1.72125ZM56.3451 12.5823H59.5947C60.4025 12.5823 61.0548 13.2405 61.0548 14.0486V55.6501C61.0548 56.4612 60.3995 57.1165 59.5947 57.1165H56.3451C55.5373 57.1165 54.8847 56.4581 54.8847 55.6501V14.0517C54.8847 13.2405 55.5403 12.5854 56.3451 12.5854V12.5823ZM56.3451 60.1131H59.5947C60.4025 60.1131 61.0548 60.7714 61.0548 61.5795V72.8508C61.0548 73.6619 60.3995 74.3171 59.5947 74.3171H56.3451C55.5373 74.3171 54.8847 73.6588 54.8847 72.8508V61.5795C54.8847 60.7683 55.5403 60.1131 56.3451 60.1131ZM56.3451 77.3171H59.5947C60.4025 77.3171 61.0548 77.9752 61.0548 78.7835V85.9832C61.0548 86.7946 60.3995 87.4496 59.5947 87.4496H56.3451C55.5373 87.4496 54.8847 86.7915 54.8847 85.9832V78.7835C54.8847 77.9721 55.5403 77.3171 56.3451 77.3171ZM65.4935 75.0517H68.7431C69.5509 75.0517 70.2035 75.71 70.2035 76.5181V89.6045C70.2035 90.4159 69.5479 91.0709 68.7431 91.0709H65.4935C64.6856 91.0709 64.0333 90.4128 64.0333 89.6045V76.5181C64.0333 75.707 64.6887 75.0517 65.4935 75.0517ZM65.4935 29.7862H68.7431C69.5509 29.7862 70.2035 30.4443 70.2035 31.2525V63.3458C70.2035 64.1569 69.5479 64.8122 68.7431 64.8122H65.4935C64.6856 64.8122 64.0333 64.1538 64.0333 63.3458V31.2525C64.0333 30.4412 64.6887 29.7862 65.4935 29.7862ZM65.4935 1.26514H68.7431C69.5509 1.26514 70.2035 1.92329 70.2035 2.73144V25.3199C70.2035 26.1311 69.5479 26.7862 68.7431 26.7862H65.4935C64.6856 26.7862 64.0333 26.128 64.0333 25.3199V2.7345C64.0333 1.92329 64.6887 1.2682 65.4935 1.2682V1.26514ZM74.6418 81.8415H77.8917C78.6996 81.8415 79.3519 82.4996 79.3519 83.3079V89.6017C79.3519 90.4128 78.6965 91.0678 77.8917 91.0678H74.6418C73.834 91.0678 73.1817 90.4098 73.1817 89.6017V83.3079C73.1817 82.4965 73.8371 81.8415 74.6418 81.8415ZM74.6418 1.71819H77.8917C78.6996 1.71819 79.3519 2.37635 79.3519 3.1845V41.6177C79.3519 42.4288 78.6965 43.084 77.8917 43.084H74.6418C73.834 43.084 73.1817 42.4257 73.1817 41.6177V3.18756C73.1817 2.37635 73.8371 1.72125 74.6418 1.72125V1.71819ZM74.6418 46.0807H77.8917C78.6996 46.0807 79.3519 46.739 79.3519 47.547V63.3458C79.3519 64.1569 78.6965 64.8122 77.8917 64.8122H74.6418C73.834 64.8122 73.1817 64.1538 73.1817 63.3458V47.547C73.1817 46.7359 73.8371 46.0807 74.6418 46.0807ZM83.7844 3.53041H87.034C87.8418 3.53041 88.4941 4.18856 88.4941 4.99672V15.8149C88.4941 16.6261 87.8388 17.2812 87.034 17.2812H83.7844C82.9766 17.2812 82.3243 16.6231 82.3243 15.8149V4.99977C82.3243 4.18856 82.9796 3.53347 83.7844 3.53347V3.53041ZM83.7844 20.2781H87.034C87.8418 20.2781 88.4941 20.9363 88.4941 21.7444V63.3458C88.4941 64.1569 87.8388 64.8122 87.034 64.8122H83.7844C82.9766 64.8122 82.3243 64.1538 82.3243 63.3458V21.7475C82.3243 20.9363 82.9796 20.2812 83.7844 20.2812V20.2781ZM92.9297 4.43653H96.1793C96.9874 4.43653 97.6397 5.09468 97.6397 5.90283V29.8504C97.6397 30.6616 96.9844 31.3167 96.1793 31.3167H92.9297C92.1219 31.3167 91.4696 30.6586 91.4696 29.8504V5.90589C91.4696 5.09468 92.1249 4.43959 92.9297 4.43959V4.43653ZM92.9297 34.3137H96.1793C96.9874 34.3137 97.6397 34.9717 97.6397 35.78V55.6563C97.6397 56.4674 96.9844 57.1223 96.1793 57.1223H92.9297C92.1219 57.1223 91.4696 56.4643 91.4696 55.6563V35.78C91.4696 34.9686 92.1249 34.3137 92.9297 34.3137ZM92.9297 60.1131H96.1793C96.9874 60.1131 97.6397 60.7714 97.6397 61.5795V70.5887C97.6397 71.3998 96.9844 72.0548 96.1793 72.0548H92.9297C92.1219 72.0548 91.4696 71.3968 91.4696 70.5887V61.5795C91.4696 60.7683 92.1249 60.1131 92.9297 60.1131ZM102.02 5.79567H105.27C106.078 5.79567 106.73 6.45382 106.73 7.262V44.3359C106.73 45.147 106.075 45.8023 105.27 45.8023H102.02C101.213 45.8023 100.56 45.1439 100.56 44.3359V7.26506C100.56 6.45382 101.216 5.79876 102.02 5.79876V5.79567ZM102.02 48.7992H105.27C106.078 48.7992 106.73 49.4572 106.73 50.2655V79.6437C106.73 80.4548 106.075 81.1097 105.27 81.1097H102.02C101.213 81.1097 100.56 80.4517 100.56 79.6437V50.2655C100.56 49.4541 101.216 48.7992 102.02 48.7992ZM111.105 4.43653H114.354C115.162 4.43653 115.815 5.09468 115.815 5.90283V21.7016C115.815 22.5128 115.159 23.1679 114.354 23.1679H111.105C110.297 23.1679 109.645 22.5097 109.645 21.7016V5.90589C109.645 5.09468 110.3 4.43959 111.105 4.43959V4.43653ZM111.105 26.1648H114.354C115.162 26.1648 115.815 26.8229 115.815 27.6311V73.7631C115.815 74.5742 115.159 75.2295 114.354 75.2295H111.105C110.297 75.2295 109.645 74.5712 109.645 73.7631V27.6341C109.645 26.8229 110.3 26.1678 111.105 26.1678V26.1648ZM111.105 78.2233H114.354C115.162 78.2233 115.815 78.8813 115.815 79.6894V88.2456C115.815 89.0567 115.159 89.7119 114.354 89.7119H111.105C110.297 89.7119 109.645 89.0536 109.645 88.2456V79.6894C109.645 78.8783 110.3 78.2233 111.105 78.2233ZM120.25 75.5079H123.5C124.308 75.5079 124.96 76.1659 124.96 76.9742V89.6045C124.96 90.4159 124.305 91.0709 123.5 91.0709H120.25C119.443 91.0709 118.79 90.4128 118.79 89.6045V76.9742C118.79 76.1631 119.445 75.5079 120.25 75.5079ZM120.25 37.0319H123.5C124.308 37.0319 124.96 37.6902 124.96 38.4982V47.0572C124.96 47.8686 124.305 48.5236 123.5 48.5236H120.25C119.443 48.5236 118.79 47.8655 118.79 47.0572V38.4982C118.79 37.6871 119.445 37.0319 120.25 37.0319ZM120.25 3.98652H123.5C124.308 3.98652 124.96 4.64468 124.96 5.45283V32.5689C124.96 33.38 124.305 34.035 123.5 34.035H120.25C119.443 34.035 118.79 33.3769 118.79 32.5689V5.45283C118.79 4.64163 119.445 3.98652 120.25 3.98652ZM129.521 6.25178H132.77C133.578 6.25178 134.23 6.90996 134.23 7.71811V42.0766C134.23 42.8881 133.575 43.543 132.77 43.543H129.521C128.713 43.543 128.061 42.885 128.061 42.0766V7.71811C128.061 6.90688 128.716 6.25178 129.521 6.25178ZM129.521 82.7536H132.77C133.578 82.7536 134.23 83.4119 134.23 84.2199V89.6076C134.23 90.419 133.575 91.074 132.77 91.074H129.521C128.713 91.074 128.061 90.4159 128.061 89.6076V84.2199C128.061 83.4088 128.716 82.7536 129.521 82.7536ZM138.538 8.97012H141.788C142.596 8.97012 143.248 9.62827 143.248 10.4364V18.9955C143.248 19.8067 142.593 20.4618 141.788 20.4618H138.538C137.73 20.4618 137.078 19.8036 137.078 18.9955V10.4364C137.078 9.62522 137.733 8.97012 138.538 8.97012ZM138.538 23.4526H141.788C142.596 23.4526 143.248 24.1107 143.248 24.9189V41.1708C143.248 41.9819 142.593 42.6368 141.788 42.6368H138.538C137.73 42.6368 137.078 41.9788 137.078 41.1708V24.9189C137.078 24.1077 137.733 23.4526 138.538 23.4526ZM147.799 11.2293H151.049C151.857 11.2293 152.509 11.8874 152.509 12.6956V18.0833C152.509 18.8945 151.854 19.5496 151.049 19.5496H147.799C146.992 19.5496 146.339 18.8914 146.339 18.0833V12.6956C146.339 11.8844 146.995 11.2293 147.799 11.2293ZM147.799 22.0934H151.049C151.857 22.0934 152.509 22.7515 152.509 23.5597V28.4943C152.509 29.3055 151.854 29.9606 151.049 29.9606H147.799C146.992 29.9606 146.339 29.3025 146.339 28.4943V23.5597C146.339 22.7485 146.995 22.0934 147.799 22.0934ZM147.799 32.5044H151.049C151.857 32.5044 152.509 33.1627 152.509 33.9708V42.0739C152.509 42.885 151.854 43.5399 151.049 43.5399H147.799C146.992 43.5399 146.339 42.8819 146.339 42.0739V33.9708C146.339 33.1596 146.995 32.5044 147.799 32.5044ZM156.945 13.9476H160.194C161.002 13.9476 161.655 14.6058 161.655 15.4139V43.4359C161.655 44.247 160.999 44.9023 160.194 44.9023H156.945C156.137 44.9023 155.485 44.2442 155.485 43.4359V15.4108C155.485 14.5996 156.14 13.9445 156.945 13.9445V13.9476ZM166.032 22.0934H169.282C170.09 22.0934 170.742 22.7515 170.742 23.5597V42.5266C170.742 43.3381 170.087 43.993 169.282 43.993H166.032C165.224 43.993 164.572 43.335 164.572 42.5266V23.5597C164.572 22.7485 165.227 22.0934 166.032 22.0934ZM175.05 32.5044H178.299C179.107 32.5044 179.76 33.1627 179.76 33.9708V39.3584C179.76 40.1695 179.104 40.8248 178.299 40.8248H175.05C174.242 40.8248 173.59 40.1665 173.59 39.3584V33.9708C173.59 33.1596 174.245 32.5044 175.05 32.5044Z" fill="url(#paint0_radial_60_235)"/>
<path fill-rule="evenodd" clip-rule="evenodd" d="M1.0121 68.7397H5.16412C5.722 68.7397 6.1762 69.1927 6.1762 69.756V85.1996C6.1762 85.7598 5.72505 86.2159 5.16412 86.2159H1.0121C0.454222 86.2159 0 85.7628 0 85.1996V69.756C0 69.1958 0.451176 68.7397 1.0121 68.7397ZM10.6087 48.4439H13.8584C14.6662 48.4439 15.3186 49.1023 15.3186 49.9103V68.7397C15.3186 69.5508 14.6632 70.206 13.8584 70.206H10.6087C9.80084 70.206 9.14848 69.5477 9.14848 68.7397V49.9103C9.14848 49.0992 9.80389 48.4439 10.6087 48.4439ZM10.1575 72.6946H14.3096C14.8674 72.6946 15.3216 73.1477 15.3216 73.711V90.0638C15.3216 90.624 14.8705 91.0801 14.3096 91.0801H10.1575C9.59967 91.0801 9.14543 90.627 9.14543 90.0638V73.711C9.14543 73.1508 9.59662 72.6946 10.1575 72.6946ZM19.306 27.9586H23.458C24.0159 27.9586 24.4701 28.4117 24.4701 28.9749V59.5958C24.4701 60.156 24.0189 60.6122 23.458 60.6122H19.306C18.7481 60.6122 18.2939 60.1591 18.2939 59.5958V28.9749C18.2939 28.4147 18.7451 27.9586 19.306 27.9586ZM19.306 63.4866H23.458C24.0159 63.4866 24.4701 63.9396 24.4701 64.5029V73.9986C24.4701 74.5588 24.0189 75.015 23.458 75.015H19.306C18.7481 75.015 18.2939 74.5619 18.2939 73.9986V64.5029C18.2939 63.9427 18.7451 63.4866 19.306 63.4866ZM19.7572 82.7536H23.0069C23.8147 82.7536 24.4671 83.4119 24.4671 84.2199V89.6076C24.4671 90.419 23.8117 91.074 23.0069 91.074H19.7572C18.9493 91.074 18.297 90.4159 18.297 89.6076V84.2199C18.297 83.4088 18.9524 82.7536 19.7572 82.7536ZM28.4545 13.4364H32.6065C33.1645 13.4364 33.6186 13.8895 33.6186 14.4527V36.1106C33.6186 36.6708 33.1676 37.1269 32.6065 37.1269H28.4545C27.8966 37.1269 27.4424 36.6739 27.4424 36.1106V14.4466C27.4424 13.8864 27.8936 13.4303 28.4545 13.4303V13.4364ZM28.4545 39.7624H32.6095C33.1676 39.7624 33.6186 40.2155 33.6186 40.7757V70.1326C33.6186 70.6927 33.1676 71.1458 32.6095 71.1458H28.4545C27.8966 71.1458 27.4454 70.6927 27.4454 70.1326V40.7757C27.4454 40.2155 27.8966 39.7624 28.4545 39.7624ZM37.6028 8.96707H41.7551C42.3129 8.96707 42.767 9.42012 42.767 9.98336V24.426C42.767 24.9862 42.3159 25.4423 41.7551 25.4423H37.6028C37.0451 25.4423 36.591 24.9893 36.591 24.426V9.98031C36.591 9.42012 37.042 8.96401 37.6028 8.96401V8.96707ZM37.6028 27.98H41.7551C42.3129 27.98 42.767 28.4331 42.767 28.9964V49.7757C42.767 50.3359 42.3159 50.7921 41.7551 50.7921H37.6028C37.0451 50.7921 36.591 50.339 36.591 49.7757V28.9964C36.591 28.4361 37.042 27.98 37.6028 27.98ZM37.6028 53.7828H41.7551C42.3129 53.7828 42.767 54.2359 42.767 54.7989V73.4693C42.767 74.0295 42.3159 74.4854 41.7551 74.4854H37.6028C37.0451 74.4854 36.591 74.0326 36.591 73.4693V54.7989C36.591 54.2387 37.042 53.7828 37.6028 53.7828ZM47.1964 5.34261H50.4464C51.2542 5.34261 51.9065 6.00079 51.9065 6.80894V33.9248C51.9065 34.7362 51.2511 35.3911 50.4464 35.3911H47.1964C46.3886 35.3911 45.7363 34.7331 45.7363 33.9248V6.80894C45.7363 5.99771 46.3917 5.34261 47.1964 5.34261ZM47.1964 38.3881H50.4464C51.2542 38.3881 51.9065 39.0461 51.9065 39.8544V46.1483C51.9065 46.9594 51.2511 47.6143 50.4464 47.6143H47.1964C46.3886 47.6143 45.7363 46.9563 45.7363 46.1483V39.8544C45.7363 39.0433 46.3917 38.3881 47.1964 38.3881ZM47.1964 49.7084H50.4433C51.2511 49.7084 51.9034 50.3665 51.9034 51.1745V79.1968C51.9034 80.0079 51.2481 80.6628 50.4433 80.6628H47.1964C46.3886 80.6628 45.7363 80.0048 45.7363 79.1968V51.1745C45.7363 50.3634 46.3917 49.7084 47.1964 49.7084ZM56.3451 1.72125H59.5947C60.4025 1.72125 61.0548 2.3794 61.0548 3.18756V8.57524C61.0548 9.38645 60.3995 10.0415 59.5947 10.0415H56.3451C55.5373 10.0415 54.8847 9.38339 54.8847 8.57524V3.19062C54.8847 2.3794 55.5403 1.72431 56.3451 1.72431V1.72125ZM56.3451 12.5823H59.5947C60.4025 12.5823 61.0548 13.2405 61.0548 14.0486V55.6501C61.0548 56.4612 60.3995 57.1165 59.5947 57.1165H56.3451C55.5373 57.1165 54.8847 56.4581 54.8847 55.6501V14.0517C54.8847 13.2405 55.5403 12.5854 56.3451 12.5854V12.5823ZM56.3451 60.1131H59.5947C60.4025 60.1131 61.0548 60.7714 61.0548 61.5795V72.8508C61.0548 73.6619 60.3995 74.3171 59.5947 74.3171H56.3451C55.5373 74.3171 54.8847 73.6588 54.8847 72.8508V61.5795C54.8847 60.7683 55.5403 60.1131 56.3451 60.1131ZM56.3451 77.3171H59.5947C60.4025 77.3171 61.0548 77.9752 61.0548 78.7835V85.9832C61.0548 86.7946 60.3995 87.4496 59.5947 87.4496H56.3451C55.5373 87.4496 54.8847 86.7915 54.8847 85.9832V78.7835C54.8847 77.9721 55.5403 77.3171 56.3451 77.3171ZM65.4935 75.0517H68.7431C69.5509 75.0517 70.2035 75.71 70.2035 76.5181V89.6045C70.2035 90.4159 69.5479 91.0709 68.7431 91.0709H65.4935C64.6856 91.0709 64.0333 90.4128 64.0333 89.6045V76.5181C64.0333 75.707 64.6887 75.0517 65.4935 75.0517ZM65.4935 29.7862H68.7431C69.5509 29.7862 70.2035 30.4443 70.2035 31.2525V63.3458C70.2035 64.1569 69.5479 64.8122 68.7431 64.8122H65.4935C64.6856 64.8122 64.0333 64.1538 64.0333 63.3458V31.2525C64.0333 30.4412 64.6887 29.7862 65.4935 29.7862ZM65.4935 1.26514H68.7431C69.5509 1.26514 70.2035 1.92329 70.2035 2.73144V25.3199C70.2035 26.1311 69.5479 26.7862 68.7431 26.7862H65.4935C64.6856 26.7862 64.0333 26.128 64.0333 25.3199V2.7345C64.0333 1.92329 64.6887 1.2682 65.4935 1.2682V1.26514ZM74.6418 81.8415H77.8917C78.6996 81.8415 79.3519 82.4996 79.3519 83.3079V89.6017C79.3519 90.4128 78.6965 91.0678 77.8917 91.0678H74.6418C73.834 91.0678 73.1817 90.4098 73.1817 89.6017V83.3079C73.1817 82.4965 73.8371 81.8415 74.6418 81.8415ZM74.6418 1.71819H77.8917C78.6996 1.71819 79.3519 2.37635 79.3519 3.1845V41.6177C79.3519 42.4288 78.6965 43.084 77.8917 43.084H74.6418C73.834 43.084 73.1817 42.4257 73.1817 41.6177V3.18756C73.1817 2.37635 73.8371 1.72125 74.6418 1.72125V1.71819ZM74.6418 46.0807H77.8917C78.6996 46.0807 79.3519 46.739 79.3519 47.547V63.3458C79.3519 64.1569 78.6965 64.8122 77.8917 64.8122H74.6418C73.834 64.8122 73.1817 64.1538 73.1817 63.3458V47.547C73.1817 46.7359 73.8371 46.0807 74.6418 46.0807ZM83.7844 3.53041H87.034C87.8418 3.53041 88.4941 4.18856 88.4941 4.99672V15.8149C88.4941 16.6261 87.8388 17.2812 87.034 17.2812H83.7844C82.9766 17.2812 82.3243 16.6231 82.3243 15.8149V4.99977C82.3243 4.18856 82.9796 3.53347 83.7844 3.53347V3.53041ZM83.7844 20.2781H87.034C87.8418 20.2781 88.4941 20.9363 88.4941 21.7444V63.3458C88.4941 64.1569 87.8388 64.8122 87.034 64.8122H83.7844C82.9766 64.8122 82.3243 64.1538 82.3243 63.3458V21.7475C82.3243 20.9363 82.9796 20.2812 83.7844 20.2812V20.2781ZM92.9297 4.43653H96.1793C96.9874 4.43653 97.6397 5.09468 97.6397 5.90283V29.8504C97.6397 30.6616 96.9844 31.3167 96.1793 31.3167H92.9297C92.1219 31.3167 91.4696 30.6586 91.4696 29.8504V5.90589C91.4696 5.09468 92.1249 4.43959 92.9297 4.43959V4.43653ZM92.9297 34.3137H96.1793C96.9874 34.3137 97.6397 34.9717 97.6397 35.78V55.6563C97.6397 56.4674 96.9844 57.1223 96.1793 57.1223H92.9297C92.1219 57.1223 91.4696 56.4643 91.4696 55.6563V35.78C91.4696 34.9686 92.1249 34.3137 92.9297 34.3137ZM92.9297 60.1131H96.1793C96.9874 60.1131 97.6397 60.7714 97.6397 61.5795V70.5887C97.6397 71.3998 96.9844 72.0548 96.1793 72.0548H92.9297C92.1219 72.0548 91.4696 71.3968 91.4696 70.5887V61.5795C91.4696 60.7683 92.1249 60.1131 92.9297 60.1131ZM102.02 5.79567H105.27C106.078 5.79567 106.73 6.45382 106.73 7.262V44.3359C106.73 45.147 106.075 45.8023 105.27 45.8023H102.02C101.213 45.8023 100.56 45.1439 100.56 44.3359V7.26506C100.56 6.45382 101.216 5.79876 102.02 5.79876V5.79567ZM102.02 48.7992H105.27C106.078 48.7992 106.73 49.4572 106.73 50.2655V79.6437C106.73 80.4548 106.075 81.1097 105.27 81.1097H102.02C101.213 81.1097 100.56 80.4517 100.56 79.6437V50.2655C100.56 49.4541 101.216 48.7992 102.02 48.7992ZM111.105 4.43653H114.354C115.162 4.43653 115.815 5.09468 115.815 5.90283V21.7016C115.815 22.5128 115.159 23.1679 114.354 23.1679H111.105C110.297 23.1679 109.645 22.5097 109.645 21.7016V5.90589C109.645 5.09468 110.3 4.43959 111.105 4.43959V4.43653ZM111.105 26.1648H114.354C115.162 26.1648 115.815 26.8229 115.815 27.6311V73.7631C115.815 74.5742 115.159 75.2295 114.354 75.2295H111.105C110.297 75.2295 109.645 74.5712 109.645 73.7631V27.6341C109.645 26.8229 110.3 26.1678 111.105 26.1678V26.1648ZM111.105 78.2233H114.354C115.162 78.2233 115.815 78.8813 115.815 79.6894V88.2456C115.815 89.0567 115.159 89.7119 114.354 89.7119H111.105C110.297 89.7119 109.645 89.0536 109.645 88.2456V79.6894C109.645 78.8783 110.3 78.2233 111.105 78.2233ZM120.25 75.5079H123.5C124.308 75.5079 124.96 76.1659 124.96 76.9742V89.6045C124.96 90.4159 124.305 91.0709 123.5 91.0709H120.25C119.443 91.0709 118.79 90.4128 118.79 89.6045V76.9742C118.79 76.1631 119.445 75.5079 120.25 75.5079ZM120.25 37.0319H123.5C124.308 37.0319 124.96 37.6902 124.96 38.4982V47.0572C124.96 47.8686 124.305 48.5236 123.5 48.5236H120.25C119.443 48.5236 118.79 47.8655 118.79 47.0572V38.4982C118.79 37.6871 119.445 37.0319 120.25 37.0319ZM120.25 3.98652H123.5C124.308 3.98652 124.96 4.64468 124.96 5.45283V32.5689C124.96 33.38 124.305 34.035 123.5 34.035H120.25C119.443 34.035 118.79 33.3769 118.79 32.5689V5.45283C118.79 4.64163 119.445 3.98652 120.25 3.98652ZM129.521 6.25178H132.77C133.578 6.25178 134.23 6.90996 134.23 7.71811V42.0766C134.23 42.8881 133.575 43.543 132.77 43.543H129.521C128.713 43.543 128.061 42.885 128.061 42.0766V7.71811C128.061 6.90688 128.716 6.25178 129.521 6.25178ZM129.521 82.7536H132.77C133.578 82.7536 134.23 83.4119 134.23 84.2199V89.6076C134.23 90.419 133.575 91.074 132.77 91.074H129.521C128.713 91.074 128.061 90.4159 128.061 89.6076V84.2199C128.061 83.4088 128.716 82.7536 129.521 82.7536ZM138.538 8.97012H141.788C142.596 8.97012 143.248 9.62827 143.248 10.4364V18.9955C143.248 19.8067 142.593 20.4618 141.788 20.4618H138.538C137.73 20.4618 137.078 19.8036 137.078 18.9955V10.4364C137.078 9.62522 137.733 8.97012 138.538 8.97012ZM138.538 23.4526H141.788C142.596 23.4526 143.248 24.1107 143.248 24.9189V41.1708C143.248 41.9819 142.593 42.6368 141.788 42.6368H138.538C137.73 42.6368 137.078 41.9788 137.078 41.1708V24.9189C137.078 24.1077 137.733 23.4526 138.538 23.4526ZM147.799 11.2293H151.049C151.857 11.2293 152.509 11.8874 152.509 12.6956V18.0833C152.509 18.8945 151.854 19.5496 151.049 19.5496H147.799C146.992 19.5496 146.339 18.8914 146.339 18.0833V12.6956C146.339 11.8844 146.995 11.2293 147.799 11.2293ZM147.799 22.0934H151.049C151.857 22.0934 152.509 22.7515 152.509 23.5597V28.4943C152.509 29.3055 151.854 29.9606 151.049 29.9606H147.799C146.992 29.9606 146.339 29.3025 146.339 28.4943V23.5597C146.339 22.7485 146.995 22.0934 147.799 22.0934ZM147.799 32.5044H151.049C151.857 32.5044 152.509 33.1627 152.509 33.9708V42.0739C152.509 42.885 151.854 43.5399 151.049 43.5399H147.799C146.992 43.5399 146.339 42.8819 146.339 42.0739V33.9708C146.339 33.1596 146.995 32.5044 147.799 32.5044ZM156.945 13.9476H160.194C161.002 13.9476 161.655 14.6058 161.655 15.4139V43.4359C161.655 44.247 160.999 44.9023 160.194 44.9023H156.945C156.137 44.9023 155.485 44.2442 155.485 43.4359V15.4108C155.485 14.5996 156.14 13.9445 156.945 13.9445V13.9476ZM166.032 22.0934H169.282C170.09 22.0934 170.742 22.7515 170.742 23.5597V42.5266C170.742 43.3381 170.087 43.993 169.282 43.993H166.032C165.224 43.993 164.572 43.335 164.572 42.5266V23.5597C164.572 22.7485 165.227 22.0934 166.032 22.0934ZM175.05 32.5044H178.299C179.107 32.5044 179.76 33.1627 179.76 33.9708V39.3584C179.76 40.1695 179.104 40.8248 178.299 40.8248H175.05C174.242 40.8248 173.59 40.1665 173.59 39.3584V33.9708C173.59 33.1596 174.245 32.5044 175.05 32.5044Z" fill="url(#paint1_radial_60_235)"/>
</g>
<defs>
<radialGradient id="paint0_radial_60_235" cx="0" cy="0" r="1" gradientUnits="userSpaceOnUse" gradientTransform="translate(154.308 21.0183) rotate(157.016) scale(182.189 372.161)">
<stop stop-color="#FBFDFF"/>
<stop offset="1" stop-color="white" stop-opacity="0"/>
</radialGradient>
<radialGradient id="paint1_radial_60_235" cx="0" cy="0" r="1" gradientUnits="userSpaceOnUse" gradientTransform="translate(154.308 21.0183) rotate(157.016) scale(182.189 372.161)">
<stop stop-color="#FBFDFF"/>
<stop offset="1" stop-color="white" stop-opacity="0"/>
</radialGradient>
<clipPath id="clip0_60_235">
<rect width="379" height="90" fill="white"/>
</clipPath>
</defs>
</svg>
