<svg width="181" height="90" viewBox="0 0 181 90" fill="none" xmlns="http://www.w3.org/2000/svg">
<path fill-rule="evenodd" clip-rule="evenodd" d="M1.49886 67.6943H5.64866C6.20625 67.6943 6.66021 68.1466 6.66021 68.7088V84.1238C6.66021 84.6829 6.2093 85.1383 5.64866 85.1383H1.49886C0.941284 85.1383 0.487305 84.686 0.487305 84.1238V68.7088C0.487305 68.1497 0.938239 67.6943 1.49886 67.6943ZM11.0903 47.4362H14.3383C15.1457 47.4362 15.7977 48.0933 15.7977 48.8998V67.6943C15.7977 68.504 15.1426 69.158 14.3383 69.158H11.0903C10.2829 69.158 9.6309 68.5009 9.6309 67.6943V48.8998C9.6309 48.0902 10.286 47.4362 11.0903 47.4362ZM10.6394 71.642H14.7892C15.3468 71.642 15.8008 72.0942 15.8008 72.6564V88.979C15.8008 89.5381 15.3498 89.9935 14.7892 89.9935H10.6394C10.0818 89.9935 9.62785 89.5412 9.62785 88.979V72.6564C9.62785 72.0973 10.0788 71.642 10.6394 71.642ZM19.783 26.9888H23.9328C24.4904 26.9888 24.9443 27.441 24.9443 28.0032V58.5674C24.9443 59.1266 24.4934 59.5819 23.9328 59.5819H19.783C19.2254 59.5819 18.7714 59.1297 18.7714 58.5674V28.0032C18.7714 27.4441 19.2224 26.9888 19.783 26.9888ZM19.783 62.451H23.9328C24.4904 62.451 24.9443 62.9032 24.9443 63.4654V72.9436C24.9443 73.5027 24.4934 73.958 23.9328 73.958H19.783C19.2254 73.958 18.7714 73.5058 18.7714 72.9436V63.4654C18.7714 62.9063 19.2224 62.451 19.783 62.451ZM20.2339 81.6823H23.4819C24.2893 81.6823 24.9413 82.3394 24.9413 83.146V88.5237C24.9413 89.3336 24.2862 89.9873 23.4819 89.9873H20.2339C19.4265 89.9873 18.7745 89.3305 18.7745 88.5237V83.146C18.7745 82.3363 19.4296 81.6823 20.2339 81.6823ZM28.9266 12.4935H33.0763C33.6341 12.4935 34.0879 12.9457 34.0879 13.5079V35.1257C34.0879 35.6848 33.6372 36.1401 33.0763 36.1401H28.9266C28.369 36.1401 27.915 35.6879 27.915 35.1257V13.5018C27.915 12.9426 28.366 12.4873 28.9266 12.4873V12.4935ZM28.9266 38.7708H33.0794C33.6372 38.7708 34.0879 39.223 34.0879 39.7822V69.0847C34.0879 69.6438 33.6372 70.0961 33.0794 70.0961H28.9266C28.369 70.0961 27.9181 69.6438 27.9181 69.0847V39.7822C27.9181 39.223 28.369 38.7708 28.9266 38.7708ZM38.0701 8.0324H42.2201C42.7776 8.0324 43.2314 8.48462 43.2314 9.04681V23.4627C43.2314 24.0219 42.7806 24.4771 42.2201 24.4771H38.0701C37.5126 24.4771 37.0588 24.025 37.0588 23.4627V9.04377C37.0588 8.48462 37.5095 8.02935 38.0701 8.02935V8.0324ZM38.0701 27.0102H42.2201C42.7776 27.0102 43.2314 27.4624 43.2314 28.0246V48.7655C43.2314 49.3247 42.7806 49.78 42.2201 49.78H38.0701C37.5126 49.78 37.0588 49.3277 37.0588 48.7655V28.0246C37.0588 27.4654 37.5095 27.0102 38.0701 27.0102ZM38.0701 52.7652H42.2201C42.7776 52.7652 43.2314 53.2175 43.2314 53.7794V72.4152C43.2314 72.9744 42.7806 73.4294 42.2201 73.4294H38.0701C37.5126 73.4294 37.0588 72.9774 37.0588 72.4152V53.7794C37.0588 53.2202 37.5095 52.7652 38.0701 52.7652ZM47.6585 4.41466H50.9067C51.7141 4.41466 52.3661 5.07162 52.3661 5.87827V32.9439C52.3661 33.7538 51.711 34.4075 50.9067 34.4075H47.6585C46.8511 34.4075 46.1992 33.7507 46.1992 32.9439V5.87827C46.1992 5.06854 46.8542 4.41466 47.6585 4.41466ZM47.6585 37.3989H50.9067C51.7141 37.3989 52.3661 38.0557 52.3661 38.8626V45.1448C52.3661 45.9544 51.711 46.6081 50.9067 46.6081H47.6585C46.8511 46.6081 46.1992 45.9513 46.1992 45.1448V38.8626C46.1992 38.053 46.8542 37.3989 47.6585 37.3989ZM47.6585 48.6984H50.9037C51.711 48.6984 52.363 49.3552 52.363 50.1617V78.1321C52.363 78.9417 51.708 79.5954 50.9037 79.5954H47.6585C46.8511 79.5954 46.1992 78.9386 46.1992 78.1321V50.1617C46.1992 49.3521 46.8542 48.6984 47.6585 48.6984ZM56.8023 0.799997H60.0502C60.8576 0.799997 61.5095 1.45693 61.5095 2.26359V7.6413C61.5095 8.451 60.8545 9.10489 60.0502 9.10489H56.8023C55.9949 9.10489 55.3427 8.44796 55.3427 7.6413V2.26664C55.3427 1.45693 55.998 0.803053 56.8023 0.803053V0.799997ZM56.8023 11.641H60.0502C60.8576 11.641 61.5095 12.2979 61.5095 13.1045V54.629C61.5095 55.4386 60.8545 56.0927 60.0502 56.0927H56.8023C55.9949 56.0927 55.3427 55.4356 55.3427 54.629V13.1076C55.3427 12.2979 55.998 11.644 56.8023 11.644V11.641ZM56.8023 59.0837H60.0502C60.8576 59.0837 61.5095 59.7409 61.5095 60.5474V71.7979C61.5095 72.6075 60.8545 73.2615 60.0502 73.2615H56.8023C55.9949 73.2615 55.3427 72.6044 55.3427 71.7979V60.5474C55.3427 59.7378 55.998 59.0837 56.8023 59.0837ZM56.8023 76.2559H60.0502C60.8576 76.2559 61.5095 76.9128 61.5095 77.7196V84.906C61.5095 85.7159 60.8545 86.3696 60.0502 86.3696H56.8023C55.9949 86.3696 55.3427 85.7128 55.3427 84.906V77.7196C55.3427 76.9097 55.998 76.2559 56.8023 76.2559ZM65.9458 73.9947H69.1936C70.001 73.9947 70.6533 74.6518 70.6533 75.4584V88.5206C70.6533 89.3305 69.998 89.9842 69.1936 89.9842H65.9458C65.1384 89.9842 64.4864 89.3274 64.4864 88.5206V75.4584C64.4864 74.6487 65.1414 73.9947 65.9458 73.9947ZM65.9458 28.8129H69.1936C70.001 28.8129 70.6533 29.4699 70.6533 30.2765V62.3105C70.6533 63.1201 69.998 63.7741 69.1936 63.7741H65.9458C65.1384 63.7741 64.4864 63.117 64.4864 62.3105V30.2765C64.4864 29.4668 65.1414 28.8129 65.9458 28.8129ZM65.9458 0.344727H69.1936C70.001 0.344727 70.6533 1.00166 70.6533 1.80832V24.3549C70.6533 25.1646 69.998 25.8185 69.1936 25.8185H65.9458C65.1384 25.8185 64.4864 25.1616 64.4864 24.3549V1.81137C64.4864 1.00166 65.1414 0.347782 65.9458 0.347782V0.344727ZM75.0892 80.772H78.3374C79.1448 80.772 79.7968 81.4288 79.7968 82.2356V88.5178C79.7968 89.3274 79.1418 89.9811 78.3374 89.9811H75.0892C74.2819 89.9811 73.6299 89.3243 73.6299 88.5178V82.2356C73.6299 81.4257 74.2849 80.772 75.0892 80.772ZM75.0892 0.796941H78.3374C79.1448 0.796941 79.7968 1.45388 79.7968 2.26053V40.6226C79.7968 41.4322 79.1418 42.0862 78.3374 42.0862H75.0892C74.2819 42.0862 73.6299 41.4291 73.6299 40.6226V2.26359C73.6299 1.45388 74.2849 0.799997 75.0892 0.799997V0.796941ZM75.0892 45.0773H78.3374C79.1448 45.0773 79.7968 45.7344 79.7968 46.5409V62.3105C79.7968 63.1201 79.1418 63.7741 78.3374 63.7741H75.0892C74.2819 63.7741 73.6299 63.117 73.6299 62.3105V46.5409C73.6299 45.7313 74.2849 45.0773 75.0892 45.0773ZM84.2269 2.60581H87.4748C88.2822 2.60581 88.9342 3.26274 88.9342 4.0694V14.8676C88.9342 15.6773 88.2791 16.3312 87.4748 16.3312H84.2269C83.4195 16.3312 82.7676 15.6742 82.7676 14.8676V4.07245C82.7676 3.26274 83.4226 2.60886 84.2269 2.60886V2.60581ZM84.2269 19.3225H87.4748C88.2822 19.3225 88.9342 19.9795 88.9342 20.7861V62.3105C88.9342 63.1201 88.2791 63.7741 87.4748 63.7741H84.2269C83.4195 63.7741 82.7676 63.117 82.7676 62.3105V20.7892C82.7676 19.9795 83.4226 19.3256 84.2269 19.3256V19.3225ZM93.3674 3.51025H96.6152C97.4229 3.51025 98.0749 4.16718 98.0749 4.97384V28.8771C98.0749 29.6868 97.4199 30.3407 96.6152 30.3407H93.3674C92.56 30.3407 91.908 29.6838 91.908 28.8771V4.97689C91.908 4.16718 92.563 3.5133 93.3674 3.5133V3.51025ZM93.3674 33.3321H96.6152C97.4229 33.3321 98.0749 33.9889 98.0749 34.7957V54.6352C98.0749 55.4448 97.4199 56.0985 96.6152 56.0985H93.3674C92.56 56.0985 91.908 55.4417 91.908 54.6352V34.7957C91.908 33.9858 92.563 33.3321 93.3674 33.3321ZM93.3674 59.0837H96.6152C97.4229 59.0837 98.0749 59.7409 98.0749 60.5474V69.54C98.0749 70.3496 97.4199 71.0033 96.6152 71.0033H93.3674C92.56 71.0033 91.908 70.3465 91.908 69.54V60.5474C91.908 59.7378 92.563 59.0837 93.3674 59.0837ZM102.453 4.86687H105.701C106.508 4.86687 107.16 5.5238 107.16 6.33049V43.3358C107.16 44.1454 106.505 44.7994 105.701 44.7994H102.453C101.646 44.7994 100.994 44.1423 100.994 43.3358V6.33354C100.994 5.5238 101.649 4.86995 102.453 4.86995V4.86687ZM102.453 47.7908H105.701C106.508 47.7908 107.16 48.4476 107.16 49.2544V78.5782C107.16 79.3878 106.505 80.0415 105.701 80.0415H102.453C101.646 80.0415 100.994 79.3847 100.994 78.5782V49.2544C100.994 48.4445 101.649 47.7908 102.453 47.7908ZM111.533 3.51025H114.781C115.588 3.51025 116.24 4.16718 116.24 4.97384V20.7433C116.24 21.553 115.585 22.2069 114.781 22.2069H111.533C110.725 22.2069 110.073 21.55 110.073 20.7433V4.97689C110.073 4.16718 110.728 3.5133 111.533 3.5133V3.51025ZM111.533 25.1982H114.781C115.588 25.1982 116.24 25.8552 116.24 26.6619V72.7085C116.24 73.5181 115.585 74.1721 114.781 74.1721H111.533C110.725 74.1721 110.073 73.515 110.073 72.7085V26.6649C110.073 25.8552 110.728 25.2013 111.533 25.2013V25.1982ZM111.533 77.1604H114.781C115.588 77.1604 116.24 77.8173 116.24 78.6238V87.1641C116.24 87.9737 115.585 88.6278 114.781 88.6278H111.533C110.725 88.6278 110.073 87.9707 110.073 87.1641V78.6238C110.073 77.8142 110.728 77.1604 111.533 77.1604ZM120.673 74.45H123.921C124.729 74.45 125.381 75.1068 125.381 75.9137V88.5206C125.381 89.3305 124.726 89.9842 123.921 89.9842H120.673C119.866 89.9842 119.214 89.3274 119.214 88.5206V75.9137C119.214 75.1041 119.869 74.45 120.673 74.45ZM120.673 36.0453H123.921C124.729 36.0453 125.381 36.7024 125.381 37.5089V46.052C125.381 46.8619 124.726 47.5157 123.921 47.5157H120.673C119.866 47.5157 119.214 46.8589 119.214 46.052V37.5089C119.214 36.6993 119.869 36.0453 120.673 36.0453ZM120.673 3.06108H123.921C124.729 3.06108 125.381 3.71801 125.381 4.52467V31.5905C125.381 32.4002 124.726 33.0539 123.921 33.0539H120.673C119.866 33.0539 119.214 32.3971 119.214 31.5905V4.52467C119.214 3.71496 119.869 3.06108 120.673 3.06108ZM129.939 5.32214H133.187C133.994 5.32214 134.646 5.9791 134.646 6.78576V41.0807C134.646 41.8906 133.991 42.5443 133.187 42.5443H129.939C129.131 42.5443 128.479 41.8875 128.479 41.0807V6.78576C128.479 5.97602 129.134 5.32214 129.939 5.32214ZM129.939 81.6823H133.187C133.994 81.6823 134.646 82.3394 134.646 83.146V88.5237C134.646 89.3336 133.991 89.9873 133.187 89.9873H129.939C129.131 89.9873 128.479 89.3305 128.479 88.5237V83.146C128.479 82.3363 129.134 81.6823 129.939 81.6823ZM138.951 8.03545H142.199C143.007 8.03545 143.659 8.69238 143.659 9.49903V18.0422C143.659 18.852 143.004 19.5058 142.199 19.5058H138.951C138.144 19.5058 137.492 18.8489 137.492 18.0422V9.49903C137.492 8.68933 138.147 8.03545 138.951 8.03545ZM138.951 22.4911H142.199C143.007 22.4911 143.659 23.148 143.659 23.9547V40.1765C143.659 40.9861 143.004 41.6398 142.199 41.6398H138.951C138.144 41.6398 137.492 40.983 137.492 40.1765V23.9547C137.492 23.145 138.147 22.4911 138.951 22.4911ZM148.208 10.2904H151.456C152.263 10.2904 152.915 10.9474 152.915 11.754V17.1317C152.915 17.9414 152.26 18.5953 151.456 18.5953H148.208C147.4 18.5953 146.748 17.9384 146.748 17.1317V11.754C146.748 10.9443 147.403 10.2904 148.208 10.2904ZM148.208 21.1344H151.456C152.263 21.1344 152.915 21.7914 152.915 22.598V27.5235C152.915 28.3332 152.26 28.9871 151.456 28.9871H148.208C147.4 28.9871 146.748 28.3302 146.748 27.5235V22.598C146.748 21.7883 147.403 21.1344 148.208 21.1344ZM148.208 31.5262H151.456C152.263 31.5262 152.915 32.1833 152.915 32.9898V41.0779C152.915 41.8875 152.26 42.5412 151.456 42.5412H148.208C147.4 42.5412 146.748 41.8844 146.748 41.0779V32.9898C146.748 32.1802 147.403 31.5262 148.208 31.5262ZM157.348 13.0037H160.596C161.403 13.0037 162.056 13.6606 162.056 14.4673V42.4374C162.056 43.247 161.4 43.9011 160.596 43.9011H157.348C156.541 43.9011 155.889 43.2443 155.889 42.4374V14.4642C155.889 13.6545 156.544 13.0007 157.348 13.0007V13.0037ZM166.431 21.1344H169.679C170.486 21.1344 171.138 21.7914 171.138 22.598V41.5299C171.138 42.3398 170.483 42.9935 169.679 42.9935H166.431C165.623 42.9935 164.971 42.3367 164.971 41.5299V22.598C164.971 21.7883 165.626 21.1344 166.431 21.1344ZM175.443 31.5262H178.691C179.499 31.5262 180.151 32.1833 180.151 32.9898V38.3675C180.151 39.1771 179.496 39.8311 178.691 39.8311H175.443C174.636 39.8311 173.984 39.174 173.984 38.3675V32.9898C173.984 32.1802 174.639 31.5262 175.443 31.5262Z" fill="url(#paint0_radial_62_13)"/>
<path fill-rule="evenodd" clip-rule="evenodd" d="M1.49886 67.6943H5.64866C6.20625 67.6943 6.66021 68.1466 6.66021 68.7088V84.1238C6.66021 84.6829 6.2093 85.1383 5.64866 85.1383H1.49886C0.941284 85.1383 0.487305 84.686 0.487305 84.1238V68.7088C0.487305 68.1497 0.938239 67.6943 1.49886 67.6943ZM11.0903 47.4362H14.3383C15.1457 47.4362 15.7977 48.0933 15.7977 48.8998V67.6943C15.7977 68.504 15.1426 69.158 14.3383 69.158H11.0903C10.2829 69.158 9.6309 68.5009 9.6309 67.6943V48.8998C9.6309 48.0902 10.286 47.4362 11.0903 47.4362ZM10.6394 71.642H14.7892C15.3468 71.642 15.8008 72.0942 15.8008 72.6564V88.979C15.8008 89.5381 15.3498 89.9935 14.7892 89.9935H10.6394C10.0818 89.9935 9.62785 89.5412 9.62785 88.979V72.6564C9.62785 72.0973 10.0788 71.642 10.6394 71.642ZM19.783 26.9888H23.9328C24.4904 26.9888 24.9443 27.441 24.9443 28.0032V58.5674C24.9443 59.1266 24.4934 59.5819 23.9328 59.5819H19.783C19.2254 59.5819 18.7714 59.1297 18.7714 58.5674V28.0032C18.7714 27.4441 19.2224 26.9888 19.783 26.9888ZM19.783 62.451H23.9328C24.4904 62.451 24.9443 62.9032 24.9443 63.4654V72.9436C24.9443 73.5027 24.4934 73.958 23.9328 73.958H19.783C19.2254 73.958 18.7714 73.5058 18.7714 72.9436V63.4654C18.7714 62.9063 19.2224 62.451 19.783 62.451ZM20.2339 81.6823H23.4819C24.2893 81.6823 24.9413 82.3394 24.9413 83.146V88.5237C24.9413 89.3336 24.2862 89.9873 23.4819 89.9873H20.2339C19.4265 89.9873 18.7745 89.3305 18.7745 88.5237V83.146C18.7745 82.3363 19.4296 81.6823 20.2339 81.6823ZM28.9266 12.4935H33.0763C33.6341 12.4935 34.0879 12.9457 34.0879 13.5079V35.1257C34.0879 35.6848 33.6372 36.1401 33.0763 36.1401H28.9266C28.369 36.1401 27.915 35.6879 27.915 35.1257V13.5018C27.915 12.9426 28.366 12.4873 28.9266 12.4873V12.4935ZM28.9266 38.7708H33.0794C33.6372 38.7708 34.0879 39.223 34.0879 39.7822V69.0847C34.0879 69.6438 33.6372 70.0961 33.0794 70.0961H28.9266C28.369 70.0961 27.9181 69.6438 27.9181 69.0847V39.7822C27.9181 39.223 28.369 38.7708 28.9266 38.7708ZM38.0701 8.0324H42.2201C42.7776 8.0324 43.2314 8.48462 43.2314 9.04681V23.4627C43.2314 24.0219 42.7806 24.4771 42.2201 24.4771H38.0701C37.5126 24.4771 37.0588 24.025 37.0588 23.4627V9.04377C37.0588 8.48462 37.5095 8.02935 38.0701 8.02935V8.0324ZM38.0701 27.0102H42.2201C42.7776 27.0102 43.2314 27.4624 43.2314 28.0246V48.7655C43.2314 49.3247 42.7806 49.78 42.2201 49.78H38.0701C37.5126 49.78 37.0588 49.3277 37.0588 48.7655V28.0246C37.0588 27.4654 37.5095 27.0102 38.0701 27.0102ZM38.0701 52.7652H42.2201C42.7776 52.7652 43.2314 53.2175 43.2314 53.7794V72.4152C43.2314 72.9744 42.7806 73.4294 42.2201 73.4294H38.0701C37.5126 73.4294 37.0588 72.9774 37.0588 72.4152V53.7794C37.0588 53.2202 37.5095 52.7652 38.0701 52.7652ZM47.6585 4.41466H50.9067C51.7141 4.41466 52.3661 5.07162 52.3661 5.87827V32.9439C52.3661 33.7538 51.711 34.4075 50.9067 34.4075H47.6585C46.8511 34.4075 46.1992 33.7507 46.1992 32.9439V5.87827C46.1992 5.06854 46.8542 4.41466 47.6585 4.41466ZM47.6585 37.3989H50.9067C51.7141 37.3989 52.3661 38.0557 52.3661 38.8626V45.1448C52.3661 45.9544 51.711 46.6081 50.9067 46.6081H47.6585C46.8511 46.6081 46.1992 45.9513 46.1992 45.1448V38.8626C46.1992 38.053 46.8542 37.3989 47.6585 37.3989ZM47.6585 48.6984H50.9037C51.711 48.6984 52.363 49.3552 52.363 50.1617V78.1321C52.363 78.9417 51.708 79.5954 50.9037 79.5954H47.6585C46.8511 79.5954 46.1992 78.9386 46.1992 78.1321V50.1617C46.1992 49.3521 46.8542 48.6984 47.6585 48.6984ZM56.8023 0.799997H60.0502C60.8576 0.799997 61.5095 1.45693 61.5095 2.26359V7.6413C61.5095 8.451 60.8545 9.10489 60.0502 9.10489H56.8023C55.9949 9.10489 55.3427 8.44796 55.3427 7.6413V2.26664C55.3427 1.45693 55.998 0.803053 56.8023 0.803053V0.799997ZM56.8023 11.641H60.0502C60.8576 11.641 61.5095 12.2979 61.5095 13.1045V54.629C61.5095 55.4386 60.8545 56.0927 60.0502 56.0927H56.8023C55.9949 56.0927 55.3427 55.4356 55.3427 54.629V13.1076C55.3427 12.2979 55.998 11.644 56.8023 11.644V11.641ZM56.8023 59.0837H60.0502C60.8576 59.0837 61.5095 59.7409 61.5095 60.5474V71.7979C61.5095 72.6075 60.8545 73.2615 60.0502 73.2615H56.8023C55.9949 73.2615 55.3427 72.6044 55.3427 71.7979V60.5474C55.3427 59.7378 55.998 59.0837 56.8023 59.0837ZM56.8023 76.2559H60.0502C60.8576 76.2559 61.5095 76.9128 61.5095 77.7196V84.906C61.5095 85.7159 60.8545 86.3696 60.0502 86.3696H56.8023C55.9949 86.3696 55.3427 85.7128 55.3427 84.906V77.7196C55.3427 76.9097 55.998 76.2559 56.8023 76.2559ZM65.9458 73.9947H69.1936C70.001 73.9947 70.6533 74.6518 70.6533 75.4584V88.5206C70.6533 89.3305 69.998 89.9842 69.1936 89.9842H65.9458C65.1384 89.9842 64.4864 89.3274 64.4864 88.5206V75.4584C64.4864 74.6487 65.1414 73.9947 65.9458 73.9947ZM65.9458 28.8129H69.1936C70.001 28.8129 70.6533 29.4699 70.6533 30.2765V62.3105C70.6533 63.1201 69.998 63.7741 69.1936 63.7741H65.9458C65.1384 63.7741 64.4864 63.117 64.4864 62.3105V30.2765C64.4864 29.4668 65.1414 28.8129 65.9458 28.8129ZM65.9458 0.344727H69.1936C70.001 0.344727 70.6533 1.00166 70.6533 1.80832V24.3549C70.6533 25.1646 69.998 25.8185 69.1936 25.8185H65.9458C65.1384 25.8185 64.4864 25.1616 64.4864 24.3549V1.81137C64.4864 1.00166 65.1414 0.347782 65.9458 0.347782V0.344727ZM75.0892 80.772H78.3374C79.1448 80.772 79.7968 81.4288 79.7968 82.2356V88.5178C79.7968 89.3274 79.1418 89.9811 78.3374 89.9811H75.0892C74.2819 89.9811 73.6299 89.3243 73.6299 88.5178V82.2356C73.6299 81.4257 74.2849 80.772 75.0892 80.772ZM75.0892 0.796941H78.3374C79.1448 0.796941 79.7968 1.45388 79.7968 2.26053V40.6226C79.7968 41.4322 79.1418 42.0862 78.3374 42.0862H75.0892C74.2819 42.0862 73.6299 41.4291 73.6299 40.6226V2.26359C73.6299 1.45388 74.2849 0.799997 75.0892 0.799997V0.796941ZM75.0892 45.0773H78.3374C79.1448 45.0773 79.7968 45.7344 79.7968 46.5409V62.3105C79.7968 63.1201 79.1418 63.7741 78.3374 63.7741H75.0892C74.2819 63.7741 73.6299 63.117 73.6299 62.3105V46.5409C73.6299 45.7313 74.2849 45.0773 75.0892 45.0773ZM84.2269 2.60581H87.4748C88.2822 2.60581 88.9342 3.26274 88.9342 4.0694V14.8676C88.9342 15.6773 88.2791 16.3312 87.4748 16.3312H84.2269C83.4195 16.3312 82.7676 15.6742 82.7676 14.8676V4.07245C82.7676 3.26274 83.4226 2.60886 84.2269 2.60886V2.60581ZM84.2269 19.3225H87.4748C88.2822 19.3225 88.9342 19.9795 88.9342 20.7861V62.3105C88.9342 63.1201 88.2791 63.7741 87.4748 63.7741H84.2269C83.4195 63.7741 82.7676 63.117 82.7676 62.3105V20.7892C82.7676 19.9795 83.4226 19.3256 84.2269 19.3256V19.3225ZM93.3674 3.51025H96.6152C97.4229 3.51025 98.0749 4.16718 98.0749 4.97384V28.8771C98.0749 29.6868 97.4199 30.3407 96.6152 30.3407H93.3674C92.56 30.3407 91.908 29.6838 91.908 28.8771V4.97689C91.908 4.16718 92.563 3.5133 93.3674 3.5133V3.51025ZM93.3674 33.3321H96.6152C97.4229 33.3321 98.0749 33.9889 98.0749 34.7957V54.6352C98.0749 55.4448 97.4199 56.0985 96.6152 56.0985H93.3674C92.56 56.0985 91.908 55.4417 91.908 54.6352V34.7957C91.908 33.9858 92.563 33.3321 93.3674 33.3321ZM93.3674 59.0837H96.6152C97.4229 59.0837 98.0749 59.7409 98.0749 60.5474V69.54C98.0749 70.3496 97.4199 71.0033 96.6152 71.0033H93.3674C92.56 71.0033 91.908 70.3465 91.908 69.54V60.5474C91.908 59.7378 92.563 59.0837 93.3674 59.0837ZM102.453 4.86687H105.701C106.508 4.86687 107.16 5.5238 107.16 6.33049V43.3358C107.16 44.1454 106.505 44.7994 105.701 44.7994H102.453C101.646 44.7994 100.994 44.1423 100.994 43.3358V6.33354C100.994 5.5238 101.649 4.86995 102.453 4.86995V4.86687ZM102.453 47.7908H105.701C106.508 47.7908 107.16 48.4476 107.16 49.2544V78.5782C107.16 79.3878 106.505 80.0415 105.701 80.0415H102.453C101.646 80.0415 100.994 79.3847 100.994 78.5782V49.2544C100.994 48.4445 101.649 47.7908 102.453 47.7908ZM111.533 3.51025H114.781C115.588 3.51025 116.24 4.16718 116.24 4.97384V20.7433C116.24 21.553 115.585 22.2069 114.781 22.2069H111.533C110.725 22.2069 110.073 21.55 110.073 20.7433V4.97689C110.073 4.16718 110.728 3.5133 111.533 3.5133V3.51025ZM111.533 25.1982H114.781C115.588 25.1982 116.24 25.8552 116.24 26.6619V72.7085C116.24 73.5181 115.585 74.1721 114.781 74.1721H111.533C110.725 74.1721 110.073 73.515 110.073 72.7085V26.6649C110.073 25.8552 110.728 25.2013 111.533 25.2013V25.1982ZM111.533 77.1604H114.781C115.588 77.1604 116.24 77.8173 116.24 78.6238V87.1641C116.24 87.9737 115.585 88.6278 114.781 88.6278H111.533C110.725 88.6278 110.073 87.9707 110.073 87.1641V78.6238C110.073 77.8142 110.728 77.1604 111.533 77.1604ZM120.673 74.45H123.921C124.729 74.45 125.381 75.1068 125.381 75.9137V88.5206C125.381 89.3305 124.726 89.9842 123.921 89.9842H120.673C119.866 89.9842 119.214 89.3274 119.214 88.5206V75.9137C119.214 75.1041 119.869 74.45 120.673 74.45ZM120.673 36.0453H123.921C124.729 36.0453 125.381 36.7024 125.381 37.5089V46.052C125.381 46.8619 124.726 47.5157 123.921 47.5157H120.673C119.866 47.5157 119.214 46.8589 119.214 46.052V37.5089C119.214 36.6993 119.869 36.0453 120.673 36.0453ZM120.673 3.06108H123.921C124.729 3.06108 125.381 3.71801 125.381 4.52467V31.5905C125.381 32.4002 124.726 33.0539 123.921 33.0539H120.673C119.866 33.0539 119.214 32.3971 119.214 31.5905V4.52467C119.214 3.71496 119.869 3.06108 120.673 3.06108ZM129.939 5.32214H133.187C133.994 5.32214 134.646 5.9791 134.646 6.78576V41.0807C134.646 41.8906 133.991 42.5443 133.187 42.5443H129.939C129.131 42.5443 128.479 41.8875 128.479 41.0807V6.78576C128.479 5.97602 129.134 5.32214 129.939 5.32214ZM129.939 81.6823H133.187C133.994 81.6823 134.646 82.3394 134.646 83.146V88.5237C134.646 89.3336 133.991 89.9873 133.187 89.9873H129.939C129.131 89.9873 128.479 89.3305 128.479 88.5237V83.146C128.479 82.3363 129.134 81.6823 129.939 81.6823ZM138.951 8.03545H142.199C143.007 8.03545 143.659 8.69238 143.659 9.49903V18.0422C143.659 18.852 143.004 19.5058 142.199 19.5058H138.951C138.144 19.5058 137.492 18.8489 137.492 18.0422V9.49903C137.492 8.68933 138.147 8.03545 138.951 8.03545ZM138.951 22.4911H142.199C143.007 22.4911 143.659 23.148 143.659 23.9547V40.1765C143.659 40.9861 143.004 41.6398 142.199 41.6398H138.951C138.144 41.6398 137.492 40.983 137.492 40.1765V23.9547C137.492 23.145 138.147 22.4911 138.951 22.4911ZM148.208 10.2904H151.456C152.263 10.2904 152.915 10.9474 152.915 11.754V17.1317C152.915 17.9414 152.26 18.5953 151.456 18.5953H148.208C147.4 18.5953 146.748 17.9384 146.748 17.1317V11.754C146.748 10.9443 147.403 10.2904 148.208 10.2904ZM148.208 21.1344H151.456C152.263 21.1344 152.915 21.7914 152.915 22.598V27.5235C152.915 28.3332 152.26 28.9871 151.456 28.9871H148.208C147.4 28.9871 146.748 28.3302 146.748 27.5235V22.598C146.748 21.7883 147.403 21.1344 148.208 21.1344ZM148.208 31.5262H151.456C152.263 31.5262 152.915 32.1833 152.915 32.9898V41.0779C152.915 41.8875 152.26 42.5412 151.456 42.5412H148.208C147.4 42.5412 146.748 41.8844 146.748 41.0779V32.9898C146.748 32.1802 147.403 31.5262 148.208 31.5262ZM157.348 13.0037H160.596C161.403 13.0037 162.056 13.6606 162.056 14.4673V42.4374C162.056 43.247 161.4 43.9011 160.596 43.9011H157.348C156.541 43.9011 155.889 43.2443 155.889 42.4374V14.4642C155.889 13.6545 156.544 13.0007 157.348 13.0007V13.0037ZM166.431 21.1344H169.679C170.486 21.1344 171.138 21.7914 171.138 22.598V41.5299C171.138 42.3398 170.483 42.9935 169.679 42.9935H166.431C165.623 42.9935 164.971 42.3367 164.971 41.5299V22.598C164.971 21.7883 165.626 21.1344 166.431 21.1344ZM175.443 31.5262H178.691C179.499 31.5262 180.151 32.1833 180.151 32.9898V38.3675C180.151 39.1771 179.496 39.8311 178.691 39.8311H175.443C174.636 39.8311 173.984 39.174 173.984 38.3675V32.9898C173.984 32.1802 174.639 31.5262 175.443 31.5262Z" fill="url(#paint1_radial_62_13)"/>
<defs>
<radialGradient id="paint0_radial_62_13" cx="0" cy="0" r="1" gradientUnits="userSpaceOnUse" gradientTransform="translate(154.712 20.0613) rotate(157.043) scale(182.056 371.547)">
<stop stop-color="#FBFDFF"/>
<stop offset="1" stop-color="white" stop-opacity="0"/>
</radialGradient>
<radialGradient id="paint1_radial_62_13" cx="0" cy="0" r="1" gradientUnits="userSpaceOnUse" gradientTransform="translate(154.712 20.0613) rotate(157.043) scale(182.056 371.547)">
<stop stop-color="#FBFDFF"/>
<stop offset="1" stop-color="white" stop-opacity="0"/>
</radialGradient>
</defs>
</svg>
