<svg xmlns="http://www.w3.org/2000/svg" width="300mm" height="300mm" viewBox="0 0 300 300">
  <g transform="translate(-1354.62 476.797)">
    <circle cx="1504.62" cy="-326.797" r="149.9" style="fill:#24292e;fill-opacity:1;stroke:#24292e;stroke-width:.200824;stroke-opacity:1"/>
    <g style="fill:#adbac7;fill-opacity:1;stroke:none;stroke-opacity:1" transform="matrix(.2798 0 0 .2798 1394.62 -381.522)">
      <rect width="27" height="76.112" y="293.875" ry="4.421" style="fill:#adbac7;fill-opacity:1;fill-rule:evenodd;stroke:none;stroke-width:.984528;stroke-opacity:1"/>
      <g style="fill:#adbac7;fill-opacity:1;stroke:none;stroke-opacity:1" transform="translate(-15.492 -13.427)">
        <rect width="27" height="94.797" x="55.5" y="218.902" ry="6.392" style="fill:#adbac7;fill-opacity:1;fill-rule:evenodd;stroke:none;stroke-width:.984849;stroke-opacity:1"/>
        <rect width="27" height="80.064" x="55.5" y="324.522" ry="4.421" style="fill:#adbac7;fill-opacity:1;fill-rule:evenodd;stroke:none;stroke-width:.970672;stroke-opacity:1"/>
      </g>
      <g style="fill:#adbac7;fill-opacity:1;stroke:none;stroke-opacity:1" transform="translate(-15.5 -13.427)">
        <rect width="27" height="142.215" x="95.515" y="129.666" ry="4.421" style="fill:#adbac7;fill-opacity:1;fill-rule:evenodd;stroke:none;stroke-width:.984849;stroke-opacity:1"/>
        <rect width="27" height="50.206" x="95.515" y="284.412" ry="4.421" style="fill:#adbac7;fill-opacity:1;fill-rule:evenodd;stroke:none;stroke-width:1.00649;stroke-opacity:1"/>
        <rect width="27" height="36.254" x="95.515" y="368.332" ry="6.392" style="fill:#adbac7;fill-opacity:1;fill-rule:evenodd;stroke:none;stroke-width:.985304;stroke-opacity:1"/>
      </g>
      <g style="fill:#adbac7;fill-opacity:1;stroke:none;stroke-opacity:1" transform="translate(-15.477 -13.427)">
        <rect width="27" height="103.173" x="135.5" y="66.411" ry="4.421" style="fill:#adbac7;fill-opacity:1;fill-rule:evenodd;stroke:none;stroke-width:.984849;stroke-opacity:1"/>
        <rect width="27" height="136.684" x="135.5" y="181.079" ry="4.411" style="fill:#adbac7;fill-opacity:1;fill-rule:evenodd;stroke:none;stroke-width:.984849;stroke-opacity:1"/>
      </g>
      <g style="fill:#adbac7;fill-opacity:1;stroke:none;stroke-opacity:1" transform="translate(-15.975 -13.427)">
        <rect width="27" height="71.745" x="176" y="46.946" ry="4.421" style="fill:#adbac7;fill-opacity:1;fill-rule:evenodd;stroke:none;stroke-width:1.02196;stroke-opacity:1"/>
        <rect width="27" height="99.352" x="176.009" y="129.756" ry="4.421" style="fill:#adbac7;fill-opacity:1;fill-rule:evenodd;stroke:none;stroke-width:1.02232;stroke-opacity:1"/>
        <rect width="27" height="90.158" x="176.009" y="242.14" ry="4.421" style="fill:#adbac7;fill-opacity:1;fill-rule:evenodd;stroke:none;stroke-width:1.02232;stroke-opacity:1"/>
      </g>
      <g style="fill:#adbac7;fill-opacity:1;stroke:none;stroke-opacity:1" transform="translate(-15.191 -13.427)">
        <rect width="27" height="130.892" x="215.229" y="31.17" ry="6.392" style="fill:#adbac7;fill-opacity:1;fill-rule:evenodd;stroke:none;stroke-width:.985304;stroke-opacity:1"/>
        <rect width="27" height="40.196" x="215.229" y="175.098" ry="6.392" style="fill:#adbac7;fill-opacity:1;fill-rule:evenodd;stroke:none;stroke-width:.985304;stroke-opacity:1"/>
        <rect width="26.982" height="134.834" x="215.229" y="224.402" ry="6.392" style="fill:#adbac7;fill-opacity:1;fill-rule:evenodd;stroke:none;stroke-width:.985304;stroke-opacity:1"/>
      </g>
      <g style="fill:#adbac7;fill-opacity:1;stroke:none;stroke-opacity:1" transform="translate(-14.608 -13.427)">
        <rect width="27" height="36.254" x="254.653" y="15.402" ry="6.392" style="fill:#adbac7;fill-opacity:1;fill-rule:evenodd;stroke:none;stroke-width:.985304;stroke-opacity:1"/>
        <rect width="27" height="193.99" x="254.653" y="62.714" ry="6.392" style="fill:#adbac7;fill-opacity:1;fill-rule:evenodd;stroke:none;stroke-width:.985304;stroke-opacity:1"/>
        <rect width="27" height="61.88" x="254.653" y="269.744" ry="6.392" style="fill:#adbac7;fill-opacity:1;fill-rule:evenodd;stroke:none;stroke-width:.985304;stroke-opacity:1"/>
        <rect width="27" height="44.139" x="254.653" y="344.674" ry="6.392" style="fill:#adbac7;fill-opacity:1;fill-rule:evenodd;stroke:none;stroke-width:.985304;stroke-opacity:1"/>
      </g>
      <g style="fill:#adbac7;fill-opacity:1;stroke:none;stroke-opacity:1" transform="translate(-16.007 -13.427)">
        <rect width="27" height="69.784" x="296.059" y="334.802" ry="6.392" style="fill:#adbac7;fill-opacity:1;fill-rule:evenodd;stroke:none;stroke-width:.985304;stroke-opacity:1"/>
        <rect width="27" height="152.575" x="296.059" y="137.649" ry="6.392" style="fill:#adbac7;fill-opacity:1;fill-rule:evenodd;stroke:none;stroke-width:.985304;stroke-opacity:1"/>
        <rect width="27" height="111.17" x="296.059" y="13.427" ry="6.392" style="fill:#adbac7;fill-opacity:1;fill-rule:evenodd;stroke:none;stroke-width:.985304;stroke-opacity:1"/>
      </g>
      <g style="fill:#adbac7;fill-opacity:1;stroke:none;stroke-opacity:1" transform="translate(-15.425 -13.427)">
        <rect width="27" height="40.196" x="335.484" y="364.39" ry="6.392" style="fill:#adbac7;fill-opacity:1;fill-rule:evenodd;stroke:none;stroke-width:.985304;stroke-opacity:1"/>
        <rect width="27" height="180.182" x="335.484" y="15.399" ry="6.392" style="fill:#adbac7;fill-opacity:1;fill-rule:evenodd;stroke:none;stroke-width:.985304;stroke-opacity:1"/>
        <rect width="27" height="81.602" x="335.484" y="208.626" ry="6.392" style="fill:#adbac7;fill-opacity:1;fill-rule:evenodd;stroke:none;stroke-width:.985304;stroke-opacity:1"/>
      </g>
      <g style="fill:#adbac7;fill-opacity:1;stroke:none;stroke-opacity:1" transform="translate(-14.86 -13.427)">
        <rect width="27" height="59.909" x="374.928" y="23.285" ry="6.392" style="fill:#adbac7;fill-opacity:1;fill-rule:evenodd;stroke:none;stroke-width:.985304;stroke-opacity:1"/>
        <rect width="27" height="193.981" x="374.928" y="96.23" ry="6.392" style="fill:#adbac7;fill-opacity:1;fill-rule:evenodd;stroke:none;stroke-width:.985304;stroke-opacity:1"/>
      </g>
      <g style="fill:#adbac7;fill-opacity:1;stroke:none;stroke-opacity:1" transform="translate(-15.933 -13.427)">
        <rect width="27" height="117.093" x="416" y="27.23" ry="6.392" style="fill:#adbac7;fill-opacity:1;fill-rule:evenodd;stroke:none;stroke-width:.985304;stroke-opacity:1"/>
        <rect width="27" height="99.352" x="416" y="157.365" ry="6.392" style="fill:#adbac7;fill-opacity:1;fill-rule:evenodd;stroke:none;stroke-width:.985304;stroke-opacity:1"/>
        <rect width="27" height="52.024" x="416" y="269.738" ry="6.392" style="fill:#adbac7;fill-opacity:1;fill-rule:evenodd;stroke:none;stroke-width:.985304;stroke-opacity:1"/>
      </g>
      <g style="fill:#adbac7;fill-opacity:1;stroke:none;stroke-opacity:1" transform="translate(-15.933 -13.427)">
        <rect width="27" height="174.268" x="455.764" y="33.151" ry="6.392" style="fill:#adbac7;fill-opacity:1;fill-rule:evenodd;stroke:none;stroke-width:.985304;stroke-opacity:1"/>
        <rect width="27" height="140.748" x="455.764" y="220.459" ry="6.392" style="fill:#adbac7;fill-opacity:1;fill-rule:evenodd;stroke:none;stroke-width:.985304;stroke-opacity:1"/>
      </g>
      <g style="fill:#adbac7;fill-opacity:1;stroke:none;stroke-opacity:1" transform="translate(-15.933 -13.427)">
        <rect width="27" height="81.602" x="495.5" y="27.232" ry="6.392" style="fill:#adbac7;fill-opacity:1;fill-rule:evenodd;stroke:none;stroke-width:.985304;stroke-opacity:1"/>
        <rect width="27" height="213.712" x="495.5" y="121.871" ry="6.392" style="fill:#adbac7;fill-opacity:1;fill-rule:evenodd;stroke:none;stroke-width:.985304;stroke-opacity:1"/>
        <rect width="27" height="50.053" x="495.5" y="348.614" ry="6.392" style="fill:#adbac7;fill-opacity:1;fill-rule:evenodd;stroke:none;stroke-width:.985304;stroke-opacity:1"/>
      </g>
      <g style="fill:#adbac7;fill-opacity:1;stroke:none;stroke-opacity:1" transform="translate(-15.933 -13.427)">
        <rect width="27" height="67.803" x="535.5" y="336.783" ry="6.392" style="fill:#adbac7;fill-opacity:1;fill-rule:evenodd;stroke:none;stroke-width:.985304;stroke-opacity:1"/>
        <rect width="27" height="50.062" x="535.5" y="169.192" ry="6.392" style="fill:#adbac7;fill-opacity:1;fill-rule:evenodd;stroke:none;stroke-width:.985304;stroke-opacity:1"/>
        <rect width="27" height="130.892" x="535.5" y="25.259" ry="6.392" style="fill:#adbac7;fill-opacity:1;fill-rule:evenodd;stroke:none;stroke-width:.985304;stroke-opacity:1"/>
      </g>
      <g style="fill:#adbac7;fill-opacity:1;stroke:none;stroke-opacity:1" transform="translate(-15.933 -13.427)">
        <rect width="27" height="162.441" x="576.046" y="35.123" ry="6.392" style="fill:#adbac7;fill-opacity:1;fill-rule:evenodd;stroke:none;stroke-width:.985304;stroke-opacity:1"/>
        <rect width="27" height="36.254" x="576.046" y="368.332" ry="6.392" style="fill:#adbac7;fill-opacity:1;fill-rule:evenodd;stroke:none;stroke-width:.985304;stroke-opacity:1"/>
      </g>
      <g style="fill:#adbac7;fill-opacity:1;stroke:none;stroke-opacity:1" transform="translate(-15.933 -13.427)">
        <rect width="27" height="50.062" x="615.488" y="46.954" ry="6.392" style="fill:#adbac7;fill-opacity:1;fill-rule:evenodd;stroke:none;stroke-width:.985304;stroke-opacity:1"/>
        <rect width="27" height="83.573" x="615.488" y="110.038" ry="6.392" style="fill:#adbac7;fill-opacity:1;fill-rule:evenodd;stroke:none;stroke-width:.985304;stroke-opacity:1"/>
      </g>
      <g style="fill:#adbac7;fill-opacity:1;stroke:none;stroke-opacity:1" transform="translate(-15.933 -13.427)">
        <rect width="27" height="36.254" x="656" y="56.798" ry="6.392" style="fill:#adbac7;fill-opacity:1;fill-rule:evenodd;stroke:none;stroke-width:.985304;stroke-opacity:1"/>
        <rect width="27" height="34.283" x="656" y="104.121" ry="6.392" style="fill:#adbac7;fill-opacity:1;fill-rule:evenodd;stroke:none;stroke-width:.985304;stroke-opacity:1"/>
        <rect width="27" height="48.081" x="656" y="149.466" ry="6.392" style="fill:#adbac7;fill-opacity:1;fill-rule:evenodd;stroke:none;stroke-width:.985304;stroke-opacity:1"/>
      </g>
      <rect width="27" height="134.834" x="680.067" y="55.209" ry="6.392" style="fill:#adbac7;fill-opacity:1;fill-rule:evenodd;stroke:none;stroke-width:.985304;stroke-opacity:1"/>
      <rect width="27" height="95.4" x="719.819" y="90.692" ry="6.392" style="fill:#adbac7;fill-opacity:1;fill-rule:evenodd;stroke:none;stroke-width:.985304;stroke-opacity:1"/>
      <rect width="27" height="36.254" x="759.257" y="136.043" ry="6.392" style="fill:#adbac7;fill-opacity:1;fill-rule:evenodd;stroke:none;stroke-width:.985304;stroke-opacity:1"/>
    </g>
    <g aria-label="polars" style="font-size:45.1556px;-inkscape-font-specification:sans-serif;fill:#adbac7;fill-opacity:1;stroke-width:.264583">
      <path d="M305.666-442.211q1.543 2.57 2.088 5.15.533 2.56.076 4.84-.409 2.147-1.645 3.944-1.229 1.766-3.12 2.9-1.644.987-3.202 1.433-1.54.435-3.373.507l5.309 8.848-3.554 2.133-17.346-28.908 3.554-2.133 1.328 2.212q.703-2.041 1.985-3.89 1.289-1.88 3.293-3.082 3.82-2.292 7.672-.67 3.861 1.592 6.935 6.716zm-3.61 2.295q-2.292-3.82-4.731-4.927-2.44-1.108-5.143.514-1.531.92-2.684 2.511-1.154 1.592-1.925 3.52l7.181 11.968q1.92-.227 3.146-.627 1.244-.413 2.624-1.24 2.968-1.782 3.43-4.784.461-3.003-1.899-6.935zM335.158-451.288q1.632 5.794-.395 9.984-2.026 4.19-7.014 5.595-5.03 1.417-8.945-1.1-3.895-2.522-5.527-8.316-1.632-5.793.374-9.978 2.02-4.21 7.05-5.628 4.988-1.404 8.91 1.133 3.915 2.517 5.547 8.31zm-4.117 1.16q-1.297-4.605-3.729-6.326-2.437-1.741-5.642-.838-3.247.914-4.418 3.672-1.155 2.73.143 7.336 1.255 4.457 3.71 6.262 2.45 1.784 5.676.875 3.183-.897 4.348-3.676 1.18-2.806-.088-7.305zM349.17-440.082l-4.131.35-2.892-34.186 4.13-.35zM376.436-438.728l-4.101-.424.27-2.61q-.587.316-1.6.898-.99.563-1.908.867-1.083.398-2.455.588-1.374.213-3.172.027-3.312-.342-5.388-2.774-2.076-2.43-1.725-5.83.288-2.786 1.65-4.374 1.385-1.608 3.702-2.366 2.34-.755 5.512-.782 3.172-.027 6.787.17l.066-.636q.145-1.404-.264-2.377-.387-.971-1.254-1.593-.825-.595-2.035-.897-1.21-.303-2.548-.441-1.623-.168-3.664.064-2.04.21-4.25.802l-.22-.022.433-4.19q1.24-.204 3.562-.363 2.322-.158 4.537.07 2.588.268 4.45.904 1.888.616 3.185 1.792 1.277 1.152 1.835 2.828.559 1.676.314 4.044zm-3.478-6.456.705-6.82q-1.897-.086-4.486-.132-2.566-.044-4.1.219-1.83.32-3.037 1.282-1.206.94-1.398 2.804-.218 2.105.943 3.311 1.163 1.184 3.773 1.454 2.171.225 4.056-.423 1.887-.67 3.544-1.695z" style="fill:#adbac7;fill-opacity:1" transform="translate(1148.577 8.553)"/>
      <path d="m405.145-450.78-.21-.07q-.808-.504-1.616-.868-.78-.377-1.91-.755-1.818-.61-3.785-.361-1.96.227-3.954.977l-5.553 16.58-3.93-1.316 7.82-23.354 3.931 1.316-1.155 3.45q2.972-1.097 5.008-1.276 2.064-.192 3.925.43 1.024.344 1.463.56.446.197 1.317.651zM421.051-427.16q-1.698 2.915-5.206 3.372-3.488.467-7.66-1.964-2.362-1.377-4.02-3.084-1.63-1.715-2.575-3.16l2.343-4.019.19.111q.952 2.265 2.584 4.237 1.644 1.953 3.549 3.064 2.362 1.376 4.14 1.392 1.777.015 2.732-1.623.732-1.257.386-2.327t-2.137-2.726q-.662-.616-1.767-1.566-1.086-.939-1.94-1.794-2.367-2.375-2.716-4.492-.318-2.125.904-4.22.766-1.315 1.976-2.166 1.23-.84 2.868-1.11 1.589-.274 3.527.167 1.968.432 4.006 1.62 1.905 1.11 3.57 2.72 1.696 1.6 2.603 3.022l-2.232 3.829-.19-.111q-.784-1.81-2.346-3.639-1.551-1.848-3.437-2.947-1.962-1.144-3.759-1.17-1.785-.046-2.651 1.44-.766 1.314-.336 2.458.411 1.133 1.958 2.596.857.806 1.943 1.745 1.105.95 1.813 1.619 2.162 2.026 2.704 4.205.531 2.197-.823 4.521z" style="fill:#cd792c;fill-opacity:1" transform="translate(1148.577 8.553)"/>
    </g>
  </g>
</svg>
