<svg width="2544" height="424" viewBox="0 0 2544 424" fill="none" xmlns="http://www.w3.org/2000/svg"><path d="M1228.36 307.71q-23.01 0-39.3-10.161c-10.86-6.774-19.2-16.146-25.01-28.115-5.81-11.97-8.72-25.703-8.72-41.199 0-15.774 2.96-29.599 8.86-41.477 5.91-11.876 14.29-21.11 25.15-27.697 10.96-6.681 23.96-10.021 39.02-10.021 15.43 0 28.58 3.387 39.44 10.161 10.95 6.681 19.29 16.006 25.01 27.975 5.81 11.877 8.71 25.563 8.71 41.059 0 15.774-2.9 29.646-8.71 41.617-5.81 11.876-14.2 21.155-25.15 27.836q-16.44 10.021-39.3 10.022m0-19.626c17.14 0 29.91-5.52 38.29-16.563 8.39-11.134 12.58-25.563 12.58-43.286q0-27.28-12.72-43.425c-8.38-10.764-21.1-16.146-38.15-16.146-11.53 0-21.06 2.553-28.58 7.655-7.44 5.012-13.01 12.018-16.72 21.018-3.62 8.908-5.44 19.207-5.44 30.898q0 27.142 12.87 43.565c8.57 10.857 21.19 16.284 37.87 16.284m107.05 15.451a5.22 5.22 0 0 1-5.22-5.22V104.153c0-2.883 2.34-5.22 5.22-5.22h10.57c2.88 0 5.22 2.337 5.22 5.22v194.162c0 2.882-2.34 5.22-5.22 5.22zm97.07 4.175c-11.63 0-21.39-2.041-29.3-6.124-7.81-4.084-13.67-9.512-17.57-16.285-3.91-6.774-5.86-14.15-5.86-22.13 0-8.166 1.66-15.125 5-20.878q5.145-8.768 13.86-14.336 8.865-5.567 20.43-8.49c7.82-1.856 16.44-3.48 25.87-4.872a667 667 0 0 1 27.87-3.758c6.47-.787 12.36-1.552 17.69-2.294 1.37-.191 2.04 1.658.85 2.372-.86.511-1.95-.119-1.95-1.114-.04-13.692-3.01-23.925-8.88-30.698-6.19-7.144-16.96-10.717-32.29-10.717-10.57 0-19.53 2.319-26.87 6.959q-9 5.773-13.59 17.1c-1.07 2.657-3.92 4.256-6.68 3.467l-10.55-3.017c-2.72-.781-4.35-3.607-3.42-6.287 3.86-11.123 10.47-19.934 19.81-26.433 10.67-7.423 24.54-11.135 41.58-11.135 14.11 0 26.06 2.598 35.87 7.793 9.91 5.104 16.92 12.528 21.01 22.27 1.9 4.362 3.15 9.234 3.71 14.614.58 5.382.86 10.857.86 16.425v88.173c0 2.882-2.33 5.22-5.21 5.22h-8.28a5.225 5.225 0 0 1-5.23-5.22v-28.982c0-1.679 1.71-2.819 3.26-2.183 1.2.493 1.78 1.868 1.26 3.057q-7.89 17.758-23.52 27.342c-11.05 6.774-24.29 10.161-39.73 10.161m2.43-17.677c9.81 0 18.39-1.717 25.73-5.15 7.33-3.433 13.24-8.118 17.71-14.057 4.48-6.032 7.39-12.805 8.72-20.321q1.71-7.237 1.86-15.868c.06-4.094.1-7.461.13-10.099.01-1.368 1.46-2.256 2.67-1.64 1.63.816 1.2 3.223-.59 3.446-5.46.677-11.24 1.354-17.36 2.031-8.29.927-16.48 1.994-24.58 3.201q-12.015 1.809-21.72 4.315a60 60 0 0 0-12.72 5.149c-4.1 2.134-7.48 5.012-10.15 8.63-2.57 3.619-3.86 8.119-3.86 13.501 0 4.36 1.1 8.582 3.29 12.665q3.435 6.125 10.86 10.161 7.575 4.036 20.01 4.036m111.73 13.502a5.22 5.22 0 0 1-5.22-5.22v-139.88c0-2.883 2.34-5.22 5.22-5.22h8.42c2.89 0 5.22 2.337 5.22 5.22v25.939c0 1.652-2.08 2.373-3.1 1.074a1.7 1.7 0 0 1-.25-1.696 51.4 51.4 0 0 1 6.36-11.33c2.75-3.804 5.76-6.912 9-9.325 4-3.433 8.66-6.03 14.01-7.794q7.995-2.784 16.14-3.201c3.86-.265 7.47-.153 10.85.333 2.38.342 4.02 2.464 4.02 4.861v8.457c0 3.391-3.2 5.882-6.58 5.552-3.74-.368-7.7-.32-11.87.144-6.66.742-12.8 3.339-18.43 7.794-5.14 3.897-9 8.582-11.57 14.057-2.58 5.382-4.29 11.134-5.15 17.258a127 127 0 0 0-1.28 17.955v69.802c0 2.882-2.34 5.22-5.22 5.22zm144.06 4.035q-27.135 0-44.73-11.413-15.12-9.898-20.13-26.496c-.86-2.825 1.12-5.629 4.03-6.103l11.45-1.858c2.64-.43 5.14 1.237 6.17 3.706 2.75 6.484 7.42 11.817 14.07 15.997 8.18 5.012 18.29 7.516 30.28 7.516 11.72 0 20.96-2.366 27.73-7.097 6.76-4.826 10.15-11.368 10.15-19.626 0-4.639-1.1-8.397-3.29-11.274-2.09-2.97-6.43-5.706-13-8.212-6.58-2.505-16.38-5.473-29.44-8.908-14.01-3.711-24.96-7.423-32.88-11.134q-11.85-5.568-16.86-12.805c-3.33-4.918-5-10.902-5-17.955 0-8.536 2.49-16.006 7.43-22.408q7.44-9.743 20.58-15.033c8.76-3.618 18.97-5.427 30.58-5.427 11.62 0 22.01 1.856 31.15 5.567 9.25 3.619 16.68 8.722 22.31 15.31 4.55 5.334 7.59 11.364 9.14 18.096.64 2.702-1.28 5.245-4.01 5.724l-11.37 1.991c-2.86.502-5.54-1.46-6.45-4.218q-3.21-9.644-12.33-15.746c-7.52-5.197-17.1-7.888-28.72-8.073-10.95-.279-19.87 1.762-26.72 6.124q-10.29 6.403-10.29 17.119c0 3.99 1.24 7.423 3.71 10.299 2.48 2.785 6.96 5.429 13.43 7.935 6.57 2.504 15.91 5.242 28.01 8.211 14.21 3.526 25.34 7.238 33.44 11.134 8.1 3.898 13.87 8.49 17.3 13.78 3.42 5.289 5.15 11.83 5.15 19.625 0 14.197-5.44 25.377-16.3 33.544-10.77 8.073-25.62 12.108-44.59 12.108m-685.03-4.034c-1.22 0-2.2-.96-2.2-2.141V105.252c0-1.183.98-2.142 2.2-2.142h77.25q3 0 6.72.279 3.855.138 7.71.835 16.155 2.366 27.3 10.995c7.53 5.66 13.19 12.805 17.01 21.435 3.9 8.63 5.86 18.187 5.86 28.672 0 10.392-1.96 19.903-5.86 28.532-3.91 8.63-9.63 15.821-17.15 21.574-7.43 5.66-16.48 9.278-27.16 10.857q-3.855.556-7.71.834-3.72.279-6.72.278h-56.25c-1.21 0-2.2.96-2.2 2.141v71.853c0 1.181-.98 2.141-2.19 2.141zm18.8-97.762c0 1.183.99 2.141 2.2 2.141h55.68c1.71 0 3.72-.091 6-.278q3.435-.278 6.72-.974c7.05-1.484 12.81-4.315 17.29-8.49 4.57-4.176 7.96-9.14 10.15-14.893a48.3 48.3 0 0 0 3.43-17.954c0-6.217-1.15-12.203-3.43-17.955-2.19-5.845-5.58-10.857-10.15-15.032-4.48-4.176-10.24-7.006-17.29-8.49a40 40 0 0 0-6.72-.835c-2.28-.186-4.29-.279-6-.279h-55.68c-1.21 0-2.2.959-2.2 2.142z" fill="#0075FF"/><mask id="a" style="mask-type:luminance" maskUnits="userSpaceOnUse" x="989" y="84" width="778" height="227"><path d="M1766.67 84.8H989.333v226.133h777.337z" fill="#fff"/><path d="M1228.36 307.709q-23.01 0-39.3-10.16c-10.86-6.774-19.2-16.146-25.01-28.115-5.81-11.97-8.72-25.703-8.72-41.199 0-15.774 2.96-29.6 8.86-41.477 5.91-11.876 14.29-21.11 25.15-27.697 10.96-6.681 23.96-10.021 39.02-10.021 15.43 0 28.58 3.387 39.44 10.161 10.95 6.68 19.29 16.006 25.01 27.975 5.81 11.876 8.71 25.563 8.71 41.059 0 15.774-2.9 29.646-8.71 41.617-5.81 11.876-14.2 21.155-25.15 27.836q-16.44 10.02-39.3 10.021m0-19.625c17.14 0 29.91-5.521 38.29-16.563 8.39-11.134 12.58-25.563 12.58-43.286q0-27.28-12.72-43.425c-8.38-10.764-21.1-16.146-38.15-16.146-11.53 0-21.06 2.553-28.58 7.655-7.44 5.012-13.01 12.017-16.72 21.018-3.62 8.908-5.44 19.207-5.44 30.898q0 27.142 12.87 43.564c8.57 10.858 21.19 16.285 37.87 16.285m107.05 15.45a5.22 5.22 0 0 1-5.22-5.219V104.153c0-2.883 2.34-5.22 5.22-5.22h10.57c2.88 0 5.22 2.337 5.22 5.22v194.162a5.22 5.22 0 0 1-5.22 5.219zm97.07 4.175c-11.63 0-21.39-2.04-29.3-6.124-7.81-4.083-13.67-9.511-17.57-16.284-3.91-6.774-5.86-14.15-5.86-22.13 0-8.166 1.66-15.125 5-20.878q5.145-8.768 13.86-14.337 8.865-5.566 20.43-8.489c7.82-1.856 16.44-3.48 25.87-4.872a667 667 0 0 1 27.87-3.758c6.47-.787 12.36-1.552 17.69-2.294 1.37-.191 2.04 1.658.85 2.371-.86.512-1.95-.118-1.95-1.113-.04-13.693-3.01-23.925-8.88-30.698-6.19-7.144-16.96-10.717-32.29-10.717-10.57 0-19.53 2.319-26.87 6.959q-9 5.773-13.59 17.1c-1.07 2.657-3.92 4.256-6.68 3.467l-10.55-3.018c-2.72-.78-4.35-3.606-3.42-6.286 3.86-11.123 10.47-19.934 19.81-26.434 10.67-7.422 24.54-11.134 41.58-11.134 14.11 0 26.06 2.598 35.87 7.793 9.91 5.104 16.92 12.528 21.01 22.27 1.9 4.362 3.15 9.233 3.71 14.614.58 5.382.86 10.857.86 16.424v88.174a5.213 5.213 0 0 1-5.21 5.219h-8.28a5.224 5.224 0 0 1-5.23-5.219v-28.982c0-1.679 1.71-2.819 3.26-2.183 1.2.493 1.78 1.868 1.26 3.057q-7.89 17.758-23.52 27.342c-11.05 6.774-24.29 10.16-39.73 10.16m2.43-17.676c9.81 0 18.39-1.717 25.73-5.15 7.33-3.433 13.24-8.118 17.71-14.057 4.48-6.032 7.39-12.805 8.72-20.321q1.71-7.237 1.86-15.868c.06-4.094.1-7.461.13-10.099.01-1.368 1.46-2.256 2.67-1.64 1.63.816 1.2 3.223-.59 3.446-5.46.677-11.24 1.354-17.36 2.031-8.29.927-16.48 1.994-24.58 3.201q-12.015 1.809-21.72 4.315a60 60 0 0 0-12.72 5.149c-4.1 2.134-7.48 5.011-10.15 8.63-2.57 3.619-3.86 8.119-3.86 13.501 0 4.36 1.1 8.582 3.29 12.665q3.435 6.124 10.86 10.16 7.575 4.037 20.01 4.037m111.73 13.502a5.22 5.22 0 0 1-5.22-5.22v-139.88c0-2.883 2.34-5.22 5.22-5.22h8.42c2.89 0 5.22 2.337 5.22 5.22v25.939c0 1.652-2.08 2.373-3.1 1.074a1.7 1.7 0 0 1-.25-1.696 51.4 51.4 0 0 1 6.36-11.33c2.75-3.804 5.76-6.912 9-9.325 4-3.433 8.66-6.03 14.01-7.794q7.995-2.784 16.14-3.201c3.86-.265 7.47-.153 10.85.333 2.38.342 4.02 2.464 4.02 4.861v8.457c0 3.391-3.2 5.882-6.58 5.552-3.74-.368-7.7-.32-11.87.144-6.66.742-12.8 3.339-18.43 7.794-5.14 3.897-9 8.582-11.57 14.057-2.58 5.382-4.29 11.134-5.15 17.258a127 127 0 0 0-1.28 17.955v69.802c0 2.882-2.34 5.22-5.22 5.22zm144.06 4.035q-27.135 0-44.73-11.413-15.12-9.898-20.13-26.496c-.86-2.825 1.12-5.629 4.03-6.103l11.45-1.858c2.64-.43 5.14 1.236 6.17 3.706 2.75 6.484 7.42 11.816 14.07 15.997 8.18 5.012 18.29 7.516 30.28 7.516 11.72 0 20.96-2.366 27.73-7.098 6.76-4.825 10.15-11.367 10.15-19.625 0-4.639-1.1-8.397-3.29-11.274-2.09-2.97-6.43-5.706-13-8.212-6.58-2.506-16.38-5.474-29.44-8.908-14.01-3.711-24.96-7.423-32.88-11.134q-11.85-5.568-16.86-12.805c-3.33-4.918-5-10.902-5-17.955 0-8.537 2.49-16.006 7.43-22.408q7.44-9.743 20.58-15.033c8.76-3.618 18.97-5.427 30.58-5.427 11.62 0 22.01 1.856 31.15 5.567 9.25 3.618 16.68 8.722 22.31 15.31 4.55 5.333 7.59 11.364 9.14 18.096.64 2.702-1.28 5.245-4.01 5.724l-11.37 1.991c-2.86.502-5.54-1.46-6.45-4.219q-3.21-9.643-12.33-15.746c-7.52-5.196-17.1-7.887-28.72-8.072-10.95-.279-19.87 1.762-26.72 6.123q-10.29 6.404-10.29 17.12c0 3.99 1.24 7.423 3.71 10.299 2.48 2.784 6.96 5.429 13.43 7.935 6.57 2.504 15.91 5.242 28.01 8.211 14.21 3.526 25.34 7.238 33.44 11.134 8.1 3.898 13.87 8.49 17.3 13.78 3.42 5.289 5.15 11.83 5.15 19.624 0 14.197-5.44 25.378-16.3 33.545-10.77 8.072-25.62 12.108-44.59 12.108m-685.03-4.034c-1.22 0-2.2-.96-2.2-2.141V105.252c0-1.183.98-2.142 2.2-2.142h77.25q3 0 6.72.279 3.855.138 7.71.835 16.155 2.366 27.3 10.995c7.53 5.66 13.19 12.805 17.01 21.435 3.9 8.63 5.86 18.187 5.86 28.672 0 10.392-1.96 19.903-5.86 28.532-3.91 8.63-9.63 15.821-17.15 21.574-7.43 5.66-16.48 9.278-27.16 10.857q-3.855.556-7.71.834-3.72.279-6.72.278h-56.25c-1.21 0-2.2.96-2.2 2.141v71.853c0 1.181-.98 2.141-2.19 2.141zm18.8-97.762c0 1.183.99 2.141 2.2 2.141h55.68c1.71 0 3.72-.091 6-.278q3.435-.278 6.72-.974c7.05-1.484 12.81-4.315 17.29-8.49 4.57-4.176 7.96-9.14 10.15-14.893a48.3 48.3 0 0 0 3.43-17.954c0-6.217-1.15-12.203-3.43-17.955-2.19-5.845-5.58-10.857-10.15-15.032-4.48-4.176-10.24-7.006-17.29-8.49a40 40 0 0 0-6.72-.835c-2.28-.186-4.29-.279-6-.279h-55.68c-1.21 0-2.2.959-2.2 2.142z" fill="#000"/></mask><g mask="url(#a)"><path d="M1228.36 307.709q-23.01 0-39.3-10.16c-10.86-6.774-19.2-16.146-25.01-28.115-5.81-11.97-8.72-25.703-8.72-41.199 0-15.774 2.96-29.6 8.86-41.477 5.91-11.876 14.29-21.11 25.15-27.697 10.96-6.681 23.96-10.021 39.02-10.021 15.43 0 28.58 3.387 39.44 10.161 10.95 6.68 19.29 16.006 25.01 27.975 5.81 11.876 8.71 25.563 8.71 41.059 0 15.774-2.9 29.646-8.71 41.617-5.81 11.876-14.2 21.155-25.15 27.836q-16.44 10.02-39.3 10.021Zm0-19.625c17.14 0 29.91-5.521 38.29-16.563 8.39-11.134 12.58-25.563 12.58-43.286q0-27.28-12.72-43.425c-8.38-10.764-21.1-16.146-38.15-16.146-11.53 0-21.06 2.553-28.58 7.655-7.44 5.012-13.01 12.017-16.72 21.018-3.62 8.908-5.44 19.207-5.44 30.898q0 27.142 12.87 43.564c8.57 10.858 21.19 16.285 37.87 16.285Z" stroke="#0075FF" stroke-width=".369" stroke-linejoin="round"/></g><mask id="b" style="mask-type:luminance" maskUnits="userSpaceOnUse" x="989" y="84" width="778" height="227"><path d="M1766.67 84.8H989.333v226.133h777.337z" fill="#fff"/><path d="M1228.36 307.709q-23.01 0-39.3-10.16c-10.86-6.774-19.2-16.146-25.01-28.115-5.81-11.97-8.72-25.703-8.72-41.199 0-15.774 2.96-29.6 8.86-41.477 5.91-11.876 14.29-21.11 25.15-27.697 10.96-6.681 23.96-10.021 39.02-10.021 15.43 0 28.58 3.387 39.44 10.161 10.95 6.68 19.29 16.006 25.01 27.975 5.81 11.876 8.71 25.563 8.71 41.059 0 15.774-2.9 29.646-8.71 41.617-5.81 11.876-14.2 21.155-25.15 27.836q-16.44 10.02-39.3 10.021m0-19.625c17.14 0 29.91-5.521 38.29-16.563 8.39-11.134 12.58-25.563 12.58-43.286q0-27.28-12.72-43.425c-8.38-10.764-21.1-16.146-38.15-16.146-11.53 0-21.06 2.553-28.58 7.655-7.44 5.012-13.01 12.017-16.72 21.018-3.62 8.908-5.44 19.207-5.44 30.898q0 27.142 12.87 43.564c8.57 10.858 21.19 16.285 37.87 16.285m107.05 15.45a5.22 5.22 0 0 1-5.22-5.219V104.153c0-2.883 2.34-5.22 5.22-5.22h10.57c2.88 0 5.22 2.337 5.22 5.22v194.162a5.22 5.22 0 0 1-5.22 5.219zm97.07 4.175c-11.63 0-21.39-2.04-29.3-6.124-7.81-4.083-13.67-9.511-17.57-16.284-3.91-6.774-5.86-14.15-5.86-22.13 0-8.166 1.66-15.125 5-20.878q5.145-8.768 13.86-14.337 8.865-5.566 20.43-8.489c7.82-1.856 16.44-3.48 25.87-4.872a667 667 0 0 1 27.87-3.758c6.47-.787 12.36-1.552 17.69-2.294 1.37-.191 2.04 1.658.85 2.371-.86.512-1.95-.118-1.95-1.113-.04-13.693-3.01-23.925-8.88-30.698-6.19-7.144-16.96-10.717-32.29-10.717-10.57 0-19.53 2.319-26.87 6.959q-9 5.773-13.59 17.1c-1.07 2.657-3.92 4.256-6.68 3.467l-10.55-3.018c-2.72-.78-4.35-3.606-3.42-6.286 3.86-11.123 10.47-19.934 19.81-26.434 10.67-7.422 24.54-11.134 41.58-11.134 14.11 0 26.06 2.598 35.87 7.793 9.91 5.104 16.92 12.528 21.01 22.27 1.9 4.362 3.15 9.233 3.71 14.614.58 5.382.86 10.857.86 16.424v88.174a5.213 5.213 0 0 1-5.21 5.219h-8.28a5.224 5.224 0 0 1-5.23-5.219v-28.982c0-1.679 1.71-2.819 3.26-2.183 1.2.493 1.78 1.868 1.26 3.057q-7.89 17.758-23.52 27.342c-11.05 6.774-24.29 10.16-39.73 10.16m2.43-17.676c9.81 0 18.39-1.717 25.73-5.15 7.33-3.433 13.24-8.118 17.71-14.057 4.48-6.032 7.39-12.805 8.72-20.321q1.71-7.237 1.86-15.868c.06-4.094.1-7.461.13-10.099.01-1.368 1.46-2.256 2.67-1.64 1.63.816 1.2 3.223-.59 3.446-5.46.677-11.24 1.354-17.36 2.031-8.29.927-16.48 1.994-24.58 3.201q-12.015 1.809-21.72 4.315a60 60 0 0 0-12.72 5.149c-4.1 2.134-7.48 5.011-10.15 8.63-2.57 3.619-3.86 8.119-3.86 13.501 0 4.36 1.1 8.582 3.29 12.665q3.435 6.124 10.86 10.16 7.575 4.037 20.01 4.037m111.73 13.502a5.22 5.22 0 0 1-5.22-5.22v-139.88c0-2.883 2.34-5.22 5.22-5.22h8.42c2.89 0 5.22 2.337 5.22 5.22v25.939c0 1.652-2.08 2.373-3.1 1.074a1.7 1.7 0 0 1-.25-1.696 51.4 51.4 0 0 1 6.36-11.33c2.75-3.804 5.76-6.912 9-9.325 4-3.433 8.66-6.03 14.01-7.794q7.995-2.784 16.14-3.201c3.86-.265 7.47-.153 10.85.333 2.38.342 4.02 2.464 4.02 4.861v8.457c0 3.391-3.2 5.882-6.58 5.552-3.74-.368-7.7-.32-11.87.144-6.66.742-12.8 3.339-18.43 7.794-5.14 3.897-9 8.582-11.57 14.057-2.58 5.382-4.29 11.134-5.15 17.258a127 127 0 0 0-1.28 17.955v69.802c0 2.882-2.34 5.22-5.22 5.22zm144.06 4.035q-27.135 0-44.73-11.413-15.12-9.898-20.13-26.496c-.86-2.825 1.12-5.629 4.03-6.103l11.45-1.858c2.64-.43 5.14 1.236 6.17 3.706 2.75 6.484 7.42 11.816 14.07 15.997 8.18 5.012 18.29 7.516 30.28 7.516 11.72 0 20.96-2.366 27.73-7.098 6.76-4.825 10.15-11.367 10.15-19.625 0-4.639-1.1-8.397-3.29-11.274-2.09-2.97-6.43-5.706-13-8.212-6.58-2.506-16.38-5.474-29.44-8.908-14.01-3.711-24.96-7.423-32.88-11.134q-11.85-5.568-16.86-12.805c-3.33-4.918-5-10.902-5-17.955 0-8.537 2.49-16.006 7.43-22.408q7.44-9.743 20.58-15.033c8.76-3.618 18.97-5.427 30.58-5.427 11.62 0 22.01 1.856 31.15 5.567 9.25 3.618 16.68 8.722 22.31 15.31 4.55 5.333 7.59 11.364 9.14 18.096.64 2.702-1.28 5.245-4.01 5.724l-11.37 1.991c-2.86.502-5.54-1.46-6.45-4.219q-3.21-9.643-12.33-15.746c-7.52-5.196-17.1-7.887-28.72-8.072-10.95-.279-19.87 1.762-26.72 6.123q-10.29 6.404-10.29 17.12c0 3.99 1.24 7.423 3.71 10.299 2.48 2.784 6.96 5.429 13.43 7.935 6.57 2.504 15.91 5.242 28.01 8.211 14.21 3.526 25.34 7.238 33.44 11.134 8.1 3.898 13.87 8.49 17.3 13.78 3.42 5.289 5.15 11.83 5.15 19.624 0 14.197-5.44 25.378-16.3 33.545-10.77 8.072-25.62 12.108-44.59 12.108m-685.03-4.034c-1.22 0-2.2-.96-2.2-2.141V105.252c0-1.183.98-2.142 2.2-2.142h77.25q3 0 6.72.279 3.855.138 7.71.835 16.155 2.366 27.3 10.995c7.53 5.66 13.19 12.805 17.01 21.435 3.9 8.63 5.86 18.187 5.86 28.672 0 10.392-1.96 19.903-5.86 28.532-3.91 8.63-9.63 15.821-17.15 21.574-7.43 5.66-16.48 9.278-27.16 10.857q-3.855.556-7.71.834-3.72.279-6.72.278h-56.25c-1.21 0-2.2.96-2.2 2.141v71.853c0 1.181-.98 2.141-2.19 2.141zm18.8-97.762c0 1.183.99 2.141 2.2 2.141h55.68c1.71 0 3.72-.091 6-.278q3.435-.278 6.72-.974c7.05-1.484 12.81-4.315 17.29-8.49 4.57-4.176 7.96-9.14 10.15-14.893a48.3 48.3 0 0 0 3.43-17.954c0-6.217-1.15-12.203-3.43-17.955-2.19-5.845-5.58-10.857-10.15-15.032-4.48-4.176-10.24-7.006-17.29-8.49a40 40 0 0 0-6.72-.835c-2.28-.186-4.29-.279-6-.279h-55.68c-1.21 0-2.2.959-2.2 2.142z" fill="#000"/></mask><g mask="url(#b)"><path d="M1335.41 303.534a5.22 5.22 0 0 1-5.22-5.219V104.153c0-2.883 2.34-5.22 5.22-5.22h10.57c2.88 0 5.22 2.337 5.22 5.22v194.162a5.22 5.22 0 0 1-5.22 5.219z" stroke="#0075FF" stroke-width=".369" stroke-linejoin="round"/></g><mask id="c" style="mask-type:luminance" maskUnits="userSpaceOnUse" x="989" y="84" width="778" height="227"><path d="M1766.67 84.8H989.333v226.133h777.337z" fill="#fff"/><path d="M1228.36 307.709q-23.01 0-39.3-10.16c-10.86-6.774-19.2-16.146-25.01-28.115-5.81-11.97-8.72-25.703-8.72-41.199 0-15.774 2.96-29.6 8.86-41.477 5.91-11.876 14.29-21.11 25.15-27.697 10.96-6.681 23.96-10.021 39.02-10.021 15.43 0 28.58 3.387 39.44 10.161 10.95 6.68 19.29 16.006 25.01 27.975 5.81 11.876 8.71 25.563 8.71 41.059 0 15.774-2.9 29.646-8.71 41.617-5.81 11.876-14.2 21.155-25.15 27.836q-16.44 10.02-39.3 10.021m0-19.625c17.14 0 29.91-5.521 38.29-16.563 8.39-11.134 12.58-25.563 12.58-43.286q0-27.28-12.72-43.425c-8.38-10.764-21.1-16.146-38.15-16.146-11.53 0-21.06 2.553-28.58 7.655-7.44 5.012-13.01 12.017-16.72 21.018-3.62 8.908-5.44 19.207-5.44 30.898q0 27.142 12.87 43.564c8.57 10.858 21.19 16.285 37.87 16.285m107.05 15.45a5.22 5.22 0 0 1-5.22-5.219V104.153c0-2.883 2.34-5.22 5.22-5.22h10.57c2.88 0 5.22 2.337 5.22 5.22v194.162a5.22 5.22 0 0 1-5.22 5.219zm97.07 4.175c-11.63 0-21.39-2.04-29.3-6.124-7.81-4.083-13.67-9.511-17.57-16.284-3.91-6.774-5.86-14.15-5.86-22.13 0-8.166 1.66-15.125 5-20.878q5.145-8.768 13.86-14.337 8.865-5.566 20.43-8.489c7.82-1.856 16.44-3.48 25.87-4.872a667 667 0 0 1 27.87-3.758c6.47-.787 12.36-1.552 17.69-2.294 1.37-.191 2.04 1.658.85 2.371-.86.512-1.95-.118-1.95-1.113-.04-13.693-3.01-23.925-8.88-30.698-6.19-7.144-16.96-10.717-32.29-10.717-10.57 0-19.53 2.319-26.87 6.959q-9 5.773-13.59 17.1c-1.07 2.657-3.92 4.256-6.68 3.467l-10.55-3.018c-2.72-.78-4.35-3.606-3.42-6.286 3.86-11.123 10.47-19.934 19.81-26.434 10.67-7.422 24.54-11.134 41.58-11.134 14.11 0 26.06 2.598 35.87 7.793 9.91 5.104 16.92 12.528 21.01 22.27 1.9 4.362 3.15 9.233 3.71 14.614.58 5.382.86 10.857.86 16.424v88.174a5.213 5.213 0 0 1-5.21 5.219h-8.28a5.224 5.224 0 0 1-5.23-5.219v-28.982c0-1.679 1.71-2.819 3.26-2.183 1.2.493 1.78 1.868 1.26 3.057q-7.89 17.758-23.52 27.342c-11.05 6.774-24.29 10.16-39.73 10.16m2.43-17.676c9.81 0 18.39-1.717 25.73-5.15 7.33-3.433 13.24-8.118 17.71-14.057 4.48-6.032 7.39-12.805 8.72-20.321q1.71-7.237 1.86-15.868c.06-4.094.1-7.461.13-10.099.01-1.368 1.46-2.256 2.67-1.64 1.63.816 1.2 3.223-.59 3.446-5.46.677-11.24 1.354-17.36 2.031-8.29.927-16.48 1.994-24.58 3.201q-12.015 1.809-21.72 4.315a60 60 0 0 0-12.72 5.149c-4.1 2.134-7.48 5.011-10.15 8.63-2.57 3.619-3.86 8.119-3.86 13.501 0 4.36 1.1 8.582 3.29 12.665q3.435 6.124 10.86 10.16 7.575 4.037 20.01 4.037m111.73 13.502a5.22 5.22 0 0 1-5.22-5.22v-139.88c0-2.883 2.34-5.22 5.22-5.22h8.42c2.89 0 5.22 2.337 5.22 5.22v25.939c0 1.652-2.08 2.373-3.1 1.074a1.7 1.7 0 0 1-.25-1.696 51.4 51.4 0 0 1 6.36-11.33c2.75-3.804 5.76-6.912 9-9.325 4-3.433 8.66-6.03 14.01-7.794q7.995-2.784 16.14-3.201c3.86-.265 7.47-.153 10.85.333 2.38.342 4.02 2.464 4.02 4.861v8.457c0 3.391-3.2 5.882-6.58 5.552-3.74-.368-7.7-.32-11.87.144-6.66.742-12.8 3.339-18.43 7.794-5.14 3.897-9 8.582-11.57 14.057-2.58 5.382-4.29 11.134-5.15 17.258a127 127 0 0 0-1.28 17.955v69.802c0 2.882-2.34 5.22-5.22 5.22zm144.06 4.035q-27.135 0-44.73-11.413-15.12-9.898-20.13-26.496c-.86-2.825 1.12-5.629 4.03-6.103l11.45-1.858c2.64-.43 5.14 1.236 6.17 3.706 2.75 6.484 7.42 11.816 14.07 15.997 8.18 5.012 18.29 7.516 30.28 7.516 11.72 0 20.96-2.366 27.73-7.098 6.76-4.825 10.15-11.367 10.15-19.625 0-4.639-1.1-8.397-3.29-11.274-2.09-2.97-6.43-5.706-13-8.212-6.58-2.506-16.38-5.474-29.44-8.908-14.01-3.711-24.96-7.423-32.88-11.134q-11.85-5.568-16.86-12.805c-3.33-4.918-5-10.902-5-17.955 0-8.537 2.49-16.006 7.43-22.408q7.44-9.743 20.58-15.033c8.76-3.618 18.97-5.427 30.58-5.427 11.62 0 22.01 1.856 31.15 5.567 9.25 3.618 16.68 8.722 22.31 15.31 4.55 5.333 7.59 11.364 9.14 18.096.64 2.702-1.28 5.245-4.01 5.724l-11.37 1.991c-2.86.502-5.54-1.46-6.45-4.219q-3.21-9.643-12.33-15.746c-7.52-5.196-17.1-7.887-28.72-8.072-10.95-.279-19.87 1.762-26.72 6.123q-10.29 6.404-10.29 17.12c0 3.99 1.24 7.423 3.71 10.299 2.48 2.784 6.96 5.429 13.43 7.935 6.57 2.504 15.91 5.242 28.01 8.211 14.21 3.526 25.34 7.238 33.44 11.134 8.1 3.898 13.87 8.49 17.3 13.78 3.42 5.289 5.15 11.83 5.15 19.624 0 14.197-5.44 25.378-16.3 33.545-10.77 8.072-25.62 12.108-44.59 12.108m-685.03-4.034c-1.22 0-2.2-.96-2.2-2.141V105.252c0-1.183.98-2.142 2.2-2.142h77.25q3 0 6.72.279 3.855.138 7.71.835 16.155 2.366 27.3 10.995c7.53 5.66 13.19 12.805 17.01 21.435 3.9 8.63 5.86 18.187 5.86 28.672 0 10.392-1.96 19.903-5.86 28.532-3.91 8.63-9.63 15.821-17.15 21.574-7.43 5.66-16.48 9.278-27.16 10.857q-3.855.556-7.71.834-3.72.279-6.72.278h-56.25c-1.21 0-2.2.96-2.2 2.141v71.853c0 1.181-.98 2.141-2.19 2.141zm18.8-97.762c0 1.183.99 2.141 2.2 2.141h55.68c1.71 0 3.72-.091 6-.278q3.435-.278 6.72-.974c7.05-1.484 12.81-4.315 17.29-8.49 4.57-4.176 7.96-9.14 10.15-14.893a48.3 48.3 0 0 0 3.43-17.954c0-6.217-1.15-12.203-3.43-17.955-2.19-5.845-5.58-10.857-10.15-15.032-4.48-4.176-10.24-7.006-17.29-8.49a40 40 0 0 0-6.72-.835c-2.28-.186-4.29-.279-6-.279h-55.68c-1.21 0-2.2.959-2.2 2.142z" fill="#000"/></mask><g mask="url(#c)"><path d="M1432.48 307.709c-11.63 0-21.39-2.04-29.3-6.124-7.81-4.083-13.67-9.511-17.57-16.284-3.91-6.774-5.86-14.15-5.86-22.13 0-8.166 1.66-15.125 5-20.878q5.145-8.768 13.86-14.337 8.865-5.566 20.43-8.489c7.82-1.856 16.44-3.48 25.87-4.872a667 667 0 0 1 27.87-3.758c6.47-.787 12.36-1.552 17.69-2.294 1.37-.191 2.04 1.658.85 2.371-.86.512-1.95-.118-1.95-1.113-.04-13.693-3.01-23.925-8.88-30.698-6.19-7.144-16.96-10.717-32.29-10.717-10.57 0-19.53 2.319-26.87 6.959q-9 5.773-13.59 17.1c-1.07 2.657-3.92 4.256-6.68 3.467l-10.55-3.018c-2.72-.78-4.35-3.606-3.42-6.286 3.86-11.123 10.47-19.934 19.81-26.434 10.67-7.422 24.54-11.134 41.58-11.134 14.11 0 26.06 2.598 35.87 7.793 9.91 5.104 16.92 12.528 21.01 22.27 1.9 4.362 3.15 9.233 3.71 14.614.58 5.382.86 10.857.86 16.424v88.174a5.213 5.213 0 0 1-5.21 5.219h-8.28a5.224 5.224 0 0 1-5.23-5.219v-28.982c0-1.679 1.71-2.819 3.26-2.183 1.2.493 1.78 1.868 1.26 3.057q-7.89 17.758-23.52 27.342c-11.05 6.774-24.29 10.16-39.73 10.16Zm2.43-17.676c9.81 0 18.39-1.717 25.73-5.15 7.33-3.433 13.24-8.118 17.71-14.057 4.48-6.032 7.39-12.805 8.72-20.321q1.71-7.237 1.86-15.868c.06-4.094.1-7.461.13-10.099.01-1.368 1.46-2.256 2.67-1.64 1.63.816 1.2 3.223-.59 3.446-5.46.677-11.24 1.354-17.36 2.031-8.29.927-16.48 1.994-24.58 3.201q-12.015 1.809-21.72 4.315a60 60 0 0 0-12.72 5.149c-4.1 2.134-7.48 5.011-10.15 8.63-2.57 3.619-3.86 8.119-3.86 13.501 0 4.36 1.1 8.582 3.29 12.665q3.435 6.124 10.86 10.16 7.575 4.037 20.01 4.037Z" stroke="#0075FF" stroke-width=".369" stroke-linejoin="round"/></g><mask id="d" style="mask-type:luminance" maskUnits="userSpaceOnUse" x="989" y="84" width="778" height="227"><path d="M1766.67 84.8H989.333v226.133h777.337z" fill="#fff"/><path d="M1228.36 307.709q-23.01 0-39.3-10.16c-10.86-6.774-19.2-16.146-25.01-28.115-5.81-11.97-8.72-25.703-8.72-41.199 0-15.774 2.96-29.6 8.86-41.477 5.91-11.876 14.29-21.11 25.15-27.697 10.96-6.681 23.96-10.021 39.02-10.021 15.43 0 28.58 3.387 39.44 10.161 10.95 6.68 19.29 16.006 25.01 27.975 5.81 11.876 8.71 25.563 8.71 41.059 0 15.774-2.9 29.646-8.71 41.617-5.81 11.876-14.2 21.155-25.15 27.836q-16.44 10.02-39.3 10.021m0-19.625c17.14 0 29.91-5.521 38.29-16.563 8.39-11.134 12.58-25.563 12.58-43.286q0-27.28-12.72-43.425c-8.38-10.764-21.1-16.146-38.15-16.146-11.53 0-21.06 2.553-28.58 7.655-7.44 5.012-13.01 12.017-16.72 21.018-3.62 8.908-5.44 19.207-5.44 30.898q0 27.142 12.87 43.564c8.57 10.858 21.19 16.285 37.87 16.285m107.05 15.45a5.22 5.22 0 0 1-5.22-5.219V104.153c0-2.883 2.34-5.22 5.22-5.22h10.57c2.88 0 5.22 2.337 5.22 5.22v194.162a5.22 5.22 0 0 1-5.22 5.219zm97.07 4.175c-11.63 0-21.39-2.04-29.3-6.124-7.81-4.083-13.67-9.511-17.57-16.284-3.91-6.774-5.86-14.15-5.86-22.13 0-8.166 1.66-15.125 5-20.878q5.145-8.768 13.86-14.337 8.865-5.566 20.43-8.489c7.82-1.856 16.44-3.48 25.87-4.872a667 667 0 0 1 27.87-3.758c6.47-.787 12.36-1.552 17.69-2.294 1.37-.191 2.04 1.658.85 2.371-.86.512-1.95-.118-1.95-1.113-.04-13.693-3.01-23.925-8.88-30.698-6.19-7.144-16.96-10.717-32.29-10.717-10.57 0-19.53 2.319-26.87 6.959q-9 5.773-13.59 17.1c-1.07 2.657-3.92 4.256-6.68 3.467l-10.55-3.018c-2.72-.78-4.35-3.606-3.42-6.286 3.86-11.123 10.47-19.934 19.81-26.434 10.67-7.422 24.54-11.134 41.58-11.134 14.11 0 26.06 2.598 35.87 7.793 9.91 5.104 16.92 12.528 21.01 22.27 1.9 4.362 3.15 9.233 3.71 14.614.58 5.382.86 10.857.86 16.424v88.174a5.213 5.213 0 0 1-5.21 5.219h-8.28a5.224 5.224 0 0 1-5.23-5.219v-28.982c0-1.679 1.71-2.819 3.26-2.183 1.2.493 1.78 1.868 1.26 3.057q-7.89 17.758-23.52 27.342c-11.05 6.774-24.29 10.16-39.73 10.16m2.43-17.676c9.81 0 18.39-1.717 25.73-5.15 7.33-3.433 13.24-8.118 17.71-14.057 4.48-6.032 7.39-12.805 8.72-20.321q1.71-7.237 1.86-15.868c.06-4.094.1-7.461.13-10.099.01-1.368 1.46-2.256 2.67-1.64 1.63.816 1.2 3.223-.59 3.446-5.46.677-11.24 1.354-17.36 2.031-8.29.927-16.48 1.994-24.58 3.201q-12.015 1.809-21.72 4.315a60 60 0 0 0-12.72 5.149c-4.1 2.134-7.48 5.011-10.15 8.63-2.57 3.619-3.86 8.119-3.86 13.501 0 4.36 1.1 8.582 3.29 12.665q3.435 6.124 10.86 10.16 7.575 4.037 20.01 4.037m111.73 13.502a5.22 5.22 0 0 1-5.22-5.22v-139.88c0-2.883 2.34-5.22 5.22-5.22h8.42c2.89 0 5.22 2.337 5.22 5.22v25.939c0 1.652-2.08 2.373-3.1 1.074a1.7 1.7 0 0 1-.25-1.696 51.4 51.4 0 0 1 6.36-11.33c2.75-3.804 5.76-6.912 9-9.325 4-3.433 8.66-6.03 14.01-7.794q7.995-2.784 16.14-3.201c3.86-.265 7.47-.153 10.85.333 2.38.342 4.02 2.464 4.02 4.861v8.457c0 3.391-3.2 5.882-6.58 5.552-3.74-.368-7.7-.32-11.87.144-6.66.742-12.8 3.339-18.43 7.794-5.14 3.897-9 8.582-11.57 14.057-2.58 5.382-4.29 11.134-5.15 17.258a127 127 0 0 0-1.28 17.955v69.802c0 2.882-2.34 5.22-5.22 5.22zm144.06 4.035q-27.135 0-44.73-11.413-15.12-9.898-20.13-26.496c-.86-2.825 1.12-5.629 4.03-6.103l11.45-1.858c2.64-.43 5.14 1.236 6.17 3.706 2.75 6.484 7.42 11.816 14.07 15.997 8.18 5.012 18.29 7.516 30.28 7.516 11.72 0 20.96-2.366 27.73-7.098 6.76-4.825 10.15-11.367 10.15-19.625 0-4.639-1.1-8.397-3.29-11.274-2.09-2.97-6.43-5.706-13-8.212-6.58-2.506-16.38-5.474-29.44-8.908-14.01-3.711-24.96-7.423-32.88-11.134q-11.85-5.568-16.86-12.805c-3.33-4.918-5-10.902-5-17.955 0-8.537 2.49-16.006 7.43-22.408q7.44-9.743 20.58-15.033c8.76-3.618 18.97-5.427 30.58-5.427 11.62 0 22.01 1.856 31.15 5.567 9.25 3.618 16.68 8.722 22.31 15.31 4.55 5.333 7.59 11.364 9.14 18.096.64 2.702-1.28 5.245-4.01 5.724l-11.37 1.991c-2.86.502-5.54-1.46-6.45-4.219q-3.21-9.643-12.33-15.746c-7.52-5.196-17.1-7.887-28.72-8.072-10.95-.279-19.87 1.762-26.72 6.123q-10.29 6.404-10.29 17.12c0 3.99 1.24 7.423 3.71 10.299 2.48 2.784 6.96 5.429 13.43 7.935 6.57 2.504 15.91 5.242 28.01 8.211 14.21 3.526 25.34 7.238 33.44 11.134 8.1 3.898 13.87 8.49 17.3 13.78 3.42 5.289 5.15 11.83 5.15 19.624 0 14.197-5.44 25.378-16.3 33.545-10.77 8.072-25.62 12.108-44.59 12.108m-685.03-4.034c-1.22 0-2.2-.96-2.2-2.141V105.252c0-1.183.98-2.142 2.2-2.142h77.25q3 0 6.72.279 3.855.138 7.71.835 16.155 2.366 27.3 10.995c7.53 5.66 13.19 12.805 17.01 21.435 3.9 8.63 5.86 18.187 5.86 28.672 0 10.392-1.96 19.903-5.86 28.532-3.91 8.63-9.63 15.821-17.15 21.574-7.43 5.66-16.48 9.278-27.16 10.857q-3.855.556-7.71.834-3.72.279-6.72.278h-56.25c-1.21 0-2.2.96-2.2 2.141v71.853c0 1.181-.98 2.141-2.19 2.141zm18.8-97.762c0 1.183.99 2.141 2.2 2.141h55.68c1.71 0 3.72-.091 6-.278q3.435-.278 6.72-.974c7.05-1.484 12.81-4.315 17.29-8.49 4.57-4.176 7.96-9.14 10.15-14.893a48.3 48.3 0 0 0 3.43-17.954c0-6.217-1.15-12.203-3.43-17.955-2.19-5.845-5.58-10.857-10.15-15.032-4.48-4.176-10.24-7.006-17.29-8.49a40 40 0 0 0-6.72-.835c-2.28-.186-4.29-.279-6-.279h-55.68c-1.21 0-2.2.959-2.2 2.142z" fill="#000"/></mask><g mask="url(#d)"><path d="M1546.64 303.535a5.22 5.22 0 0 1-5.22-5.22v-139.88c0-2.883 2.34-5.22 5.22-5.22h8.42c2.89 0 5.22 2.337 5.22 5.22v25.939c0 1.652-2.08 2.373-3.1 1.074a1.7 1.7 0 0 1-.25-1.696 51.4 51.4 0 0 1 6.36-11.33c2.75-3.804 5.76-6.912 9-9.325 4-3.433 8.66-6.03 14.01-7.794q7.995-2.784 16.14-3.201c3.86-.265 7.47-.153 10.85.333 2.38.342 4.02 2.464 4.02 4.861v8.457c0 3.391-3.2 5.882-6.58 5.552-3.74-.368-7.7-.32-11.87.144-6.66.742-12.8 3.339-18.43 7.794-5.14 3.897-9 8.582-11.57 14.057-2.58 5.382-4.29 11.134-5.15 17.258a127 127 0 0 0-1.28 17.955v69.802c0 2.882-2.34 5.22-5.22 5.22z" stroke="#0075FF" stroke-width=".369" stroke-linejoin="round"/></g><mask id="e" style="mask-type:luminance" maskUnits="userSpaceOnUse" x="989" y="84" width="778" height="227"><path d="M1766.67 84.8H989.333v226.133h777.337z" fill="#fff"/><path d="M1228.36 307.709q-23.01 0-39.3-10.16c-10.86-6.774-19.2-16.146-25.01-28.115-5.81-11.97-8.72-25.703-8.72-41.199 0-15.774 2.96-29.6 8.86-41.477 5.91-11.876 14.29-21.11 25.15-27.697 10.96-6.681 23.96-10.021 39.02-10.021 15.43 0 28.58 3.387 39.44 10.161 10.95 6.68 19.29 16.006 25.01 27.975 5.81 11.876 8.71 25.563 8.71 41.059 0 15.774-2.9 29.646-8.71 41.617-5.81 11.876-14.2 21.155-25.15 27.836q-16.44 10.02-39.3 10.021m0-19.625c17.14 0 29.91-5.521 38.29-16.563 8.39-11.134 12.58-25.563 12.58-43.286q0-27.28-12.72-43.425c-8.38-10.764-21.1-16.146-38.15-16.146-11.53 0-21.06 2.553-28.58 7.655-7.44 5.012-13.01 12.017-16.72 21.018-3.62 8.908-5.44 19.207-5.44 30.898q0 27.142 12.87 43.564c8.57 10.858 21.19 16.285 37.87 16.285m107.05 15.45a5.22 5.22 0 0 1-5.22-5.219V104.153c0-2.883 2.34-5.22 5.22-5.22h10.57c2.88 0 5.22 2.337 5.22 5.22v194.162a5.22 5.22 0 0 1-5.22 5.219zm97.07 4.175c-11.63 0-21.39-2.04-29.3-6.124-7.81-4.083-13.67-9.511-17.57-16.284-3.91-6.774-5.86-14.15-5.86-22.13 0-8.166 1.66-15.125 5-20.878q5.145-8.768 13.86-14.337 8.865-5.566 20.43-8.489c7.82-1.856 16.44-3.48 25.87-4.872a667 667 0 0 1 27.87-3.758c6.47-.787 12.36-1.552 17.69-2.294 1.37-.191 2.04 1.658.85 2.371-.86.512-1.95-.118-1.95-1.113-.04-13.693-3.01-23.925-8.88-30.698-6.19-7.144-16.96-10.717-32.29-10.717-10.57 0-19.53 2.319-26.87 6.959q-9 5.773-13.59 17.1c-1.07 2.657-3.92 4.256-6.68 3.467l-10.55-3.018c-2.72-.78-4.35-3.606-3.42-6.286 3.86-11.123 10.47-19.934 19.81-26.434 10.67-7.422 24.54-11.134 41.58-11.134 14.11 0 26.06 2.598 35.87 7.793 9.91 5.104 16.92 12.528 21.01 22.27 1.9 4.362 3.15 9.233 3.71 14.614.58 5.382.86 10.857.86 16.424v88.174a5.213 5.213 0 0 1-5.21 5.219h-8.28a5.224 5.224 0 0 1-5.23-5.219v-28.982c0-1.679 1.71-2.819 3.26-2.183 1.2.493 1.78 1.868 1.26 3.057q-7.89 17.758-23.52 27.342c-11.05 6.774-24.29 10.16-39.73 10.16m2.43-17.676c9.81 0 18.39-1.717 25.73-5.15 7.33-3.433 13.24-8.118 17.71-14.057 4.48-6.032 7.39-12.805 8.72-20.321q1.71-7.237 1.86-15.868c.06-4.094.1-7.461.13-10.099.01-1.368 1.46-2.256 2.67-1.64 1.63.816 1.2 3.223-.59 3.446-5.46.677-11.24 1.354-17.36 2.031-8.29.927-16.48 1.994-24.58 3.201q-12.015 1.809-21.72 4.315a60 60 0 0 0-12.72 5.149c-4.1 2.134-7.48 5.011-10.15 8.63-2.57 3.619-3.86 8.119-3.86 13.501 0 4.36 1.1 8.582 3.29 12.665q3.435 6.124 10.86 10.16 7.575 4.037 20.01 4.037m111.73 13.502a5.22 5.22 0 0 1-5.22-5.22v-139.88c0-2.883 2.34-5.22 5.22-5.22h8.42c2.89 0 5.22 2.337 5.22 5.22v25.939c0 1.652-2.08 2.373-3.1 1.074a1.7 1.7 0 0 1-.25-1.696 51.4 51.4 0 0 1 6.36-11.33c2.75-3.804 5.76-6.912 9-9.325 4-3.433 8.66-6.03 14.01-7.794q7.995-2.784 16.14-3.201c3.86-.265 7.47-.153 10.85.333 2.38.342 4.02 2.464 4.02 4.861v8.457c0 3.391-3.2 5.882-6.58 5.552-3.74-.368-7.7-.32-11.87.144-6.66.742-12.8 3.339-18.43 7.794-5.14 3.897-9 8.582-11.57 14.057-2.58 5.382-4.29 11.134-5.15 17.258a127 127 0 0 0-1.28 17.955v69.802c0 2.882-2.34 5.22-5.22 5.22zm144.06 4.035q-27.135 0-44.73-11.413-15.12-9.898-20.13-26.496c-.86-2.825 1.12-5.629 4.03-6.103l11.45-1.858c2.64-.43 5.14 1.236 6.17 3.706 2.75 6.484 7.42 11.816 14.07 15.997 8.18 5.012 18.29 7.516 30.28 7.516 11.72 0 20.96-2.366 27.73-7.098 6.76-4.825 10.15-11.367 10.15-19.625 0-4.639-1.1-8.397-3.29-11.274-2.09-2.97-6.43-5.706-13-8.212-6.58-2.506-16.38-5.474-29.44-8.908-14.01-3.711-24.96-7.423-32.88-11.134q-11.85-5.568-16.86-12.805c-3.33-4.918-5-10.902-5-17.955 0-8.537 2.49-16.006 7.43-22.408q7.44-9.743 20.58-15.033c8.76-3.618 18.97-5.427 30.58-5.427 11.62 0 22.01 1.856 31.15 5.567 9.25 3.618 16.68 8.722 22.31 15.31 4.55 5.333 7.59 11.364 9.14 18.096.64 2.702-1.28 5.245-4.01 5.724l-11.37 1.991c-2.86.502-5.54-1.46-6.45-4.219q-3.21-9.643-12.33-15.746c-7.52-5.196-17.1-7.887-28.72-8.072-10.95-.279-19.87 1.762-26.72 6.123q-10.29 6.404-10.29 17.12c0 3.99 1.24 7.423 3.71 10.299 2.48 2.784 6.96 5.429 13.43 7.935 6.57 2.504 15.91 5.242 28.01 8.211 14.21 3.526 25.34 7.238 33.44 11.134 8.1 3.898 13.87 8.49 17.3 13.78 3.42 5.289 5.15 11.83 5.15 19.624 0 14.197-5.44 25.378-16.3 33.545-10.77 8.072-25.62 12.108-44.59 12.108m-685.03-4.034c-1.22 0-2.2-.96-2.2-2.141V105.252c0-1.183.98-2.142 2.2-2.142h77.25q3 0 6.72.279 3.855.138 7.71.835 16.155 2.366 27.3 10.995c7.53 5.66 13.19 12.805 17.01 21.435 3.9 8.63 5.86 18.187 5.86 28.672 0 10.392-1.96 19.903-5.86 28.532-3.91 8.63-9.63 15.821-17.15 21.574-7.43 5.66-16.48 9.278-27.16 10.857q-3.855.556-7.71.834-3.72.279-6.72.278h-56.25c-1.21 0-2.2.96-2.2 2.141v71.853c0 1.181-.98 2.141-2.19 2.141zm18.8-97.762c0 1.183.99 2.141 2.2 2.141h55.68c1.71 0 3.72-.091 6-.278q3.435-.278 6.72-.974c7.05-1.484 12.81-4.315 17.29-8.49 4.57-4.176 7.96-9.14 10.15-14.893a48.3 48.3 0 0 0 3.43-17.954c0-6.217-1.15-12.203-3.43-17.955-2.19-5.845-5.58-10.857-10.15-15.032-4.48-4.176-10.24-7.006-17.29-8.49a40 40 0 0 0-6.72-.835c-2.28-.186-4.29-.279-6-.279h-55.68c-1.21 0-2.2.959-2.2 2.142z" fill="#000"/></mask><g mask="url(#e)"><path d="M1690.7 307.57q-27.135 0-44.73-11.413-15.12-9.898-20.13-26.496c-.86-2.825 1.12-5.629 4.03-6.103l11.45-1.858c2.64-.43 5.14 1.236 6.17 3.706 2.75 6.484 7.42 11.816 14.07 15.997 8.18 5.012 18.29 7.516 30.28 7.516 11.72 0 20.96-2.366 27.73-7.098 6.76-4.825 10.15-11.367 10.15-19.625 0-4.639-1.1-8.397-3.29-11.274-2.09-2.97-6.43-5.706-13-8.212-6.58-2.506-16.38-5.474-29.44-8.908-14.01-3.711-24.96-7.423-32.88-11.134q-11.85-5.568-16.86-12.805c-3.33-4.918-5-10.902-5-17.955 0-8.537 2.49-16.006 7.43-22.408q7.44-9.743 20.58-15.033c8.76-3.618 18.97-5.427 30.58-5.427 11.62 0 22.01 1.856 31.15 5.567 9.25 3.618 16.68 8.722 22.31 15.31 4.55 5.333 7.59 11.364 9.14 18.096.64 2.702-1.28 5.245-4.01 5.724l-11.37 1.991c-2.86.502-5.54-1.46-6.45-4.219q-3.21-9.643-12.33-15.746c-7.52-5.196-17.1-7.887-28.72-8.072-10.95-.279-19.87 1.762-26.72 6.123q-10.29 6.404-10.29 17.12c0 3.99 1.24 7.423 3.71 10.299 2.48 2.784 6.96 5.429 13.43 7.935 6.57 2.504 15.91 5.242 28.01 8.211 14.21 3.526 25.34 7.238 33.44 11.134 8.1 3.898 13.87 8.49 17.3 13.78 3.42 5.289 5.15 11.83 5.15 19.624 0 14.197-5.44 25.378-16.3 33.545-10.77 8.072-25.62 12.108-44.59 12.108Z" stroke="#0075FF" stroke-width=".369" stroke-linejoin="round"/></g><mask id="f" style="mask-type:luminance" maskUnits="userSpaceOnUse" x="989" y="84" width="778" height="227"><path d="M1766.67 84.8H989.333v226.133h777.337z" fill="#fff"/><path d="M1228.36 307.709q-23.01 0-39.3-10.16c-10.86-6.774-19.2-16.146-25.01-28.115-5.81-11.97-8.72-25.703-8.72-41.199 0-15.774 2.96-29.6 8.86-41.477 5.91-11.876 14.29-21.11 25.15-27.697 10.96-6.681 23.96-10.021 39.02-10.021 15.43 0 28.58 3.387 39.44 10.161 10.95 6.68 19.29 16.006 25.01 27.975 5.81 11.876 8.71 25.563 8.71 41.059 0 15.774-2.9 29.646-8.71 41.617-5.81 11.876-14.2 21.155-25.15 27.836q-16.44 10.02-39.3 10.021m0-19.625c17.14 0 29.91-5.521 38.29-16.563 8.39-11.134 12.58-25.563 12.58-43.286q0-27.28-12.72-43.425c-8.38-10.764-21.1-16.146-38.15-16.146-11.53 0-21.06 2.553-28.58 7.655-7.44 5.012-13.01 12.017-16.72 21.018-3.62 8.908-5.44 19.207-5.44 30.898q0 27.142 12.87 43.564c8.57 10.858 21.19 16.285 37.87 16.285m107.05 15.45a5.22 5.22 0 0 1-5.22-5.219V104.153c0-2.883 2.34-5.22 5.22-5.22h10.57c2.88 0 5.22 2.337 5.22 5.22v194.162a5.22 5.22 0 0 1-5.22 5.219zm97.07 4.175c-11.63 0-21.39-2.04-29.3-6.124-7.81-4.083-13.67-9.511-17.57-16.284-3.91-6.774-5.86-14.15-5.86-22.13 0-8.166 1.66-15.125 5-20.878q5.145-8.768 13.86-14.337 8.865-5.566 20.43-8.489c7.82-1.856 16.44-3.48 25.87-4.872a667 667 0 0 1 27.87-3.758c6.47-.787 12.36-1.552 17.69-2.294 1.37-.191 2.04 1.658.85 2.371-.86.512-1.95-.118-1.95-1.113-.04-13.693-3.01-23.925-8.88-30.698-6.19-7.144-16.96-10.717-32.29-10.717-10.57 0-19.53 2.319-26.87 6.959q-9 5.773-13.59 17.1c-1.07 2.657-3.92 4.256-6.68 3.467l-10.55-3.018c-2.72-.78-4.35-3.606-3.42-6.286 3.86-11.123 10.47-19.934 19.81-26.434 10.67-7.422 24.54-11.134 41.58-11.134 14.11 0 26.06 2.598 35.87 7.793 9.91 5.104 16.92 12.528 21.01 22.27 1.9 4.362 3.15 9.233 3.71 14.614.58 5.382.86 10.857.86 16.424v88.174a5.213 5.213 0 0 1-5.21 5.219h-8.28a5.224 5.224 0 0 1-5.23-5.219v-28.982c0-1.679 1.71-2.819 3.26-2.183 1.2.493 1.78 1.868 1.26 3.057q-7.89 17.758-23.52 27.342c-11.05 6.774-24.29 10.16-39.73 10.16m2.43-17.676c9.81 0 18.39-1.717 25.73-5.15 7.33-3.433 13.24-8.118 17.71-14.057 4.48-6.032 7.39-12.805 8.72-20.321q1.71-7.237 1.86-15.868c.06-4.094.1-7.461.13-10.099.01-1.368 1.46-2.256 2.67-1.64 1.63.816 1.2 3.223-.59 3.446-5.46.677-11.24 1.354-17.36 2.031-8.29.927-16.48 1.994-24.58 3.201q-12.015 1.809-21.72 4.315a60 60 0 0 0-12.72 5.149c-4.1 2.134-7.48 5.011-10.15 8.63-2.57 3.619-3.86 8.119-3.86 13.501 0 4.36 1.1 8.582 3.29 12.665q3.435 6.124 10.86 10.16 7.575 4.037 20.01 4.037m111.73 13.502a5.22 5.22 0 0 1-5.22-5.22v-139.88c0-2.883 2.34-5.22 5.22-5.22h8.42c2.89 0 5.22 2.337 5.22 5.22v25.939c0 1.652-2.08 2.373-3.1 1.074a1.7 1.7 0 0 1-.25-1.696 51.4 51.4 0 0 1 6.36-11.33c2.75-3.804 5.76-6.912 9-9.325 4-3.433 8.66-6.03 14.01-7.794q7.995-2.784 16.14-3.201c3.86-.265 7.47-.153 10.85.333 2.38.342 4.02 2.464 4.02 4.861v8.457c0 3.391-3.2 5.882-6.58 5.552-3.74-.368-7.7-.32-11.87.144-6.66.742-12.8 3.339-18.43 7.794-5.14 3.897-9 8.582-11.57 14.057-2.58 5.382-4.29 11.134-5.15 17.258a127 127 0 0 0-1.28 17.955v69.802c0 2.882-2.34 5.22-5.22 5.22zm144.06 4.035q-27.135 0-44.73-11.413-15.12-9.898-20.13-26.496c-.86-2.825 1.12-5.629 4.03-6.103l11.45-1.858c2.64-.43 5.14 1.236 6.17 3.706 2.75 6.484 7.42 11.816 14.07 15.997 8.18 5.012 18.29 7.516 30.28 7.516 11.72 0 20.96-2.366 27.73-7.098 6.76-4.825 10.15-11.367 10.15-19.625 0-4.639-1.1-8.397-3.29-11.274-2.09-2.97-6.43-5.706-13-8.212-6.58-2.506-16.38-5.474-29.44-8.908-14.01-3.711-24.96-7.423-32.88-11.134q-11.85-5.568-16.86-12.805c-3.33-4.918-5-10.902-5-17.955 0-8.537 2.49-16.006 7.43-22.408q7.44-9.743 20.58-15.033c8.76-3.618 18.97-5.427 30.58-5.427 11.62 0 22.01 1.856 31.15 5.567 9.25 3.618 16.68 8.722 22.31 15.31 4.55 5.333 7.59 11.364 9.14 18.096.64 2.702-1.28 5.245-4.01 5.724l-11.37 1.991c-2.86.502-5.54-1.46-6.45-4.219q-3.21-9.643-12.33-15.746c-7.52-5.196-17.1-7.887-28.72-8.072-10.95-.279-19.87 1.762-26.72 6.123q-10.29 6.404-10.29 17.12c0 3.99 1.24 7.423 3.71 10.299 2.48 2.784 6.96 5.429 13.43 7.935 6.57 2.504 15.91 5.242 28.01 8.211 14.21 3.526 25.34 7.238 33.44 11.134 8.1 3.898 13.87 8.49 17.3 13.78 3.42 5.289 5.15 11.83 5.15 19.624 0 14.197-5.44 25.378-16.3 33.545-10.77 8.072-25.62 12.108-44.59 12.108m-685.03-4.034c-1.22 0-2.2-.96-2.2-2.141V105.252c0-1.183.98-2.142 2.2-2.142h77.25q3 0 6.72.279 3.855.138 7.71.835 16.155 2.366 27.3 10.995c7.53 5.66 13.19 12.805 17.01 21.435 3.9 8.63 5.86 18.187 5.86 28.672 0 10.392-1.96 19.903-5.86 28.532-3.91 8.63-9.63 15.821-17.15 21.574-7.43 5.66-16.48 9.278-27.16 10.857q-3.855.556-7.71.834-3.72.279-6.72.278h-56.25c-1.21 0-2.2.96-2.2 2.141v71.853c0 1.181-.98 2.141-2.19 2.141zm18.8-97.762c0 1.183.99 2.141 2.2 2.141h55.68c1.71 0 3.72-.091 6-.278q3.435-.278 6.72-.974c7.05-1.484 12.81-4.315 17.29-8.49 4.57-4.176 7.96-9.14 10.15-14.893a48.3 48.3 0 0 0 3.43-17.954c0-6.217-1.15-12.203-3.43-17.955-2.19-5.845-5.58-10.857-10.15-15.032-4.48-4.176-10.24-7.006-17.29-8.49a40 40 0 0 0-6.72-.835c-2.28-.186-4.29-.279-6-.279h-55.68c-1.21 0-2.2.959-2.2 2.142z" fill="#000"/></mask><g mask="url(#f)"><path d="M1005.67 303.536c-1.22 0-2.2-.96-2.2-2.141V105.252c0-1.183.98-2.142 2.2-2.142h77.25q3 0 6.72.279 3.855.138 7.71.835 16.155 2.366 27.3 10.995c7.53 5.66 13.19 12.805 17.01 21.435 3.9 8.63 5.86 18.187 5.86 28.672 0 10.392-1.96 19.903-5.86 28.532-3.91 8.63-9.63 15.821-17.15 21.574-7.43 5.66-16.48 9.278-27.16 10.857q-3.855.556-7.71.834-3.72.279-6.72.278h-56.25c-1.21 0-2.2.96-2.2 2.141v71.853c0 1.181-.98 2.141-2.19 2.141zm18.8-97.762c0 1.183.99 2.141 2.2 2.141h55.68c1.71 0 3.72-.091 6-.278q3.435-.278 6.72-.974c7.05-1.484 12.81-4.315 17.29-8.49 4.57-4.176 7.96-9.14 10.15-14.893a48.3 48.3 0 0 0 3.43-17.954c0-6.217-1.15-12.203-3.43-17.955-2.19-5.845-5.58-10.857-10.15-15.032-4.48-4.176-10.24-7.006-17.29-8.49a40 40 0 0 0-6.72-.835c-2.28-.186-4.29-.279-6-.279h-55.68c-1.21 0-2.2.959-2.2 2.142z" stroke="#0075FF" stroke-width=".369" stroke-linejoin="round"/></g><path d="M2460.36 314.233q-21.675 0-37.17-10.763c-10.33-7.273-18.33-17.082-23.97-29.426-5.56-12.343-8.33-26.265-8.33-41.768s2.77-29.425 8.33-41.769c5.64-12.342 13.64-22.056 23.97-29.137 10.33-7.175 22.68-10.764 37.03-10.764 14.64 0 26.94 3.541 36.89 10.621 9.95 7.081 17.46 16.794 22.54 29.138q7.74 18.516 7.74 41.911 0 23.11-7.74 41.768c-5.08 12.344-12.59 22.153-22.54 29.426-9.95 7.175-22.21 10.763-36.75 10.763m3.16-23.394c10.44 0 19-2.489 25.7-7.464 6.7-5.073 11.62-12.009 14.78-20.813 3.25-8.9 4.88-18.994 4.88-30.286 0-11.482-1.63-21.578-4.88-30.285q-4.74-13.206-14.64-20.526c-6.6-4.975-14.98-7.464-25.11-7.464-10.53 0-19.24 2.584-26.14 7.751-6.78 5.167-11.85 12.153-15.2 20.957-3.25 8.803-4.89 18.659-4.89 29.567 0 11.004 1.68 20.957 5.03 29.855 3.35 8.804 8.36 15.788 15.06 20.957q10.2 7.75 25.41 7.751m53.84 19.089a8.48 8.48 0 0 1-8.48-8.48V197.255c0-.793-.65-1.436-1.44-1.436s-1.43-.643-1.43-1.436V111.72c0-4.684 3.79-8.48 8.48-8.48h8.73c4.68 0 8.48 3.796 8.48 8.48v189.728c0 4.683-3.8 8.48-8.48 8.48zm-221.07 4.019c-9.95 0-18.52-1.579-25.69-4.738-7.08-3.157-12.97-7.368-17.66-12.631-4.68-5.262-8.37-11.099-11.05-17.51s-4.6-12.966-5.74-19.665c-1.05-6.698-1.59-12.966-1.59-18.803v-77.209c0-4.684 3.81-8.48 8.48-8.48h8.88c4.69 0 8.48 3.796 8.48 8.48v69.172c0 7.273.68 14.305 2.02 21.099 1.33 6.794 3.59 12.918 6.74 18.372 3.25 5.454 7.56 9.761 12.92 12.918 5.46 3.159 12.25 4.738 20.38 4.738 6.42 0 12.26-1.101 17.51-3.302 5.26-2.201 9.77-5.454 13.5-9.76q5.595-6.603 8.61-16.651c1.1-3.683 1.91-7.7 2.4-12.049.65-5.612 6.08-9.664 11.48-8.003 3.52 1.084 5.96 4.343 5.76 8.025q-.99 18.48-8.01 32.41c-5.36 10.812-12.98 19.137-22.83 24.974-9.76 5.742-21.3 8.613-34.59 8.613m60.15-4.02a8.48 8.48 0 0 1-8.48-8.48v-31.565c0-.793-.64-1.436-1.43-1.436a1.44 1.44 0 0 1-1.44-1.435v-103.62c0-4.684 3.8-8.48 8.48-8.48h8.73c4.69 0 8.48 3.796 8.48 8.48v138.056c0 4.684-3.79 8.48-8.48 8.48zm-213.91 4.306q-23.115 0-39.9-10.478c-11.09-6.985-19.66-16.649-25.69-28.993s-9.05-26.506-9.05-42.486c0-16.268 3.07-30.526 9.19-42.773 6.13-12.248 14.78-21.77 25.99-28.564 11.19-6.89 24.35-10.334 39.46-10.334 15.5 0 28.86 3.492 40.05 10.478 11.2 6.889 19.76 16.507 25.7 28.851 6.02 12.248 9.04 26.361 9.04 42.342 0 16.171-3.02 30.429-9.04 42.773-6.04 12.248-14.65 21.864-25.84 28.85-11.19 6.889-24.51 10.334-39.91 10.334m0-24.257q24.12 0 35.88-16.076c7.86-10.718 11.78-24.592 11.78-41.624 0-17.512-3.98-31.434-11.92-41.769-7.94-10.43-19.86-15.645-35.74-15.645-10.81 0-19.7 2.441-26.7 7.321-6.98 4.879-12.2 11.626-15.63 20.237-3.45 8.612-5.17 18.565-5.17 29.856 0 17.415 4.01 31.386 12.05 41.911s19.86 15.789 35.45 15.789m-114.68 19.951a8.48 8.48 0 0 1-8.48-8.48V107.413c0-4.683 3.8-8.48 8.48-8.48h8.59c4.68 0 8.48 3.797 8.48 8.48v194.034c0 4.684-3.8 8.48-8.48 8.48zm-122.32 4.306c-20.58 0-38.05-4.545-52.4-13.635-14.36-9.091-25.31-21.722-32.87-37.893q-11.19-24.257-11.19-56.121 0-31.866 11.19-56.122c7.56-16.172 18.51-28.803 32.87-37.893 14.35-9.09 31.82-13.636 52.4-13.636 23.91 0 43.58 6.077 58.99 18.229q20.055 15.736 29.34 40.884c1.64 4.448-1.1 9.201-5.68 10.416l-9.5 2.52c-4.51 1.195-9.09-1.491-10.73-5.845-4.43-11.673-11.08-21.158-19.94-28.454q-16.215-13.349-42.48-13.349c-15.41 0-28.24 3.493-38.47 10.478-10.25 6.985-17.95 16.746-23.11 29.281-5.18 12.439-7.8 26.937-7.9 43.491q-.15 24.687 7.62 43.49c5.15 12.44 12.91 22.2 23.24 29.281 10.34 6.985 23.21 10.477 38.62 10.477q26.265 0 42.48-13.347c8.86-7.371 15.51-16.861 19.93-28.472 1.65-4.347 6.23-7.026 10.73-5.833l9.51 2.522c4.58 1.217 7.31 5.977 5.67 10.426-6.19 16.687-15.96 30.312-29.33 40.876-15.41 12.154-35.08 18.229-58.99 18.229" fill="#0075FF" fill-opacity=".5"/><path fill-rule="evenodd" clip-rule="evenodd" d="M4.774 318.535h19.587c2.632 0 4.775 2.139 4.775 4.798v72.906c0 2.644-2.129 4.798-4.775 4.798H4.774c-2.631 0-4.774-2.139-4.774-4.798v-72.906c0-2.645 2.128-4.798 4.774-4.798m45.272-95.813h15.33c3.81 0 6.888 3.108 6.888 6.923v88.89c0 3.829-3.092 6.922-6.888 6.922h-15.33c-3.811 0-6.889-3.108-6.889-6.922v-88.89c0-3.829 3.092-6.923 6.889-6.923m-2.129 114.483h19.587c2.632 0 4.774 2.139 4.774 4.798v77.199c0 2.644-2.128 4.798-4.774 4.798H47.917c-2.632 0-4.774-2.139-4.774-4.798v-77.199c0-2.644 2.128-4.798 4.774-4.798m43.157-211.19h19.587c2.632 0 4.775 2.139 4.775 4.798v144.555c0 2.645-2.129 4.798-4.775 4.798H91.074c-2.631 0-4.774-2.139-4.774-4.798V130.813c0-2.645 2.128-4.798 4.774-4.798m0 167.721h19.587c2.632 0 4.775 2.139 4.775 4.798v44.827c0 2.645-2.129 4.798-4.775 4.798H91.074c-2.631 0-4.774-2.139-4.774-4.798v-44.827c0-2.645 2.128-4.798 4.774-4.798m2.129 90.956h15.33c3.811 0 6.888 3.108 6.888 6.922v25.434c0 3.831-3.092 6.923-6.888 6.923h-15.33c-3.811 0-6.889-3.107-6.889-6.923v-25.434c0-3.829 3.092-6.922 6.889-6.922M134.23 57.458h19.587c2.633 0 4.775 2.14 4.775 4.798v102.243c0 2.644-2.128 4.798-4.775 4.798H134.23c-2.631 0-4.774-2.139-4.774-4.798V62.227c0-2.644 2.128-4.798 4.774-4.798zm0 124.281h19.601c2.633 0 4.761 2.139 4.761 4.783V325.11c0 2.645-2.128 4.784-4.761 4.784H134.23c-2.631 0-4.76-2.139-4.76-4.784V186.522c0-2.644 2.129-4.783 4.76-4.783m43.157-145.38h19.588c2.631 0 4.773 2.14 4.773 4.798v68.181c0 2.645-2.127 4.798-4.773 4.798h-19.588c-2.631 0-4.773-2.139-4.773-4.798V41.143c0-2.645 2.127-4.798 4.773-4.798zm0 89.757h19.588c2.631 0 4.773 2.139 4.773 4.798v98.096c0 2.644-2.127 4.798-4.773 4.798h-19.588c-2.631 0-4.773-2.139-4.773-4.798v-98.096c0-2.645 2.127-4.798 4.773-4.798m0 121.81h19.588c2.631 0 4.773 2.139 4.773 4.797v88.139c0 2.645-2.127 4.797-4.773 4.797h-19.588c-2.631 0-4.773-2.137-4.773-4.797v-88.139c0-2.645 2.127-4.797 4.773-4.797m45.257-228.677h15.331c3.811 0 6.888 3.107 6.888 6.922V154.18c0 3.831-3.091 6.923-6.888 6.923h-15.331c-3.811 0-6.888-3.107-6.888-6.923V26.171c0-3.83 3.091-6.922 6.888-6.922m0 156.001h15.331c3.811 0 6.888 3.107 6.888 6.923v29.712c0 3.829-3.091 6.921-6.888 6.921h-15.331c-3.811 0-6.888-3.107-6.888-6.921v-29.712c0-3.829 3.091-6.923 6.888-6.923m0 53.442h15.317c3.811 0 6.888 3.106 6.888 6.921v132.288c0 3.829-3.092 6.921-6.888 6.921h-15.317c-3.811 0-6.888-3.107-6.888-6.921V235.613c0-3.829 3.091-6.921 6.888-6.921M265.803 2.153h15.33c3.811 0 6.888 3.107 6.888 6.922V34.51c0 3.83-3.092 6.922-6.888 6.922h-15.33c-3.811 0-6.89-3.107-6.89-6.922V9.09c0-3.83 3.093-6.922 6.89-6.922zm0 51.273h15.33c3.811 0 6.888 3.107 6.888 6.922v196.393c0 3.83-3.092 6.923-6.888 6.923h-15.33c-3.811 0-6.89-3.108-6.89-6.923V60.363c0-3.83 3.093-6.922 6.89-6.922zm0 224.384h15.33c3.811 0 6.888 3.108 6.888 6.923v53.21c0 3.829-3.092 6.922-6.888 6.922h-15.33c-3.811 0-6.89-3.108-6.89-6.922v-53.21c0-3.829 3.093-6.923 6.89-6.923m0 81.217h15.33c3.811 0 6.888 3.107 6.888 6.923v33.988c0 3.831-3.092 6.923-6.888 6.923h-15.33c-3.811 0-6.89-3.107-6.89-6.923V365.95c0-3.831 3.093-6.923 6.89-6.923m43.156-10.694h15.33c3.811 0 6.89 3.108 6.89 6.922v61.779c0 3.83-3.093 6.922-6.89 6.922h-15.33c-3.81 0-6.888-3.106-6.888-6.922v-61.779c0-3.829 3.092-6.922 6.888-6.922m0-213.691h15.33c3.811 0 6.89 3.107 6.89 6.923v151.506c0 3.83-3.093 6.923-6.89 6.923h-15.33c-3.81 0-6.888-3.108-6.888-6.923V141.565c0-3.83 3.092-6.923 6.888-6.923m0-134.642h15.33c3.811 0 6.89 3.107 6.89 6.922v106.636c0 3.83-3.093 6.922-6.89 6.922h-15.33c-3.81 0-6.888-3.107-6.888-6.922V6.937c0-3.83 3.092-6.923 6.888-6.923zm43.157 380.386h15.331c3.811 0 6.888 3.107 6.888 6.923v29.712c0 3.829-3.091 6.921-6.888 6.921h-15.331c-3.811 0-6.888-3.107-6.888-6.921v-29.712c0-3.831 3.092-6.923 6.888-6.923m0-378.247h15.331c3.811 0 6.888 3.107 6.888 6.922v181.436c0 3.829-3.091 6.922-6.888 6.922h-15.331c-3.811 0-6.888-3.108-6.888-6.922V9.075c0-3.83 3.092-6.922 6.888-6.922zm0 209.427h15.331c3.811 0 6.888 3.108 6.888 6.922v74.583c0 3.83-3.091 6.923-6.888 6.923h-15.331c-3.811 0-6.888-3.108-6.888-6.923v-74.583c0-3.829 3.092-6.922 6.888-6.922m43.129-200.872h15.33c3.811 0 6.888 3.107 6.888 6.922v51.07c0 3.83-3.092 6.923-6.888 6.923h-15.33c-3.811 0-6.888-3.107-6.888-6.922V17.63c0-3.83 3.092-6.923 6.888-6.923zm0 79.063h15.33c3.811 0 6.888 3.107 6.888 6.922v196.392c0 3.83-3.092 6.923-6.888 6.923h-15.33c-3.811 0-6.888-3.108-6.888-6.923V96.693c0-3.83 3.092-6.922 6.888-6.922zm43.142-74.785h15.33c3.812 0 6.89 3.107 6.89 6.922v113.052c0 3.829-3.092 6.922-6.89 6.922h-15.33c-3.81 0-6.888-3.107-6.888-6.922V21.908c0-3.83 3.092-6.922 6.888-6.922zm0 141.044h15.33c3.812 0 6.89 3.106 6.89 6.922v93.833c0 3.829-3.092 6.921-6.89 6.921h-15.33c-3.81 0-6.888-3.107-6.888-6.921v-93.833c0-3.83 3.092-6.922 6.888-6.922m0 121.794h15.33c3.812 0 6.89 3.108 6.89 6.923v42.531c0 3.829-3.092 6.921-6.89 6.921h-15.33c-3.81 0-6.888-3.107-6.888-6.921v-42.531c0-3.829 3.092-6.923 6.888-6.923m42.885-256.422h15.33c3.811 0 6.888 3.107 6.888 6.922v175.02c0 3.829-3.092 6.923-6.888 6.923h-15.33c-3.811 0-6.889-3.108-6.889-6.923V28.325c0-3.83 3.093-6.923 6.889-6.923zm0 203.011h15.33c3.811 0 6.888 3.107 6.888 6.923v138.689c0 3.829-3.092 6.921-6.888 6.921h-15.33c-3.811 0-6.889-3.107-6.889-6.921V231.322c0-3.831 3.093-6.923 6.889-6.923m42.855-209.427h15.329c3.811 0 6.89 3.107 6.89 6.922v74.583c0 3.829-3.093 6.922-6.89 6.922h-15.329c-3.811 0-6.888-3.107-6.888-6.922V21.908c0-3.83 3.091-6.922 6.888-6.922zm0 102.574h15.329c3.811 0 6.89 3.108 6.89 6.923V342.25c0 3.829-3.093 6.922-6.89 6.922h-15.329c-3.811 0-6.888-3.108-6.888-6.922V124.483c0-3.829 3.091-6.922 6.888-6.922zm0 245.759h15.329c3.811 0 6.89 3.107 6.89 6.921v40.392c0 3.83-3.093 6.923-6.89 6.923h-15.329c-3.811 0-6.888-3.108-6.888-6.923v-40.392c0-3.829 3.091-6.921 6.888-6.921m43.143-12.819h15.33c3.811 0 6.888 3.107 6.888 6.923v59.625c0 3.83-3.092 6.922-6.888 6.922h-15.33c-3.811 0-6.889-3.106-6.889-6.922v-59.625c0-3.829 3.091-6.923 6.889-6.923m0-181.638h15.33c3.811 0 6.888 3.108 6.888 6.923v40.405c0 3.83-3.092 6.922-6.888 6.922h-15.33c-3.811 0-6.889-3.106-6.889-6.922v-40.405c0-3.83 3.091-6.923 6.889-6.923m0-156h15.33c3.811 0 6.888 3.106 6.888 6.921v128.01c0 3.829-3.092 6.921-6.888 6.921h-15.33c-3.811 0-6.889-3.106-6.889-6.921V19.769c0-3.83 3.091-6.922 6.889-6.922m43.732 10.693h15.33c3.811 0 6.888 3.107 6.888 6.922v162.201c0 3.83-3.092 6.922-6.888 6.922h-15.33c-3.811 0-6.888-3.106-6.888-6.922v-162.2c0-3.83 3.092-6.923 6.888-6.923m0 361.151h15.33c3.811 0 6.888 3.108 6.888 6.922v25.434c0 3.831-3.092 6.923-6.888 6.923h-15.33c-3.811 0-6.888-3.107-6.888-6.923v-25.434c0-3.829 3.092-6.922 6.888-6.922M653.54 36.374h15.331c3.811 0 6.888 3.107 6.888 6.922v40.406c0 3.83-3.091 6.922-6.888 6.922H653.54c-3.811 0-6.888-3.107-6.888-6.922V43.296c0-3.83 3.092-6.922 6.888-6.922m0 68.369h15.331c3.811 0 6.888 3.107 6.888 6.922v76.722c0 3.829-3.091 6.921-6.888 6.921H653.54c-3.811 0-6.888-3.106-6.888-6.921v-76.722c0-3.83 3.092-6.922 6.888-6.922m43.69-57.704h15.33c3.811 0 6.888 3.107 6.888 6.922v25.434c0 3.83-3.091 6.922-6.888 6.922h-15.33c-3.81 0-6.889-3.107-6.889-6.922V53.961c0-3.83 3.093-6.922 6.889-6.922m0 51.287h15.33c3.811 0 6.888 3.107 6.888 6.923v23.295c0 3.83-3.091 6.922-6.888 6.922h-15.33c-3.81 0-6.889-3.107-6.889-6.922v-23.295c0-3.83 3.093-6.923 6.889-6.923m0 49.149h15.33c3.811 0 6.888 3.108 6.888 6.922v38.253c0 3.83-3.091 6.921-6.888 6.921h-15.33c-3.81 0-6.889-3.106-6.889-6.921v-38.253c0-3.829 3.093-6.922 6.889-6.922m43.143-87.603h15.329c3.811 0 6.89 3.107 6.89 6.922V199.08c0 3.829-3.093 6.923-6.89 6.923h-15.329c-3.811 0-6.888-3.107-6.888-6.923V66.78c0-3.83 3.091-6.923 6.888-6.923zm42.87 38.454h15.33c3.81 0 6.888 3.107 6.888 6.923v89.539c0 3.83-3.092 6.922-6.888 6.922h-15.33c-3.812 0-6.89-3.106-6.89-6.922v-89.539c0-3.83 3.092-6.923 6.89-6.923m42.538 49.149h15.329c3.811 0 6.89 3.108 6.89 6.922v25.434c0 3.829-3.093 6.923-6.89 6.923h-15.329c-3.811 0-6.888-3.108-6.888-6.923v-25.434c0-3.829 3.091-6.922 6.888-6.922" fill="url(#g)"/><path fill-rule="evenodd" clip-rule="evenodd" d="M4.774 318.535h19.587c2.632 0 4.775 2.139 4.775 4.798v72.906c0 2.644-2.129 4.798-4.775 4.798H4.774c-2.631 0-4.774-2.139-4.774-4.798v-72.906c0-2.645 2.128-4.798 4.774-4.798m45.272-95.813h15.33c3.81 0 6.888 3.108 6.888 6.923v88.89c0 3.829-3.092 6.922-6.888 6.922h-15.33c-3.811 0-6.889-3.108-6.889-6.922v-88.89c0-3.829 3.092-6.923 6.889-6.923m-2.129 114.483h19.587c2.632 0 4.774 2.139 4.774 4.798v77.199c0 2.644-2.128 4.798-4.774 4.798H47.917c-2.632 0-4.774-2.139-4.774-4.798v-77.199c0-2.644 2.128-4.798 4.774-4.798m43.157-211.19h19.587c2.632 0 4.775 2.139 4.775 4.798v144.555c0 2.645-2.129 4.798-4.775 4.798H91.074c-2.631 0-4.774-2.139-4.774-4.798V130.813c0-2.645 2.128-4.798 4.774-4.798m0 167.721h19.587c2.632 0 4.775 2.139 4.775 4.798v44.827c0 2.645-2.129 4.798-4.775 4.798H91.074c-2.631 0-4.774-2.139-4.774-4.798v-44.827c0-2.645 2.128-4.798 4.774-4.798m2.129 90.956h15.33c3.811 0 6.888 3.108 6.888 6.922v25.434c0 3.831-3.092 6.923-6.888 6.923h-15.33c-3.811 0-6.889-3.107-6.889-6.923v-25.434c0-3.829 3.092-6.922 6.889-6.922M134.23 57.458h19.587c2.633 0 4.775 2.14 4.775 4.798v102.243c0 2.644-2.128 4.798-4.775 4.798H134.23c-2.631 0-4.774-2.139-4.774-4.798V62.227c0-2.644 2.128-4.798 4.774-4.798zm0 124.281h19.601c2.633 0 4.761 2.139 4.761 4.783V325.11c0 2.645-2.128 4.784-4.761 4.784H134.23c-2.631 0-4.76-2.139-4.76-4.784V186.522c0-2.644 2.129-4.783 4.76-4.783m43.157-145.38h19.588c2.631 0 4.773 2.14 4.773 4.798v68.181c0 2.645-2.127 4.798-4.773 4.798h-19.588c-2.631 0-4.773-2.139-4.773-4.798V41.143c0-2.645 2.127-4.798 4.773-4.798zm0 89.757h19.588c2.631 0 4.773 2.139 4.773 4.798v98.096c0 2.644-2.127 4.798-4.773 4.798h-19.588c-2.631 0-4.773-2.139-4.773-4.798v-98.096c0-2.645 2.127-4.798 4.773-4.798m0 121.81h19.588c2.631 0 4.773 2.139 4.773 4.797v88.139c0 2.645-2.127 4.797-4.773 4.797h-19.588c-2.631 0-4.773-2.137-4.773-4.797v-88.139c0-2.645 2.127-4.797 4.773-4.797m45.257-228.677h15.331c3.811 0 6.888 3.107 6.888 6.922V154.18c0 3.831-3.091 6.923-6.888 6.923h-15.331c-3.811 0-6.888-3.107-6.888-6.923V26.171c0-3.83 3.091-6.922 6.888-6.922m0 156.001h15.331c3.811 0 6.888 3.107 6.888 6.923v29.712c0 3.829-3.091 6.921-6.888 6.921h-15.331c-3.811 0-6.888-3.107-6.888-6.921v-29.712c0-3.829 3.091-6.923 6.888-6.923m0 53.442h15.317c3.811 0 6.888 3.106 6.888 6.921v132.288c0 3.829-3.092 6.921-6.888 6.921h-15.317c-3.811 0-6.888-3.107-6.888-6.921V235.613c0-3.829 3.091-6.921 6.888-6.921M265.803 2.153h15.33c3.811 0 6.888 3.107 6.888 6.922V34.51c0 3.83-3.092 6.922-6.888 6.922h-15.33c-3.811 0-6.89-3.107-6.89-6.922V9.09c0-3.83 3.093-6.922 6.89-6.922zm0 51.273h15.33c3.811 0 6.888 3.107 6.888 6.922v196.393c0 3.83-3.092 6.923-6.888 6.923h-15.33c-3.811 0-6.89-3.108-6.89-6.923V60.363c0-3.83 3.093-6.922 6.89-6.922zm0 224.384h15.33c3.811 0 6.888 3.108 6.888 6.923v53.21c0 3.829-3.092 6.922-6.888 6.922h-15.33c-3.811 0-6.89-3.108-6.89-6.922v-53.21c0-3.829 3.093-6.923 6.89-6.923m0 81.217h15.33c3.811 0 6.888 3.107 6.888 6.923v33.988c0 3.831-3.092 6.923-6.888 6.923h-15.33c-3.811 0-6.89-3.107-6.89-6.923V365.95c0-3.831 3.093-6.923 6.89-6.923m43.156-10.694h15.33c3.811 0 6.89 3.108 6.89 6.922v61.779c0 3.83-3.093 6.922-6.89 6.922h-15.33c-3.81 0-6.888-3.106-6.888-6.922v-61.779c0-3.829 3.092-6.922 6.888-6.922m0-213.691h15.33c3.811 0 6.89 3.107 6.89 6.923v151.506c0 3.83-3.093 6.923-6.89 6.923h-15.33c-3.81 0-6.888-3.108-6.888-6.923V141.565c0-3.83 3.092-6.923 6.888-6.923m0-134.642h15.33c3.811 0 6.89 3.107 6.89 6.922v106.636c0 3.83-3.093 6.922-6.89 6.922h-15.33c-3.81 0-6.888-3.107-6.888-6.922V6.937c0-3.83 3.092-6.923 6.888-6.923zm43.157 380.386h15.331c3.811 0 6.888 3.107 6.888 6.923v29.712c0 3.829-3.091 6.921-6.888 6.921h-15.331c-3.811 0-6.888-3.107-6.888-6.921v-29.712c0-3.831 3.092-6.923 6.888-6.923m0-378.247h15.331c3.811 0 6.888 3.107 6.888 6.922v181.436c0 3.829-3.091 6.922-6.888 6.922h-15.331c-3.811 0-6.888-3.108-6.888-6.922V9.075c0-3.83 3.092-6.922 6.888-6.922zm0 209.427h15.331c3.811 0 6.888 3.108 6.888 6.922v74.583c0 3.83-3.091 6.923-6.888 6.923h-15.331c-3.811 0-6.888-3.108-6.888-6.923v-74.583c0-3.829 3.092-6.922 6.888-6.922m43.129-200.872h15.33c3.811 0 6.888 3.107 6.888 6.922v51.07c0 3.83-3.092 6.923-6.888 6.923h-15.33c-3.811 0-6.888-3.107-6.888-6.922V17.63c0-3.83 3.092-6.923 6.888-6.923zm0 79.063h15.33c3.811 0 6.888 3.107 6.888 6.922v196.392c0 3.83-3.092 6.923-6.888 6.923h-15.33c-3.811 0-6.888-3.108-6.888-6.923V96.693c0-3.83 3.092-6.922 6.888-6.922zm43.142-74.785h15.33c3.812 0 6.89 3.107 6.89 6.922v113.052c0 3.829-3.092 6.922-6.89 6.922h-15.33c-3.81 0-6.888-3.107-6.888-6.922V21.908c0-3.83 3.092-6.922 6.888-6.922zm0 141.044h15.33c3.812 0 6.89 3.106 6.89 6.922v93.833c0 3.829-3.092 6.921-6.89 6.921h-15.33c-3.81 0-6.888-3.107-6.888-6.921v-93.833c0-3.83 3.092-6.922 6.888-6.922m0 121.794h15.33c3.812 0 6.89 3.108 6.89 6.923v42.531c0 3.829-3.092 6.921-6.89 6.921h-15.33c-3.81 0-6.888-3.107-6.888-6.921v-42.531c0-3.829 3.092-6.923 6.888-6.923m42.885-256.422h15.33c3.811 0 6.888 3.107 6.888 6.922v175.02c0 3.829-3.092 6.923-6.888 6.923h-15.33c-3.811 0-6.889-3.108-6.889-6.923V28.325c0-3.83 3.093-6.923 6.889-6.923zm0 203.011h15.33c3.811 0 6.888 3.107 6.888 6.923v138.689c0 3.829-3.092 6.921-6.888 6.921h-15.33c-3.811 0-6.889-3.107-6.889-6.921V231.322c0-3.831 3.093-6.923 6.889-6.923m42.855-209.427h15.329c3.811 0 6.89 3.107 6.89 6.922v74.583c0 3.829-3.093 6.922-6.89 6.922h-15.329c-3.811 0-6.888-3.107-6.888-6.922V21.908c0-3.83 3.091-6.922 6.888-6.922zm0 102.574h15.329c3.811 0 6.89 3.108 6.89 6.923V342.25c0 3.829-3.093 6.922-6.89 6.922h-15.329c-3.811 0-6.888-3.108-6.888-6.922V124.483c0-3.829 3.091-6.922 6.888-6.922zm0 245.759h15.329c3.811 0 6.89 3.107 6.89 6.921v40.392c0 3.83-3.093 6.923-6.89 6.923h-15.329c-3.811 0-6.888-3.108-6.888-6.923v-40.392c0-3.829 3.091-6.921 6.888-6.921m43.143-12.819h15.33c3.811 0 6.888 3.107 6.888 6.923v59.625c0 3.83-3.092 6.922-6.888 6.922h-15.33c-3.811 0-6.889-3.106-6.889-6.922v-59.625c0-3.829 3.091-6.923 6.889-6.923m0-181.638h15.33c3.811 0 6.888 3.108 6.888 6.923v40.405c0 3.83-3.092 6.922-6.888 6.922h-15.33c-3.811 0-6.889-3.106-6.889-6.922v-40.405c0-3.83 3.091-6.923 6.889-6.923m0-156h15.33c3.811 0 6.888 3.106 6.888 6.921v128.01c0 3.829-3.092 6.921-6.888 6.921h-15.33c-3.811 0-6.889-3.106-6.889-6.921V19.769c0-3.83 3.091-6.922 6.889-6.922m43.732 10.693h15.33c3.811 0 6.888 3.107 6.888 6.922v162.201c0 3.83-3.092 6.922-6.888 6.922h-15.33c-3.811 0-6.888-3.106-6.888-6.922v-162.2c0-3.83 3.092-6.923 6.888-6.923m0 361.151h15.33c3.811 0 6.888 3.108 6.888 6.922v25.434c0 3.831-3.092 6.923-6.888 6.923h-15.33c-3.811 0-6.888-3.107-6.888-6.923v-25.434c0-3.829 3.092-6.922 6.888-6.922M653.54 36.374h15.331c3.811 0 6.888 3.107 6.888 6.922v40.406c0 3.83-3.091 6.922-6.888 6.922H653.54c-3.811 0-6.888-3.107-6.888-6.922V43.296c0-3.83 3.092-6.922 6.888-6.922m0 68.369h15.331c3.811 0 6.888 3.107 6.888 6.922v76.722c0 3.829-3.091 6.921-6.888 6.921H653.54c-3.811 0-6.888-3.106-6.888-6.921v-76.722c0-3.83 3.092-6.922 6.888-6.922m43.69-57.704h15.33c3.811 0 6.888 3.107 6.888 6.922v25.434c0 3.83-3.091 6.922-6.888 6.922h-15.33c-3.81 0-6.889-3.107-6.889-6.922V53.961c0-3.83 3.093-6.922 6.889-6.922m0 51.287h15.33c3.811 0 6.888 3.107 6.888 6.923v23.295c0 3.83-3.091 6.922-6.888 6.922h-15.33c-3.81 0-6.889-3.107-6.889-6.922v-23.295c0-3.83 3.093-6.923 6.889-6.923m0 49.149h15.33c3.811 0 6.888 3.108 6.888 6.922v38.253c0 3.83-3.091 6.921-6.888 6.921h-15.33c-3.81 0-6.889-3.106-6.889-6.921v-38.253c0-3.829 3.093-6.922 6.889-6.922m43.143-87.603h15.329c3.811 0 6.89 3.107 6.89 6.922V199.08c0 3.829-3.093 6.923-6.89 6.923h-15.329c-3.811 0-6.888-3.107-6.888-6.923V66.78c0-3.83 3.091-6.923 6.888-6.923zm42.87 38.454h15.33c3.81 0 6.888 3.107 6.888 6.923v89.539c0 3.83-3.092 6.922-6.888 6.922h-15.33c-3.812 0-6.89-3.106-6.89-6.922v-89.539c0-3.83 3.092-6.923 6.89-6.923m42.538 49.149h15.329c3.811 0 6.89 3.108 6.89 6.922v25.434c0 3.829-3.093 6.923-6.89 6.923h-15.329c-3.811 0-6.888-3.108-6.888-6.923v-25.434c0-3.829 3.091-6.922 6.888-6.922" fill="url(#h)"/><defs><radialGradient id="g" cx="0" cy="0" r="1" gradientUnits="userSpaceOnUse" gradientTransform="matrix(-791.23225 335.84187 -686.37306 -1617.07206 727.932 93.251)"><stop stop-color="#0075FF"/><stop offset="1" stop-color="#0075FF" stop-opacity="0"/></radialGradient><radialGradient id="h" cx="0" cy="0" r="1" gradientUnits="userSpaceOnUse" gradientTransform="matrix(-791.23225 335.84187 -686.37306 -1617.07206 727.932 93.251)"><stop stop-color="#0075FF"/><stop offset="1" stop-color="#0075FF" stop-opacity="0"/></radialGradient></defs></svg>