<svg xmlns="http://www.w3.org/2000/svg" width="1072.624" height="287.547" viewBox="0 0 283.795 76.079">
  <g style="stroke:#70b0ff;stroke-width:.239539;stroke-linecap:round;stroke-linejoin:round;stroke-miterlimit:4;stroke-dasharray:none;stroke-opacity:1" transform="translate(-26.594 5.628) scale(1.10455)"/>
  <g style="stroke:#70b0ff;stroke-width:.239539;stroke-linecap:round;stroke-linejoin:round;stroke-miterlimit:4;stroke-dasharray:none;stroke-opacity:1" transform="translate(-26.594 5.628) scale(1.10455)"/>
  <g style="stroke:#70b0ff;stroke-width:1.12805;stroke-linecap:round;stroke-linejoin:round;stroke-miterlimit:4;stroke-dasharray:none;stroke-opacity:1">
    <g style="stroke:#70b0ff;stroke-width:1.12805;stroke-linecap:round;stroke-linejoin:round;stroke-miterlimit:4;stroke-dasharray:none;stroke-opacity:1" transform="matrix(.23455 0 0 .23455 681.05 327.806)"/>
    <g style="stroke:#70b0ff;stroke-width:.241155;stroke-linecap:round;stroke-linejoin:round;stroke-miterlimit:4;stroke-dasharray:none;stroke-opacity:1" transform="translate(-37.561 5.055) scale(1.09715)"/>
    <g style="stroke:#70b0ff;stroke-width:.241155;stroke-linecap:round;stroke-linejoin:round;stroke-miterlimit:4;stroke-dasharray:none;stroke-opacity:1" transform="translate(-49.839 5.055) scale(1.09715)"/>
    <g style="stroke:#70b0ff;stroke-width:.241155;stroke-linecap:round;stroke-linejoin:round;stroke-miterlimit:4;stroke-dasharray:none;stroke-opacity:1" transform="translate(-62.117 5.055) scale(1.09715)"/>
  </g>
  <g style="stroke:#70b0ff;stroke-width:3.19969;stroke-linecap:round;stroke-linejoin:round;stroke-miterlimit:4;stroke-dasharray:none;stroke-opacity:1" transform="translate(176.845 228.279) scale(.08269)"/>
  <g style="stroke:#70b0ff;stroke-width:1.47511;stroke-linecap:round;stroke-linejoin:round;stroke-miterlimit:4;stroke-dasharray:none;stroke-opacity:.2">
    <g style="stroke:#70b0ff;stroke-width:1.49158;stroke-linecap:round;stroke-linejoin:round;stroke-miterlimit:4;stroke-dasharray:none;stroke-opacity:.2" transform="matrix(.17738 0 0 .17738 561.566 374.987)"/>
    <g style="stroke:#70b0ff;stroke-width:1.47511;stroke-linecap:round;stroke-linejoin:round;stroke-miterlimit:4;stroke-dasharray:none;stroke-opacity:.2" transform="matrix(.17937 0 0 .17937 497.252 364.426)"/>
    <g style="stroke:#70b0ff;stroke-width:1.47511;stroke-linecap:round;stroke-linejoin:round;stroke-miterlimit:4;stroke-dasharray:none;stroke-opacity:.2" transform="matrix(.17937 0 0 .17937 411.141 393.966)"/>
    <path d="m-397.44 328.12-1.053 6.005-.568 8.504 1.698 6.805 2.27 5.102v6.237l3.402 1.7h2.833l1.703 3.97 2.833 3.966h6.239l3.968-1.132v-1.7l-1.135-1.702 2.265-6.802-.562-5.67 3.968-6.237 1.698-7.372 3.401-1.132.568-3.402-2.266-6.802-1.56-3.122m-21.12 37.137-.568-5.102-3.987-5.69m23.834-30.028-5.103-4.534m6.801 22.675-6.234-6.234-11.905-7.372m362.186-.797-.823 3.565.803 3.608-6.415 8.018-4.007 6.415-1.204 6.011.803 4.41-5.211 5.213-2.007 6.814v6.014l4.412 3.607 3.207.803 2.806 2.406 4.007-.401 2.007-2.005 4.408-1.204 6.014-.4 4.01 1.203 2.405 2.807 4.006.4 3.208-3.207 4.411-1.603 3.61-4.41 1.601-4.01-1.204-4.81-3.204-6.414-2.408-3.608v-6.415l-1.602-5.612-2.003-4.41-3.61-4.009 1.603-2.807v-3.99m50.256 9.323-1.799 4.143-.794 4.756 1.315 5.026-2.505 2.11-.79 3.965.52 3.442-2.109 2.11v3.964l1.982 5.154 4.363 2.774 5.153 1.19 5.947-.396 8.326-1.983 5.947 1.586 5.947-.792 4.363-1.982 1.187-3.57-1.584-3.963-1.985-1.982.794-3.173-3.172-3.568-3.045-1.316-.127-4.631-2.775-2.776-5.153-.792-4.757.792-6.741.397-2.775-2.774-.397-3.173 1.981-1.983 2.775 1.588 1.407-.127M1.401 354.613l-3.208 10.023-4.006 5.612-4.412 2.406-3.605-2.807v-4.812l6.013-9.22 1.602-5.612-1.204-5.211m-27.258 12.426 4.408 7.617 6.816 6.816 4.81-.803v-4.408l-5.211-10.022-2.806-5.614 3.207-8.016m91.137 20.587 3.924-1.121 5.326-.842 2.722.506m-27.673 3.418 3.643-1.68 4.767-1.123 4.486.561 2.805.28 3.924 1.122h3.083m-32.7-4.56 2.423 3.439 4.486 1.682 3.083.28 2.804 1.682 4.205 2.243 3.925 2.243 2.864 1.116m8.325-18.633-4.182.136-4.764 1.121-4.767 1.402s-3.644.28-4.205.28c-.562 0-5.326-.842-5.326-.842l-3.085-1.961-3.01-3.706v0m26.96-11.892v0l-1.485-.393-.981 1.122-2.803.14-2.803-.561-1.824-.701m-8.342.788-1.584-3.17m-495.524 1.33.095 5.55m501.855 47.466-8.986 20.43zm-366.32 18.995-17.424 12.832zm262.572-11.498-.281 20.138zm-77.822 11.962-1.061 16.472-4.508-1.311zm-396.206-10.598 47.629-18.016-14.667 32.33zm294.784 5.924-6.008 20.839-2.823-2.702-4.92.712zm-153.143 13.595 69.815-9.385 39.786-13.527-111.362-2.161zM33.132 340.79l.935-9.559L5.854 343.26zm71.714 69.512 17.399-16.146-5.457-20.326-25.456 21.935zM4.272 415.717l45.073-4.99 55.5-.425-13.513-14.537-33.001-5.468-65.635-.013zm-6.627-13.947 6.627 13.947-11.314-1.047zm-80.876 16.67 37.533-.508 38.656-3.262 4.687-12.9-4.95-11.487-38.112 7.51-41.259 2.303zm-95.437 5.366 49.86 1.11 5.57-15.16-1.062 16.472 10.294-.981 30.775-6.807-3.445-18.344-42.125 1.757-3.885 9.448-2.219-9.045-44.187.83zm-95.305-5.428 35.561 5.553 13.75-18.85-6.007 20.84 52.001-2.115-.426-20.72-89.109-7.321zm-103.83.3 52.39 3.446 51.44-3.746 5.772-22.613-39.788 13.527zm-1.762-25.075 1.761 25.074-27.202-21.082zm-57.523 20.28 27.91 7.486 31.374-2.692-27.202-21.082-40.862-7.972zm-8.78-24.26-25.948-8.482-14.667 32.33 23.017 1.983 26.378-1.57zm67.13-102.193-1.203.801-.402 1.604-2.926 2.554-3.605 4.41-3.61 6.415-3.608 7.215-2.003 10.023-1.345 7.668-46.18 9.162 16.187 8.342-16.091-2.792-5.834-2.027-31.906 11.538-40.035 5.439-17.326 17.878 66.81 5.481 25.947 8.482 40.862 7.972 25.441-3.991 111.364 2.161 89.108 7.32 44.188-.828 2.22 9.044 3.884-9.448 42.125-1.756 41.26-2.303 38.111-7.51 65.636.013 33 5.468 25.457-21.935-16.431-18.172-10.986-4.863-31.827-10.086h3.48s3.168 0 4.36.395c1.19.396 4.363 0 4.363 0l1.98-2.378-.793-3.57-2.775-1.585-.397-2.379-1.584-.395-5.154-1.587-3.569-.396-4.756.793-3.57 2.775-2.774 3.568-.31.743-.905-.316-12.008 4.413-27.278 2.47 28.213-12.029-38.278-3.86v-2.424l-1.201-2.005v-2.806s-1.204-1.606-1.606-2.406c-.1-.2-.275-.275-.482-.275-.62 0-1.52.676-1.52.676h-6.416l-4.81.803-.802-1.204-3.207 1.204-.402 2.405 1.204 2.404-.38 1.648-30.784-3.105-100.52-2.65-110.48 2.944-102.121 2.756-1.84-3.682-1.703-8.505.567-6.805 6.802-6.801 1.703-3.403-2.834-2.834-2.838-1.133-2.265-2.834-6.992-1.511zM53.488 339.12l.77.44-.897-.313zm-592.114 36.539 66.809 5.481-47.629 18.017-16.156-4.44zm229.768-9.034v-3.372l51.804-17.473-.307 3.372zm-31.398 10.758v-3.374l22.99-7.968v3.372zm77.098-39.39 2.756 1.839-2.145 4.905m-5.823-5.214 2.757 1.84-2.146 4.905m1.99-7.508 2.757 1.84-2.145 4.904m12.326-13.48-91.905 29.48v9.64l2.168.65-2.168 2.168v4.883l31.156-10.58.763-3.622 1.655 2.932 58.331-19.939v-3.585l-1.951-.867 1.951-2.384zm12.423 34.6v-3.371l51.804-17.473-.307 3.372zm-31.398 10.759v-3.374l22.99-7.968v3.372zm77.098-39.39 2.756 1.839-2.145 4.905m-5.823-5.214 2.757 1.84-2.146 4.905m1.99-7.508 2.757 1.84-2.145 4.904m12.326-13.48-91.905 29.48v9.64l2.169.65-2.169 2.168v4.883l31.156-10.58.764-3.622 1.654 2.932 58.331-19.939v-3.585l-1.951-.867 1.951-2.384zm12.424 34.6v-3.371l51.803-17.473-.307 3.372zm-31.399 10.759v-3.374l22.99-7.968v3.372zm77.098-39.39 2.756 1.839-2.145 4.905m-5.823-5.214 2.757 1.84-2.146 4.905m1.99-7.508 2.757 1.84-2.145 4.904m12.326-13.48-91.904 29.48v9.64l2.168.65-2.168 2.168v4.883l31.155-10.58.764-3.622 1.654 2.932 58.331-19.939v-3.585l-1.95-.867 1.95-2.384zm10.271-94.064a3.966 3.966 0 0 0-3.973 3.977V348.36c0 1.271.601 2.384 1.524 3.11l-31.275 10.034v9.64l2.165.652-2.165 2.165v4.883l31.155-10.58.761-3.622 1.657 2.934 58.329-19.94v-3.584l-1.95-.87 1.95-2.383v-8.775l-44.867 14.392v-104.48a3.969 3.969 0 0 0-3.976-3.976zm2.152 128.665v-3.372l51.804-17.473-.307 3.372zm-31.398 10.758v-3.373l22.99-7.969v3.372zm77.098-39.39 2.756 1.84-2.145 4.904m-5.823-5.213 2.757 1.84-2.146 4.904m1.99-7.508 2.757 1.84-2.145 4.905m-75.787-105.677h11.809c2.05 0 3.7 1.65 3.7 3.7v10.056c0 2.05-1.65 3.7-3.7 3.7h-11.81c-2.05 0-3.7-1.65-3.7-3.7V243.53c0-2.05 1.65-3.701 3.7-3.701zm40.153 20.943h20.532c2.05 0 3.7 1.65 3.7 3.7v18.785c0 2.05-1.65 3.7-3.7 3.7H-95.44c-2.05 0-3.701-1.65-3.701-3.7v-18.784c0-2.05 1.65-3.701 3.7-3.701zM47.477 79.686h11.809c2.05 0 3.7 1.651 3.7 3.701v18.206c0 2.05-1.65 3.7-3.7 3.7h-11.81c-2.05 0-3.7-1.65-3.7-3.7V83.387c0-2.05 1.65-3.7 3.7-3.7zM-32.118 233.95h14.741c2.05 0 3.701 1.65 3.701 3.7v61.43c0 2.05-1.65 3.7-3.7 3.7h-14.742c-2.05 0-3.7-1.65-3.7-3.7v-61.43c0-2.05 1.65-3.7 3.7-3.7zm16.365 19.255H3.655c2.05 0 3.7 1.65 3.7 3.7v22.279c0 2.05-1.65 3.7-3.7 3.7h-19.408c-2.05 0-3.7-1.65-3.7-3.7v-22.279c0-2.05 1.65-3.7 3.7-3.7zm33.785 19.204H31.59c2.05 0 3.7 1.65 3.7 3.7v22.27c0 2.05-1.65 3.701-3.7 3.701H18.032c-2.05 0-3.7-1.65-3.7-3.7v-22.27c0-2.05 1.65-3.701 3.7-3.701zm-73.314-24.438h24.012c2.05 0 3.7 1.65 3.7 3.7v24.018c0 2.05-1.65 3.7-3.7 3.7h-24.012c-2.05 0-3.7-1.65-3.7-3.7v-24.017c0-2.05 1.65-3.701 3.7-3.701zm-45.38-31.428h24.011c2.05 0 3.701 1.651 3.701 3.701v22.279c0 2.05-1.65 3.7-3.7 3.7h-24.013c-2.05 0-3.7-1.65-3.7-3.7v-22.279c0-2.05 1.65-3.7 3.7-3.7zm-13.968-26.185h22.265c2.05 0 3.7 1.65 3.7 3.7v25.774c0 2.05-1.65 3.701-3.7 3.701h-22.265c-2.05 0-3.7-1.65-3.7-3.7v-25.774c0-2.05 1.65-3.7 3.7-3.7zm18.142-16.173h24.028c2.05 0 3.701 1.65 3.701 3.7v22.28c0 2.05-1.65 3.7-3.7 3.7h-24.029c-2.05 0-3.7-1.65-3.7-3.7v-22.28c0-2.05 1.65-3.7 3.7-3.7zm9.776-29.208h11.81c2.05 0 3.7 1.65 3.7 3.7v15.29c0 2.05-1.65 3.7-3.7 3.7h-11.81c-2.05 0-3.7-1.65-3.7-3.7v-15.29c0-2.05 1.65-3.7 3.7-3.7zm64.591-29.68h17.037c2.05 0 3.7 1.65 3.7 3.7v20.532c0 2.05-1.65 3.7-3.7 3.7h-17.037c-2.05 0-3.7-1.65-3.7-3.7v-20.531c0-2.05 1.65-3.7 3.7-3.7zm-29.665 19.204h4.817c2.05 0 3.7 1.65 3.7 3.701v15.29c0 2.05-1.65 3.7-3.7 3.7h-4.817c-2.05 0-3.701-1.65-3.701-3.7v-15.29c0-2.05 1.65-3.7 3.7-3.7zm-21.417 18.968h46.718c2.05 0 3.701 1.651 3.701 3.701v25.765c0 2.05-1.65 3.7-3.7 3.7h-46.719c-2.05 0-3.7-1.65-3.7-3.7V157.17c0-2.05 1.65-3.7 3.7-3.7zm17.92 43.879h29.256c2.05 0 3.701 1.65 3.701 3.7v24.018c0 2.05-1.65 3.7-3.7 3.7h-29.256c-2.05 0-3.7-1.65-3.7-3.7v-24.018c0-2.05 1.65-3.7 3.7-3.7zm29.683-40.156h13.54c2.05 0 3.701 1.65 3.701 3.7v18.784c0 2.05-1.65 3.701-3.7 3.701H-25.6c-2.05 0-3.701-1.65-3.701-3.7v-18.784c0-2.05 1.65-3.701 3.7-3.701zm15.698-26.185h31.004c2.05 0 3.7 1.65 3.7 3.7v32.755c0 2.05-1.65 3.7-3.7 3.7H-9.902c-2.05 0-3.7-1.65-3.7-3.7v-32.755c0-2.05 1.65-3.7 3.7-3.7zm54.594 1.283h24.344c2.05 0 3.701 1.65 3.701 3.701v21.672c0 2.05-1.65 3.701-3.7 3.701H44.691c-2.05 0-3.7-1.65-3.7-3.7V135.99c0-2.05 1.65-3.7 3.7-3.7zm-23.164-20.48h34.5c2.05 0 3.7 1.651 3.7 3.702v24.017c0 2.05-1.65 3.7-3.7 3.7h-34.5c-2.05 0-3.7-1.65-3.7-3.7v-24.017c0-2.05 1.65-3.701 3.7-3.701zm104.744-83.797h6.055c2.05 0 3.7 1.65 3.7 3.7V67.21c0 2.05-1.65 3.701-3.7 3.701h-6.055c-2.05 0-3.701-1.65-3.701-3.7V31.713c0-2.05 1.65-3.701 3.7-3.701zm50.624 29.68h22.264c2.05 0 3.7 1.65 3.7 3.7v29.26c0 2.05-1.65 3.701-3.7 3.701h-22.264c-2.05 0-3.7-1.65-3.7-3.7v-29.26c0-2.05 1.65-3.701 3.7-3.701zm-59.364 0h24.028c2.05 0 3.701 1.65 3.701 3.7v13.542c0 2.05-1.65 3.701-3.7 3.701h-24.029c-2.05 0-3.7-1.65-3.7-3.7V61.393c0-2.05 1.65-3.701 3.7-3.701zm-17.446-1.747h15.288c2.05 0 3.701 1.65 3.701 3.7v55.445c0 2.05-1.65 3.7-3.7 3.7h-15.29c-2.05 0-3.7-1.65-3.7-3.7V59.646c0-2.05 1.65-3.7 3.7-3.7zm-26.068 10.6h31.02c2.05 0 3.7 1.651 3.7 3.701v31.007c0 2.05-1.65 3.701-3.7 3.701h-31.02c-2.05 0-3.701-1.65-3.701-3.7V70.246c0-2.05 1.65-3.7 3.7-3.7zm314.227 164.096h90.351c2.05 0 3.701 1.65 3.701 3.7v17.046c0 2.05-1.65 3.7-3.7 3.7h-90.352c-2.05 0-3.7-1.65-3.7-3.7v-17.045c0-2.05 1.65-3.701 3.7-3.701zM271.815 38.818h16.058c2.05 0 3.701 1.65 3.701 3.7v24.694c0 2.05-1.65 3.701-3.7 3.701h-16.06c-2.05 0-3.7-1.65-3.7-3.7V42.518c0-2.05 1.65-3.701 3.7-3.701zm-188.86 101.22h27.16c2.05 0 3.7 1.65 3.7 3.7v7.408c0 2.05-1.65 3.7-3.7 3.7h-27.16c-2.05 0-3.7-1.65-3.7-3.7v-7.408c0-2.05 1.65-3.7 3.7-3.7zM139.73 70.91h16.058c2.05 0 3.7 1.65 3.7 3.7V94.37c0 2.05-1.65 3.7-3.7 3.7H139.73c-2.05 0-3.701-1.65-3.701-3.7V74.612c0-2.05 1.65-3.701 3.7-3.701zm-22.213 183.923h20.99c2.05 0 3.701 1.65 3.701 3.7v12.35c0 2.05-1.65 3.701-3.7 3.701h-20.991c-2.05 0-3.7-1.65-3.7-3.7v-12.35c0-2.05 1.65-3.701 3.7-3.701zm-86.402-3.7h25.923c2.05 0 3.701 1.65 3.701 3.7v28.394c0 2.05-1.65 3.701-3.7 3.701H31.113c-2.05 0-3.7-1.65-3.7-3.7v-28.395c0-2.05 1.65-3.7 3.7-3.7zm-34.572-46.911h19.755c2.05 0 3.7 1.65 3.7 3.7v32.102c0 2.05-1.65 3.7-3.7 3.7H-3.458c-2.05 0-3.7-1.65-3.7-3.7v-32.101c0-2.05 1.65-3.701 3.7-3.701zM8.89 184.478h33.328c2.05 0 3.7 1.65 3.7 3.7v23.452c0 2.05-1.65 3.701-3.7 3.701H8.89c-2.05 0-3.7-1.65-3.7-3.7v-23.453c0-2.05 1.65-3.7 3.7-3.7zm49.38-12.344h18.52c2.05 0 3.7 1.65 3.7 3.7v16.051c0 2.05-1.65 3.7-3.7 3.7H58.27c-2.05 0-3.7-1.65-3.7-3.7v-16.05c0-2.05 1.65-3.701 3.7-3.701zM38.519 207.93H59.51c2.05 0 3.701 1.65 3.701 3.7v22.223c0 2.05-1.65 3.7-3.7 3.7H38.517c-2.05 0-3.7-1.65-3.7-3.7V211.63c0-2.05 1.65-3.7 3.7-3.7zm11.101 17.28h37.047c2.05 0 3.7 1.65 3.7 3.7v33.331c0 2.05-1.65 3.701-3.7 3.701H49.619c-2.05 0-3.7-1.65-3.7-3.7V228.91c0-2.05 1.65-3.701 3.7-3.701zm29.628-19.751h18.52c2.05 0 3.7 1.65 3.7 3.7v30.866c0 2.05-1.65 3.7-3.7 3.7h-18.52c-2.05 0-3.7-1.65-3.7-3.7v-30.866c0-2.05 1.65-3.7 3.7-3.7zm13.584-13.58h24.688c2.05 0 3.7 1.65 3.7 3.7v19.758c0 2.05-1.65 3.701-3.7 3.701H92.83c-2.05 0-3.7-1.65-3.7-3.7V195.58c0-2.05 1.65-3.7 3.7-3.7zM99 130.16h30.867c2.05 0 3.7 1.651 3.7 3.702v34.572c0 2.05-1.65 3.7-3.7 3.7H99c-2.05 0-3.701-1.65-3.701-3.7v-34.572c0-2.05 1.65-3.701 3.7-3.701zm-9.877 35.803h60.484c2.05 0 3.701 1.65 3.701 3.7v7.408c0 2.05-1.65 3.7-3.7 3.7H89.122c-2.05 0-3.7-1.65-3.7-3.7v-7.407c0-2.05 1.65-3.701 3.7-3.701zm27.558 34.077h18.785c2.05 0 3.7 1.65 3.7 3.7v20.532c0 2.05-1.65 3.7-3.7 3.7H116.68c-2.05 0-3.7-1.65-3.7-3.7V203.74c0-2.05 1.65-3.7 3.7-3.7zm110.165 7.63h35.861c2.05 0 3.701 1.65 3.701 3.7v24.855c0 2.05-1.65 3.7-3.7 3.7h-35.862c-2.05 0-3.7-1.65-3.7-3.7V211.37c0-2.05 1.65-3.7 3.7-3.7zm-16.197 12.954h18.784c2.05 0 3.701 1.65 3.701 3.7v20.531c0 2.05-1.65 3.701-3.7 3.701h-18.785c-2.05 0-3.7-1.65-3.7-3.7v-20.532c0-2.05 1.65-3.7 3.7-3.7zm-29.682-17.457h3.07c2.05 0 3.7 1.65 3.7 3.7v44.97c0 2.05-1.65 3.7-3.7 3.7h-3.07c-2.05 0-3.7-1.65-3.7-3.7v-44.97c0-2.05 1.65-3.7 3.7-3.7zm20.943-22.7h24.028c2.05 0 3.7 1.651 3.7 3.701v24.026c0 2.05-1.65 3.701-3.7 3.701H201.91c-2.05 0-3.701-1.65-3.701-3.7v-24.027c0-2.05 1.65-3.7 3.7-3.7zm-40.137-68.08h34.483c2.05 0 3.7 1.651 3.7 3.701v36.241c0 2.05-1.65 3.7-3.7 3.7h-34.483c-2.05 0-3.701-1.65-3.701-3.7v-36.24c0-2.05 1.65-3.701 3.7-3.701zm-10.488-27.923h41.491c2.05 0 3.7 1.65 3.7 3.7v30.999c0 2.05-1.65 3.7-3.7 3.7h-41.49c-2.05 0-3.701-1.65-3.701-3.7V88.163c0-2.05 1.65-3.7 3.7-3.7zm-19.194 50.623h31.003c2.05 0 3.701 1.65 3.701 3.7v146.216c0 2.05-1.65 3.7-3.7 3.7H132.09c-2.05 0-3.7-1.65-3.7-3.7V138.786c0-2.05 1.65-3.7 3.7-3.7zm24.788 97.905h37.035c2.05 0 3.701 1.65 3.701 3.7v23.459c0 2.05-1.65 3.7-3.7 3.7h-37.036c-2.05 0-3.7-1.65-3.7-3.7v-23.458c0-2.05 1.65-3.701 3.7-3.701zM310.616 60.62h58.746c2.05 0 3.7 1.65 3.7 3.7v73.315c0 2.05-1.65 3.7-3.7 3.7h-58.746c-2.05 0-3.7-1.65-3.7-3.7V64.32c0-2.05 1.65-3.7 3.7-3.7zm74.35 14.814h7.406c2.05 0 3.701 1.65 3.701 3.701v14.815c0 2.05-1.65 3.7-3.7 3.7h-7.408c-2.05 0-3.7-1.65-3.7-3.7V79.136c0-2.05 1.65-3.7 3.7-3.7zM283.843 55.787h29.631c2.05 0 3.7 1.65 3.7 3.7v41.974c0 2.05-1.65 3.701-3.7 3.701h-29.63c-2.051 0-3.702-1.65-3.702-3.7V59.486c0-2.05 1.65-3.7 3.701-3.7zm145.658 58.352h98.753c2.05 0 3.7 1.65 3.7 3.7v19.758c0 2.05-1.65 3.7-3.7 3.7h-98.753c-2.05 0-3.7-1.65-3.7-3.7v-19.758c0-2.05 1.65-3.7 3.7-3.7zm0-38.607h24.688c2.05 0 3.7 1.65 3.7 3.7v24.688c0 2.05-1.65 3.701-3.7 3.701h-24.688c-2.05 0-3.7-1.65-3.7-3.7V79.232c0-2.05 1.65-3.701 3.7-3.701zm-39.504 12.344h49.383c2.05 0 3.701 1.65 3.701 3.7v54.318c0 2.05-1.65 3.701-3.7 3.701h-49.384c-2.05 0-3.7-1.65-3.7-3.7V91.576c0-2.05 1.65-3.701 3.7-3.701zm-29.617 24.688h44.44c2.05 0 3.7 1.65 3.7 3.7v61.72c0 2.05-1.65 3.7-3.7 3.7h-44.44c-2.05 0-3.7-1.65-3.7-3.7v-61.72c0-2.05 1.65-3.7 3.7-3.7zm34.56 56.776h106.146c2.05 0 3.7 1.651 3.7 3.701v24.7c0 2.05-1.65 3.7-3.7 3.7H394.942c-2.05 0-3.701-1.65-3.701-3.7v-24.7c0-2.05 1.65-3.7 3.7-3.7zm51.842-19.745h37.024c2.05 0 3.7 1.65 3.7 3.7v54.319c0 2.05-1.65 3.7-3.7 3.7h-37.024c-2.05 0-3.701-1.65-3.701-3.7v-54.318c0-2.05 1.65-3.7 3.7-3.7zm-306.626 10.197h37.035c2.05 0 3.701 1.65 3.701 3.701v23.458c0 2.05-1.65 3.7-3.7 3.7h-37.036c-2.05 0-3.7-1.65-3.7-3.7v-23.458c0-2.05 1.65-3.7 3.7-3.7zm48.145-53.076h34.563c2.05 0 3.7 1.65 3.7 3.7v32.096c0 2.05-1.65 3.7-3.7 3.7h-34.563c-2.05 0-3.701-1.65-3.701-3.7v-32.095c0-2.05 1.65-3.7 3.7-3.7zm98.75 14.81h20.979c2.05 0 3.7 1.65 3.7 3.7v27.165c0 2.05-1.65 3.7-3.7 3.7h-20.98c-2.05 0-3.7-1.65-3.7-3.7v-27.165c0-2.05 1.65-3.7 3.7-3.7zm-50.617-12.345h25.923c2.05 0 3.7 1.65 3.7 3.701v49.381c0 2.05-1.65 3.701-3.7 3.701h-25.923c-2.05 0-3.7-1.65-3.7-3.7v-49.382c0-2.05 1.65-3.7 3.7-3.7zm27.156 72.828h37.036c2.05 0 3.7 1.65 3.7 3.7v40.739c0 2.05-1.65 3.7-3.7 3.7H263.59c-2.05 0-3.7-1.65-3.7-3.7V185.71c0-2.05 1.65-3.701 3.7-3.701zm76.537-49.376h19.755c2.05 0 3.701 1.65 3.701 3.701v138.26c0 2.05-1.65 3.7-3.7 3.7h-19.756c-2.05 0-3.7-1.65-3.7-3.7v-138.26c0-2.05 1.65-3.7 3.7-3.7zm-2.471-56.777h17.283c2.05 0 3.7 1.65 3.7 3.701v11.114c0 2.05-1.65 3.701-3.7 3.701h-17.283c-2.05 0-3.701-1.65-3.701-3.7V79.556c0-2.05 1.65-3.7 3.7-3.7zm184.965 44.8h27.16c2.05 0 3.7 1.65 3.7 3.7v40.739c0 2.05-1.65 3.7-3.7 3.7h-27.16c-2.05 0-3.7-1.65-3.7-3.7v-40.738c0-2.05 1.65-3.701 3.7-3.701zm-239.466 28.361h34.516c2.05 0 3.7 1.65 3.7 3.701v48.464c0 2.05-1.65 3.7-3.7 3.7h-34.516c-2.05 0-3.7-1.65-3.7-3.7v-48.464c0-2.05 1.65-3.7 3.7-3.7zm-24.432-59.36h37.967a3.699 3.699 0 0 1 3.707 3.707v34.49a3.699 3.699 0 0 1-3.707 3.706h-37.967a3.699 3.699 0 0 1-3.707-3.706v-34.49a3.699 3.699 0 0 1 3.707-3.707zm-38.389 45.398h23.984a3.699 3.699 0 0 1 3.707 3.707v55.424a3.699 3.699 0 0 1-3.707 3.707h-23.984a3.699 3.699 0 0 1-3.707-3.707v-55.424a3.699 3.699 0 0 1 3.707-3.707zM660.713 31.452l-7.895 61.262 3.94 41.5-19.753 41.49 3.959 77.07 5.916-45.447 21.747-15.806-29.643 100.776-9.893 96.83-15.81 17.793 13.85-83.004-1.98-126.47 15.813-55.327-5.935-41.504-11.854 9.881-11.854 92.875-17.79-55.33-24.334 23.549v-15.912c0-2.05-1.651-3.7-3.701-3.7h-19.753a3.693 3.693 0 0 0-3.7 3.7v28.396c0 2.05 1.65 3.701 3.7 3.701h6.728l-20.205 19.552-23.708 84.97-14.384 3.838V89.811c0-2.05-1.65-3.7-3.7-3.7h-14.811a3.693 3.693 0 0 0-3.701 3.7v212.25l-15.479 4.13V186.435c0-2.05-1.65-3.7-3.7-3.7h-19.756a3.693 3.693 0 0 0-3.701 3.7v138.261c0 2.05 1.65 3.701 3.7 3.701h2.932l-14.352 21.869 51.371 23.717 13.834 49.402 33.598-84.97-3.955 90.895 17.789 1.98 19.768-150.191 13.83 21.741v65.208l9.875-55.327 13.833 17.783v98.806h61.266l27.663-7.901 13.834 7.901 13.83-9.88-13.83-5.926 25.684-15.813 17.789-1.97 11.854-9.88 23.708 9.88 53.37 11.851 17.77 5.932 43.476 27.667h21.745l-40.574-89-40.457-132.987 1.98 71.143-11.854-81.024-59.286-53.357-11.854 175.875-3.956-207.488-37.541-73.12 3.958 185.757L686.4 43.309zm17.79 241.084 25.686 21.74-5.918 104.732 15.793-81.015 1.978 43.47 19.768-82.993zm140.3-63.232 11.854 81.025-1.978-71.144zm-75.096-84.97 3.957 207.486 11.853-175.876zM686.399 43.31l23.726 193.659-3.958-185.757Zm-51.372 57.306 5.936 41.501-15.81 55.329 1.978 126.472-13.85 83.002 15.81-17.793 9.894-96.83 29.643-100.776-21.747 15.805-5.918 45.448-3.957-77.068 19.75-41.491-3.939-41.502zm-11.853 9.88 11.853-9.88 17.79-7.903 7.896-61.262-61.265 59.284v0m-5.917 57.307 17.79 55.328 11.853-92.873-23.726-19.762zm-61.265 59.284-3.958 67.188 13.833-49.404zm484.144 204.202-23.707-13.837-23.707 11.858-45.522-6.986-54.34-50.393 40.575 89 13.833-29.642 75.097 7.902zm-27.664 29.642 13.832-1.978-3.94-19.762-75.096-7.902 49.41 11.858zm13.832-1.978-3.94-19.762 17.772-7.902 13.85 21.74 11.854 1.977v7.903l-23.87 1.93zm-92.869 1.978 13.833-29.642 49.41 11.858 15.794 17.784-52.831 6.484zm-82.993-33.599 17.771 5.935 43.476 27.664-47.24-2.866-45.386-2.753-49.791 3.59-21.553-3.284-69.2 7.29 39.518-13.836 13.832-9.88 41.497-15.806 25.686 9.88zm-118.573 11.86-13.832-5.925 25.686-15.815 17.79-1.969 11.853-9.88 23.707 9.88 53.369 11.85-51.39 5.934-25.686-9.881zm-116.594 9.88h61.265l27.665-7.903 13.832 7.903-39.518 13.837-34.645-4.33-34.516 4.33v0zM431.48 411.528l-9.875-61.263 51.372 23.718 13.832 49.403 33.601-84.97-3.957 90.895 17.79 1.978 19.767-150.19 13.832 21.74v65.21l9.875-55.33 13.832 17.784v98.808l-5.917 13.837-38.9-3.647-12.49-8.212-17.79-1.978-67.162 21.384-73.138-5.569 35.578-13.837zm-55.328 33.598 35.578-13.837 19.75-19.761-29.643-1.979-19.75 13.837zm-822.415-69.647 1.479-3.142m.553-1.663-2.587-6.469-.924-5.73-.185-2.957m3.696 15.156-.553 1.663.738 4.25-2.217-1.108-.37.555.185 2.402-3.143.555-.923-.924 1.479-.74 1.293.37-.185-2.403-.738-.739-1.294-.555-.185 2.958-3.698 1.294-.368-.555.185-1.293 1.847.369.925-1.11-1.11-1.848-1.479-2.956-.738-4.62.185-5.176 1.294-5.175 2.032-2.402-.369-.924-4.066-.74.924-1.478 2.402.37 2.034-1.295 1.847-.37 1.664 1.48.37 1.663.185 1.663 2.032 2.957.37 4.806.554 5.728.37 2.958.74 1.848z" style="fill:none;stroke:#70b0ff;stroke-width:1.47511;stroke-linecap:round;stroke-linejoin:round;stroke-miterlimit:4;stroke-dasharray:none;stroke-opacity:.2" transform="matrix(.17937 0 0 .17937 96.743 -4.892)"/>
  </g>
</svg>
