<svg xmlns="http://www.w3.org/2000/svg" width="104.5" height="104.5">
  <path d="M52.25 4.98C26.19 4.98 4.98 26.2 4.98 52.25c0 26.05 21.22 47.27 47.27 47.27 26.05 0 47.27-21.22 47.27-47.27 0-26.05-21.22-47.27-47.27-47.27Zm-.07 4.2a3.1 3.11 0 0 1 3.02 3.11 3.11 3.11 0 0 1-6.22 0 3.11 3.11 0 0 1 3.2-3.11zm7.12 5.12a38.27 38.27 0 0 1 26.2 18.66l-3.67 8.28a2.86 2.86 0 0 0 1.44 3.75l7.06 3.13a38.27 38.27 0 0 1 .08 6.64h-3.93c-.39 0-.55.26-.55.64v1.8c0 4.24-2.39 5.17-4.49 5.4-2 .23-4.21-.84-4.49-2.06-1.18-6.63-3.14-8.04-6.24-10.49 3.85-2.44 7.85-6.05 7.85-10.87 0-5.21-3.57-8.49-6-10.1-3.42-2.25-7.2-2.7-8.22-2.7h-40.6A38.27 38.27 0 0 1 45.15 14.3l4.79 5.02a2.82 2.82 0 0 0 4 .09zM15.1 37.32a3.11 3.11 0 0 1 3.02 3.11 3.11 3.11 0 0 1-6.22 0 3.11 3.11 0 0 1 3.2-3.11zm74.15.14a3.11 3.11 0 0 1 3.02 3.11 3.11 3.11 0 0 1-6.22 0 3.11 3.11 0 0 1 3.2-3.11zm-68.29.5h5.42V62.4H15.44a38.27 38.27 0 0 1-1.24-14.61l6.7-2.98a2.832 2.832 0 0 0 1.44-3.74zm22.62.26h12.91c.67 0 4.71.77 4.71 3.8 0 2.51-3.1 3.41-5.65 3.41H43.57Zm0 17.56h9.89c.9 0 4.83.26 6.08 5.28.39 1.54 1.26 6.56 1.85 8.17.59 1.8 2.98 5.4 5.53 5.4h16.14a38.27 38.27 0 0 1-3.54 4.1l-6.57-1.41a2.84 2.84 0 0 0-3.37 2.18l-1.56 7.28a38.27 38.27 0 0 1-31.91-.15l-1.56-7.28a2.83 2.83 0 0 0-3.36-2.18l-6.43 1.38a38.27 38.27 0 0 1-3.32-3.92h31.27c.35 0 .59-.06.59-.39V63.18c0-.32-.24-.39-.59-.39h-9.15ZM29.15 81.11a3.11 3.11 0 0 1 3.02 3.11 3.11 3.11 0 0 1-6.22 0 3.11 3.11 0 0 1 3.2-3.11zm46.05.14a3.11 3.11 0 0 1 3.02 3.11 3.11 3.11 0 0 1-6.22 0 3.11 3.11 0 0 1 3.2-3.11z"/>
  <path fill-rule="evenodd" stroke="#000" stroke-linecap="round" stroke-linejoin="round" stroke-width="3" d="M96.88 52.25a44.63 44.63 0 0 1-44.63 44.63A44.63 44.63 0 0 1 7.62 52.25 44.63 44.63 0 0 1 52.25 7.62a44.63 44.63 0 0 1 44.63 44.63Zm-.84-4.31 6.96 4.31-6.96 4.31 5.98 5.59-7.66 2.87 4.78 6.65-8.09 1.32 3.4 7.46-8.19-.29 1.88 7.98-7.98-1.88.29 8.19-7.46-3.4-1.32 8.09-6.65-4.78-2.87 7.66-5.59-5.98-4.31 6.96-4.31-6.96-5.59 5.98-2.87-7.66-6.65 4.78-1.32-8.09-7.46 3.4.29-8.19-7.98 1.88 1.88-7.98-8.19.29 3.4-7.46-8.09-1.32 4.78-6.65-7.66-2.87 5.98-5.59-6.96-4.31 6.96-4.31-5.98-5.59 7.66-2.87-4.78-6.65 8.09-1.32-3.4-7.46 8.19.29-1.88-7.98 7.98 1.88-.29-8.19 7.46 3.4 1.32-8.09 6.65 4.78 2.87-7.66 5.59 5.98 4.31-6.96 4.31 6.96 5.59-5.98 2.87 7.66 6.65-4.78 1.32 8.09 7.46-3.4-.29 8.19 7.98-1.88-1.88 7.98 8.19-.29-3.4 7.46 8.09 1.32-4.78 6.65 7.66 2.87z"/>
</svg>
